<svg width="241" height="240" viewBox="0 0 241 240" fill="none" xmlns="http://www.w3.org/2000/svg">
<path d="M36.4392 101.349C40.9657 94.4978 38.2684 84.6087 49.1817 68.4636M30.2395 120.966C38.6249 101.239 46.5087 84.623 51.6172 60.0654M26.8191 132.265C37.5817 114.599 49.8783 87.6703 60.364 55.4046M30.1083 146.338C44.0846 106.641 56.3417 79.2268 66.873 48.1041M37.1994 148.238C46.9011 116.792 61.6939 87.793 68.6637 43.4367M34.0217 155.338C52.2435 111.683 65.8863 78.1328 75.6586 46.8292M35.8189 156.855C47.0471 119.168 64.3997 87.5502 79.06 37.9886M40.5455 163.672C60.5406 117.635 76.914 76.8704 90.1797 37.9438M40.1077 167.721C53.4027 134.483 66.3161 104.719 90.9504 31.761M44.874 171.316C64.2807 129.867 78.1907 84.8859 100.251 30.2143M52.4471 178.204C62.8822 126.129 84.1954 78.0121 101.91 28.616M47.6507 180.13C67.3426 148.057 73.2463 113.999 111.437 32.902M54.8174 182.699C69.5834 139.909 86.0174 101.686 109.221 37.1283M58.2283 182.264C78.1009 140.618 99.0357 89.7864 118.005 30.2819M60.2745 186.21C70.2592 154.794 84.6204 126.346 119.815 32.8946M61.2592 189.084C73.7369 153.856 93.5883 120.681 125.279 32.0444M68.2662 197.097C90.0333 133.113 111.446 83.7552 127.257 30.1494M70.1629 197.929C84.9913 159.327 94.9259 124.848 130.874 35.2579M73.1643 201.708C91.5559 155.461 106.211 109.663 137.077 29.6364M78.5621 196.117C89.0112 166.288 107.231 128.679 138.125 37.8333M82.563 205.779C112.33 142.375 135.604 77.8511 143.687 32.4153M86.4457 206.043C110.588 140.497 136.934 72.2497 152.222 38.2709M90.5864 207.949C101.769 159.851 125.694 114.11 151.896 36.183M94.3378 205.463C113.188 147.456 137.598 93.8519 158.433 39.5693M96.7926 210.237C112.018 163.812 127.374 122.979 161.708 40.817M100.722 206.004C123.73 148.375 147.453 79.4408 164.756 40.0108M103.129 208.72C124.559 147.518 150.341 90.9377 164.271 42.4245M109.989 213.455C130.302 149.186 155.636 83.0513 167.929 44.044M113.446 209.659C125.988 158.88 148.258 108.188 176.247 47.4766M116.726 208.978C129.032 174.635 146.199 135.032 175.162 53.9438M119.45 213.83C142.256 155.113 162.967 102.476 175.674 53.5355M122.137 212.589C144.51 152.794 173.053 101.595 184.925 53.6254M133.93 210.463C143.862 162.252 161.999 118.115 182.851 59.4613M139.113 211.069C157.533 162.131 175.241 114.647 190.27 61.6866M142.612 207.233C157.834 159.098 179.841 105.672 191.263 70.9021M141.401 210.889C167.118 160.503 178.735 107.302 192.442 68.2942M150.87 207.618C161.852 169.22 174.596 144.659 195.591 77.4486M155.74 202.94C175.37 160.351 186.142 113.895 201.442 78.6927M160.315 201.511C166.133 178.845 174.336 150.036 207.799 85.1857M160.382 202.067C180.141 159.288 194.627 120.035 202.374 86.7574M167.753 197.527C184.229 159.845 201.083 118.985 203.679 94.3766M177.475 196.039C184.859 160.369 195.343 132.422 211.994 103.44M184.55 187.06C186.082 166.777 196.183 144.451 211.835 104.118M192.865 179.314C198.007 159.342 202.439 145.881 212.223 127.464M36.5922 83.468V83.468Z" stroke="#FDFFA5" stroke-width="2" stroke-linecap="round"/>
<path d="M202.927 88.9489C218.679 133.07 199.965 188.535 150.546 204.84M202.927 88.9489V88.9489ZM150.11 204.752C103.83 218.338 48.1583 200.397 36.3308 151.97M34.3069 151.934C16.464 109.538 43.9131 52.6663 84.9234 34.8098M87.1246 36.1312C131.554 21.6685 186.074 40.2719 203.388 88.2935" stroke="#404040" stroke-width="2" stroke-linecap="round"/>
<path d="M107.524 81.7129C108.562 79.7074 109.354 77.1543 110.676 74.7115M107.346 81.7992C108.12 80.1709 109.021 78.0495 110.478 74.2333M110.598 87.2294C110.721 84.4456 112.333 81.6006 114.327 75.4252M109.676 87.3529C111.47 82.8479 112.846 78.4007 114.466 74.8473M112.79 92.4229C112.835 89.4196 114.506 87.2911 116.984 80.9187M111.951 92.0875C113.097 88.8281 114.798 85.6847 116.265 80.8717M110.163 86.7184C110.759 83.2086 110.167 78.2969 110.149 75.0328M109.715 87.3449C109.935 84.0314 110.084 80 110.359 74.656M112.14 91.8736C112.87 86.9948 113.841 83.1895 114.232 75.5397M112.098 92.339C113.212 87.3632 113.709 82.0059 114.393 74.7067M95.4599 85.8361C96.5617 83.9011 97.714 81.9772 98.363 78.7108M95.7543 86.1681C96.7545 83.1415 98.0266 80.1846 98.533 78.6699M98.1286 91.3293C98.5176 88.676 99.9475 85.0872 102.397 78.9205M97.9463 91.859C99.6825 87.0027 101.575 81.9791 102.896 79.0091M99.9923 96.5267C101.974 92.2646 103.807 88.1913 105.059 85.4118M100.43 96.2724C101.662 94.1099 102.32 91.817 104.809 85.133M97.5227 91.8018C97.7607 89.2671 98.8673 85.9365 98.7535 77.9191M98.0527 92.3263C97.6187 88.2866 97.87 84.8008 98.8888 78.7692M99.9904 96.2224C101.637 93.2168 101.549 89.5186 103.082 79.3612M100.506 95.8934C100.925 92.2623 101.021 89.2289 102.765 78.5487M132.61 148.266C133.353 145.189 134.559 143.283 135.204 140.489M132.509 147.931C133.752 145.446 134.597 142.762 135.286 140.282M133.94 153.97C135.365 150.866 136.42 147.84 139.463 141.419M134.802 153.954C136.527 149.651 137.89 145.063 139.124 141.884M137.311 157.783C138.769 155.101 139.821 150.758 141.448 146.594M137.008 158.073C138.378 154.578 139.861 151.119 141.573 146.931M134.392 153.851C135.064 151.02 135.07 147.729 135.332 140.741M134.319 153.922C134.671 150.882 135.03 147.615 135.598 140.653M136.855 158.503C138.015 151.528 138.828 146.166 139.309 142.462M137.402 158.258C138.032 153.345 137.897 149.063 138.86 141.728M120.508 152.761C121.253 149.935 122.368 146.949 123.311 145.675M120.358 153.097C121.212 150.856 121.886 148.86 123.362 145.264M122.496 158.169C124.3 154.712 126.449 150.278 127.16 146.026M122.459 158.011C123.543 155.533 124.714 152.472 127.353 145.815M125.425 163.379C126.461 159.608 128.023 156.985 129.923 152.43M124.949 163.199C126.489 160.105 127.492 156.356 129.652 152.21M123.135 158.259C122.953 153.808 123.699 148.877 122.932 145.375M122.839 158.373C122.953 155.441 123.207 152.406 123.158 145.332M124.703 163.053C125.467 158.491 126.697 153.033 128.069 145.698M125.108 162.99C125.522 158.373 126.25 153.699 127.208 146.067M89.6597 98.6644C90.386 96.8437 91.2382 95.8553 92.7116 91.6072M89.6875 98.8102C90.6263 96.7679 91.3402 94.3838 92.7532 91.2111M92.3305 105.331C94.5646 99.6264 96.6789 93.7881 98.2074 90.1968M91.5269 104.597C93.6453 99.9076 96.0736 93.7263 96.9857 89.7135M93.5734 109.432C95.419 104.56 98.3166 101.09 103.21 87.4844M93.9993 109.973C96.8586 101.788 99.9024 93.2121 102.429 87.8876M96.5621 116.231C99.9381 104.722 103.994 94.1187 108.151 86.1926M96.1791 115.563C99.3572 108.288 101.893 99.7405 107.512 85.6686M99.0796 120.48C103.33 107.791 108.012 95.3114 112.2 86.1329M98.6752 120.644C103.141 107.009 108.84 93.0215 112.035 85.6332M100.649 127.454C106.374 113.371 112.622 97.9953 116.687 84.1845M100.098 127.653C103.462 119.206 106.849 110.701 115.856 84.9124M101.833 132.904C107.916 118.848 112.87 105.267 120.269 84.707M102.161 133.694C107.83 120.375 112.889 106.641 120.978 84.7286M104.741 137.771C110.881 120.023 118.489 102.262 125.385 85.6495M105.241 138.525C111.537 120.336 118.325 102.013 124.939 85.281M106.622 143.893C113.434 125.293 121.081 105.865 129.222 87.0967M106.633 144.79C114.481 123.771 122.248 102.724 128.491 86.3053M108.986 149.511C116.288 130.21 125.151 108.904 131.475 90.6166M108.816 150.139C115.584 134.619 121.198 119.163 131.267 89.4773M111.242 155.879C120.72 133.055 128.608 108.385 133.258 94.289M111.093 155.886C116.481 142.677 121.554 129.095 133.429 95.0969M114.544 159.039C121.895 139.449 127.238 123.042 132.722 112.948M114.503 158.176C120.562 140.42 127.131 123.248 131.836 112.097M119.787 155.85C124.233 142.873 130.254 129.943 135.349 113.304M119.21 156.024C126.039 138.447 132.05 121.72 135.527 112.411M124.628 153.922C128.566 146.037 131.245 137.185 139.596 114.541M124.801 154.658C130.234 139.323 135.305 124.437 139.171 113.884M129.139 152.615C131.634 145.197 136.316 137.679 142.604 117.274M130.136 152.284C132.072 144.554 134.975 138.154 142.952 117.772M134.84 149.814C137.454 142.168 142.176 131.098 146.015 119.992M134.635 150.142C137.917 142.372 141.315 133.601 146.602 120.021M140.104 147.548C141.735 141.91 144.291 133.608 146.87 130.003M139.414 148.879C140.85 144.03 142.331 139.882 146.435 129.549M91.6178 104.473C92.0261 100.48 92.1851 95.8668 92.3533 91.9766M92.1318 104.847C92.0541 100.198 92.4266 96.3338 92.5651 90.9859M94.7817 110.743C95.5646 103.148 97.473 95.3547 98.0176 89.7893M94.4315 109.517C94.6478 104.202 95.8232 98.406 97.3486 89.9555M95.7564 116.837C96.5979 108.78 98.8299 103.637 103.047 86.4834M96.4738 115.585C97.4739 109.047 99.1637 101.799 102.397 87.6883M97.941 122.153C101.449 110.278 104.258 98.2609 106.779 86.9653M98.324 121.368C100.393 112.171 102.974 104.053 107.214 86.3913M100.043 127.625C105.569 112.615 109.033 97.1289 111.845 86.2129M100.086 127.39C104.006 114.494 107.167 100.281 112.293 85.9211M103.456 133.48C104.511 122.654 107.84 112.388 115.353 85.2696M102.104 133.237C107.881 115.059 113.469 95.6432 116 85.2044M104.042 139.208C111.119 118.079 117.232 96.2218 120.298 83.8486M104.311 138.461C109.772 120.21 115.801 102.334 121.097 84.8177M106.275 145.363C110.946 125.978 117.36 109.365 124.343 86.0312M106.936 144.69C113.345 123.288 119.492 102.804 124.964 84.8066M108.659 149.416C112.345 135.272 117.609 121.479 128.761 87.1552M109.62 149.841C115.618 127.703 121.91 106.836 128.814 86.4829M111.813 156.272C117.597 131.986 126.082 109.882 132.821 90.3817M111.179 155.581C117.599 134.66 123.634 114.477 131.744 89.5194M113.684 158.235C121.157 138.235 126.25 118.331 133.147 94.936M115.176 158.503C119.486 144.443 123.81 129.99 133.439 94.6923M119.799 155.532C123.004 142.98 127.109 132.1 130.817 111.651M119.23 155.991C124.489 139.104 128.764 121.927 131.426 112.52M124.84 154.49C127.791 140.266 132.469 124.148 136.456 112.564M124.51 154.962C128.895 137.748 133.597 122.587 135.427 112.416M130.535 151.807C132.593 141.268 136.096 132.185 139.89 114.177M129.557 151.796C131.425 142.405 134.372 133.217 139.575 114.613M134.139 151.39C136.545 138.492 141.245 126.807 142.971 116.544M134.936 150.875C136.696 143.547 138.514 136.438 142.952 117.789M139.015 147.653C140.637 139.211 143.455 131.293 145.937 120.836M139.579 148.137C141.32 140.801 143.441 132.602 145.971 119.911M107.592 104.229C108.252 103.065 108.819 101.495 110.049 97.5633M107.806 104.312C108.678 102.201 109.23 100.065 110.277 97.8882M110.107 110.734C111.693 105.771 112.586 101.662 114.14 98.4781M109.466 110.334C111.724 106.008 113.302 101.15 114.499 98.5547M112.145 113.581C114.251 108.699 115.945 102.736 118.579 99.3287M112.552 114.21C115.055 108.51 116.868 103.464 118.123 99.1102M117.116 113.309C118.371 110.672 118.969 107.169 120.267 104.855M117.028 113.338C118.296 110.273 119.155 107.433 120.538 105.002M109.068 110.269C109.555 106.791 109.841 103.179 109.936 98.4795M109.743 110.555C109.941 106.846 109.766 102.638 110.189 98.0815M112.866 114.363C113.835 109.496 113.796 103.247 114.892 98.418M112.524 114.105C113.219 109.887 113.685 106.572 114.153 98.747M116.393 113.174C117.911 108.446 116.935 105.074 119.06 98.6298M116.951 113.172C117.755 109.839 117.705 106.519 118.149 98.9465M116.825 130.644C117.12 128.556 117.834 127.497 119.139 122.574M116.724 130.44C117.507 128.722 117.996 126.743 119.717 122.669M118.676 135.195C120.912 130.052 123.362 125.664 124.268 121.743M119.286 135.077C121.09 131.202 122.043 126.974 124.258 121.863M121.325 141.315C123.743 135.635 125.741 130.799 128.277 122.641M121.617 140.363C123.508 134.5 126.152 127.564 127.511 123.492M126.566 137.662C127.311 135.864 129.509 132.276 131.808 124.563M126.669 138.292C127.935 134.311 129.539 130.049 131.922 125.184M119.164 135.948C119.245 131.529 119.87 127.061 119.713 123.134M119.225 135.165C119.062 130.912 119.69 125.855 119.655 122.702M121.79 140.315C122.437 136.277 122.238 131.611 123.588 123.293M121.323 140.97C122.633 133.759 123.581 128.197 123.793 122.234M126.996 137.81C126.38 135.005 127.693 130.726 127.875 124.398M126.391 138.143C127.054 132.936 127.625 128.222 127.742 123.558M105.572 75.8439V75.8439ZM93.3931 80.8955V80.8955ZM130.295 142.754V142.754ZM118.467 146.869V146.869ZM87.8051 92.6848V92.6848ZM105.366 99.2566V99.2566ZM114.813 124.147V124.147Z" stroke="#837132" stroke-width="2.5" stroke-linecap="round"/>
<path d="M111.541 90.9863C109.86 86.9991 107.969 82.4532 105.14 75.4057M105.92 76.1334C106.765 75.8574 108.153 74.984 111.675 73.9901M110.767 73.6562C113.163 78.9052 115.645 82.568 117.644 88.5124M117.297 89.5286C115.074 90.3391 113.456 90.9713 111.258 91.7628M99.76 95.7867C97.6374 90.3524 95.2437 84.2679 92.9069 79.9985M93.7527 80.4801C95.3915 79.4213 96.9839 78.9947 99.4713 78.087M99.0978 78.6201C101.456 81.4824 101.642 84.7437 105.09 94.259M105.525 93.7901C103.86 94.3045 103.1 94.7174 99.4681 95.9094M136.651 157.638C134.318 153.685 132.241 149.133 130.648 142.94M130.476 142.739C131.962 141.68 134.041 141.143 136.566 140.07M136.878 139.268C138.027 143.913 139.742 147.16 141.47 155.655M142.197 155.97C140.807 156.545 139.262 156.592 136.375 157.859M123.347 162.294C122.246 156.253 120.435 150.691 119.059 147.126M118.532 146.776C120.237 146.4 121.676 145.751 124.137 144.726M124.252 143.986C126.466 149.116 128.038 153.864 130.657 160.141M130.099 160.68C128.345 161.21 125.86 162.005 123.924 162.47M112.739 157.844C104.14 135.66 94.774 112.063 86.9761 92.7621M87.4438 93.5802C92.9827 91.4438 96.9611 88.6797 103.235 86.4191M103.162 87.2045C109.186 84.7893 113.895 84.7367 116.715 84.4298M116.627 84.0196C119.818 83.9332 124.194 84.8761 125.998 85.4679M126.365 86.2231C129.399 88.6325 131.877 91.2918 131.77 95.0925M132.624 94.7481C133.451 97.4768 134.445 98.6738 134.88 102.389M134.177 101.649C134.762 104.52 133.877 106.429 133.389 106.871M133.383 107.479C133.348 109.695 131.339 110.791 129.653 111.414M130.159 111.445C130.193 111.592 130.267 111.756 130.336 111.912M130.321 111.902C131.573 111.121 134.121 112.833 135.717 113.142M135.837 112.404C137.572 112.265 138.488 114.602 141.622 116.121M140.912 115.837C142.583 116.686 143.491 121.017 146.269 123.526M145.194 123.461C146.714 128.371 147.508 131.685 145.863 134.464M146.438 134.474C145.056 137.604 143.45 140.986 142.019 143.508M141.539 143.58C139.563 146.739 135.486 148.652 131.681 149.93M131.561 149.168C123.656 151.907 119.063 154.886 110.857 157.595M114.197 112.084C116.949 111.525 118.96 109.55 120.073 107.116M114.197 112.084V112.084ZM119.697 107.877C120.046 107.169 120.677 103.396 119.079 101.4M119.357 101.753C118.316 98.9604 116.563 98.2174 116.153 96.6971M115.306 97.2201C112.886 95.9303 110.98 97.5347 107.268 98.0612M108.147 98.0692C107.115 98.389 106.337 98.7952 105.412 99.2096M105.172 99.2862C107.176 103.027 107.372 106.282 110.951 113.851M110.684 113.376C111.941 112.89 113.307 112.459 114.318 112.127M114.866 124.116C116.936 128.208 118.701 132.594 121.703 141.115M121.234 140.919C122.843 140.273 124.226 139.644 125.721 139.33M125.466 139.233C128.85 137.882 130.913 135.441 131.667 135.278M131.067 134.476C131.081 132.455 132.416 129.874 131.47 127.473M130.571 127.386C129.87 125.11 129.805 124.67 127.209 123.212M128.183 123.461C127.123 121.964 125.9 121.455 125.355 122.156M124.353 121.715C122.901 121.108 121.343 120.896 117.591 122.185M118.893 122.592C117.931 123.146 116.812 123.419 114.725 124.357M111.336 91.5296V91.5296ZM99.3753 95.9974V95.9974ZM136.194 158.079V158.079ZM124.233 162.546V162.546ZM111.679 157.193V157.193ZM114.811 124.152V124.152Z" stroke="#404040" stroke-width="2" stroke-linecap="round"/>
</svg>
