<svg id="vuesax_linear_menu-board" data-name="vuesax/linear/menu-board" xmlns="http://www.w3.org/2000/svg" width="44.887" height="44.887" viewBox="0 0 44.887 44.887">
  <g id="menu-board">
    <path id="Vector" d="M39.151,5.237l-6.3,25.305a4.166,4.166,0,0,1-4.077,3.2H4.2a4.221,4.221,0,0,1-4-5.48L8.067,2.974a4.209,4.209,0,0,1,4-2.974h23a4.175,4.175,0,0,1,3.872,2.581A4.13,4.13,0,0,1,39.151,5.237Z" transform="translate(1.865 7.406)" fill="none" stroke="#f72f56" stroke-width="2.5"/>
    <path id="Vector-2" data-name="Vector" d="M0,29.925H8.94a4.144,4.144,0,0,0,4.133-4.451L11.222,0" transform="translate(29.925 11.222)" fill="none" stroke="#f72f56" stroke-linecap="round" stroke-linejoin="round" stroke-width="2.5"/>
    <path id="Vector-3" data-name="Vector" d="M0,8.08,1.945,0" transform="translate(18.104 3.853)" fill="none" stroke="#f72f56" stroke-linecap="round" stroke-linejoin="round" stroke-width="2.5"/>
    <path id="Vector-4" data-name="Vector" d="M0,8.117,1.758,0" transform="translate(30.636 3.834)" fill="none" stroke="#f72f56" stroke-linecap="round" stroke-linejoin="round" stroke-width="2.5"/>
    <path id="Vector-5" data-name="Vector" d="M0,0H14.962" transform="translate(14.401 22.444)" fill="none" stroke="#ffa31d" stroke-linecap="round" stroke-linejoin="round" stroke-width="2.5"/>
    <path id="Vector-6" data-name="Vector" d="M0,0H14.962" transform="translate(12.531 29.925)" fill="none" stroke="#ffa31d" stroke-linecap="round" stroke-linejoin="round" stroke-width="2.5"/>
    <path id="Vector-7" data-name="Vector" d="M0,0H44.887V44.887H0Z" fill="none" opacity="0"/>
  </g>
</svg>
