<?xml version="1.0" encoding="UTF-8" standalone="no"?>
<svg
   xmlns:dc="http://purl.org/dc/elements/1.1/"
   xmlns:cc="http://creativecommons.org/ns#"
   xmlns:rdf="http://www.w3.org/1999/02/22-rdf-syntax-ns#"
   xmlns:svg="http://www.w3.org/2000/svg"
   xmlns="http://www.w3.org/2000/svg"
   xmlns:sodipodi="http://sodipodi.sourceforge.net/DTD/sodipodi-0.dtd"
   xmlns:inkscape="http://www.inkscape.org/namespaces/inkscape"
   width="1024px"
   height="1024px"
   viewBox="0 0 1024 1024"
   version="1.1"
   id="svg6"
   sodipodi:docname="bulb.svg"
   inkscape:version="0.92.5 (2060ec1f9f, 2020-04-08)">
  <metadata
     id="metadata12">
    <rdf:RDF>
      <cc:Work
         rdf:about="">
        <dc:format>image/svg+xml</dc:format>
        <dc:type
           rdf:resource="http://purl.org/dc/dcmitype/StillImage" />
      </cc:Work>
    </rdf:RDF>
  </metadata>
  <defs
     id="defs10" />
  <sodipodi:namedview
     pagecolor="#ffffff"
     bordercolor="#666666"
     borderopacity="1"
     objecttolerance="10"
     gridtolerance="10"
     guidetolerance="10"
     inkscape:pageopacity="0"
     inkscape:pageshadow="2"
     inkscape:window-width="1366"
     inkscape:window-height="740"
     id="namedview8"
     showgrid="false"
     inkscape:zoom="0.23046875"
     inkscape:cx="516.33898"
     inkscape:cy="512"
     inkscape:window-x="1366"
     inkscape:window-y="0"
     inkscape:window-maximized="1"
     inkscape:current-layer="svg6" />
  <circle
     data-name="Background (DON'T CHANGE COLOR)"
     cx="512"
     cy="512"
     r="512"
     style="fill:#fda31f;fill-opacity:0.94117647"
     id="circle2" />
  <path
     d="m781.49 428.6-27-14.84-242.8-134.9a28.89 28.89 0 0 0-26.44 0l-242.82 134.9a27 27 0 0 0 0 46.95l67.18 37.23v127.88a80.94 80.94 0 0 0 80.94 80.94h215.84a80.94 80.94 0 0 0 80.94-80.94V497.94l54-30.22v77.16a27 27 0 1 0 54 0v-92.81a27 27 0 0 0-13.84-23.47zM633.37 625.82a27 27 0 0 1-27 27H390.55a27 27 0 0 1-27-27v-97.94l121.68 67.45a26.81 26.81 0 0 0 13.22 3.2 28.86 28.86 0 0 0 11.08-2.15 12.68 12.68 0 0 0 1.58-.74c.36-.19.55-.31.55-.31l121.68-67.45zm-134.9-84.72L311.23 437l187.24-104.18L685.71 437z"
     style="fill:#fce8cb;fill-opacity:0.94117647"
     id="path4" />
  <circle
     style="opacity:1;vector-effect:none;fill:none;fill-opacity:0.94117647;fill-rule:nonzero;stroke:#fce8cb;stroke-width:70;stroke-linecap:butt;stroke-linejoin:miter;stroke-miterlimit:4;stroke-dasharray:none;stroke-dashoffset:0;stroke-opacity:0.94117647;paint-order:normal"
     id="path824"
     cx="512.33899"
     cy="512"
     r="416.54236" />
</svg>
