<svg width="134" height="166" viewBox="0 0 134 166" fill="none" xmlns="http://www.w3.org/2000/svg">
<mask id="mask0_147_1043" style="mask-type:alpha" maskUnits="userSpaceOnUse" x="24" y="11" width="99" height="143">
<path d="M33.5593 130.714L33.5599 130.711L35.9389 121.09L77.2087 131.406L74.774 141.012L74.7732 141.016C74.6247 141.61 74.2872 142.372 73.8403 143.12C73.3936 143.867 72.8814 144.526 72.4288 144.94L66.0839 150.721C65.2608 151.47 64.0219 152.081 62.6606 152.426C61.2991 152.77 59.9218 152.819 58.8478 152.551L42.1908 148.387C41.1122 148.118 39.9183 147.425 38.8782 146.48C37.8382 145.536 37.0329 144.413 36.6588 143.365L36.6587 143.365L33.7652 135.273C33.7651 135.273 33.765 135.273 33.7649 135.273C33.2491 133.809 33.181 132.227 33.5593 130.714ZM80.1045 120.894L38.3331 110.453C37.7728 100.709 33.4996 88.5125 30.3198 82.3328C25.1912 72.3463 23.5181 60.556 26.4532 48.8137C32.5472 24.4347 57.4437 7.43331 84.44 14.0936C110.261 20.4645 125.967 46.5728 119.588 72.0942C116.589 84.0903 109.578 93.6855 100.419 99.844L100.419 99.8439L100.407 99.8517C94.694 103.808 85.1825 112.56 80.1045 120.894ZM52.382 55.2979C55.1637 44.1697 66.7271 37.2147 78.1178 40.062C80.9542 40.771 83.923 39.3303 84.6722 36.3334C85.403 33.4098 83.6279 30.45 80.7032 29.7189C63.4991 25.4185 46.0447 35.6655 41.7385 52.8928C41.0104 55.8055 42.7948 58.7792 45.7075 59.5073C48.6542 60.2439 51.6026 58.4162 52.382 55.2979Z" fill="#FFF974" stroke="black" stroke-width="2"/>
</mask>
<g mask="url(#mask0_147_1043)">
<path d="M33.952 125.102C36.5498 124.133 38.9701 123.024 41.0224 120.503M34.0607 125.789C35.4896 124.253 37.2638 123.72 40.7278 121.044M32.373 130.926C37.4954 128.776 39.054 126.617 46.3982 123.175M32.9281 131.143C35.7978 129.891 39.3223 127.451 45.1379 123.279M35.5858 133.805C42.3984 131.828 46.474 124.484 52.2361 123.42M35.1386 134.985C39.562 133.034 44.1821 128.64 50.2899 122.452M37.5456 140.382C41.2109 136.365 45.0112 131.121 56.2301 126.528M34.9901 139.482C42.7338 134.373 48.09 130.069 55.7394 126.209M36.2285 143.356C44.3538 137.218 52.0255 133.261 61.126 125.015M36.6461 142.978C45.0569 137.624 52.1885 131.352 61.5433 127.239M38.302 145.424C46.4502 141.364 54.2176 133.939 64.01 128.852M37.4637 147.197C47.8058 140.002 57.98 133.793 66.6714 127.515M40.799 149.277C48.5465 146.464 52.9727 141.047 70.9242 129.659M40.9614 149.764C50.3498 143.381 59.9193 136.413 72.3138 127.893M45.4012 151.177C55.4065 147.017 62.3919 142.371 77.8826 129.739M45.1075 151.731C56.485 144.576 69.1959 135.962 76.4943 131.008M50.9525 152.55C55.7112 147.549 61.7527 142.425 78.2038 133.281M49.7289 153.726C59.8434 147.663 67.6849 140.722 79.9011 133.211M56.3044 153.463C58.7911 150.675 65.7683 146.387 73.5805 141.772M55.5216 154.511C61.564 150.485 67.6519 146.865 72.1346 143.181M33.3419 130.174C34.2457 128.275 35.5636 127.128 41.0988 121.679M32.5122 130.915C36.306 127.903 38.2741 123.987 40.4764 120.846M35.0975 134.698C36.9779 131.323 40.3934 126.161 45.9026 124.292M34.1998 135.314C37.8467 130.473 41.6824 126.276 44.6627 121.809M36.5031 137.175C41.2236 133.884 45.2044 127.145 51.696 122.478M35.019 139.423C40.8085 133.383 46.2635 129.113 50.2538 122.544M35.6731 142.273C41.9919 135.087 50.2807 132.403 54.6307 125.203M37.066 141.697C44.9005 136.229 51.6756 128.926 55.2393 125.49M39.3375 147.998C44.515 142.578 46.8103 137.606 61.3112 127.038M38.2469 148.066C45.9894 139.692 55.9793 130.709 61.8023 125.391M40.4495 149.188C48.2684 143.558 56.4871 136.301 66.7797 129.633M40.9033 150.521C50.7677 141.433 59.5762 132.434 66.1012 127.701M45.3125 150.939C54.7211 145.333 58.799 137.913 70.9231 127.116M44.479 151.55C55.9627 142.914 64.8275 134.932 70.6744 128.197M50.4073 152.739C62.8218 142.669 70.7543 136.002 76.8163 129.608M50.0268 153.564C57.0877 147.501 64.539 141.522 75.5871 130.887M55.4216 156.315C64.2731 147.872 70.3038 139.615 81.5205 132.292M55.0251 153.982C65.1639 146.369 73.528 137.433 80.7065 132.738M40.5157 26.7224C47.8133 25.7691 52.5969 19.9175 56.5765 18.0822M42.8355 27.8714C44.8767 25.1887 47.9895 23.1955 56.164 18.2789M36.68 35.0077C49.0664 28.7863 59.7904 18.9229 63.6751 18.0144M37.7135 35.2131C47.4449 29.8623 56.6937 22.0225 65.5656 16.1017M33.1601 45.751C40.5541 38.5354 49.0746 31.9231 73.4004 16.1457M32.0184 44.2951C42.0622 36.5672 51.4877 30.35 72.9547 15.6425M25.7657 50.4067C42.1958 43.9345 53.9895 31.8523 82.0467 13.4855M26.8206 53.2464C47.3062 37.5934 67.9485 23.3661 83.163 13.9106M24.2718 57.1445C43.498 45.9658 61.2326 33.7522 88.4763 15.0323M24.4324 57.8693C46.6007 43.3817 67.5472 29.5092 87.1917 15.7034M25.1167 63.0349C40.4777 52.6329 56.3201 43.0035 89.3134 16.7867M26.504 63.0153C50.4488 45.3735 74.7046 28.6682 90.7256 18.1016M26.0129 68.5041C42.8721 54.5919 58.6499 44.9152 96.5698 19.0256M27.4481 66.931C48.7435 52.8451 70.7146 37.2773 94.096 20.025M27.0015 72.0683C44.2989 60.884 61.9865 47.7038 97.7653 24.5231M27.6761 71.8276C51.0113 55.6731 74.6713 38.4671 97.3552 22.0337M28.0266 73.4875C43.0638 64.5638 60.737 54.3067 100.168 22.8534M29.3728 76.0262C52.1042 58.7847 75.5478 43.8842 100.932 23.8486M30.212 81.0744C57.1746 60.6858 87.2278 38.47 104.133 25.2948M29.9771 78.9843C54.1235 63.583 76.9937 46.2381 106.142 26.9674M31.159 83.8251C55.7762 66.8194 81.3985 48.127 111.504 28.9798M30.8422 82.4375C62.4663 61.5985 93.3994 41.1985 110.036 28.4847M31.7141 87.6771C53.5105 72.1488 75.2821 54.4792 112.582 33.3904M32.6675 87.6424C58.6477 69.6878 85.3727 51.8131 110.851 32.2907M35.3757 92.1533C60.0424 74.4872 86.1125 54.9113 111.076 36.9395M33.2566 92.0738C55.826 76.8241 75.6317 62.292 113.239 37.1133M32.3352 95.8225C64.9657 72.5236 97.3038 52.9998 115.307 41.6718M34.8521 97.2107C64.4029 75.097 93.6447 54.5901 114.883 41.1787M35.5928 99.8577C59.2422 83.644 82.5227 65.3267 116.283 43.5073M35.1384 100.735C58.6508 83.8791 82.4703 65.951 116.05 44.1437M34.9234 105.264C62.4075 85.1919 92.2822 66.6256 115.659 47.436M35.8221 104.513C60.2444 89.5475 82.8991 72.7706 115.914 48.5019M37.2237 110.878C62.7067 90.4367 91.6518 71.0124 117.579 52.0504M37.0379 108.643C68.1554 86.9292 100.619 65.8306 119.117 52.3064M40.3296 111.724C67.0419 91.4902 98.7872 73.2569 121.154 55.0246M38.3048 112.268C55.1298 101.542 72.2641 89.3476 120.063 57.2329M44.1362 115.744C62.631 102.169 81.2843 85.5935 123.042 59.7422M42.3378 114.869C68.8161 96.769 94.4285 78.7584 121.55 60.411M49.8678 114.699C78.3704 95.3492 105.284 76.389 122.426 65.112M48.8389 115.989C76.8203 96.5994 103.83 77.9539 123.692 63.2593M55.4962 116.79C78.1528 98.0681 106.671 80.5402 120.455 68.5201M52.9395 117.391C76.5511 100.61 100.983 84.2501 120.776 70.1716M60.0911 119.848C72.3729 108.174 87.028 95.3764 116.73 76.6721M58.5935 118.366C71.1624 109.325 83.7183 99.4054 118.166 75.7553M62.9445 120.334C73.643 111.872 85.6758 105.835 116.982 83.2923M64.4443 118.803C79.3043 108.12 97.8595 96.2198 115.847 81.8189M69.6324 122.48C78.2707 113.957 88.5688 106.64 111.975 89.7431M68.4668 120.861C80.425 113.05 91.378 104.134 112.901 89.0128M75.8512 122.739C81.5033 116.722 87.5417 115.517 99.322 106.237M73.99 121.618C80.7259 116.843 86.8129 112.995 99.1963 104.36M35.0952 36.6761C43.2364 32.6144 45.474 26.5715 55.1966 16.1971M37.4643 35.8506C42.3209 30.7928 45.9275 26.7384 55.5622 17.2691M30.339 43.2624C43.4271 34.7348 56.3845 20.0452 63.3843 15.1967M31.277 44.4548C41.563 36.5729 51.6977 29.2802 65.1594 16.2388M27.2353 51.2951C39.7474 42.9179 51.132 31.5774 72.6881 15.4753M27.1932 53.6825C42.1289 39.6664 58.9718 26.1676 72.7616 15.5031M24.5661 60.4607C45.0356 45.2492 61.1072 31.4366 82.3206 14.26M24.1842 58.4043C42.4756 43.6462 60.3148 31.3129 82.3928 13.1188M24.1141 63.6972C43.2877 49.4914 62.1423 37.122 85.3223 15.3901M24.6695 63.4601C46.385 47.0719 66.6605 31.7837 87.5655 15.1098M28.179 66.1149C46.017 52.88 67.414 37.8623 89.0717 18.0565M27.1839 67.8748C46.2886 52.2477 68.5083 35.486 90.1819 18.3352M26.2987 69.6334C42.77 58.7427 60.7705 47.2135 94.6535 20.0331M28.6728 71.9241C48.0936 55.6696 68.9049 38.533 94.6898 19.5808M27.6061 74.1173C51.4705 58.809 71.5942 44.0642 96.9066 23.9838M28.687 74.5243C46.9634 62.9259 63.7145 50.2437 96.9924 23.5327M28.7641 80.1028C43.3736 69.7698 57.827 56.9737 101.168 22.8308M31.0211 79.5818C54.764 61.0017 77.8616 43.3421 101.366 25.5279M30.0697 85.0976C59.8265 60.0863 90.9702 36.8834 105.935 28.7405M31.9258 83.9076C51.0556 69.4498 71.0675 54.5419 105.653 27.7677M32.7125 88.5384C61.7092 66.6322 88.7345 45.7125 107.833 29.7942M31.6133 88.443C62.4826 66.0826 94.4987 41.5622 109.855 28.1213M32.0121 92.4554C59.5131 72.1439 90.5431 49.706 111.835 31.9854M33.5713 92.2722C63.3453 69.3805 92.7549 47.7331 112.547 31.6937M35.0411 95.7398C64.3111 72.7974 95.0834 51.3588 114.538 36.8401M34.7963 96.1162C60.4365 74.3974 87.6305 54.4174 111.986 36.7944M35.9842 101.81C56.5236 84.4171 82.9492 66.1176 115.561 39.3367M33.8684 101.386C56.8362 85.122 79.5224 68.3271 114.214 39.2939M34.3443 104.97C67.9522 81.8325 93.8583 60.3053 114.963 44.7476M35.9151 105.235C63.8218 83.8407 93.2795 63.0464 116.344 44.2248M36.8703 107.551C50.5277 97.9824 70.5269 83.1483 117.429 49.2898M37.2578 109.47C60.2012 90.0261 84.5244 73.0445 116.937 49.1091M37.1801 110.895C68.5983 91.4505 99.3536 67.8186 119.389 52.5924M38.6742 111.982C60.5662 96.4107 81.7175 80.252 117.96 51.2412M43.0336 114.721C67.2299 94.7346 92.4469 79.057 119.318 54.7498M42.8827 113.801C65.0337 97.9404 87.3385 80.6289 120.091 56.59M47.7637 115.655C69.758 101.707 88.9019 83.7487 122.434 58.9316M47.8139 115.591C78.8422 92.4486 106.166 71.8907 120.487 59.3193M55.2795 116.498C79.7832 97.367 107.415 75.8775 122.25 65.7386M53.5139 117.176C79.3103 97.0173 105.384 78.1545 122.345 63.8019M58.6033 116.275C75.3406 102.886 96.9791 88.6274 121.976 71.9769M59.6916 117.94C79.5279 102.319 99.3511 87.0979 120.794 70.6048M64.2194 121.334C74.4566 108.973 86.0433 103.623 116.568 76.1352M64.6242 120.098C79.0402 107.202 97.2237 94.7756 118.966 76.4296M68.0044 118.775C82.3066 112.425 91.678 103.1 117.415 81.693M70.2399 120.805C82.0054 109.797 94.513 98.7822 115.658 83.1638M75.6635 121.003C84.3461 113.116 94.0229 107.979 112.009 90.1451M74.9218 122.365C87.8099 109.103 102.555 98.0983 113.173 89.0164M50.7366 42.5019C57.7588 39.1552 62.0738 34.5985 66.0071 34.6798M51.8273 42.1733C55.151 39.8833 57.6784 38.051 65.7694 33.4164M44.9302 51.4103C58.7868 44.7844 66.7905 35.3011 73.0595 31.9695M45.7938 51.1062C57.4159 42.9644 68.0059 35.5159 73.8814 30.6777M44.4534 59.6312C54.2908 48.9038 65.3408 41.8173 80.5679 32.313M43.9796 58.8398C55.068 49.1433 67.3766 40.6903 81.7524 31.0665M67.9245 46.9714C69.5169 44.153 74.5202 42.9601 80.5039 39.0644M67.698 45.7061C71.4851 42.9094 75.5114 41.0085 79.3231 37.8454M47.7808 53.4645C52.8845 46.7132 59.3596 38.5586 64.7508 32.0145M47.5541 50.7863C54.5739 44.3732 61.7517 37.5833 64.9178 33.5355M43.4229 57.001C53.875 49.0301 67.4286 38.9266 72.8792 31.8559M43.4429 57.5331C51.007 50.6455 58.3115 44.9049 73.7673 31.6152M67.2832 45.0074C71.5689 40.0472 75.3585 35.9175 81.2974 32.6413M67.7355 45.0504C73.6774 41.0533 79.3247 34.31 82.2824 31.5758M34.9488 120.058V120.058ZM47.1812 18.894V18.894ZM56.6898 34.236V34.236Z" stroke="#FFF974" stroke-width="1.5" stroke-linecap="round"/>
</g>
<path d="M32.5892 130.471C32.3955 131.885 34.063 133.046 31.0505 135.36M32.5892 130.471V130.471ZM30.9053 130.767C30.3405 131.121 30.8711 133.637 31.2341 135.236M33.4118 136.286C33.3918 138.718 35.4061 142.025 36.2039 144.243M33.1744 135.774C33.8493 137.373 34.2281 139.022 35.5949 143.857M35.7171 143.702C37.3211 145.769 41.1603 149.355 40.3997 149.331M37.4888 142.76C37.0327 146.049 39.2372 149.984 42.1779 151.532M43.2125 148.002C45.6059 150.748 52.2261 152.106 59.5186 152.058M42.6829 149.177C48.8081 150.334 53.7842 152.609 58.2416 153.542M58.6054 153.521C60.8718 152.386 66.0636 154.301 67.4931 149.588M60.7727 152.038C61.154 156.48 65.3526 153.781 68.8387 151.886M66.9733 150.8C69.2904 149.251 71.8238 147.431 72.7539 144.748M66.9688 151.807C68.3108 150.47 69.4698 148.913 72.8259 145.489M73.1039 145.678C73.3636 144.427 72.9981 144.005 74.6958 140.315M71.1921 145.363C72.4844 146.142 76.8478 141.804 73.8518 140.575M76.3772 141.312C77.2934 138.845 77.2834 137.793 78.5317 131.827M76.2452 140.827C75.9939 138.977 77.0148 136.974 78.8508 130.287M79.3629 131.59C65.6752 128.57 56.6393 125.61 34.1561 120.191M78.8202 130.015C70.1634 128.553 60.6755 126.822 36.1855 119.719M35.2957 120.621C35.0009 122.905 33.5929 127.116 31.6531 130.425M35.668 119.835C34.9934 123.094 34.3491 125.646 32.7398 130.249M84.6796 13.1226C56.7222 5.39741 33.0645 25.8696 24.2121 48.2501M84.6796 13.1226V13.1226ZM83.3355 13.17C58.3907 6.85315 34.0759 22.8315 25.9219 47.828M25.4832 48.5711C22.5737 62.2959 23.8568 71.492 31.439 81.5029M26.8439 49.008C20.2835 62.128 24.1021 71.1435 29.9609 84.9152M29.4303 82.7895C33.7239 91.3111 36.4614 102.875 36.0661 112.554M29.593 83.4838C30.3218 90.2524 38.2967 100.028 38.0763 110.119M37.3606 111.016C36.0134 110.652 38.7813 112.987 37.4878 112.761M35.0935 112.436C38.035 112.414 36.7186 109.569 37.5933 113.272M36.3235 110.298C54.848 116.925 68.1322 119.948 82.3029 122.934M36.9156 111.045C49.5171 115.477 63.1494 117.388 80.9558 122.177M80.6113 122.051C82.0273 122.32 79.0313 122.245 80.8844 121.759M78.8985 120.728C80.6217 122.901 80.1104 122.197 81.8499 122.655M80.6979 121.849C86.8934 113.625 96.5481 102.935 102.088 102.176M79.8735 121.637C84.373 115.035 94.2194 104.705 99.5033 101.851M100.977 100.674C110.177 92.8234 116.507 82.8665 122.186 71.545M99.9646 99.0532C112.099 94.3843 119.434 85.0171 120.573 70.7501M120.558 72.3366C126.975 44.516 110.144 18.2325 84.8245 13.9509M121 71.567C125.265 44.773 110.37 19.4729 82.6769 13.3036M78.3603 39.0917C64.636 36.7986 54.3941 42.3781 51.7589 54.9532M78.3603 39.0917V39.0917ZM79.799 38.1515C65.225 36.7712 54.6374 41.1537 53.2217 55.2574M51.4119 55.0553C52.3592 57.3095 47.4772 59.8868 44.7919 58.3846M50.8348 54.3145C50.7092 56.1095 48.7785 58.9385 47.0658 56.5336M45.95 58.537C43.142 57.5362 43.6018 57.3923 43.4121 54.3553M47.5532 59.1999C42.1696 59.0661 39.561 56.2749 44.3707 52.7005M42.7087 53.1352C46.4462 36.841 65.1089 26.7144 81.5974 33.0226M43.7571 54.5241C45.8919 33.9613 65.2259 27.0305 78.8566 29.6332M80.4607 30.689C81.1404 31.6173 82.9377 31.8812 84.3804 37.6649M80.9422 30.7769C80.8038 30.6453 86.0049 33.2559 83.4342 34.8229M83.7021 36.0908C81.2429 38.4273 80.8519 38.1757 78.4201 41.1256M83.5281 35.339C84.3001 39.3593 82.4827 38.4091 76.4191 39.7607" stroke="black" stroke-width="2" stroke-linecap="round"/>
</svg>
