<?xml version="1.0" encoding="UTF-8" standalone="no"?>
<svg
   xmlns:dc="http://purl.org/dc/elements/1.1/"
   xmlns:cc="http://creativecommons.org/ns#"
   xmlns:rdf="http://www.w3.org/1999/02/22-rdf-syntax-ns#"
   xmlns:svg="http://www.w3.org/2000/svg"
   xmlns="http://www.w3.org/2000/svg"
   xmlns:sodipodi="http://sodipodi.sourceforge.net/DTD/sodipodi-0.dtd"
   xmlns:inkscape="http://www.inkscape.org/namespaces/inkscape"
   width="270"
   height="270"
   viewBox="0 0 134 166"
   fill="none"
   version="1.1"
   id="svg11"
   sodipodi:docname="bulb.svg"
   inkscape:version="0.92.5 (2060ec1f9f, 2020-04-08)">
  <metadata
     id="metadata17">
    <rdf:RDF>
      <cc:Work
         rdf:about="">
        <dc:format>image/svg+xml</dc:format>
        <dc:type
           rdf:resource="http://purl.org/dc/dcmitype/StillImage" />
      </cc:Work>
    </rdf:RDF>
  </metadata>
  <defs
     id="defs15" />
  <sodipodi:namedview
     pagecolor="#ffffff"
     bordercolor="#666666"
     borderopacity="1"
     objecttolerance="10"
     gridtolerance="10"
     guidetolerance="10"
     inkscape:pageopacity="0"
     inkscape:pageshadow="2"
     inkscape:window-width="1366"
     inkscape:window-height="718"
     id="namedview13"
     showgrid="false"
     inkscape:zoom="2.0105687"
     inkscape:cx="137.13311"
     inkscape:cy="153.85742"
     inkscape:window-x="0"
     inkscape:window-y="23"
     inkscape:window-maximized="1"
     inkscape:current-layer="svg11" />
  <mask
     id="mask0_147_1043"
     style="mask-type:alpha"
     maskUnits="userSpaceOnUse"
     x="24"
     y="11"
     width="99"
     height="143">
    <path
       d="M33.5593 130.714L33.5599 130.711L35.9389 121.09L77.2087 131.406L74.774 141.012L74.7732 141.016C74.6247 141.61 74.2872 142.372 73.8403 143.12C73.3936 143.867 72.8814 144.526 72.4288 144.94L66.0839 150.721C65.2608 151.47 64.0219 152.081 62.6606 152.426C61.2991 152.77 59.9218 152.819 58.8478 152.551L42.1908 148.387C41.1122 148.118 39.9183 147.425 38.8782 146.48C37.8382 145.536 37.0329 144.413 36.6588 143.365L36.6587 143.365L33.7652 135.273C33.7651 135.273 33.765 135.273 33.7649 135.273C33.2491 133.809 33.181 132.227 33.5593 130.714ZM80.1045 120.894L38.3331 110.453C37.7728 100.709 33.4996 88.5125 30.3198 82.3328C25.1912 72.3463 23.5181 60.556 26.4532 48.8137C32.5472 24.4347 57.4437 7.43331 84.44 14.0936C110.261 20.4645 125.967 46.5728 119.588 72.0942C116.589 84.0903 109.578 93.6855 100.419 99.844L100.419 99.8439L100.407 99.8517C94.694 103.808 85.1825 112.56 80.1045 120.894ZM52.382 55.2979C55.1637 44.1697 66.7271 37.2147 78.1178 40.062C80.9542 40.771 83.923 39.3303 84.6722 36.3334C85.403 33.4098 83.6279 30.45 80.7032 29.7189C63.4991 25.4185 46.0447 35.6655 41.7385 52.8928C41.0104 55.8055 42.7948 58.7792 45.7075 59.5073C48.6542 60.2439 51.6026 58.4162 52.382 55.2979Z"
       fill="#FFF974"
       stroke="black"
       stroke-width="2"
       id="path2" />
  </mask>
  <g
     mask="url(#mask0_147_1043)"
     id="g7" />
  <g
     id="g888"
     transform="matrix(0.57012594,0.00556058,-0.00556058,0.57012594,-14.648451,-2.8021372)">
    <g
       id="g830">
      <g
         id="g828">
        <path
           id="path824"
           d="m 178.125,173.431 h -70.313 v -4.688 c 0,-13.917 -4.936,-27.455 -14.273,-39.422 C 82.636,115.362 77.925,97.896 80.278,80.14 84.155,50.848 108.3,27.181 137.691,23.862 c 18.675,-2.105 37.411,3.811 51.328,16.242 13.931,12.441 21.919,30.286 21.919,48.952 0,14.986 -4.936,29.095 -14.273,40.8 -8.93,11.208 -13.852,24.919 -13.852,38.597 v 4.688 z"
           style="fill:#f9ba48"
           inkscape:connector-curvature="0" />
        <path
           id="path826"
           d="m 262.697,201.574 c 0.928,-12.206 5.677,-24.211 13.659,-34.223 9.333,-11.705 14.269,-25.809 14.269,-40.795 0,-18.666 -7.988,-36.511 -21.919,-48.952 -13.917,-12.436 -32.63,-18.356 -51.328,-16.237 -3.914,0.441 -7.753,1.373 -11.541,2.531 1.2,2.883 2.175,5.845 2.953,8.878 3.164,-0.956 6.37,-1.725 9.637,-2.095 16.308,-1.852 31.927,3.103 44.03,13.912 11.944,10.669 18.792,25.964 18.792,41.963 0,12.839 -4.228,24.923 -12.22,34.955 -9.258,11.606 -14.761,25.598 -15.741,40.045 h -4.852 v -60.938 h -4.688 -4.688 -9.375 v -4.688 h 14.063 v -9.375 h -12.647 l 20.934,-25.125 -7.2,-6 L 225,119.234 209.827,101.023 c -0.689,3.759 -1.716,7.425 -3.052,10.983 l 12.122,14.55 H 206.25 v 9.375 h 14.063 v 4.688 h -9.375 -4.688 -4.688 v 60.938 h -9.375 -0.862 c 0.525,-1.472 0.862,-3.037 0.862,-4.688 0,-2.517 -0.717,-4.847 -1.88,-6.895 3.933,-2.494 6.567,-6.863 6.567,-11.855 0,-7.753 -6.309,-14.063 -14.063,-14.063 H 168.75 v -60.937 c 0,-10.341 -8.409,-18.75 -18.75,-18.75 h -9.375 c -5.17,0 -9.375,-4.205 -9.375,-9.375 0,-5.17 4.205,-9.375 9.375,-9.375 H 150 c 5.17,0 9.375,4.205 9.375,9.375 h 9.375 c 0,-10.341 -8.409,-18.75 -18.75,-18.75 v -9.375 h -9.375 v 9.375 c -10.341,0 -18.75,8.409 -18.75,18.75 0,10.341 8.409,18.75 18.75,18.75 H 150 c 5.17,0 9.375,4.205 9.375,9.375 0,5.17 -4.205,9.375 -9.375,9.375 h -9.375 c -5.17,0 -9.375,-4.205 -9.375,-9.375 h -9.375 v 60.937 h -14.063 c -7.753,0 -14.063,6.309 -14.063,14.063 0,4.992 2.634,9.361 6.567,11.855 -1.163,2.048 -1.88,4.378 -1.88,6.895 0,1.65 0.338,3.216 0.863,4.688 h -0.863 -9.375 v -52.144 c 0.319,-0.328 0.666,-0.633 0.975,-0.975 l -6.975,-6.263 c -4.463,4.969 -10.814,7.819 -17.438,7.819 -7.627,0 -14.348,-3.717 -18.628,-9.375 h 23.316 v -9.375 h -27.65 c -0.309,-1.514 -0.473,-3.084 -0.473,-4.687 0,-1.603 0.164,-3.173 0.473,-4.688 h 27.652 v -9.375 H 46.997 c 4.284,-5.658 11.006,-9.375 18.628,-9.375 6.623,0 12.975,2.85 17.433,7.819 l 0.333,-0.3 c -1.509,-4.322 -2.545,-8.798 -3.117,-13.369 -4.514,-2.264 -9.511,-3.525 -14.648,-3.525 -13.055,0 -24.323,7.683 -29.602,18.75 h -7.898 v 9.375 h 5.063 c -0.22,1.537 -0.375,3.094 -0.375,4.688 0,1.594 0.155,3.15 0.375,4.687 h -5.063 v 9.375 h 7.898 c 1.57,3.286 3.647,6.281 6.164,8.859 v 52.078 H 37.355 C 36.403,187.32 30.882,173.403 21.239,161.056 11.902,149.093 7.87,134.108 9.886,118.868 c 3.319,-25.078 24,-45.342 49.172,-48.187 7.725,-0.881 15.323,-0.089 22.687,2.147 0.778,-3.042 1.739,-6.019 2.944,-8.887 -8.658,-2.662 -17.602,-3.6 -26.686,-2.578 -29.391,3.318 -53.531,26.985 -57.413,56.272 -2.348,17.761 2.358,35.227 13.256,49.191 8.292,10.617 13.092,22.486 14.067,34.753 -7.655,0.112 -13.852,6.356 -13.852,14.039 0,4.992 2.634,9.361 6.567,11.855 -1.163,2.048 -1.88,4.378 -1.88,6.895 0,4.992 2.634,9.361 6.567,11.855 -1.163,2.048 -1.88,4.378 -1.88,6.895 0,7.753 6.309,14.063 14.063,14.063 h 56.25 c 7.753,0 14.063,-6.309 14.063,-14.063 0,-2.517 -0.717,-4.847 -1.88,-6.895 3.933,-2.494 6.567,-6.863 6.567,-11.855 0,-2.245 -0.591,-4.331 -1.542,-6.206 1.889,0.942 3.984,1.519 6.23,1.519 h 56.25 c 2.245,0 4.341,-0.577 6.23,-1.519 -0.952,1.88 -1.542,3.961 -1.542,6.206 0,4.992 2.634,9.361 6.567,11.855 -1.163,2.048 -1.88,4.378 -1.88,6.895 0,7.753 6.309,14.063 14.063,14.063 h 56.25 c 7.753,0 14.063,-6.309 14.063,-14.063 0,-2.517 -0.717,-4.847 -1.88,-6.895 3.933,-2.494 6.567,-6.863 6.567,-11.855 0,-2.517 -0.717,-4.847 -1.88,-6.895 3.933,-2.494 6.567,-6.863 6.567,-11.855 0.001,-7.687 -6.205,-13.936 -13.864,-14.044 z m -51.76,-51.581 h 9.375 v 9.375 h 9.375 v -9.375 h 9.375 v 51.563 H 210.937 Z M 131.25,119.262 c 2.77,1.612 5.944,2.606 9.375,2.606 v 9.375 H 150 v -9.375 c 3.431,0 6.605,-0.994 9.375,-2.606 v 44.794 H 131.25 Z m -79.688,36.895 c 4.27,2.039 9.023,3.211 14.062,3.211 4.913,0 9.703,-1.144 14.063,-3.225 v 45.412 H 51.562 Z M 93.75,257.806 H 37.5 c -2.583,0 -4.688,-2.105 -4.688,-4.688 0,-2.583 2.105,-4.688 4.688,-4.688 h 56.25 c 2.583,0 4.688,2.105 4.688,4.688 -0.001,2.583 -2.105,4.688 -4.688,4.688 z m 4.687,-18.75 H 93.75 37.5 32.812 c -2.583,0 -4.688,-2.105 -4.688,-4.688 0,-2.583 2.105,-4.688 4.688,-4.688 h 65.625 c 2.583,0 4.688,2.105 4.688,4.688 0,2.583 -2.105,4.688 -4.688,4.688 z m 5.517,-18.863 c -0.267,0.052 -0.525,0.112 -0.83,0.112 H 98.436 32.812 28.124 c -2.583,0 -4.688,-2.105 -4.688,-4.688 0,-2.583 2.105,-4.688 4.688,-4.688 h 70.313 4.688 c 0.305,0 0.563,0.061 0.83,0.113 -0.502,1.444 -0.83,2.967 -0.83,4.575 0,1.609 0.328,3.132 0.829,4.576 z m 69.483,0.113 h -56.25 c -2.583,0 -4.688,-2.105 -4.688,-4.688 0,-2.583 2.105,-4.688 4.688,-4.688 h 56.25 c 2.583,0 4.688,2.105 4.688,4.688 0,2.583 -2.105,4.688 -4.688,4.688 z m 4.688,-18.75 h -4.688 -56.25 -4.687 c -2.583,0 -4.688,-2.105 -4.688,-4.688 0,-2.583 2.105,-4.688 4.688,-4.688 h 65.625 c 2.583,0 4.688,2.105 4.688,4.688 -10e-4,2.583 -2.105,4.688 -4.688,4.688 z m 4.687,-18.75 h -4.688 -65.624 -4.688 c -2.583,0 -4.688,-2.105 -4.688,-4.688 0,-2.583 2.105,-4.688 4.688,-4.688 h 75 c 2.583,0 4.688,2.105 4.688,4.688 0,2.583 -2.105,4.688 -4.688,4.688 z m 70.313,75 h -56.25 c -2.583,0 -4.688,-2.105 -4.688,-4.688 0,-2.583 2.105,-4.688 4.688,-4.688 h 56.25 c 2.583,0 4.688,2.105 4.688,4.688 -10e-4,2.583 -2.105,4.688 -4.688,4.688 z m 4.687,-18.75 h -4.688 -56.25 -4.688 c -2.583,0 -4.688,-2.105 -4.688,-4.688 0,-2.583 2.105,-4.688 4.688,-4.688 h 65.625 c 2.583,0 4.688,2.105 4.688,4.688 10e-4,2.583 -2.104,4.688 -4.687,4.688 z m 4.688,-18.75 h -4.688 -65.625 -4.687 c -0.305,0 -0.563,-0.061 -0.83,-0.112 0.502,-1.444 0.83,-2.967 0.83,-4.575 0,-1.608 -0.328,-3.131 -0.83,-4.575 0.267,-0.052 0.525,-0.113 0.83,-0.113 h 70.313 4.688 c 2.583,0 4.688,2.105 4.688,4.688 -0.002,2.582 -2.106,4.687 -4.689,4.687 z"
           style="fill:#333333"
           inkscape:connector-curvature="0" />
      </g>
    </g>
    <g
       id="g832" />
    <g
       id="g834" />
    <g
       id="g836" />
    <g
       id="g838" />
    <g
       id="g840" />
    <g
       id="g842" />
    <g
       id="g844" />
    <g
       id="g846" />
    <g
       id="g848" />
    <g
       id="g850" />
    <g
       id="g852" />
    <g
       id="g854" />
    <g
       id="g856" />
    <g
       id="g858" />
    <g
       id="g860" />
  </g>
</svg>
