<?xml version="1.0" encoding="UTF-8" standalone="no"?>
<svg
   xmlns:dc="http://purl.org/dc/elements/1.1/"
   xmlns:cc="http://creativecommons.org/ns#"
   xmlns:rdf="http://www.w3.org/1999/02/22-rdf-syntax-ns#"
   xmlns:svg="http://www.w3.org/2000/svg"
   xmlns="http://www.w3.org/2000/svg"
   xmlns:sodipodi="http://sodipodi.sourceforge.net/DTD/sodipodi-0.dtd"
   xmlns:inkscape="http://www.inkscape.org/namespaces/inkscape"
   width="252"
   height="252"
   viewBox="0 0 252 196"
   fill="none"
   version="1.1"
   id="svg25"
   sodipodi:docname="bush-2.svg"
   inkscape:version="0.92.5 (2060ec1f9f, 2020-04-08)">
  <metadata
     id="metadata29">
    <rdf:RDF>
      <cc:Work
         rdf:about="">
        <dc:format>image/svg+xml</dc:format>
        <dc:type
           rdf:resource="http://purl.org/dc/dcmitype/StillImage" />
      </cc:Work>
    </rdf:RDF>
  </metadata>
  <sodipodi:namedview
     pagecolor="#ffffff"
     bordercolor="#666666"
     borderopacity="1"
     objecttolerance="10"
     gridtolerance="10"
     guidetolerance="10"
     inkscape:pageopacity="0"
     inkscape:pageshadow="2"
     inkscape:window-width="1366"
     inkscape:window-height="718"
     id="namedview27"
     showgrid="false"
     inkscape:zoom="1.2040817"
     inkscape:cx="116.70543"
     inkscape:cy="144.52534"
     inkscape:window-x="0"
     inkscape:window-y="23"
     inkscape:window-maximized="1"
     inkscape:current-layer="g870" />
  <defs
     id="defs23">
    <filter
       id="filter0_d_143_617"
       x="0.0135498"
       y="-9.05859"
       width="257.029"
       height="205"
       filterUnits="userSpaceOnUse"
       color-interpolation-filters="sRGB">
      <feFlood
         flood-opacity="0"
         result="BackgroundImageFix"
         id="feFlood8" />
      <feColorMatrix
         in="SourceAlpha"
         type="matrix"
         values="0 0 0 0 0 0 0 0 0 0 0 0 0 0 0 0 0 0 127 0"
         result="hardAlpha"
         id="feColorMatrix10" />
      <feOffset
         dx="10"
         dy="-10"
         id="feOffset12" />
      <feGaussianBlur
         stdDeviation="5"
         id="feGaussianBlur14" />
      <feColorMatrix
         type="matrix"
         values="0 0 0 0 0 0 0 0 0 0 0 0 0 0 0 0 0 0 0.25 0"
         id="feColorMatrix16" />
      <feBlend
         mode="normal"
         in2="BackgroundImageFix"
         result="effect1_dropShadow_143_617"
         id="feBlend18" />
      <feBlend
         mode="normal"
         in="SourceGraphic"
         in2="effect1_dropShadow_143_617"
         result="shape"
         id="feBlend20" />
    </filter>
  </defs>
  <g
     id="g942"
     transform="matrix(0.38531319,0,0,0.38531319,33.396031,2.2540775)">
    <g
       id="g870"
       transform="translate(0,-1)">
      <g
         id="g844"
         transform="matrix(1.2739507,0,0,1.2739507,-71.31967,-70.324729)">
        <path
           id="path836"
           d="m 236.247,103.494 c -38.579,0 -67.473,-9.446 -85.914,-28.109 C 127.122,51.893 127.856,21.378 128.104,11.351 l 0.034,-1.741 c 0,-4.71 3.814,-8.533 8.533,-8.533 l 1.382,-0.026 c 45.952,-1.05 71.45,14.208 84.727,27.187 16.469,16.102 24.823,38.545 24.823,66.705 0,4.668 -3.763,8.474 -8.431,8.533 -0.979,0.018 -1.961,0.018 -2.925,0.018"
           style="fill:#91cf96"
           inkscape:connector-curvature="0" />
        <path
           id="path838"
           d="m 231.18,233.015 c -14.899,0 -27.759,-3.345 -38.443,-10.01 -23.236,-14.515 -28.399,-39.629 -30.097,-47.889 l -0.256,-1.212 c -1.033,-4.548 1.775,-9.079 6.306,-10.189 l 0.725,-0.179 c 26.65,-6.886 51.149,-4.668 68.983,6.204 16.034,9.771 26.743,26.112 31.846,48.555 1.024,4.514 -1.732,9.011 -6.204,10.163 -11.851,3.038 -22.816,4.557 -32.86,4.557"
           style="fill:#91cf96"
           inkscape:connector-curvature="0" />
        <path
           id="path840"
           d="m 335.48,269.16 c -14.387,0 -30.754,-4.309 -48.956,-12.902 -4.215,-1.997 -6.059,-7.014 -4.113,-11.264 9.66,-21.129 23.185,-34.748 40.201,-40.491 18.338,-6.178 39.697,-2.842 63.514,9.907 l 1.476,0.777 c 4.224,1.997 6.144,7.049 4.198,11.307 -0.188,0.418 -0.418,0.998 -0.7,1.715 -3.098,7.714 -11.315,28.228 -33.647,37.009 -6.689,2.628 -14.028,3.942 -21.973,3.942"
           style="fill:#91cf96"
           inkscape:connector-curvature="0" />
        <path
           id="path842"
           d="m 301.664,175.218 c -12.501,0 -26.078,-1.809 -40.704,-5.436 -4.531,-1.126 -7.313,-5.683 -6.246,-10.231 22.468,-95.59 120.26,-75.511 131.345,-72.917 2.202,0.521 4.113,1.894 5.299,3.814 1.195,1.929 1.57,4.241 1.058,6.451 l -0.367,1.655 c -6.229,29.389 -19.703,50.756 -40.056,63.497 -14.011,8.773 -30.856,13.167 -50.329,13.167"
           style="fill:#91cf96"
           inkscape:connector-curvature="0" />
      </g>
      <g
         id="g858"
         transform="matrix(1.2739507,0,0,1.2739507,-71.31967,-70.324729)">
        <path
           id="path846"
           d="m 230.534,308.264 c -1.715,0 -3.439,-0.512 -4.941,-1.579 -3.84,-2.731 -4.736,-8.055 -2.014,-11.895 2.782,-3.917 67.371,-97.092 7.774,-195.422 -2.441,-4.036 -1.161,-9.276 2.876,-11.725 4.028,-2.458 9.276,-1.143 11.716,2.876 65.502,108.083 -7.714,213.12 -8.465,214.17 -1.664,2.329 -4.284,3.575 -6.946,3.575"
           style="fill:#5aba63"
           inkscape:connector-curvature="0" />
        <path
           id="path848"
           d="m 239.072,103.477 c -2.458,0 -4.89,-1.058 -6.579,-3.098 -14.49,-17.527 -29.961,-30.421 -48.7,-40.602 -4.139,-2.253 -5.675,-7.433 -3.422,-11.58 2.253,-4.13 7.424,-5.666 11.571,-3.422 20.719,11.255 37.777,25.472 53.7,44.732 3.004,3.635 2.492,9.011 -1.135,12.015 -1.595,1.315 -3.515,1.955 -5.435,1.955"
           style="fill:#5aba63"
           inkscape:connector-curvature="0" />
        <path
           id="path850"
           d="m 246.755,278.315 c -2.15,0 -4.309,-0.811 -5.973,-2.441 -3.362,-3.294 -3.422,-8.695 -0.119,-12.066 12.442,-12.706 27.17,-17.178 45.824,-22.844 l 1.493,-0.452 c 4.497,-1.391 9.276,1.178 10.65,5.683 1.365,4.514 -1.178,9.276 -5.683,10.641 l -1.502,0.461 c -16.956,5.146 -29.201,8.866 -38.596,18.458 -1.665,1.698 -3.884,2.56 -6.094,2.56"
           style="fill:#5aba63"
           inkscape:connector-curvature="0" />
        <path
           id="path852"
           d="m 290.18,257.077 c -3.115,0 -6.118,-1.715 -7.629,-4.685 -2.125,-4.207 -0.435,-9.335 3.772,-11.469 13.815,-6.98 27.324,-11.503 41.267,-13.824 4.676,-0.777 9.045,2.364 9.822,7.014 0.768,4.651 -2.372,9.045 -7.023,9.813 -12.39,2.065 -23.945,5.948 -36.369,12.237 -1.228,0.615 -2.551,0.914 -3.84,0.914"
           style="fill:#5aba63"
           inkscape:connector-curvature="0" />
        <path
           id="path854"
           d="m 261.914,228.722 c -1.545,0 -3.098,-0.418 -4.506,-1.289 -3.157,-1.971 -6.161,-3.891 -9.045,-5.734 -7.868,-5.026 -14.652,-9.361 -21.751,-12.928 -4.207,-2.116 -5.905,-7.253 -3.78,-11.46 2.116,-4.207 7.245,-5.922 11.46,-3.789 7.868,3.968 15.343,8.738 23.253,13.798 2.842,1.809 5.786,3.686 8.892,5.623 4.002,2.5 5.222,7.765 2.731,11.759 -1.622,2.595 -4.404,4.02 -7.254,4.02"
           style="fill:#5aba63"
           inkscape:connector-curvature="0" />
        <path
           id="path856"
           d="m 263.026,170.035 c -2.893,0 -5.717,-1.468 -7.313,-4.13 -2.441,-4.036 -1.135,-9.276 2.901,-11.708 6.562,-3.959 12.732,-8.021 18.714,-11.955 17.161,-11.298 33.365,-21.965 53.709,-27.017 4.531,-1.135 9.199,1.647 10.342,6.229 1.126,4.574 -1.655,9.199 -6.229,10.342 -17.51,4.343 -31.846,13.773 -48.444,24.704 -6.17,4.053 -12.51,8.226 -19.285,12.305 -1.375,0.838 -2.894,1.23 -4.395,1.23"
           style="fill:#5aba63"
           inkscape:connector-curvature="0" />
      </g>
      <polygon
         id="polygon860"
         points="366.972,333.877 145.105,333.877 145.105,504.544 366.972,504.544 "
         style="fill:#af8066"
         transform="matrix(1.2739507,0,0,1.2739507,-71.31967,-70.324729)" />
      <g
         id="g866"
         transform="matrix(1.2739507,0,0,1.2739507,-71.31967,-70.324729)">
        <polygon
           id="polygon864"
           points="375.505,299.744 136.572,299.744 136.572,333.877 375.505,333.877 "
           style="fill:#d9aa94" />
      </g>
    </g>
    <g
       id="g872" />
    <g
       id="g874" />
    <g
       id="g876" />
    <g
       id="g878" />
    <g
       id="g880" />
    <g
       id="g882" />
    <g
       id="g884" />
    <g
       id="g886" />
    <g
       id="g888" />
    <g
       id="g890" />
    <g
       id="g892" />
    <g
       id="g894" />
    <g
       id="g896" />
    <g
       id="g898" />
    <g
       id="g900" />
  </g>
</svg>
