<svg width="199" height="154" viewBox="0 0 199 154" fill="none" xmlns="http://www.w3.org/2000/svg">
<path d="M35.9987 38.5797C40.74 36.6558 45.2122 32.2892 52.2669 22.71M37.2057 41.7979C40.725 35.7389 46.2024 32.0915 53.5815 24.3359M38.0315 49.7386C44.216 41.2706 51.1978 29.1404 67.3865 13.2281M35.02 50.6807C45.1424 37.1455 58.002 23.4591 66.4367 13.5412M8.19415 86.1115C13.4442 81.4115 22.3426 75.1325 28.8634 67.6242M8.31614 87.6358C13.7083 81.7337 15.4847 76.8385 26.2765 66.6432M35.2003 59.6669C48.5167 38.5449 63.9711 25.3688 73.6611 11.5771M32.5955 57.5182C48.4259 43.2448 61.054 28.1598 71.8717 12.0566M8.83949 95.2145C26.1588 76.689 43.9263 48.854 79.2932 13.0279M5.82776 97.1071C22.1918 76.1858 41.7329 54.3627 78.7422 12.8679M7.5204 104.874C25.9932 81.0781 49.2031 57.3872 83.8585 16.7632M6.35003 103.74C25.4854 80.1566 44.8701 57.3612 83.5213 14.6443M7.30997 107.924C36.9924 72.8677 60.9437 45.1146 85.4849 16.641M7.25131 107.042C34.863 74.1323 64.5134 42.2816 89.1032 15.0614M10.8769 113.684C38.8341 80.6158 67.3182 43.7675 92.4156 15.0295M7.40926 110.676C31.6215 82.2746 57.6466 53.8954 90.6563 16.0773M9.42334 116.692C30.1639 91.6242 54.1695 65.0785 99.7952 16.3698M9.4794 115.056C44.9118 76.9078 77.9186 35.5801 97.413 14.4742M10.1999 120.309C34.7691 90.3044 65.2723 65.283 99.1492 14.6238M10.6515 119.704C44.3036 82.1272 78.5452 44.9782 102.917 16.8752M12.6293 126.294C41.9304 93.5642 73.5791 58.7379 104.317 22.2376M12.8326 127.013C31.0876 101.26 52.5959 81.7753 103.443 19.7671M13.8208 125.882C42.4197 94.6303 71.473 59.8339 109.46 23.0322M16.248 129.387C37.9667 100.284 64.495 71.1646 106.002 21.2958M15.4906 133.675C53.1009 93.833 86.1327 55.2284 112.847 24.2043M17.0318 130.236C36.6024 107.789 56.353 86.8327 109.233 23.9339M22.5198 133.976C43.7149 105.217 70.8168 74.4185 110.787 25.5416M20.0364 135.177C52.2856 97.0503 84.2929 60.6429 113.823 26.4815M27.2355 133.165C55.0301 104.012 81.3215 70.5439 117.099 31.7984M24.8201 135.73C45.8039 109.4 70.2766 82.8417 116.965 31.317M25.7214 137.594C50.3549 110.889 71.7211 83.231 119.95 34.9703M27.0719 137.882C63.9449 95.4082 102.124 54.8053 118.784 33.7309M30.9492 140.206C66.6673 104.994 97.8323 63.6616 121.396 32.5353M29.803 139.704C66.0935 102.453 98.9513 60.7829 122.577 34.3764M34.5013 139.733C60.5508 115.452 82.2953 90.3596 129.75 36.082M35.8503 142.595C58.121 117.84 78.2186 90.4121 128.961 35.3038M37.8932 142.01C65.2568 121.745 80.9008 95.9382 135.438 30.8591M41.6038 141.527C76.9216 100.089 112.812 59.0596 134.156 34.1902M48.0728 139.27C72.1869 106.822 103.915 77.2255 140.041 34.4263M47.1384 142.539C73.6142 108.396 104.09 75.8601 138.679 32.0107M48.8528 138.675C78.0373 107.93 111.259 73.4467 143.68 34.4252M51.4612 140.323C74.0835 114.114 99.0682 86.788 145.281 33.4771M54.5348 144.556C91.3506 103.044 130.157 56.1086 150.682 32.4857M56.9165 142.741C94.0477 97.8492 130.061 54.8946 151.22 33.6492M61.8817 139.168C89.9786 114.481 114.581 81.2201 153.307 35.3332M62.3878 142.143C91.2749 111.017 116.97 78.1488 152.831 35.8711M68.2595 139.434C87.071 121.524 106.352 100.712 153.34 36.6399M65.7075 143.376C91.4384 115.802 116.407 87.1714 155.506 40.4391M68.9185 142.693C91.9251 119.602 116.539 91.7572 161.523 44.1107M70.6573 143.077C90.3946 120.879 109.568 100.781 159.017 42.5041M75.0301 140.855C110.954 104.152 138.287 66.7866 160.733 46.8395M75.9472 142.427C107.449 109.109 134.011 76.6714 163.121 43.9226M80.3341 144.658C102.164 121.232 121.894 94.8579 167.259 49.3686M81.4249 141.229C99.3011 122.69 114.866 103.727 164.717 48.5806M90.3823 139.767C115.768 104.826 147.285 77.1354 166.048 53.5203M86.6352 141.836C115.664 109.503 143.845 75.4526 163.431 54.6711M90.9592 140.058C118.9 115.533 141.5 86.6163 167.373 58.858M93.0874 142.898C106.661 124.692 124.611 105.172 165.17 59.1742M99.8521 140.416C119.877 122.801 135.536 99.6216 167.11 63.9873M98.221 142.95C123.156 113.781 147.974 87.0318 165.661 64.6774M102.212 141.657C124.992 117.274 145.631 91.9112 163.329 69.4528M104.283 141.26C122.947 118.463 144.971 95.7429 166.334 69.9547M107.045 144.703C121.852 127.983 133.385 110.853 167.084 69.512M108.646 143.576C123.493 126.138 138.033 108.376 170.456 73.056M115.96 141.796C129.333 126.277 148.314 102.801 172.67 73.588M112.707 143.393C133.567 121.223 154.198 99.8548 173.255 75.6646M120.964 144.406C140.697 125.023 154.55 100.017 174.699 79.0144M119.812 142.628C136.924 121.085 156.037 97.7709 175.852 77.4545M126.645 143.704C141.932 116.851 163.61 96.5929 181.321 81.2446M124.44 141.927C142.458 118.414 164.52 96.3001 178.943 80.5131M128.917 145.337C141.035 127.653 155.149 113.658 182.823 84.2225M128.327 144.251C145.255 126.615 160.935 107.484 181.988 82.045M136.828 140.484C154.075 123.553 172.559 100.88 186.965 81.3141M134.477 143.697C147.897 127.349 159.057 112.164 185.52 84.924M141.493 142.906C156.535 121.971 176.99 97.5254 189.711 84.1216M140.473 142.74C157.76 123.748 176.081 101.88 190.52 87.0558M142.766 143.779C154.719 133.772 168.728 121.024 189.401 89.4541M146.306 142.744C155.628 131.116 166.076 117.848 192.421 88.8935M149.886 142.695C162.535 128.558 174.254 117.942 193.693 94.9412M150.122 144.319C162.676 128.999 175.458 115.008 193.775 95.9411M153.901 141.953C168.05 131.649 179.302 115.538 193.755 97.5935M155.604 144.275C167.252 128.831 178.431 115.38 192.347 102.002M163.106 143.543C171.589 131.677 179.109 121.219 195.889 103.795M161.666 143.758C174.312 129.082 186.79 115.775 191.965 107.343M165.424 142.291C177.389 130.255 186.236 116.566 194.679 113.978M165.677 142.751C173.751 136.286 178.99 128.346 192.185 111.801M183.114 131.27C184.583 124.846 187.18 124.581 192.78 117.618M183.005 129.735C188.557 124.011 192.098 121.112 192.996 118.417M11.2956 84.0848C21.4088 69.259 39.5439 48.2334 66.7231 17.1903M10.1864 87.0162C22.0309 71.5132 34.433 55.1137 66.0197 14.7892M7.10392 97.3618C17.6358 81.603 30.529 64.8844 74.086 10.5432M6.14805 96.2291C22.9409 75.2996 42.3762 52.7256 72.8385 12.1136M6.90155 104.337C28.2919 68.3259 58.3728 37.803 78.6636 12.5823M6.36072 102.662C29.8713 70.0295 57.1917 38.5844 76.5609 14.5494M6.07389 107.863C31.2945 79.7886 51.9167 53.5105 85.019 11.1652M8.36305 108.068C26.1705 82.5724 47.7002 58.8859 83.1639 12.8181M10.8539 110.455C39.9363 76.0339 69.4035 32.6714 84.9357 14.6901M6.50155 111.519C36.2332 79.7529 62.1991 43.3383 87.319 15.4912M11.9207 116.52C28.4979 87.1105 53.5539 58.3469 92.853 13.3432M8.52146 117.256C40.8683 76.3259 72.2332 37.6974 90.5867 15.7107M11.5728 122.904C30.6346 100.339 51.6983 72.9973 98.9961 15.7957M11.86 121.643C31.7914 94.6351 52.7948 70.1999 96.7224 15.6527M13.2819 123.643C30.0202 104.978 47.2973 83.1868 102.984 17.2716M11.4232 124.952C32.6587 101.607 54.269 75.959 100.891 15.4089M13.5943 130.131C46.5056 91.0771 76.3177 56.8651 107.183 17.1912M15.3851 129.497C46.3818 90.5406 78.4008 51.4919 103.29 18.048M16.3621 130.263C46.2483 97.0632 72.7558 61.9428 107.485 22.4932M18.4487 131.617C43.796 98.5653 69.6696 64.6954 108.018 21.7025M19.5825 134.304C56.2561 94.6603 88.601 54.9611 111.983 27.1256M19.5922 135.188C42.4644 105.065 67.4175 77.5188 109.12 25.5385M25.6564 133.269C46.6376 110.3 64.9973 89.0882 113.026 29.8372M23.6821 134.746C50.0019 107.218 72.4809 77.47 113.317 28.0457M26.0343 136.633C45.9004 113.426 64.6507 91.5261 117.308 30.7182M28.9085 139.462C52.096 110.402 76.3767 81.6512 116.906 31.4413M27.8046 139.91C50.1497 117.531 65.9199 94.5364 117.481 30.4876M31.1998 141.959C62.9138 104.377 95.2607 65.4344 120.407 32.1377M37.1354 142.595C62.0394 110.508 87.6176 80.4585 124.752 32.3199M35.1089 140.267C60.8298 108.34 86.566 76.6895 122.296 35.7982M41.0357 139.589C71.7473 107.015 101.732 65.322 130.539 37.0089M39.1567 140.919C62.4084 115.217 83.5932 88.485 128.087 33.9566M44.7384 138.522C70.5849 113.157 90.6303 83.4245 136.956 36.244M44.8273 142.115C73.2876 112.11 95.9749 80.455 135.61 32.8617M54.0565 143.176C80.5691 106.176 111.881 67.7564 139.789 31.4984M51.5115 140.513C72.3179 115.917 94.5234 90.9336 139.584 33.7871M56.1433 143.103C84.6615 109.619 108.625 77.5606 148.437 32.4704M55.8454 141.612C84.0105 108.515 109.277 75.431 145.711 32.9754M62.8113 141.158C84.6117 110.56 106.151 89.5411 151.941 35.3769M63.0165 141.861C89.1294 105.772 114.89 72.2425 150.349 32.0362M65.7242 140.271C95.9506 103.912 128.545 70.8197 154.962 35.8945M66.8649 141.851C100.68 103.408 129.696 66.5006 152.749 35.1813M74.1316 139.713C103.405 107.716 130.983 67.5061 157.698 41.1215M71.0854 142.438C103.053 103.648 133.512 65.7365 157.242 39.7057M78.4145 140.425C103.933 109.053 129.842 78.857 157.914 41.7757M77.1971 142.302C95.1418 121.296 112.093 101.01 159.964 41.6679M79.6903 140.104C98.3514 124.31 115.165 101.367 163.896 44.966M82.5748 143.712C109.764 111.439 133.871 76.8907 163.336 45.964M88.5548 141.367C114.545 111.77 134.084 85.5207 164.738 50.8225M88.5159 141.122C118.926 104.32 150.867 66.8101 164.586 48.6931M93.5635 142.148C118.27 108.156 147.59 79.0171 165.309 54.1734M92.1777 140.837C118.205 108.316 144.677 76.7915 163.517 55.0163M97.585 145.092C117.726 114.654 141.427 92.0218 166.141 56.3167M96.7493 142.834C111.883 124.637 130.369 104.862 166.43 58.2427M101.268 144.694C122.755 121.68 139.473 96.7023 166.56 65.2874M104.46 141.064C120.314 122.305 136.743 102.106 165.772 66.7117M107.547 142.117C124.249 124.752 140.491 101.614 164.417 70.229M109.574 141.944C128.023 118.489 145.644 97.9789 164.703 71.6582M115.407 143.153C136.346 119.045 158.608 86.9982 172.282 73.3741M113.282 143.418C126.157 126.262 139.827 107.514 169.485 71.9069M120.643 139.723C129.34 125.85 142.719 108.335 170.472 75.2252M119.195 141.649C140.075 117.985 158.974 91.0898 173.773 75.9051M121.389 141.322C148.614 116.731 164.569 90.1203 178.045 79.1908M123.751 142.604C142.222 120.457 161.085 97.7389 176.25 78.485M126.708 145.03C141.291 132.182 149.655 112.21 181.962 78.0935M127.995 143.807C148.23 118.603 167.78 92.6736 180.723 79.0705M133.813 141.051C155.095 118.324 168.993 97.7513 181.968 82.9109M136.184 141.345C151.607 122.241 165.431 100.594 182.884 82.3544M140.808 143.089C154.08 118.501 175.068 101.543 187.667 84.6284M140.62 143.835C155.315 121.952 173.988 99.0172 184.667 83.1966M142.547 143.695C161.891 124.388 179.545 97.8385 188.519 85.285M143.839 144.727C162.481 120.825 180.206 99.7276 189.612 85.6702M150.41 144.159C168.752 121.197 181.395 106.137 191.101 91.0701M150.691 142.495C162.745 125.389 177.157 108.894 191.46 88.072M156.023 145.118C171.524 126.565 186.743 103.98 193.899 96.2688M154.496 144.752C164.82 132.035 173.329 121.782 193.172 94.0098M157.984 143.955C171.916 132.65 178.637 119.721 190.069 99.0589M159.315 143.323C169.814 131.034 180.892 118.768 193.409 99.6673M163.04 141.712C170.251 136.22 176.241 128.941 193.954 108.747M166.079 143.011C173.867 131.771 184.934 117.188 191.873 105.19M184.039 130.114C186.76 126.55 189.859 122.943 194.445 109.247M183.108 128.475C184.501 125.426 187.144 123.528 193.171 113.228M40.6458 31.7594V31.7594ZM12.5684 76.2527V76.2527Z" stroke="#19B31F" stroke-linecap="round"/>
<path d="M32.7097 60.7368C32.1245 60.4206 35.5877 58.593 33.7657 57.801M32.7097 60.7368V60.7368ZM34.3957 58.6509C30.7132 58.4162 35.8933 55.8784 34.6592 58.5468M32.6501 58.3163C31.8111 31.4764 56.2674 9.94918 80.6992 12.9431M34.8489 60.7734C33.5748 30.3244 54.8914 7.69223 79.8072 7.09912M80.4001 10.5038C96.6113 7.76106 111.316 18.8342 119.504 32.6909M81.7687 12.7429C100.227 13.1077 112.104 20.4823 122.98 33.0405M121.793 34.4699C124.008 28.9757 130.132 31.9997 138.187 30.7612M123.055 32.5471C126.905 32.1737 129.565 30.5836 140.438 32.928M137.7 29.6288C153.092 27.2382 169.051 39.6694 165.496 56.5358M139.395 31.8377C156.658 29.3693 164.477 41.3195 167.046 57.7147M166.35 58.3163C167.457 63.5701 167.186 65.4628 164.564 68.5852M168.841 60.2154C167.867 63.4954 162.304 66.013 164.045 70.7647M164.44 68.6558C179.068 71.6259 196.366 85.9799 197.556 104.844M166.205 69.2851C181.141 70.6457 197.186 90.954 195.33 103.219M195 106.129C197.429 124.674 178.574 141.401 155.432 147.126M193.474 107.148C195.942 127.172 178.613 141.002 158.013 147.044M158.386 144.244C128.471 144.953 98.5056 142.178 46.3224 143.152M156.313 143.047C125.14 145.658 94.0581 145.301 46.6882 143.077M46.9751 144.379C23.3045 142.163 5.97876 122.495 1.02673 100.75M45.7435 144.306C20.0404 144.896 6.24523 122.363 5.6962 98.1659M4.00006 101.348C6.71331 83.1335 13.5983 66.5395 33.1642 61.8182M4.22697 101.316C3.41263 85.178 15.9955 68.5678 30.4127 61.1228" stroke="black" stroke-width="2" stroke-linecap="round"/>
</svg>
