<?xml version="1.0" encoding="UTF-8" standalone="no"?>
<svg
   xmlns:dc="http://purl.org/dc/elements/1.1/"
   xmlns:cc="http://creativecommons.org/ns#"
   xmlns:rdf="http://www.w3.org/1999/02/22-rdf-syntax-ns#"
   xmlns:svg="http://www.w3.org/2000/svg"
   xmlns="http://www.w3.org/2000/svg"
   xmlns:sodipodi="http://sodipodi.sourceforge.net/DTD/sodipodi-0.dtd"
   xmlns:inkscape="http://www.inkscape.org/namespaces/inkscape"
   width="199"
   height="154"
   viewBox="0 0 199 154"
   fill="none"
   version="1.1"
   id="svg6"
   sodipodi:docname="bush-1.svg"
   inkscape:version="0.92.5 (2060ec1f9f, 2020-04-08)">
  <metadata
     id="metadata12">
    <rdf:RDF>
      <cc:Work
         rdf:about="">
        <dc:format>image/svg+xml</dc:format>
        <dc:type
           rdf:resource="http://purl.org/dc/dcmitype/StillImage" />
      </cc:Work>
    </rdf:RDF>
  </metadata>
  <defs
     id="defs10" />
  <sodipodi:namedview
     pagecolor="#ffffff"
     bordercolor="#666666"
     borderopacity="1"
     objecttolerance="10"
     gridtolerance="10"
     guidetolerance="10"
     inkscape:pageopacity="0"
     inkscape:pageshadow="2"
     inkscape:window-width="1366"
     inkscape:window-height="718"
     id="namedview8"
     showgrid="false"
     inkscape:zoom="2.1672364"
     inkscape:cx="79.295063"
     inkscape:cy="77.437995"
     inkscape:window-x="0"
     inkscape:window-y="23"
     inkscape:window-maximized="1"
     inkscape:current-layer="g916" />
  <g
     id="g916"
     transform="matrix(0.2760856,0,0,0.2760856,6.7025847,5.7950626)">
    <path
       id="path822"
       d="m 168.56527,255.61426 53.365,251.394 c 2.722,12.821 15.539,18.362 28.261,18.362 h 191.978 c 13.211,0 25.539,-5.542 28.261,-18.363 l 53.365,-251.394 h -355.23 z"
       style="fill:#ff9478"
       inkscape:connector-curvature="0" />
    <path
       id="path830"
       d="m 294.03927,39.637263 c -43.096,-23.224 -85.232,-26.12 -87.003,-26.233 -5.113,-0.32 -10.106,1.641 -13.63,5.362 -3.523,3.72 -5.213,8.812 -4.613,13.901 4.463,37.839 15.721,70.700997 33.461,97.673997 14.684,22.327 33.77,40.627 56.726,54.392 44.228,26.519 87.157,26.825 88.964,26.825 2.58,0 8.625,0 13.773,-5.152 3.375,-3.377 5.203,-8.001 5.046,-12.773 -2.853,-87.521 -51.998,-132.051997 -92.724,-153.995997 z"
       style="fill:#6dc82a"
       inkscape:connector-curvature="0" />
    <g
       id="g836"
       transform="translate(90.249276,13.370263)">
	<path
   id="path832"
   d="m 291.468,193.035 c 2.274,-2.275 3.824,-5.121 4.559,-8.191 -53.61,-10.671 -141.428,-59.492 -164.12,-182.895 -8.879,-1.487 -14.498,-1.875 -15.12,-1.915 -5.113,-0.32 -10.106,1.641 -13.63,5.361 -3.523,3.72 -5.213,8.812 -4.613,13.901 4.463,37.839 15.721,70.701 33.461,97.674 14.684,22.327 33.77,40.627 56.726,54.392 44.228,26.519 87.157,26.825 88.964,26.825 2.58,10e-4 8.624,10e-4 13.773,-5.152 z"
   style="fill:#5eac24"
   inkscape:connector-curvature="0" />

	
</g>
    <path
       id="path838"
       d="m 499.09327,18.765263 c -3.524,-3.719 -8.506,-5.68 -13.63,-5.361 -1.773,0.112 -43.906,3.009 -87.003,26.232 -40.726,21.945 -89.87,66.475997 -92.724,153.996997 -0.156,4.772 1.67,9.396 5.046,12.773 5.148,5.151 11.192,5.152 13.772,5.152 0.001,0 0.001,0 0.001,0 1.826,0 44.742,-0.309 88.964,-26.825 22.956,-13.765 42.042,-32.065 56.727,-54.392 17.741,-26.973 28.998,-59.834997 33.461,-97.673997 0.599,-5.089 -1.09,-10.182 -4.614,-13.902 z"
       style="fill:#91dc5a"
       inkscape:connector-curvature="0" />
    <path
       id="path840"
       d="m 485.46327,13.404263 c -1.773,0.112 -43.906,3.009 -87.003,26.232 -40.726,21.945 -89.87,66.475997 -92.724,153.995997 -0.156,4.772 1.67,9.396 5.046,12.773 5.148,5.151 11.192,5.152 13.772,5.152 0,0 0.001,0 0.002,0 0.483,0 3.846,-0.022 9.348,-0.545 21.488,-112.300997 118.481,-154.011997 168.032,-165.818997 0.67,-4.116 1.27,-8.285 1.77,-12.526 0.6,-5.089 -1.09,-10.18 -4.613,-13.901 -3.523,-3.721 -8.505,-5.68 -13.63,-5.362 z"
       style="fill:#6dc82a"
       inkscape:connector-curvature="0" />
    <path
       id="path842"
       d="m 543.98627,273.27926 h -395.473 c -11.506,0 -20.919,-9.414 -20.919,-20.919 v -81.254 c 0,-11.506 9.414,-20.919 20.919,-20.919 h 395.473 c 11.506,0 20.919,9.414 20.919,20.919 v 81.254 c 0,11.505 -9.414,20.919 -20.919,20.919 z"
       style="fill:#96c8ef"
       inkscape:connector-curvature="0" />
    <g
       id="g850">
</g>
    <g
       id="g852">
</g>
    <g
       id="g854">
</g>
    <g
       id="g856">
</g>
    <g
       id="g858">
</g>
    <g
       id="g860">
</g>
    <g
       id="g862">
</g>
    <g
       id="g864">
</g>
    <g
       id="g866">
</g>
    <g
       id="g868">
</g>
    <g
       id="g870">
</g>
    <g
       id="g872">
</g>
    <g
       id="g874">
</g>
    <g
       id="g876">
</g>
    <g
       id="g878">
</g>
  </g>
</svg>
