<svg width="252" height="196" viewBox="0 0 252 196" fill="none" xmlns="http://www.w3.org/2000/svg">
<g filter="url(#filter0_d_143_617)">
<path d="M47.581 51.1402C56.7141 48.8938 56.1656 43.8844 62.4284 39.3734M48.9451 52.0602C53.0235 49.0841 54.2632 46.0905 64.3303 35.5369M43.4237 65.097C48.5218 53.4179 60.2115 50.3417 71.48 30.7412M44.5726 63.7725C52.0654 54.9341 61.5726 47.2782 74.1112 28.8088M43.6426 71.4744C57.1889 60.9035 64.5534 43.5599 86.0312 21.557M40.916 71.6784C54.4496 59.0722 66.3777 43.9085 85.6514 24.7236M12.8052 111.914C20.0333 107.495 24.7268 99.4409 30.0961 91.7775M12.4324 112.014C16.7163 109.159 20.1018 102.864 29.7903 91.6285M39.5367 85.8954C58.0635 61.8231 71.8334 44.9413 88.8756 24.7544M37.7288 83.5566C54.1879 65.208 72.2895 44.6078 89.617 24.1583M11.3081 121.56C24.5702 105.545 41.9157 84.0452 95.9674 22.1179M8.64989 122.164C35.3745 92.736 61.4787 61.4213 96.26 24.9525M3.61145 136.426C32.3793 103.133 60.9779 76.1605 100.245 23.3293M5.31187 133.157C34.7868 100.936 64.9627 66.2476 101.129 23.6545M8.98825 137.15C36.0155 107.248 61.1879 76.848 105.995 25.7621M6.81949 137.06C33.5487 104.882 62.1598 70.5962 103.447 26.2083M6.9752 142.023C43.8685 98.686 81.9691 56.5004 109.392 25.636M8.57858 141.261C49.0444 98.5324 85.8346 52.0646 109.525 25.7958M9.67319 146.126C32.0568 115.644 58.7138 88.2099 111.406 29.6946M11.008 145.489C44.2279 106.366 80.7245 67.0814 113.087 25.6684M9.0006 153.469C51.7579 104.752 88.0271 59.4635 116.51 26.8178M11.2271 152.664C51.1537 104.337 92.5305 57.1277 120.487 26.9774M12.8257 158.01C52.6668 106.989 95.5827 63.8789 124.613 31.1008M12.8159 154.58C49.3608 118.042 83.6753 79.0019 123.006 29.7029M11.646 162.356C39.6793 132.8 67.5753 99.86 127.318 31.0777M13.6164 162.337C49.4795 119.134 83.1301 78.9906 125.197 30.9646M16.6325 163.717C45.9418 136.163 71.5014 104.655 127.732 33.5598M15.4013 165.55C50.8199 127.185 83.8362 88.1913 129.375 34.9296M17.5702 168.441C56.8378 122.867 97.6159 72.6314 128.359 36.0403M18.5466 166.499C62.8538 120.06 104.705 71.8661 131.954 38.383M20.0145 171.644C60.577 127.861 97.9537 79.9552 134.33 42.8843M22.7171 169.538C55.6173 131.752 89.9094 93.883 134.184 41.7594M27.8703 174.1C45.1924 144.893 72.093 120.606 140.006 44.8383M26.5044 171.409C58.911 132.62 90.5031 95.314 138.634 44.3682M28.8618 177.561C64.0515 131.412 104.39 84.0824 140.088 43.8742M26.6938 175.451C58.3448 137.266 90.0637 101.454 141.648 45.423M31.4429 175.89C71.705 136.138 106.749 95.2266 142.241 45.9955M32.775 175.688C60.6725 147.188 85.8448 114.93 142.877 48.715M35.3716 179.943C64.7784 147.42 91.1603 114.99 146.868 52.5091M36.0448 177.781C77.525 130.018 118.801 82.1384 145.899 49.8288M38.116 181.061C65.5842 154.159 90.3908 122.145 148.013 52.5163M37.4892 181.952C63.9673 153.371 89.2481 123.754 150.772 52.5187M45.7228 182.579C84.6472 129.616 129.301 81.332 154.711 54.8135M42.917 180.619C73.5765 144.556 108.756 106.351 154.112 52.8851M44.8074 184.129C87.0738 136.657 131.713 88.2895 158.231 50.7302M47.5091 183.204C71.8913 152.914 97.1236 125.942 159.573 51.7049M54.0338 184.902C80.9082 149.61 104.997 122.18 164.327 49.3133M54.0836 183.448C90.1218 136.845 126.343 93.7651 164.768 50.781M57.4621 183.622C91.858 140.759 126.525 100.706 170.503 52.9879M57.731 183.09C93.6403 140.918 128.604 100.568 171.241 51.923M62.6652 182.959C94.8071 144.316 131.583 101.157 178.797 48.8985M62.5319 182.083C90.515 152.931 117.413 120.37 178.724 47.7435M69.0591 179.778C113.859 132.14 160.27 84.279 179.932 50.1068M70.021 183.631C92.2609 154.222 116.012 127.034 183.83 53.1975M76.5673 180.2C101.343 149.173 131.031 115.97 185.871 57.0333M74.8123 182.859C99.9428 154.663 123.939 127.496 186.491 54.0319M78.3071 185.708C102.46 154.573 129.206 124.969 190.347 56.5674M79.0835 183.362C110.12 145.251 141.429 110.912 187.288 57.5129M86.7667 183.799C119.028 140.25 155.708 97.0777 188.681 58.3409M84.727 181.614C123.345 137.594 159.716 94.3816 191.429 61.3297M92.5782 185.869C127.082 137.974 164.662 96.8503 194.374 61.5121M88.1477 181.871C120.515 147.931 152.485 111.192 193.307 61.7084M92.907 181.572C131.651 140.844 171.95 96.4953 197.097 66.5018M94.3482 181.162C128.007 145.218 162.026 106.615 197.126 65.8621M101.238 181.293C139.614 141.149 176.856 94.6784 201.509 65.7281M101.338 182.133C129.134 148.577 160.576 114.153 200.393 69.2686M102.998 180.561C140.17 140.874 180.779 98.6171 200.348 76.4513M105.83 182.555C133.351 151.569 162.551 117.095 199.265 73.7599M110.58 185.694C136.403 155.558 158.635 126.01 198.696 77.4458M109.924 181.539C127.825 162.239 148.259 139.206 201.368 80.9986M114.973 185.308C135.587 160.186 152.404 139.586 198.036 87.0368M114.501 184.277C142.144 154.412 168.061 123.689 200.407 87.7533M118.064 182.894C140.218 159.477 162.905 134.666 196.385 95.3943M120.694 183.426C150.124 149.976 177.561 115.507 199.467 93.1536M128.706 182.097C141.906 163.479 164.982 142.042 200.875 97.5529M127.16 181.853C148.646 158.009 170.857 133.796 202.379 97.0828M134.358 182.447C150.542 164.126 166.781 141.132 204.517 99.3257M131.36 182.433C157.894 152.26 187.738 120.227 205.59 98.0018M138.954 186.979C155.773 158.779 180.492 135.73 206.363 101.809M135.769 184.693C161.784 153.021 189.855 122.782 208.991 100.911M145.026 184.997C159.871 165.454 170.89 144.423 213.468 102.071M142.813 183.081C164.897 156.961 188.19 131.549 211.4 102.925M145.71 182.456C170.479 162.253 189.729 135.078 216.338 106.84M146.066 182.784C167.118 162.984 185.862 139.009 215.045 104.303M152.163 185.884C171.142 160.158 190.974 138.956 215.585 106.85M152.806 185.507C173.61 158.447 194.241 133.063 217.242 106.935M158.326 181.398C170.581 167.928 184.184 150.621 222.37 112.932M158.25 184.036C169.993 165.706 185.702 150.866 222.81 108.959M161.636 183.405C178.974 163.369 196.211 148.116 225.797 112.445M162.117 184.627C183.665 160.205 203.781 134.889 225.78 114.052M170.072 185.779C187.906 158.342 207.999 136.041 227.521 113.506M167.242 184.969C181.114 169.973 193.772 152.546 228.51 116.227M171.124 184.158C196.261 155.945 215.913 133.923 229.075 116.643M174.112 183.36C188.868 165.645 207.466 144.831 230.647 118.409M179.924 182.531C193.008 168.14 203.113 152.448 230.641 122.451M178.227 184.672C199.028 161.583 219.016 138.249 233.239 123.316M184.094 183.539C198.637 167.725 207.763 152.835 230.553 127.428M184.311 186.434C193.106 172.516 204.29 161.97 231.786 127.306M189.107 187.348C199.55 173.614 206.254 166.065 231.122 135.43M188.3 184.748C200.382 171.854 211.766 155.534 232.637 134.842M196.56 187.612C206.833 165.606 225.801 148.894 231.226 140.004M192.832 183.845C208.018 168.966 222.468 149.205 233.434 141.771M199.738 187.137C204.27 174.554 217.028 166.991 234.25 148.43M198.837 183.764C209.399 171.638 222.055 157.062 233.251 144.697M217.927 169.789C224.032 163.841 230.187 159.406 234.054 148.777M219.247 169.64C224.061 165.319 228.036 159.746 234.232 150.952M45.3659 61.1425C48.6478 55.1398 51.4294 49.39 60.356 36.7307M45.0807 62.3992C52.2909 52.392 57.8084 43.0238 64.4787 36.2014M16.0839 104.913C17.1924 102.326 19.5214 100.938 22.2722 96.9613M15.6403 104.566C16.5778 101.203 18.781 99.3122 21.8575 96.9048M41.2039 69.8714C57.701 54.2234 68.0969 41.247 71.318 29.2817M44.0358 67.0275C53.0373 56.9355 64.588 44.2176 75.2063 31.6984M14.7413 111.468C19.6974 104.355 23.4752 103.034 35.2921 84.3963M12.5564 112.846C16.4688 106.486 20.9764 100.812 32.2369 85.6082M39.9274 76.3618C53.9652 56.5386 71.8189 36.1898 82.9413 21.2334M40.8643 79.0985C52.7075 64.7792 64.2571 49.2592 84.5941 24.6115M37.4215 81.8003C36.0922 85.865 31.7121 88.4461 31.5317 90.7789M38.5415 82.5981C36.1537 86.4023 32.7922 90.4973 30.0514 92.7674M7.11766 121.66C37.2326 91.925 60.6136 59.5814 90.2812 23.8574M10.1751 122.059C37.6871 89.9 64.6504 54.8854 88.7295 24.1715M3.95426 131.308C38.0071 93.0669 77.2719 45.1971 96.6863 23.0378M5.06156 132.871C40.1688 91.5036 71.9018 52.5225 95.1143 25.5646M8.96445 137.993C29.8504 111.455 45.5943 84.2738 98.067 24.5551M6.7348 137.192C36.5505 101.462 69.1818 63.6543 98.9627 25.0453M10.6838 144.244C44.7803 97.9679 86.0068 53.5486 105.575 24.9418M7.27354 143.262C46.2312 98.1768 85.3518 53.6225 102.707 25.9669M12.727 149.471C43.0561 109.155 71.8994 73.0053 111.719 26.6872M10.8525 148.164C35.9305 116.053 60.271 86.8441 108.102 25.2927M12.1382 152.377C51.2403 104.332 86.9853 57.4144 112.608 26.6603M11.6764 151.927C39.0682 120.48 68.1078 86.3611 115.044 26.3075M15.5183 155.518C39.7078 126.727 65.1659 93.6248 120.952 26.6983M13.5262 156.333C42.9155 121.624 71.3104 87.114 118.095 28.1143M13.1123 161.41C42.0115 128.734 72.3116 91.1618 122.837 28.8051M12.5826 161.521C54.2704 113.309 96.7187 65.0165 122.003 29.3189M18.4111 162.604C52.1596 117.402 89.9367 75.1451 123.967 32.8144M17.1883 162.612C58.2138 113.81 99.0183 64.0394 124.663 31.6616M18.5559 164.168C58.0232 118.847 96.5597 71.7047 129.454 32.8236M18.2137 167.795C60.1158 119.594 100.674 72.782 127.238 33.6569M21.7851 170.766C51.34 132.055 83.6739 95.7647 132.95 35.2611M22.6059 170.468C56.2479 127.235 88.9896 85.7116 130.97 36.8137M23.7289 172.032C51.043 142.189 72.0985 109.393 132.672 38.546M25.6417 171.499C63.5073 123.685 102.646 77.0747 134.7 38.9496M28.1014 176.375C66.9391 129.257 107.919 78.0622 135.916 43.8667M27.8799 173.978C59.6951 139.745 91.2474 99.9897 135.962 43.4519M28.9134 176.271C63.8121 136.869 103.947 89.4328 140.978 43.8149M31.2169 175.306C57.1068 144.749 84.6755 112.858 140.927 46.4163M31.7604 176.878C71.579 139.882 105.056 96.1794 143.334 45.5172M35.6328 179.316C64.621 141.934 97.6834 104.334 143.516 47.304M37.8284 178.707C69.9503 137.762 109.806 95.169 143.708 49.2677M37.1166 180.393C68.1477 143.06 101.204 105.247 146.725 51.9923M45.0755 184.875C79.3971 137.518 115.15 95.6616 149.855 51.8617M43.2718 183.086C70.9963 148.914 96.7932 116.114 150.008 52.4047M46.4753 183.646C81.8678 144.213 116.153 102 156.403 54.8476M48.3121 183.519C88.0887 134.105 129.204 84.3374 153.921 52.5835M54.7356 183.761C92.3116 133.474 138.043 84.3988 158.193 53.8684M53.8087 180.731C94.7928 133.856 134.563 87.7803 161.712 53.064M60.3619 183.482C93.3537 139.417 128.259 92.9471 164.895 54.6829M57.1634 183.435C93.1333 144.411 124.358 103.457 167.336 52.0638M65.3234 180.285C103.165 131.637 145.889 82.7899 169.372 51.275M64.5402 183.198C100.353 136.256 137.634 90.7718 172.568 51.2535M70.2485 185.268C100.881 144.394 131.572 105.255 177.448 47.8781M67.8896 181.278C107.711 135.211 146.283 86.6806 179.447 48.0183M74.3647 185.005C109.298 143.647 144.821 100.564 179.702 53.5101M73.2254 183.687C116.404 133.573 155.528 87.2586 183.824 51.9681M79.8964 183.028C106.57 149.829 133.888 117.972 183.112 52.533M79.9691 182.669C118.29 132.384 156.606 84.4371 185.258 54.5439M83.9651 181.966C109.429 157.719 132.727 125.927 188.155 54.9012M84.8413 183.064C124.349 136.504 161.777 88.3523 188.777 57.0641M91.9528 184.201C114.794 155.693 135.577 130.675 188.767 58.8891M90.4393 181.893C128.14 136.583 165.657 90.1718 192.316 61.7235M97.1195 183.187C135.335 137.781 168.591 90.1093 192.995 63.1747M95.7253 182.247C116.235 156.753 137.105 133.894 194.241 64.3052M101.199 184.856C124.012 156.842 141.963 132.549 199.161 67.8757M99.6779 181.51C121.379 155.661 142.361 130.54 197.992 66.0325M105.302 181.539C133.266 145.604 163.833 110.232 198.856 65.99M104.801 181.887C141.815 143.218 174.274 100.523 198.438 67.7711M113.755 181.212C137.759 146.561 169.64 110.929 201.22 72.7691M111.76 182.199C134.086 153.221 160.635 123.447 201.164 75.678M114.359 182.629C133.548 156.769 150.794 136.374 198.865 81.6486M115.571 184.464C135.396 158.652 156.091 133.821 200.747 79.2859M119.37 185.794C153.52 146.699 180.915 107.287 197.013 89.561M119.753 184.318C150.102 148.212 177.284 112.434 200.7 85.2854M124.414 183.106C153 150.698 178.669 116.725 198.25 91.959M127.54 182.797C144.937 161.226 161.614 138.347 200.256 94.0481M130.126 183.998C149.005 160.676 169.399 134.725 199.753 94.0076M130.839 182.827C146.064 166.296 160.209 146.974 203.433 96.5266M136.357 181.374C157.153 159.158 174.26 139.635 203.502 97.5923M136.199 183.623C163.366 154.178 187.16 123 205.115 97.0555M139.303 182.445C161.507 162.057 174.093 145.036 211.283 98.5007M142.047 183.306C157.588 166.409 171.65 147.18 208.879 101.633M149.352 182.69C167.214 160.284 181.959 135.752 214.558 102.492M147.983 183.348C163.927 166.346 178.794 148.45 213.347 102.257M151.891 184.321C164.259 165.411 176.378 151.602 216.798 103.889M153.409 183.525C172.739 158.234 193.736 130.942 216 105.098M158.135 186.18C179.016 155.022 206.964 127.688 218.988 107.675M156.909 183.329C181.166 154.98 203.894 125.662 219.599 107.697M163.64 184.684C174.993 169.334 190.165 153.619 221.913 111.299M161.552 185.465C178.813 166.761 190.952 146.924 223.328 109.235M169.512 187.499C181.9 165.767 196.301 151.61 227.301 113.353M166.741 183.722C187.188 159.684 207.59 132.693 225.819 111.642M175.756 182.862C192.043 162.531 207.73 134.181 228.515 114.552M173.653 183.439C188.599 166.419 204.906 149.216 228.864 114.959M177.045 181.821C197.609 160.431 222.097 130.596 229.246 115.143M177.376 183.271C191.688 167.559 202.925 152.878 232.461 117.922M181.286 185.416C198.47 167.595 218.12 143.364 231.931 121.422M182.111 184.992C194.2 171.13 203.888 156.61 233.475 123.885M191.9 182.526C200.395 168.5 212.541 154.578 231.324 126.781M187.485 185.063C204.766 162.62 221.479 142.703 231.812 129.681M196.477 182.816C210.295 167.17 222.72 152.856 232.995 133.238M194.886 184.414C202.148 172.374 213.235 158.238 231.294 135.031M199.708 186.874C209.496 175.847 213.278 163.53 235.211 140.108M200.052 185.998C209.023 171.26 220.133 155.51 233.139 141.061M221.025 168.501C223.752 162.169 232.739 150.661 234.557 148.368M218.509 167.867C221.343 163.865 226.722 156.142 234.363 145.573M52.1563 43.1654V43.1654ZM15.2887 103.868V103.868Z" stroke="#118F16" stroke-linecap="round"/>
<path d="M38.7221 83.2432C39.9068 80.7331 36.8548 80.4237 40.9762 78.1995M38.7221 83.2432V83.2432ZM41.112 82.963C36.841 80.4457 38.7223 78.822 37.1884 80.104M38.6499 80.3164C40.0138 46.0077 62.9079 20.3897 94.3038 24.1721M39.4619 77.9041C39.0751 47.0927 67.0205 20.3482 99.0667 22.7453M96.3999 22.5039C116.206 23.9089 134.652 32.5823 146.992 51.2279M97.0824 21.6775C121.182 23.097 139.44 34.4245 143.262 53.7752M146.462 51.4825C152.406 48.3108 156.013 48.2753 164.703 45.8843M146.586 49.9287C151.188 49.0988 155.498 46.7329 166.793 46.8065M165.7 45.6289C184.36 42.9529 202.496 59.4871 201.136 81.4638M165.416 45.3034C182.986 44.4283 199.33 60.0931 200.819 78.4925M200.35 80.3164C199.317 85.0775 198.537 88.6278 197.338 93.3104M198.072 77.8796C200.648 86.9635 197.81 90.2233 197.357 90.5346M198.04 92.8184C221.094 96.4856 235.001 114.903 235.334 135.951M199.023 95.779C218.107 96.3169 233.336 113.726 236.043 135.556M235 138.129C237.266 163.234 213.843 182.893 191.666 186.832M232.782 138.828C234.245 166.909 213.138 183.848 185.661 186.257M191.767 183.894C135.177 185.476 84.9149 184.633 58.7636 187.365M188.103 185.676C148.481 186.228 109.606 184.35 56.4062 184.501M55.9749 184.379C27.25 185.897 2.02086 162.404 1.01355 130.611M58.2569 186.076C27.8939 183.641 1.36564 160.142 5.77666 131.991M3.99988 132.348C3.29037 107.545 18.2724 91.8463 39.214 80.8803M3.75113 134.695C3.26968 108.771 15.4297 87.296 38.2303 84.7442" stroke="black" stroke-width="2" stroke-linecap="round"/>
</g>
<defs>
<filter id="filter0_d_143_617" x="0.0135498" y="-9.05859" width="257.029" height="205" filterUnits="userSpaceOnUse" color-interpolation-filters="sRGB">
<feFlood flood-opacity="0" result="BackgroundImageFix"/>
<feColorMatrix in="SourceAlpha" type="matrix" values="0 0 0 0 0 0 0 0 0 0 0 0 0 0 0 0 0 0 127 0" result="hardAlpha"/>
<feOffset dx="10" dy="-10"/>
<feGaussianBlur stdDeviation="5"/>
<feColorMatrix type="matrix" values="0 0 0 0 0 0 0 0 0 0 0 0 0 0 0 0 0 0 0.25 0"/>
<feBlend mode="normal" in2="BackgroundImageFix" result="effect1_dropShadow_143_617"/>
<feBlend mode="normal" in="SourceGraphic" in2="effect1_dropShadow_143_617" result="shape"/>
</filter>
</defs>
</svg>
