<svg id="vuesax_linear_candle" data-name="vuesax/linear/candle" xmlns="http://www.w3.org/2000/svg" width="20.619" height="20.619" viewBox="0 0 20.619 20.619">
  <g id="candle">
    <path id="Vector" d="M0,6.014V0" transform="translate(5.584 12.887)" fill="none" stroke="#464f64" stroke-linecap="round" stroke-linejoin="round" stroke-width="1.5"/>
    <path id="Vector-2" data-name="Vector" d="M0,2.577V0" transform="translate(5.584 1.718)" fill="none" stroke="#464f64" stroke-linecap="round" stroke-linejoin="round" stroke-width="1.5"/>
    <path id="Vector-3" data-name="Vector" d="M0,2.577V0" transform="translate(15.034 16.323)" fill="none" stroke="#464f64" stroke-linecap="round" stroke-linejoin="round" stroke-width="1.5"/>
    <path id="Vector-4" data-name="Vector" d="M0,6.014V0" transform="translate(15.034 1.718)" fill="none" stroke="#464f64" stroke-linecap="round" stroke-linejoin="round" stroke-width="1.5"/>
    <path id="Vector-5" data-name="Vector" d="M5.155,1.718V6.873A1.538,1.538,0,0,1,3.436,8.591H1.718A1.538,1.538,0,0,1,0,6.873V1.718A1.538,1.538,0,0,1,1.718,0H3.436A1.538,1.538,0,0,1,5.155,1.718Z" transform="translate(3.007 4.296)" fill="#464f64" stroke="#464f64" stroke-linecap="round" stroke-linejoin="round" stroke-width="1.5"/>
    <path id="Vector-6" data-name="Vector" d="M5.155,1.718V6.873A1.538,1.538,0,0,1,3.436,8.591H1.718A1.538,1.538,0,0,1,0,6.873V1.718A1.538,1.538,0,0,1,1.718,0H3.436A1.538,1.538,0,0,1,5.155,1.718Z" transform="translate(12.457 7.732)" fill="none" stroke="#464f64" stroke-linecap="round" stroke-linejoin="round" stroke-width="1.5"/>
    <path id="Vector-7" data-name="Vector" d="M0,0H20.619V20.619H0Z" fill="none" opacity="0"/>
  </g>
</svg>
