<?xml version="1.0" encoding="UTF-8" standalone="no"?>
<svg
   xmlns:dc="http://purl.org/dc/elements/1.1/"
   xmlns:cc="http://creativecommons.org/ns#"
   xmlns:rdf="http://www.w3.org/1999/02/22-rdf-syntax-ns#"
   xmlns:svg="http://www.w3.org/2000/svg"
   xmlns="http://www.w3.org/2000/svg"
   xmlns:sodipodi="http://sodipodi.sourceforge.net/DTD/sodipodi-0.dtd"
   xmlns:inkscape="http://www.inkscape.org/namespaces/inkscape"
   width="24px"
   height="24px"
   viewBox="0 0 24 24"
   version="1.1"
   id="svg10"
   sodipodi:docname="education-book.svg"
   inkscape:version="0.92.5 (2060ec1f9f, 2020-04-08)">
  <metadata
     id="metadata16">
    <rdf:RDF>
      <cc:Work
         rdf:about="">
        <dc:format>image/svg+xml</dc:format>
        <dc:type
           rdf:resource="http://purl.org/dc/dcmitype/StillImage" />
      </cc:Work>
    </rdf:RDF>
  </metadata>
  <defs
     id="defs14" />
  <sodipodi:namedview
     pagecolor="#ffffff"
     bordercolor="#666666"
     borderopacity="1"
     objecttolerance="10"
     gridtolerance="10"
     guidetolerance="10"
     inkscape:pageopacity="0"
     inkscape:pageshadow="2"
     inkscape:window-width="1366"
     inkscape:window-height="740"
     id="namedview12"
     showgrid="false"
     inkscape:zoom="9.8333333"
     inkscape:cx="12"
     inkscape:cy="12"
     inkscape:window-x="1366"
     inkscape:window-y="0"
     inkscape:window-maximized="1"
     inkscape:current-layer="svg10" />
  <g
     transform="translate(0 -1028.4)"
     id="g8">
    <path
       d="m4 1c-1.1046 0-2 0.8954-2 2v3 11 3 1c0 1.105 0.8954 2 2 2h2 12 2c1.105 0 2-0.895 2-2v-1-3-11-3c0-1.1046-0.895-2-2-2h-2-12-2zm-0.5 2h1c0.2761 0 0.5 0.2238 0.5 0.5v1c0 0.2762-0.2239 0.5-0.5 0.5h-1c-0.2761 0-0.5-0.2238-0.5-0.5v-1c0-0.2762 0.2239-0.5 0.5-0.5zm16 0h1c0.276 0 0.5 0.2238 0.5 0.5v1c0 0.2762-0.224 0.5-0.5 0.5h-1c-0.276 0-0.5-0.2238-0.5-0.5v-1c0-0.2762 0.224-0.5 0.5-0.5zm-16 3h1c0.2761 0 0.5 0.2238 0.5 0.5v1c0 0.2762-0.2239 0.5-0.5 0.5h-1c-0.2761 0-0.5-0.2238-0.5-0.5v-1c0-0.2762 0.2239-0.5 0.5-0.5zm16 0h1c0.276 0 0.5 0.2238 0.5 0.5v1c0 0.2762-0.224 0.5-0.5 0.5h-1c-0.276 0-0.5-0.2238-0.5-0.5v-1c0-0.2762 0.224-0.5 0.5-0.5zm-16 3h1c0.2761 0 0.5 0.2238 0.5 0.5v1c0 0.276-0.2239 0.5-0.5 0.5h-1c-0.2761 0-0.5-0.224-0.5-0.5v-1c0-0.2762 0.2239-0.5 0.5-0.5zm16 0h1c0.276 0 0.5 0.2238 0.5 0.5v1c0 0.276-0.224 0.5-0.5 0.5h-1c-0.276 0-0.5-0.224-0.5-0.5v-1c0-0.2762 0.224-0.5 0.5-0.5zm-16 3h1c0.2761 0 0.5 0.224 0.5 0.5v1c0 0.276-0.2239 0.5-0.5 0.5h-1c-0.2761 0-0.5-0.224-0.5-0.5v-1c0-0.276 0.2239-0.5 0.5-0.5zm16 0h1c0.276 0 0.5 0.224 0.5 0.5v1c0 0.276-0.224 0.5-0.5 0.5h-1c-0.276 0-0.5-0.224-0.5-0.5v-1c0-0.276 0.224-0.5 0.5-0.5zm-16 3h1c0.2761 0 0.5 0.224 0.5 0.5v1c0 0.276-0.2239 0.5-0.5 0.5h-1c-0.2761 0-0.5-0.224-0.5-0.5v-1c0-0.276 0.2239-0.5 0.5-0.5zm16 0h1c0.276 0 0.5 0.224 0.5 0.5v1c0 0.276-0.224 0.5-0.5 0.5h-1c-0.276 0-0.5-0.224-0.5-0.5v-1c0-0.276 0.224-0.5 0.5-0.5zm-16 3h1c0.2761 0 0.5 0.224 0.5 0.5v1c0 0.276-0.2239 0.5-0.5 0.5h-1c-0.2761 0-0.5-0.224-0.5-0.5v-1c0-0.276 0.2239-0.5 0.5-0.5zm16 0h1c0.276 0 0.5 0.224 0.5 0.5v1c0 0.276-0.224 0.5-0.5 0.5h-1c-0.276 0-0.5-0.224-0.5-0.5v-1c0-0.276 0.224-0.5 0.5-0.5z"
       transform="translate(0 1028.4)"
       fill="#e74c3c"
       id="path2"
       style="fill:#f5412e;fill-opacity:1" />
    <path
       d="m2 1040.4v5 3 1c0 1.1 0.8954 2 2 2h2 12 2c1.105 0 2-0.9 2-2v-1-3-5h-1.5c0.276 0 0.5 0.2 0.5 0.5v1c0 0.2-0.224 0.5-0.5 0.5h-1c-0.276 0-0.5-0.3-0.5-0.5v-1c0-0.3 0.224-0.5 0.5-0.5h-15c0.2761 0 0.5 0.2 0.5 0.5v1c0 0.2-0.2239 0.5-0.5 0.5h-1c-0.2761 0-0.5-0.3-0.5-0.5v-1c0-0.3 0.2239-0.5 0.5-0.5h-1.5zm1.5 3h1c0.2761 0 0.5 0.2 0.5 0.5v1c0 0.2-0.2239 0.5-0.5 0.5h-1c-0.2761 0-0.5-0.3-0.5-0.5v-1c0-0.3 0.2239-0.5 0.5-0.5zm16 0h1c0.276 0 0.5 0.2 0.5 0.5v1c0 0.2-0.224 0.5-0.5 0.5h-1c-0.276 0-0.5-0.3-0.5-0.5v-1c0-0.3 0.224-0.5 0.5-0.5zm-16 3h1c0.2761 0 0.5 0.2 0.5 0.5v1c0 0.2-0.2239 0.5-0.5 0.5h-1c-0.2761 0-0.5-0.3-0.5-0.5v-1c0-0.3 0.2239-0.5 0.5-0.5zm16 0h1c0.276 0 0.5 0.2 0.5 0.5v1c0 0.2-0.224 0.5-0.5 0.5h-1c-0.276 0-0.5-0.3-0.5-0.5v-1c0-0.3 0.224-0.5 0.5-0.5z"
       id="path4"
       fill="#c0392b"
       style="fill:#c53526;fill-opacity:1" />
    <path
       d="m5 22v-20.196l17.66 10.098z"
       transform="matrix(.28312 0 0 .29709 8.5844 1036.8)"
       fill="#ecf0f1"
       id="path6" />
  </g>
</svg>
