<svg width="246" height="247" viewBox="0 0 246 247" fill="none" xmlns="http://www.w3.org/2000/svg">
<path d="M17.7057 125.406C19.3287 122.301 21.2278 118.854 26.1824 112.713M17.4268 125.1C19.3961 120.158 23.5488 116.504 26.2497 111.42M19.5646 129.934C20.5848 125.388 22.8956 122.73 31.9245 111.777M17.567 130.433C24.0208 122.831 27.121 115.911 31.0176 109.53M19.3339 134.398C24.8509 126.172 30.3934 117.085 35.0986 109.257M19.9672 136.62C24.2014 129.008 29.2595 121.704 36.573 110.575M21.0584 141.233C26.8535 128.649 36.3588 117.029 41.1437 108.481M20.3118 142.203C27.9154 128.79 35.9789 118.24 40.5365 109.501M22.3718 148.65C32.8286 132.988 38.7427 119.433 45.2219 108.682M21.781 148.785C27.6253 138.82 31.9718 130.633 46.3727 110.396M21.4419 152.205C26.3072 145.407 32.6444 135.128 51.2258 111.646M22.5685 153.625C29.0841 144.69 34.8044 134.766 51.0194 109.997M22.2107 159.195C32.5796 146.049 38.5883 137.048 56.1829 110.894M23.696 160.578C34.5319 143.736 44.5133 126.739 55.6215 111.811M24.0329 164C35.8094 150.143 45.8528 134.168 59.7902 112.16M24.8027 165.782C33.6609 151.423 43.2998 136.127 59.6187 112.075M24.6889 170.362C33.3997 160.141 40.5081 145.756 62.7454 112.435M25.3727 170.35C39.1616 151 53.3352 129.837 62.1252 113.44M27.7768 176.186C40.8558 152.817 57.7076 125.614 66.5753 111.978M26.6039 177.123C40.2309 157.221 53.4785 134.844 66.8843 114.183M27.6057 184.148C39.043 168.389 47.6901 152.369 72.9855 112.023M27.0489 182.998C40.3484 163.55 51.2285 147.35 70.7854 113.225M28.252 186.634C38.3296 171.731 48.4953 158.387 76.7477 113.036M28.297 187.846C45.3034 162.241 61.7055 139.117 76.3487 113.625M30.582 193.52C42.2693 174.435 54.5409 152.886 78.8207 114.942M28.9233 194.899C47.7105 164.443 67.0699 136.766 81.3645 115.212M29.5342 202.102C48.8227 168.629 71.4288 140.669 86.389 115.654M30.6635 199.203C51.5212 166.479 73.6174 134.471 84.7748 115.504M30.9512 205.476C51.7471 170.236 77.6681 138.177 90.1294 115.673M30.7596 206.283C49.2337 175.962 69.1446 146.602 90.0716 117.003M31.9665 211.803C43.6698 190.604 58.885 170.409 94.6741 115.638M32.9946 210.188C45.8522 189.467 59.6897 168.095 93.1213 116.432M33.2088 217.621C50.8234 192.501 63.9237 167.756 99.3682 118.18M32.6855 217.572C52.9922 186.801 73.7788 153.932 98.1673 117.484M37.9537 217.25C61.4247 180.774 85.4119 146.442 101.052 117.292M36.7811 218.407C55.9582 187.583 76.7323 157.247 102.158 119.136M41.603 221.105C65.2357 184.78 89.0618 146.69 107.904 118.707M42.2227 219.242C52.9317 199.441 66.8291 179.146 107.172 120.525M47.9397 221.271C68.9974 184.444 92.217 149.272 109.83 120.08M46.6356 220.646C63.9289 193.451 79.8442 167.454 110.425 119.654M50.9124 220.377C66.3054 194.322 80.5156 170.257 114.758 120.785M51.0562 219.926C73.0608 183.815 95.1508 150.095 115.262 118.935M55.4634 221.929C74.3401 190.585 92.203 164.633 117.401 126.085M54.4566 220.873C71.1891 195.187 87.2947 170.445 116.235 125.89M58.2645 222.756C78.8362 190.255 100.867 159.21 115.675 130.777M60.1003 220.54C78.0254 192.234 97.003 164.733 117.606 132.702M61.7212 221.214C76.1572 202.756 88.5841 183.695 116.551 136.586M62.9101 223.427C84.4287 191.624 105.842 160.035 118.023 137.715M65.9161 222.756C78.5919 207.249 91.7146 189.987 118.219 146.491M66.7434 223.602C80.3689 202.78 94.5043 180.947 119.445 145.059M73.6111 224.08C85.5692 205.023 95.0712 183.433 118.582 148.508M72.6372 224.299C85.1217 204.022 98.0726 183.049 120.644 150.366M78.1676 225.882C91.1428 199.474 107.858 178.456 121.2 157.393M75.7734 224.326C88.3373 203.991 102.797 185.359 119.81 156.986M82.1229 224.117C89.6038 212.583 98.1434 196.991 119.636 164.574M80.0743 225.344C93.3604 206.184 105.618 187.507 120.971 163.701M85.8118 226.453C99.3342 207.027 110.487 187.715 120.81 166.51M86.0883 224.962C96.1788 206.816 107.695 189.255 123.265 167.988M89.4084 227.637C98.3948 213.626 106.4 202.305 122.631 176.669M89.1174 226.911C100.314 210.732 109.555 195.032 123.915 174.804M94.9843 226.573C103.6 210.689 115.39 194.831 125.771 181.982M93.7507 225.447C102.324 212.771 110.806 201.777 124.154 180.24M98.4003 228.034C103.831 217.839 110.522 209.084 125.083 186.187M98.9175 227.771C110.05 210.732 118.457 194.542 124.71 186.925M103.404 225.284C109.356 219.451 114.72 207.977 125.558 194.695M103.551 227.482C109.022 219.009 114.904 209.992 125.545 192.979M106.045 229.412C112.853 222.058 115.977 212.597 125.142 198.994M107.342 227.345C112.01 220.817 116.156 213.858 125.828 197.897M111.39 228.344C114.088 220.817 119.028 216.777 129.033 206.467M111.287 227.968C116.786 220.921 122.956 212.504 126.55 204.689M115.116 229.403C118.835 221.875 125.221 218.72 127.271 209.648M117.481 229.083C119.218 223.696 121.531 219.315 127.17 212.177M120.177 228.792C124.042 227.109 124.485 224.026 128.788 217.418M120.603 229.083C123.68 225.246 126.603 220.455 129.93 217.19M125.823 229.872C127.393 228.683 128.463 226.927 129.43 222.602M125.276 229.651C126.634 227.993 127.271 226.936 129.689 222.86M130.006 230.398C130.223 230.087 130.169 229.843 130.873 228.774M129.776 230.283C130.093 229.75 130.506 229.309 130.894 228.683M19.6184 132.098C20.4393 124.144 23.0669 116.482 25.2928 110.671M19.019 131.005C21.0137 124.281 22.9242 116.432 26.4296 110.457M17.4638 135.511C21.497 130.331 24.1379 124.695 29.9119 108.666M20.0829 136.812C22.7642 129.046 27.4687 120.831 30.8796 109.459M21.1712 141.085C24.3431 135.422 26.0895 129.104 35.1107 111.06M20.9015 141.294C24.7709 134.32 27.8675 125.998 37.1546 109.254M19.8981 146.406C29.5216 134.633 32.8068 122.823 41.2514 111.062M21.4645 148.214C26.472 137.247 32.549 125.671 40.6263 109.01M20.4257 153.057C28.8864 140.502 36.3784 127.196 45.1833 111.171M23.3212 153.078C30.999 137.755 39.0034 124.417 46.5266 109.112M24.4007 157.742C30.0891 149.169 35.8821 140.02 51.3143 108.574M23.8332 159.184C30.2436 148.348 34.9224 137.901 50.1184 109.888M25.5391 165.755C33.4364 152.357 37.0507 141.29 54.0412 113.135M24.0095 166.301C31.4112 151.114 39.8366 137.696 54.6211 111.132M25.6575 171.655C33.0675 155.372 42.7062 141.566 58.3496 112.331M24.3037 170.037C33.7704 157.13 40.3277 144.524 58.389 112.232M26.0622 175.682C42.6446 153.02 57.3157 126.496 61.4232 115.124M26.2276 177.642C35.1001 159.097 46.5967 142.162 62.9427 111.989M27.421 181.946C36.0322 167.429 43.4832 150.964 68.0587 112.174M28.1199 182.574C36.5813 167.597 43.7528 153.59 67.3999 114.143M27.1866 186.474C39.7628 166.719 52.9454 142.194 71.1179 116.089M27.711 187.747C43.476 162.599 57.9203 137.425 72.5891 114.536M29.9182 194.875C38.8672 175.305 50.3298 154.586 77.9944 113.278M29.9359 194.207C44.0766 170.031 57.865 145.873 75.8925 115.117M30.6511 200.891C47.9858 170.795 68.7923 140.775 82.0714 115.529M29.6387 199.952C47.2864 173.524 63.9733 144.455 79.8461 114.731M29.506 205.714C46.6426 179.244 64.3528 148.958 85.6105 115.498M31.106 206.051C48.422 177.55 67.3132 148.041 83.7591 116.843M32.8456 211.938C44.0069 193.182 56.1106 174.281 91.2561 118.523M33.5032 211.606C53.2021 175.658 74.8303 138.756 88.2787 117.242M31.2951 220.466C46.4484 195.492 57.3319 171.65 94.5831 118.604M32.2717 218.673C53.0989 184.558 74.7331 148.923 94.2356 116.607M38.4087 219.956C58.2948 181.911 79.8746 148.331 96.6386 118.042M37.3179 218.035C60.8666 179.823 85.3379 140.051 97.9877 118.089M40.5327 220.858C53.7043 197.347 66.8552 173.074 101.656 117.079M42.3335 219.395C63.8713 182.717 86.071 144.442 103.244 117.674M47.7741 219.335C63.299 187.042 83.3286 159.366 105.779 121.276M45.6936 220.275C66.0572 186.278 86.6978 153.732 106.449 118.702M51.9383 221.681C64.4307 197.124 81.1978 173.96 111.269 121.596M49.9593 220.255C63.799 198.328 78.7886 173.744 111.368 120.262M53.1713 221.456C78.1623 184.649 98.3963 147.211 116.945 118.323M54.6642 220.463C75.8224 184.17 97.7136 147.375 115.61 120.36M60.6469 220.877C70.0164 202.714 82.6104 180.634 116.065 125.871M59.7907 221.487C80.4042 187.061 101.761 152.617 116.925 126.214M63.7244 221.744C83.9085 188.594 100.709 158.511 118.526 131.412M63.1079 222.875C83.2832 191.007 103.529 159.181 117.895 133.456M69.1939 221.706C81.9948 197.906 100.229 169.38 118.939 136.857M67.9657 223.836C87.5249 190.298 107.334 156.443 117.272 137.274M72.2082 224.649C89.7282 195.055 103.175 171.198 118.352 146.445M72.8863 223.175C80.5282 207.306 91.2104 191.585 119.493 144.265M76.8088 225.409C86.2945 208.209 95.3262 191.879 118.805 150.58M76.1725 223.718C88.4045 204.019 99.0355 183.917 120.521 149.594M81.1969 226.524C91.8636 204.617 103.152 186.365 121.473 155.913M81.9139 225.248C88.6621 210.369 96.974 196.095 121.087 157.235M86.2699 223.467C98.322 203.979 108.831 181.763 120.792 160.884M85.4859 225.414C92.493 212.804 99.9238 200.065 122.253 163.193M90.7975 224.392C98.1086 213.726 106.196 200.511 123.679 167.609M90.4475 224.883C97.1742 212.615 104.65 201.337 121.63 169.081M92.7507 226.758C104.234 208.943 112.436 195.988 125.051 176.103M93.5925 226.732C106.041 207.563 115.544 187.508 123.199 174.46M100.05 225.405C103.044 213.885 109.679 203.453 124.046 181.389M98.1565 227.409C107.286 210.293 116.629 195.748 124.052 180.73M101.746 226.494C109.093 217.642 113.302 206.328 126.377 186.521M102.215 227.241C109.66 214.203 116.998 202.298 124.799 186.499M109.59 228.842C112.408 213.064 122.653 199.429 126.186 193.737M106.713 228.21C112.511 219.899 116.433 212.795 125.809 193.143M110.148 228C116.521 217.413 120.591 208.016 124.784 197.83M111.632 229.348C117.094 221.234 118.893 212.854 126.647 198.73M114.539 228.222C122.161 219.567 126.803 209.479 128.515 204.305M116.738 228.592C118.78 222.624 121.954 217.821 127.472 205.321M120.952 228.455C121.149 225.614 125.127 220.327 128.197 211.207M120.274 228.978C123.366 225.209 124.932 222.472 128.291 211.243M125.515 229.927C126.32 224.511 126.55 221.632 129.92 216.173M124.858 230.199C126.136 227.082 126.372 223.361 128.895 217.476M129.429 230.847C129.246 226.878 129.313 224.167 129.944 222.396M130.16 230.65C129.542 229.058 129.724 227.547 129.76 223.439M129.056 123.287C132.035 120.494 133.254 116.05 136.921 114.458M129.84 124.237C131.876 121.275 133.322 118.078 135.599 114.151M132.244 130.913C134.539 124.53 139.875 115.02 144.078 110.08M129.263 130.524C132.738 125.387 137.641 119.234 144.71 108.771M129.548 137.789C136.552 125.644 146.53 117.083 154.201 105.692M131.381 136.477C138.488 124.522 147.114 111.877 152.052 103.555M131.833 140.902C137.767 132.347 142.152 123.964 158.398 100.776M131.579 142.275C137.885 130.898 146.656 119.616 158.194 100.214M131.127 150.617C141.641 133.097 153.528 119.894 164.466 97.3492M133.465 149.097C141.896 134.177 150.818 119.748 164.526 98.0166M132.906 154.718C145.884 138.312 155.479 122.16 172.751 95.1709M133.254 153.667C143.594 139.676 154.549 123.546 171.745 95.7658M135.406 159.773C143.343 143.223 156.358 127.172 179.228 92.8838M134.599 159.738C144.354 145.155 152.345 132.271 178.504 94.8949M135.264 165.864C149.982 144.105 163.334 123.697 184.084 91.6837M134.972 166.879C149.237 145.484 162.453 123.949 183.412 92.6774M135.646 170.976C153.927 144.024 171.524 114.511 189.9 89.2821M136.461 173.275C154.941 142.629 175.639 111.882 188.71 90.3519M136.222 179.353C157.262 149.979 176.086 117.996 194.881 88.8301M136.213 179.13C154.576 152.944 169.676 128.901 195.804 89.8359M137.476 184.315C164.203 148.121 186.277 108.657 202.33 86.858M137.603 184.351C153.699 162.538 167.933 139.784 199.875 88.4178M136.955 192.786C159.778 160.771 180.824 126.026 205.515 85.9823M137.67 189.888C160.394 159.652 180.599 126.751 206.196 85.9501M139.099 196.922C157.952 171.433 174.267 142.311 212.039 84.5618M139.573 196.072C157.657 168.353 175.882 139.45 211.839 85.2718M140.864 204.548C162.341 168.61 181.73 139.636 217.195 84.7367M140.406 202.313C170.447 156.667 198.847 112.543 215.781 85.7548M140.981 208.73C162.163 176.496 180.08 147.894 218.377 87.3813M141.826 209.342C156.911 185.17 172.262 159.255 220.184 87.5297M142.162 213.974C160.968 185.212 178.396 156.703 222.072 90.7644M141.321 213.87C162.014 181.036 182.82 149.442 223.299 91.1396M143.309 219.91C166.815 185.213 192.493 146.046 224.794 90.1773M143.763 221.045C164.018 187.723 184.133 154.767 227.605 92.5941M144.937 226.719C174.103 177.531 204.89 130.174 229.456 99.2888M142.697 226.827C161.573 199.534 180.574 172.115 226.964 99.0927M147.982 230.149C170.129 193.626 192.378 161.036 227.775 104.138M146.245 230.547C166.979 202.012 186.401 171.618 228.768 104.352M152.857 225.843C169.248 199.883 188.103 174.004 230.013 108.331M154.103 225.77C170.387 199.302 187.344 174.579 229.077 110.503M159.558 221.95C173.34 201.67 187.916 181.146 231.699 118.126M160.743 224.068C178.982 195.022 199.812 164.353 229.021 116.524M167.343 219.994C192.141 181.76 220.284 141.918 229.116 121.836M166.631 220.283C181.283 199.103 193.062 180.646 230.15 123.626M174.403 218.125C191.009 192.543 208.12 166.242 233.007 128.263M173.573 217.883C189.327 192.488 205.943 166.842 231.675 128.842M179.991 216.069C199.365 184.703 217.505 158.412 231.892 133.344M179.857 214.875C194.531 193.751 208.053 174.252 232.954 133.701M186.895 211.318C205.526 183.268 222.719 156.476 233.026 139.847M186.285 210.857C202.744 187.543 218.78 164.017 233.502 140.842M194.504 207.467C210.436 184.832 224.029 160.383 234.286 146.58M194.201 208.888C210.2 184.646 224.312 160.557 234.058 145.76M200.533 204.543C215.1 186.321 226.398 165.769 235.216 153.398M201.651 205.32C209.61 191.993 218.755 177.898 235.589 153.289M206.603 203.001C212.539 189.986 220.984 178.59 233.341 158.234M207.451 202.244C218.049 187.342 226.663 173.698 235.022 158.918M212.84 201C224.545 187.683 230.451 173.845 235.499 164.387M214.025 199.057C222.714 185.783 231.4 172.314 236.3 164.908M220.08 195.15C227.306 187.243 230.633 179.312 238.323 170.219M219.957 196.673C226.984 187.293 230.89 179.94 236.572 171.027M228.376 191.513C232.573 189.459 233.384 184.666 238.879 176.152M228.791 193.209C230.158 189.619 232.999 185.837 237.44 178.2M234.737 189.432C235.247 187.759 236.406 186.593 239.328 183.042M234.697 189.644C236.033 187.117 237.968 184.561 239.269 183.297M130.394 130.964C130.156 124.943 132.555 121.783 136.686 114.133M130.444 130.407C131.355 126.527 133.84 120.637 135.854 113.825M132.484 136.689C137.167 126.904 142.693 117.666 143.037 108.14M131.08 137.195C133.665 131.489 135.374 125.72 144.833 109.07M132.34 141.398C137.802 128.69 148.015 113.825 154.013 103.904M131.309 142.252C136.136 133.501 139.971 126.518 152.463 104.847M133.161 147.767C142.155 131.362 148.297 118.997 160.959 100.613M131.842 148.15C140.691 136.081 147.696 122.356 158.436 99.8215M132.526 154.562C144.047 136.294 154.484 118.508 165.254 97.7603M134.122 153.785C144.582 134.935 154.209 115.441 165.876 99.1161M132.84 159.415C146.768 140.753 158.81 116.719 169.988 97.3511M133.71 161.655C147.48 138.095 159.119 116.221 171.466 95.6515M135.062 164.949C145.582 150.557 154.266 130.93 177.965 95.174M134.372 167.858C148.983 143.3 163.864 119.688 177.831 94.4966M135.604 170.84C148.609 154.442 157.446 134.649 183.242 93.5643M136.548 172.852C150.924 147.588 164.696 124.008 183.811 92.9715M137.938 178.563C151.996 155.293 165.181 128.819 190.179 88.9602M137.476 178.84C150.973 156.283 164.869 133.178 188.209 90.839M138.386 184.208C153.804 161.857 165.196 136.869 195.601 87.3944M137.566 184.598C159.413 149.847 179.638 115.955 195.691 88.3963M137.178 192.421C154.264 164.596 167.509 141.975 200.173 88.8134M139.173 190.665C158.705 156.633 179.78 123.182 201.183 87.7081M138.157 196.149C160.603 161.398 181.592 126.277 205.451 87.4567M138.688 197.838C165.998 155.782 189.988 113.327 206.499 86.7705M141.177 203.573C163.186 165.394 187.228 125.803 211.694 85.5845M140.351 203.541C165.912 161.945 191.234 120.536 211.384 84.1804M140.433 207.247C168.647 163.651 200.079 116.664 215.796 85.0326M141.333 209.85C167.973 162.418 197.051 115.931 216.746 86.7277M143.526 214.5C159.728 185.199 175.358 158.345 219.007 88.8895M141.885 214.11C168.07 175.243 193.103 133.185 219.906 88.4968M144.588 221.114C164.646 187.825 185.612 150.456 223.792 91.573M142.625 220.043C172.069 169.81 203.938 118.717 222.704 91.0268M142.569 229.008C161.631 195.744 179.696 162.623 227.652 91.5979M142.606 226.644C169.187 186.186 194.834 145.88 227.553 92.5382M144.811 229.976C167.226 198.513 185.441 165.946 226.614 99.8147M145.306 229.789C177.07 180.327 207.733 129.66 226.625 98.8208M152.003 226.659C170.31 200.453 187.232 172.361 226.846 106.509M153.234 226.212C181.294 178.204 210.961 130.918 227.537 105.569M158.697 222.865C185.149 178.854 213.845 132.51 227.158 109.621M159.396 222.855C179.857 189.909 201.194 157.17 228.583 110.968M165.815 219.183C189.714 182.107 213.97 145.575 227.989 116.468M166.549 220.722C183.894 193.697 201.391 163.828 229.523 116.761M173.999 215.411C187.376 199.336 199.232 178.243 231.215 121.691M174.061 217.858C186.861 196.059 200.403 174.916 229.812 123.624M180.499 212.852C196.532 184.478 214.326 156.214 230.635 128.171M180.856 213.565C199.055 183.183 218.411 151.718 231.945 127.579M186.249 211.735C198.519 195.142 207.901 176.783 230.82 133.819M188.035 212.026C203.62 182.186 223.116 150.616 232.856 133.977M194.308 206.701C203.93 188.496 217.344 169.637 233.998 140.996M193.404 209.676C207.965 182.692 224.092 157.977 233.172 141.107M200.532 205.873C211.87 182.852 226.662 161.132 235.488 147.128M201.451 203.903C213.258 184.185 225.114 162.263 233.428 147.473M208.6 202.778C212.361 192.46 222.033 178.596 235.206 151.438M206.936 202.394C213.466 191.075 219.491 180.959 234.054 152.185M213.759 198.927C217.99 189.075 222.871 181.944 236.174 159.881M213.908 199.246C219.29 190.545 224.522 180.861 234.464 158.593M222.608 195.381C228.172 183.728 233.149 172.153 238.358 165.181M220.048 195.994C226.047 187.485 230.633 179.319 236.28 165.855M226.98 193.676C229.673 187.51 231.512 182.944 238.195 170.334M228.833 192.092C229.682 187.449 232.588 181.661 237.305 170.403M234.357 190.475C236.613 184.428 237.874 180.265 237.846 177.029M234.144 189.656C236.102 184.532 237.175 179.771 237.72 178.006M79.4243 44.591C80.1431 38.4671 87.0096 35.393 87.5648 27.5166M78.2721 46.3848C82.2669 41.6751 83.6362 36.076 90.2519 28.4159M76.8073 56.4843C84.133 47.3967 91.3623 33.6015 97.9862 22.3931M75.0417 57.8022C80.5298 50.1302 84.2196 43.207 96.9215 25.015M75.7888 64.0586C86.3747 46.6611 98.9582 27.968 103.717 19.9377M76.3501 63.2483C85.9685 47.2182 96.4336 30.5536 104.275 20.6103M77.2801 66.0678C87.6478 53.9221 99.173 35.9233 111.283 18.5081M78.4179 67.5492C88.7313 54.0402 98.3911 39.6775 108.824 19.8217M80.8406 72.0991C92.4705 50.6514 105.42 30.8876 115.174 20.1335M81.3086 71.8835C92.7237 51.2552 107.237 31.361 112.849 20.6601M81.875 77.5714C92.4685 59.3525 106.847 39.6837 119.748 20.759M82.851 75.8918C96.2866 56.3773 108.495 35.2072 118.071 20.4564M83.4005 80.5543C93.6966 64.6923 101.44 51.6108 120.006 22.9244M85.9967 80.2198C93.3131 66.2663 101.921 53.3596 121.767 22.3396M86.0644 83.8078C98.2128 65.4867 108.831 49.7275 127.116 23.1996M86.6506 84.3993C99.6339 65.1906 110.944 46.9054 126.348 24.458M88.9095 87.7421C103.831 61.405 119.127 37.5523 131.86 25.7735M90.0382 88.0086C99.0876 71.1824 109.308 57.1134 129.805 23.7793M89.8156 89.6561C108.108 66.5656 122.423 43.417 133.596 25.6108M91.8963 90.9537C103.736 70.6674 116.969 51.3866 133.95 26.224M96.8584 91.9418C109.687 72.062 121.694 48.35 138.714 27.0696M95.134 92.4946C104.929 79.0385 113.552 66.075 138.683 26.88M100.158 93.9341C114.475 70.7808 130.929 49.105 141.37 31.0456M100.135 92.2021C113.893 71.6953 126.704 51.4628 140.963 30.092M105.782 94.4311C116.412 75.98 124.48 62.3175 142.221 32.7798M104.545 94.6525C111.455 81.1021 120.021 69.2987 142.754 33.4226M107.097 97.6892C117.155 81.1482 124.385 71.8875 144.145 36.6239M107.192 95.4394C121.279 75.2725 133.246 55.8165 146.133 36.6471M112.436 94.1263C122.9 78.1399 135.003 60.6107 146.302 42.2418M112.401 95.4171C122.689 81.4264 131.318 66.4763 147.258 42.4725M113.977 95.8793C124.427 85.2828 133.837 72.4294 150.593 47.1666M116.958 97.1303C122.977 86.2126 130.465 76.4233 149.739 45.8876M122.235 99.0483C131.478 80.2376 142.506 65.0043 153.656 49.5855M121.052 97.0917C132.373 79.9722 142.561 62.6033 151.304 49.6495M126.886 94.7754C137.714 82.0384 145.902 70.2605 155.451 51.9592M127.477 94.277C137.257 80.8226 144.969 67.9943 154.514 53.522M134.913 90.8339C141.378 79.2959 147.798 73.6047 150.738 63.7079M136.278 88.9406C141.231 80.6184 148.102 70.7896 150.746 66.0861M74.0329 57.8663C80.1496 49.5164 81.0799 44.6819 90.7351 30.3049M74.3453 57.5223C79.2736 47.6139 83.3698 39.3018 90.0558 28.5184M73.7768 63.5535C80.7681 53.9366 84.4739 44.1765 97.4369 25.5876M75.0793 64.2582C81.9113 54.4654 86.1623 45.4542 97.7488 24.2282M76.0289 67.216C84.791 55.5004 95.5851 39.6321 103.74 20.2345M77.7321 67.2206C84.9908 54.0926 91.3556 41.4145 103.896 19.138M80.3373 72.7461C91.17 53.2313 100.285 32.5315 109.343 18.6529M79.928 72.5289C86.1571 60.7018 91.1573 50.5913 110.633 19.0502M83.7011 77.3309C93.1981 57.6432 103.742 41.2398 112.778 21.6367M83.1454 74.8711C90.1597 62.9565 97.6264 47.6788 113.833 21.3503M83.6253 81.4728C96.178 58.2646 110.525 36.4536 118.815 21.7442M84.1591 78.9207C96.2339 60.5143 107.522 39.714 118.627 20.1539M86.0991 83.6958C100.737 59.1249 113.229 36.1201 123.788 22.1285M88.0065 83.6921C101.5 58.5969 113.65 34.7351 122.51 23.0062M89.1868 88.4372C103.215 65.8906 114.356 41.3628 126.9 21.9431M89.457 87.0166C98.999 69.9411 108.065 54.6593 125.265 24.0529M92.5699 91.6537C100.416 75.3424 109.208 62.7566 131.909 22.282M92.419 91.7917C105.177 68.5374 116.593 45.7625 130.751 25.066M94.4915 91.3022C104.232 76.8717 109.436 63.0937 133.053 25.9697M95.8733 93.1967C103.631 77.3395 112.748 61.1577 133.672 26.1955M100.659 93.994C110.016 79.9225 117.388 65.8032 138.829 24.5526M100.518 93.5012C111.007 72.5783 123.871 53.0141 139.652 26.7046M105.709 92.9267C115.713 75.5864 129.223 52.0859 139.715 31.8436M104.253 94.0462C111.658 80.203 120.106 66.7162 140.441 29.555M108.756 96.7101C119.268 71.675 133.315 49.9653 144.348 35.6258M107.886 95.6338C117.969 79.5777 127.901 60.6133 143.218 34.6458M110.725 95.3774C123.112 79.4028 130.29 63.4355 144.645 38.771M112.956 95.0512C120.228 81.8534 127.578 69.6211 144.647 37.2812M117.218 95.5126C130.009 75.0156 142.438 52.9588 146.428 41.1235M115.566 97.6912C126.713 81.2542 135.458 63.6816 146.847 41.5766M118.689 98.3457C127.741 85.5323 134.261 71.9429 149.713 45.1689M120.227 97.7804C127.128 88.2118 132.618 77.6227 150.166 45.6253M129.429 94.0822C136.521 78.0712 147.291 62.099 153.948 48.45M128.066 93.8775C137.743 76.5391 146.588 58.2479 151.465 49.226M136.613 89.7092C145.213 75.8914 151.862 61.8127 155.688 53.9048M135.453 89.3146C140.159 79.7111 145.834 69.8179 154.594 53.8995M20.8273 111.81V111.81ZM128.352 118.462V118.462ZM81.5785 33.2196V33.2196Z" stroke="white" stroke-width="1.5" stroke-linecap="round"/>
<path d="M13.1768 123.627C17.5298 149.083 22.3922 174.568 25.9027 208.964M14.1639 123.977C17.9636 141.117 21.0157 159.811 26.7663 211.222M27.1469 210.769C29.6597 217.1 32.9637 221.138 41.3225 218.106M25.6431 209.253C28.2307 217.443 33.469 223.144 41.1617 220.756M39.6256 220.36C59.0565 217.052 102.395 217.019 128.625 228.403M41.0981 221.469C61.8189 217.699 102.851 217.993 129.885 228.985M130.482 228.909C125.275 200.594 121.277 169.852 114.879 119.813M131.243 229.285C125.264 193.848 120.075 157.186 114.892 120.105M115.237 120.057C88.1981 107.644 47.0484 110.034 26.7444 109.036M113.483 120.931C89.3817 107.011 44.9365 107.151 27.4566 112.069M25.58 110.292C19.6245 112.437 13.3093 115.429 14.2435 123.565M24.0491 110.379C18.7028 110.662 12.5298 118.917 14.149 121.12M211.942 84.1351C192.347 86.3471 150.365 100.387 128.744 119.005M211.942 84.1351V84.1351ZM213.154 85.6877C190.054 87.7458 148.284 96.5674 128.847 116.987M128.868 118.098C127.755 118.025 128.93 117.521 127.386 117.12M127.366 117.268C128.131 120.153 130.62 118.625 130.612 120.229M130.045 116.502C130.535 139.132 132.445 163.504 145.927 229.268M127.94 119.287C131.719 147.891 136.243 179.095 143.948 227.408M143.848 228.122C164.91 207.433 209.119 199.017 228.332 194.756M143.166 228.692C168.199 206.529 207.319 199.272 228.42 192.189M228.724 193.827C235.066 190.803 239.382 185.13 239.577 179.662M226.847 192.854C235.11 190.516 240.456 187.05 240.141 182.374M237.593 181.279C231.069 148.485 226.527 112.266 226.671 93.5303M237.119 181.107C235.09 160.858 233.931 141.325 225.341 94.1014M225.792 93.6178C225.67 88.6764 217.437 84.9303 212.739 83.0408M227.191 93.6331C223.244 88.1693 220.338 82.548 211.296 85.7956M152.752 52.1139C148.782 32.2871 127.88 16.7068 108.852 17.3713M152.752 52.1139V52.1139ZM151.676 51.3485C148.135 32.5143 130.325 16.2306 105.446 17.8722M107.651 18.1151C86.1871 22.1904 70.8558 41.1503 73.1947 63.4499M106.958 16.2042C87.4154 20.1361 70.2055 43.6122 72.408 61.1389M73.652 63.216C78.1961 85.5715 96.5521 101.247 116.777 96.4242M75.4683 62.8425C78.2266 86.4616 96.947 102.509 119.747 97.38M118.753 97.2148C141.524 92.9022 157.998 75.636 152.299 51.6347M118.444 96.0695C141.928 94.9005 156.644 75.3009 153.711 50.094M14.8594 123.223V123.223Z" stroke="black" stroke-width="2" stroke-linecap="round"/>
</svg>
