<?xml version="1.0" encoding="UTF-8" standalone="no"?>
<!-- Generator: Adobe Illustrator 16.0.0, SVG Export Plug-In . SVG Version: 6.00 Build 0)  -->

<svg
   xmlns:dc="http://purl.org/dc/elements/1.1/"
   xmlns:cc="http://creativecommons.org/ns#"
   xmlns:rdf="http://www.w3.org/1999/02/22-rdf-syntax-ns#"
   xmlns:svg="http://www.w3.org/2000/svg"
   xmlns="http://www.w3.org/2000/svg"
   xmlns:sodipodi="http://sodipodi.sourceforge.net/DTD/sodipodi-0.dtd"
   xmlns:inkscape="http://www.inkscape.org/namespaces/inkscape"
   version="1.1"
   id="Capa_1"
   x="0px"
   y="0px"
   width="61.415px"
   height="61.415px"
   viewBox="0 0 61.415 61.415"
   style="enable-background:new 0 0 61.415 61.415;"
   xml:space="preserve"
   sodipodi:docname="education-book.svg"
   inkscape:version="0.92.5 (2060ec1f9f, 2020-04-08)"><metadata
   id="metadata41"><rdf:RDF><cc:Work
       rdf:about=""><dc:format>image/svg+xml</dc:format><dc:type
         rdf:resource="http://purl.org/dc/dcmitype/StillImage" /></cc:Work></rdf:RDF></metadata><defs
   id="defs39" /><sodipodi:namedview
   pagecolor="#ffffff"
   bordercolor="#666666"
   borderopacity="1"
   objecttolerance="10"
   gridtolerance="10"
   guidetolerance="10"
   inkscape:pageopacity="0"
   inkscape:pageshadow="2"
   inkscape:window-width="1366"
   inkscape:window-height="718"
   id="namedview37"
   showgrid="false"
   inkscape:zoom="5.4344117"
   inkscape:cx="-4.6922875"
   inkscape:cy="15.937164"
   inkscape:window-x="0"
   inkscape:window-y="23"
   inkscape:window-maximized="1"
   inkscape:current-layer="layer2" />

<g
   id="g6">
</g>
<g
   id="g8">
</g>
<g
   id="g10">
</g>
<g
   id="g12">
</g>
<g
   id="g14">
</g>
<g
   id="g16">
</g>
<g
   id="g18">
</g>
<g
   id="g20">
</g>
<g
   id="g22">
</g>
<g
   id="g24">
</g>
<g
   id="g26">
</g>
<g
   id="g28">
</g>
<g
   id="g30">
</g>
<g
   id="g32">
</g>
<g
   id="g34">
</g>
<g
   inkscape:groupmode="layer"
   id="layer1"
   inkscape:label="Layer 1"><path
     id="rect852"
     style="opacity:1;vector-effect:none;fill:#fff7c0;fill-opacity:1;fill-rule:nonzero;stroke:none;stroke-width:1.00594771;stroke-linecap:butt;stroke-linejoin:miter;stroke-miterlimit:4;stroke-dasharray:none;stroke-dashoffset:0;stroke-opacity:1;paint-order:normal"
     d="m 7.8535156,1.3007812 c 0.046215,0.1813428 0.07318,0.4247177 0.074219,0.8378907 3.71e-4,0.1477207 -0.7522349,0.6864451 -0.8300782,0.7460937 -0.0062,0.0035 -0.5659881,0.3287976 -0.6757812,0.3710938 C 6.263293,3.3169507 6.1032599,3.3230302 5.9550781,3.40625 5.681652,3.5598076 5.4262593,3.7430927 5.1621094,3.9121094 5.0981274,3.9805527 5.0348699,4.0489175 4.9707031,4.1171875 4.8479435,4.2477969 4.7162591,4.3611131 4.5761719,4.4648438 4.4287543,4.9538817 4.1670248,5.1448916 3.875,5.5371094 c -0.066695,0.089577 -0.1246296,0.186326 -0.1835938,0.28125 -0.00226,0.037591 -0.01685,0.068975 -0.052734,0.089844 -0.00307,0.00178 -0.00668,0.00216 -0.00977,0.00391 -0.00347,0.00611 -0.0083,0.011439 -0.011719,0.017578 -0.031315,0.056291 -0.056157,0.2302952 -0.064453,0.1816406 0.055083,-0.00274 0.1057004,0.046471 0.1582031,0.068359 0.017495,0.045117 0.045696,0.088842 0.052734,0.1367187 C 3.7787149,6.4187351 3.71426,6.60185 3.6875,6.6816406 3.6683367,6.7387818 3.6380924,6.7911103 3.6171875,6.8476562 3.651023,6.7955706 3.6901812,6.7502414 3.7871094,6.5761719 3.9458429,6.3272916 4.1015986,6.0701848 4.3066406,5.8554688 c 0.02687,-0.028137 0.055079,-0.091686 0.089844,-0.074219 0.2374854,0.1193216 0.2438055,0.1734368 0.2050781,0.2519531 -0.013834,0.028048 -0.011651,0.047144 -0.037109,0.089844 -0.073981,0.223243 -0.1456557,0.4512871 -0.2011719,0.6796875 -0.090767,0.3734257 -0.1111568,0.4950629 -0.1464843,0.6484375 0.077055,-0.00721 0.1351312,0.022931 0.1523437,0.2109375 0.00638,0.069639 -0.076077,0.159431 -0.1601562,0.2402344 -0.048836,0.1451188 -0.1751164,0.4749277 -0.2382813,0.6035156 -0.073511,0.1496503 -0.176794,0.2836608 -0.25,0.4335937 -0.014212,0.02282 -0.028739,0.04555 -0.042969,0.068359 -0.011154,0.024875 -0.020916,0.059905 -0.03125,0.080078 C 3.625571,9.1287151 3.613568,9.2089303 3.5683594,9.2011719 3.3070475,9.1563269 3.2870499,9.096079 3.3164062,9.015625 c -0.00588,-0.00413 -0.00359,-0.0035 -0.00977,-0.00781 -0.00969,-0.00677 0.010087,-0.017974 0.023437,-0.027344 0.013449,-0.0258 0.00846,-0.041858 0.027344,-0.074219 0.013858,-0.023743 0.028315,-0.047049 0.042969,-0.070312 0.015187,-0.03607 0.032701,-0.070971 0.046875,-0.1074219 C 3.5005407,8.5915141 3.5472463,8.4525344 3.5976562,8.3144531 3.6614113,8.1358905 3.7321877,7.9601685 3.7890625,7.7792969 3.8458807,7.5986054 3.8944258,7.4144531 3.9394531,7.2304688 3.9746647,7.0865923 4.0013445,6.941523 4.0332031,6.796875 3.9245639,6.9923279 3.9009932,7.0511564 3.7324219,7.2714844 c -0.00943,0.012325 -0.1999896,0.2767502 -0.2929688,0.296875 -0.044209,0.00957 -0.089188,0.00624 -0.1347656,0.00391 -0.00206,0.00386 -0.00379,0.00787 -0.00586,0.011719 -0.012566,0.025594 -0.067856,0.1434462 -0.125,0.2539062 -0.00588,0.051267 -0.010561,0.1030865 -0.015625,0.1542969 4.67e-5,0.016376 3.24e-5,0.045753 0,0.052734 -1.331e-4,0.029947 0.025184,0.077189 -0.00195,0.089844 -0.00358,0.00167 -0.0081,3.76e-4 -0.011719,0.00195 -0.0026,0.024447 -0.04288,0.026707 -0.095703,0.019531 -0.061306,0.014817 -0.123148,0.028505 -0.1855469,0.035156 V 46.316406 c 0.067918,-0.03091 0.1372273,-0.06271 0.2109376,-0.05859 0.2393377,0.01336 0.4910435,0.221239 0.6308593,0.683594 0.1799391,0.595039 0.7369413,1.226461 0.6855469,1.869141 -0.00982,0.122851 -0.059772,0.237905 -0.089844,0.357422 -0.00803,0.03469 -0.049113,0.186318 -0.037109,0.230469 0.00719,0.02646 0.043099,0.03569 0.054687,0.06055 0.1315526,0.282133 0.2221463,0.588737 0.2929687,0.890625 -0.00727,0.47822 0.014723,0.216173 -0.048828,0.603516 -0.00887,0.05406 -0.076913,0.174003 -0.023437,0.162109 0.063533,-0.01413 0.021364,-0.193525 0.083984,-0.175781 0.059605,0.01689 0.3983023,0.508274 0.4257812,0.546875 0.1913099,0.502485 0.1438648,0.284033 0.087891,0.552734 0.1621826,0.04169 0.3214258,0.120683 0.4746093,0.277344 0.2679239,0.273983 0.3431055,0.66645 0.3378907,1.027344 -0.00149,0.103321 -0.03081,0.203006 -0.050781,0.304688 0.00964,0.02981 0.022587,0.05699 0.037109,0.08398 0.037483,0.06968 0.083436,0.133849 0.125,0.201172 0.090341,0.119759 0.2487781,0.318433 0.3046875,0.457031 0.02956,0.07328 0.044891,0.151232 0.0625,0.228516 0.091098,0.05774 0.1367852,0.168218 0.2050781,0.251953 0.2365108,0.296135 0.5088997,0.558394 0.7832031,0.818359 H 48.320312 c -0.272646,-0.307521 -0.221008,-0.812979 0.464844,-1.013672 0.351802,-0.102944 0.991557,-0.727797 1.347656,-0.757812 0.176258,-0.01486 0.35243,0.04264 0.529297,0.04492 0.136705,0.0018 -0.27228,-0.02826 -0.408203,-0.04297 0.233035,-0.168732 0.489819,-0.335188 0.783203,-0.373047 0.305066,-0.03937 0.61444,0.04241 0.916016,0.07422 0.05856,0.0016 0.117306,0.004 0.175781,0.0039 0.138874,-0.169709 0.312277,-0.295989 0.59375,-0.369141 0.21669,-0.05205 0.429876,-0.124042 0.650391,-0.15625 0.210932,-0.03081 0.426898,-0.02029 0.640625,-0.01953 0.327206,-0.182473 0.398673,-0.18918 0.871094,-0.179687 0.01184,-0.0086 0.02332,-0.01675 0.03516,-0.02539 -0.009,-0.01129 -0.03558,-0.02489 -0.02539,-0.03516 0.03581,-0.03608 0.09261,-0.04115 0.132813,-0.07227 0.02911,-0.02254 0.04266,-0.06163 0.07031,-0.08594 0.317824,-0.279495 0.277173,-0.216703 0.714844,-0.416016 0.339035,-0.04283 0.42205,-0.05584 0.632812,-0.01172 0.07057,-0.05054 0.144086,-0.105582 0.207032,-0.142578 0.09082,-0.03007 0.18214,-0.05597 0.271484,-0.08984 -0.03069,0.009 -0.06596,0.01774 -0.06836,0 -0.008,-0.05908 0.06532,-0.10241 0.105469,-0.146484 0.07565,-0.08305 0.147582,-0.17084 0.240234,-0.234375 0.261327,-0.179202 0.393533,-0.198333 0.570312,-0.195313 V 5.3261719 c -0.12194,-0.039358 -0.211137,-0.09509 -0.378906,-0.2832031 -0.07932,-0.088938 -0.07205,-0.083205 -0.07227,-0.1601563 C 57.086675,4.7380286 56.987594,4.6894038 56.767578,4.4824219 56.719571,4.4372583 56.460106,4.1051493 56.419922,4.0527344 56.336365,3.9437453 56.228885,3.84955 56.171875,3.7246094 56.123661,3.6189475 56.103296,3.5027052 56.078125,3.3886719 55.894332,3.1976342 55.692351,3.0217618 55.513672,2.8261719 L 54.384766,1.6953125 C 54.25065,1.5611968 54.166072,1.4294179 54.105469,1.3007812 Z m -0.234375,0.9082032 c -0.085852,0.036705 -0.1164161,0.035135 -0.1621094,0.050781 0.044461,0.035223 0.2142849,-0.073089 0.1621094,-0.050781 z m 48.4667974,1.1875 c 0.0019,0.00433 0.0018,0.00941 0.0039,0.013672 0.01513,0.03096 0.101025,0.094089 0.07813,0.068359 -0.02565,-0.028795 -0.05536,-0.054146 -0.08203,-0.082031 z M 3.5703125,5.9570312 c -0.057319,0.082201 -0.1131229,0.1654709 -0.1699219,0.2480469 0.023757,-0.045133 0.063786,-0.080386 0.140625,-0.095703 0.00336,-6.691e-4 0.00644,0.0022 0.00977,0.00195 -0.0044,-0.051671 0.00859,-0.1028542 0.019531,-0.1542969 z M 3.4003906,6.2050781 c -0.047184,0.068598 -0.095401,0.1364746 -0.1425781,0.2050781 0.00439,-0.00128 0.00939,-0.00885 0.013672,-0.00977 0.028281,-0.00605 0.051642,0.00265 0.074219,0.011719 0.00359,-0.017677 0.00792,-0.035211 0.011719,-0.052734 0.011727,-0.05415 0.019212,-0.1091636 0.042969,-0.1542969 z M 2.8632812,48.255859 v 1.292969 c 0.051345,-0.0082 0.094452,-0.02066 0.1542969,-0.02539 -0.044483,-0.253955 -0.044089,-0.511306 0.058594,-0.791016 C 3.0231533,48.566635 2.9421405,48.41166 2.8632812,48.255859 Z" /></g><g
   inkscape:groupmode="layer"
   id="layer2"
   inkscape:label="Layer 2"
   style="display:inline"><g
     id="g4"
     style="fill:#5e4116;fill-opacity:1">
	<path
   d="M 58.361,7.237 C 57.921,3.181 54.518,0 50.351,0 H 11.066 C 6.899,0 3.496,3.179 3.055,7.237 2.083,8.71 1.51,10.469 1.51,12.363 v 39.709 c 0,5.16 4.184,9.343 9.343,9.343 h 39.709 c 5.16,0 9.343,-4.183 9.343,-9.343 V 12.363 c 0,-1.896 -0.572,-3.653 -1.544,-5.126 z M 30.124,3.018 V 53.142 H 11.066 c -3.177,0 -5.762,-2.579 -5.762,-5.762 V 8.098 c 0,-1.772 0.82,-3.339 2.084,-4.396 0.999,-0.841 2.277,-1.369 3.678,-1.369 h 19.058 z m 25.988,44.367 c 0,3.178 -2.584,5.762 -5.762,5.762 H 31.292 V 3.02 2.336 h 4.261 V 3.02 8.467 l 2.272,-1.906 2.271,1.906 V 3.02 2.336 h 10.258 c 1.408,0 2.676,0.528 3.68,1.369 1.259,1.056 2.083,2.623 2.083,4.396 z M 26.212,19.42 H 18.12 v -1.186 h 8.092 z m 0,4.522 H 18.12 v -1.189 h 8.092 z m -16.181,3.382 h 16.181 v 1.189 H 10.031 Z m 0,4.522 h 16.181 v 1.193 H 10.031 Z m 0,4.569 h 16.181 v 1.19 H 10.031 Z M 10.729,24.29 h 0.69 l 0.422,-1.306 h 2.434 l 0.439,1.306 h 0.708 0.713 L 13.864,17.873 H 13.086 12.31 l -2.273,6.417 z m 2.332,-4.982 0.853,2.579 h -1.703 z m 35.289,7.275 c 1.091,0.731 1.091,1.932 0,2.668 l -8.579,5.777 c -1.09,0.729 -1.982,0.255 -1.982,-1.054 V 21.86 c 0,-1.312 0.893,-1.788 1.982,-1.052 z"
   id="path2"
   style="fill:#211a0e;fill-opacity:1"
   inkscape:connector-curvature="0" />
</g></g></svg>