<svg id="vuesax_linear_empty-wallet" data-name="vuesax/linear/empty-wallet" xmlns="http://www.w3.org/2000/svg" width="44.887" height="44.887" viewBox="0 0 44.887 44.887">
  <g id="Group" transform="translate(5.611 3.741)">
    <path id="Vector" d="M27.535,10.882a3.9,3.9,0,0,0-1.063,3.058A3.856,3.856,0,0,0,30.3,17.449h3.367v2.233A6.882,6.882,0,0,1,27,26.737H6.662A6.882,6.882,0,0,1,0,19.682V7.055A6.882,6.882,0,0,1,6.662,0H27a6.882,6.882,0,0,1,6.662,7.055v2.7H30.086A3.437,3.437,0,0,0,27.535,10.882Z" transform="translate(0 10.669)" fill="none" stroke="#f72f56" stroke-linecap="round" stroke-linejoin="round" stroke-width="2.5"/>
    <path id="Vector-2" data-name="Vector" d="M0,19.385V10.837A5.326,5.326,0,0,1,3.441,5.844L18.292.233A3.554,3.554,0,0,1,23.1,3.562v7.107" transform="translate(0 0)" fill="none" stroke="#f72f56" stroke-linecap="round" stroke-linejoin="round" stroke-width="2.5"/>
  </g>
  <g id="Groupe_106" data-name="Groupe 106">
    <path id="Vector-3" data-name="Vector" d="M9.593,1.908V5.761a1.92,1.92,0,0,1-1.87,1.908H4.057a3.988,3.988,0,0,1-4.04-3.5A3.756,3.756,0,0,1,1.139,1.122,3.728,3.728,0,0,1,3.832,0h3.89A1.92,1.92,0,0,1,9.593,1.908Z" transform="translate(32.599 24.221)" fill="none" stroke="#f72f56" stroke-linecap="round" stroke-linejoin="round" stroke-width="2.5"/>
    <path id="Vector-4" data-name="Vector" d="M0,0H13.092" transform="translate(13.092 22.444)" fill="none" stroke="#ffa31d" stroke-linecap="round" stroke-linejoin="round" stroke-width="2.5"/>
    <path id="Vector-5" data-name="Vector" d="M0,0H44.887V44.887H0Z" fill="none" opacity="0"/>
  </g>
</svg>
