<svg id="Groupe_809" data-name="Groupe 809" xmlns="http://www.w3.org/2000/svg" xmlns:xlink="http://www.w3.org/1999/xlink" width="24" height="24" viewBox="0 0 24 24">
  <defs>
    <clipPath id="clip-path">
      <path id="icon" d="M17.6,24a.674.674,0,0,1,0-1.347h3.135a1.932,1.932,0,0,0,1.924-1.937V17.5A.669.669,0,1,1,24,17.5v3.219A3.276,3.276,0,0,1,20.739,24ZM3.261,24A3.276,3.276,0,0,1,0,20.716V17.559a.669.669,0,1,1,1.338,0v3.157a1.933,1.933,0,0,0,1.923,1.938h3.2a.673.673,0,0,1,0,1.347ZM7.6,17.634a.676.676,0,0,1,.071-.95.666.666,0,0,1,.943.071,4.533,4.533,0,0,0,3.4,1.353,4.549,4.549,0,0,0,3.384-1.337.667.667,0,0,1,.944-.064.677.677,0,0,1,.063.951,5.821,5.821,0,0,1-4.391,1.8A5.81,5.81,0,0,1,7.6,17.634Zm3.094-2.518a.674.674,0,0,1,0-1.347h.423a.633.633,0,0,0,.63-.634V8.594a.669.669,0,1,1,1.337,0v4.541a1.976,1.976,0,0,1-1.967,1.981Zm5.586-4.471V8.75a.872.872,0,1,1,1.745,0v1.9a.872.872,0,1,1-1.745,0Zm-10.3,0v-1.9a.872.872,0,1,1,1.745,0v1.9a.872.872,0,1,1-1.745,0ZM22.663,6.5V3.284a1.933,1.933,0,0,0-1.924-1.937H17.6A.674.674,0,0,1,17.6,0h3.134A3.276,3.276,0,0,1,24,3.284V6.5a.669.669,0,1,1-1.337,0ZM0,6.441V3.284A3.276,3.276,0,0,1,3.261,0h3.2a.674.674,0,0,1,0,1.347h-3.2A1.932,1.932,0,0,0,1.338,3.284V6.441A.669.669,0,1,1,0,6.441Z" fill="#464f64"/>
    </clipPath>
  </defs>
  <path id="icon-2" data-name="icon" d="M17.6,24a.674.674,0,0,1,0-1.347h3.135a1.932,1.932,0,0,0,1.924-1.937V17.5A.669.669,0,1,1,24,17.5v3.219A3.276,3.276,0,0,1,20.739,24ZM3.261,24A3.276,3.276,0,0,1,0,20.716V17.559a.669.669,0,1,1,1.338,0v3.157a1.933,1.933,0,0,0,1.923,1.938h3.2a.673.673,0,0,1,0,1.347ZM7.6,17.634a.676.676,0,0,1,.071-.95.666.666,0,0,1,.943.071,4.533,4.533,0,0,0,3.4,1.353,4.549,4.549,0,0,0,3.384-1.337.667.667,0,0,1,.944-.064.677.677,0,0,1,.063.951,5.821,5.821,0,0,1-4.391,1.8A5.81,5.81,0,0,1,7.6,17.634Zm3.094-2.518a.674.674,0,0,1,0-1.347h.423a.633.633,0,0,0,.63-.634V8.594a.669.669,0,1,1,1.337,0v4.541a1.976,1.976,0,0,1-1.967,1.981Zm5.586-4.471V8.75a.872.872,0,1,1,1.745,0v1.9a.872.872,0,1,1-1.745,0Zm-10.3,0v-1.9a.872.872,0,1,1,1.745,0v1.9a.872.872,0,1,1-1.745,0ZM22.663,6.5V3.284a1.933,1.933,0,0,0-1.924-1.937H17.6A.674.674,0,0,1,17.6,0h3.134A3.276,3.276,0,0,1,24,3.284V6.5a.669.669,0,1,1-1.337,0ZM0,6.441V3.284A3.276,3.276,0,0,1,3.261,0h3.2a.674.674,0,0,1,0,1.347h-3.2A1.932,1.932,0,0,0,1.338,3.284V6.441A.669.669,0,1,1,0,6.441Z" fill="#464f64"/>
</svg>
