<svg width="244" height="242" viewBox="0 0 244 242" fill="none" xmlns="http://www.w3.org/2000/svg">
<path d="M198.283 59.7802C202.803 64.6073 203.887 69.3016 208.331 77.0249M192.872 56.8783C196.777 62.1803 201.448 72.4403 204.653 81.975M188.414 53.6146C193.598 70.2673 202.42 82.7402 206.148 91.2965M181.419 54.4681C189.285 66.6037 199.062 82.974 203.906 96.6816M178.703 55.4591C188.031 72.8643 196.645 92.9319 201.709 104.103M173.819 50.8631C184.506 70.101 191.389 90.9024 199.993 113.445M168.438 53.4762C178.57 73.088 186.545 98.3165 198.827 121.393M162.207 49.2453C170.017 68.6668 176.46 87.288 195.381 128.804M158.417 51.6158C171.693 83.6469 187.462 114.85 194.742 135.863M153.529 48.9318C166.905 78.3725 181.642 108.703 193.462 142.216M147.231 49.225C164.242 88.3082 182.027 128.206 193.993 151.875M141.969 45.5622C154.196 76.6544 170.934 106.875 190.231 157.877M137.577 45.4929C148.326 70.97 158.9 96.078 192.707 164.923M131.592 45.292C150.177 89.6034 172.408 135.952 188.736 174.666M125.434 45.0576C146.478 93.8414 170.049 141.778 184.721 180.64M122.253 42.2932C136.726 85.0105 157.462 123.128 186.875 190.061M114.488 42.7991C135.27 82.0364 150.659 118.093 182.575 192.83M113.534 39.7586C138.961 101.267 166.296 166.8 181.114 199.481M106.92 39.3772C126.372 78.2004 141.373 116.821 179.661 203.147M99.5366 38.1449C122.386 84.2417 141.298 134.222 172.799 202.787M94.5259 35.31C127.299 105.823 157.461 173.335 171.446 204.938M90.1463 34.3626C120.479 105.099 151.83 170.019 165.069 204.46M84.111 36.1054C108.002 89.4642 133.908 141.943 160.26 203.143M80.4304 33.1931C104.291 88.725 127.858 140.213 154.715 203.964M74.2516 32.1031C99.1897 91.7298 126.272 145.297 151.687 201.65M70.1008 33.668C94.3148 80.6267 113.523 129.031 144.612 199.916M68.2906 36.1725C88.3749 89.2217 111.396 144.651 139.128 199.246M60.603 39.5707C91.7422 100.718 118.08 161.137 135.106 201.345M56.8898 42.4683C80.8442 88.3418 100.033 135.197 130.635 199.588M56.3525 44.6571C81.3556 99.726 105.033 153.117 122.572 197.354M56.3827 54.5178C71.0463 92.5985 89.4328 130.097 119.53 198.353M55.0084 63.8973C66.2742 90.8368 80.096 118.416 113.602 197.836M52.8741 70.8021C70.9062 113.636 92.2317 162.633 107.921 196.397M50.1142 76.8139C71.7655 123.096 89.6219 165.726 101.451 194.757M50.0451 86.62C63.0378 116.558 80.1269 150.063 99.6092 192.207M47.8908 90.8685C55.1442 113.485 67.1007 133.779 94.4613 191.918M46.5659 100.729C55.6411 120.251 63.6755 137.425 85.2971 191.826M46.3321 106.806C53.4453 126.834 63.4972 148.791 83.5487 191.362M45.0641 113.078C57.9432 145.579 69.9256 171.475 78.3013 189.463M44.5542 120.748C48.8073 139.1 57.0193 154.753 71.3063 186.489M42.8321 130.527C49.5184 147.524 56.5275 164.766 65.6477 187.942M38.4996 135.721C45.6035 149.7 50.3904 160.259 63.3966 185.076M38.3316 142.847C43.256 158.111 49.1578 170.648 55.1878 183.527M37.6456 151.145C40.7589 161.561 47.1906 177.362 53.4661 182.955M33.2296 160.063C38.7038 168.195 42.4923 176.539 45.4997 182.399M64.3987 43.6854C67.7373 41.1023 71.2546 37.9219 78.4169 34.9481M60.503 49.3464C68.6878 47.2191 74.765 40.6646 85.8473 36.961M57.9746 52.7165C74.0738 47.1313 85.0866 39.7055 94.5503 35.6525M59.8284 56.5791C72.1871 53.7944 87.0324 44.4861 99.7187 40.021M57.2376 63.2513C72.6385 56.8982 84.1852 50.1663 110.147 38.8355M57.5651 67.6707C76.6266 59.8483 92.3835 51.8577 117.679 43.6097M55.1024 73.7482C80.6089 60.6183 104.299 48.8253 123.306 42.5915M53.0158 80.0556C70.14 70.8354 89.2893 64.0772 131.318 45.8103M52.7296 84.404C72.5047 74.9555 94.5153 68.2112 140.009 48.4278M50.7617 91.0565C76.1225 81.1432 100.124 67.282 148.293 47.6378M51.2928 94.9562C81.3086 79.475 113.564 66.7032 154.105 47.2903M49.3665 99.9147C82.7531 83.0006 113.935 69.6128 159.838 50.7767M48.6139 103.765C85.3421 90.0535 124.688 74.2125 166.58 52.0264M47.4486 108.886C98.1325 87.4455 148.677 67.9279 177.149 53.51M46.7897 116.574C88.1373 99.3812 126.629 80.3659 183.548 55.626M49.1587 119.731C100.896 92.7673 156.573 70.8521 194.606 55.194M47.4629 126.296C96.1084 102.923 151.098 81.1415 197.924 58.8923M42.5469 131.558C105.18 107.252 163.316 78.4139 205.512 60.3079M44.0606 136.475C107.063 109.499 169.016 81.4999 205.402 65.1769M41.533 141.953C81.4081 124.69 116.574 108.979 210.78 67.8951M43.6393 145.466C107.018 120.15 171.443 87.2233 209.44 72.0499M40.5936 152.812C84.225 134.104 128.062 114.718 208.217 76.2049M39.5443 154.852C88.2433 136.179 136.902 112.878 207.845 80.2497M37.6777 162.683C87.444 140.032 138.535 119.52 208.892 87.9244M39.3641 164.767C99.3223 141.671 161.652 113.805 205.092 93.2445M37.9925 172.988C94.9988 144.567 154.045 122.543 207.435 98.0914M40.6867 178.584C93.6286 149.633 148.672 125.07 203.477 103.404M44.2769 180.852C99.9441 155.575 153.071 126.888 204.364 109.756M44.9072 184.947C89.764 163.881 132.974 143.131 202.632 112.929M48.0794 186.087C83.7566 168.419 115.358 155.965 200.647 115.931M58.6094 188.205C110.966 164.969 163.825 141.546 201.514 125.258M68.2816 188.219C115.437 167.295 162.337 146.113 200.615 126.606M74.0227 188.469C107.379 174.588 142.979 158.796 197.501 133.822M81.6412 189.713C112.438 176.738 141.094 164.607 199.154 139.544M88.7103 191.092C130.322 174.526 171.151 154.923 196.913 145.328M96.7695 192.706C122.639 181.87 153.445 168.118 194.705 147.437M104.253 193.743C137.85 180.508 174.659 163.044 194.071 151.674M112.04 195.117C132.779 188.542 151.763 178.459 192.741 159.272M117.96 197.13C135.207 189.309 153.581 181.498 193.379 166.346M126.869 197.623C150.805 188.426 175.893 179.377 190.273 169.185M134.039 202.381C151.093 194.276 170.219 186.144 188.731 175.175M139.694 201.738C153.782 195.1 168.974 187.538 191.117 180.69M149.731 202.76C159.037 198.179 169.763 194.582 187.011 185.144M154.059 203.806C164.2 200.522 175.779 196.589 187.815 189.161M163.416 204.297C174.55 202.257 180.013 199.511 188.195 195.296M206.165 62.1239V62.1239ZM66.5588 35.7712V35.7712Z" stroke="url(#paint0_linear_32_159)" stroke-width="1.5" stroke-linecap="round"/>
<defs>
<linearGradient id="paint0_linear_32_159" x1="204.777" y1="159.899" x2="38.3921" y2="81.9549" gradientUnits="userSpaceOnUse">
<stop stop-color="#FEA22A"/>
<stop offset="1" stop-color="#F73359"/>
</linearGradient>
</defs>
</svg>
