<?xml version="1.0" encoding="UTF-8" standalone="no"?>
<svg
   xmlns:dc="http://purl.org/dc/elements/1.1/"
   xmlns:cc="http://creativecommons.org/ns#"
   xmlns:rdf="http://www.w3.org/1999/02/22-rdf-syntax-ns#"
   xmlns:svg="http://www.w3.org/2000/svg"
   xmlns="http://www.w3.org/2000/svg"
   xmlns:sodipodi="http://sodipodi.sourceforge.net/DTD/sodipodi-0.dtd"
   xmlns:inkscape="http://www.inkscape.org/namespaces/inkscape"
   width="256px"
   height="256px"
   viewBox="0 0 256 256"
   id="Flat"
   version="1.1"
   sodipodi:docname="insight.svg"
   inkscape:version="0.92.5 (2060ec1f9f, 2020-04-08)">
  <metadata
     id="metadata9">
    <rdf:RDF>
      <cc:Work
         rdf:about="">
        <dc:format>image/svg+xml</dc:format>
        <dc:type
           rdf:resource="http://purl.org/dc/dcmitype/StillImage" />
      </cc:Work>
    </rdf:RDF>
  </metadata>
  <defs
     id="defs7" />
  <sodipodi:namedview
     pagecolor="#ffffff"
     bordercolor="#666666"
     borderopacity="1"
     objecttolerance="10"
     gridtolerance="10"
     guidetolerance="10"
     inkscape:pageopacity="0"
     inkscape:pageshadow="2"
     inkscape:window-width="1366"
     inkscape:window-height="718"
     id="namedview5"
     showgrid="false"
     inkscape:zoom="1.84375"
     inkscape:cx="121.23759"
     inkscape:cy="145.38489"
     inkscape:window-x="0"
     inkscape:window-y="23"
     inkscape:window-maximized="1"
     inkscape:current-layer="layer2" />
  <path
     d="M232,128A104,104,0,1,1,128,24,104.12041,104.12041,0,0,1,232,128Z"
     id="path2"
     style="fill:#84e883;fill-opacity:1" />
  <style
     id="style819"
     type="text/css">
	.feather_een{fill:#111918;}
	.st0{fill:#0B1719;}
</style>
  <ellipse
     style="opacity:0;fill:none;fill-opacity:1;stroke:#000000;stroke-opacity:1"
     id="path855"
     cx="126.10169"
     cy="132.33899"
     rx="58.847458"
     ry="72.13559" />
  <g
     id="g951"
     transform="matrix(0.25918318,0,0,0.25918318,62.836421,66.138187)"
     style="fill:#4ccb4b;fill-opacity:0.98823529">
    <g
       id="g885"
       style="fill:#4ccb4b;fill-opacity:0.98823529">
      <g
         id="g883"
         style="fill:#4ccb4b;fill-opacity:0.98823529">
        <g
           id="g881"
           style="fill:#4ccb4b;fill-opacity:0.98823529">
          <path
             id="path863"
             d="m 342.89162,77.293827 h -15.802 c 0,15.494 -12.605,28.099003 -28.099,28.099003 v 15.802 c 15.494,0 28.099,12.605 28.099,28.099 h 15.802 c 0,-15.494 12.605,-28.099 28.099,-28.099 v -15.802 c -15.494,0 -28.099,-12.605003 -28.099,-28.099003 z m -7.901,46.899003 c -2.966,-4.24 -6.659,-7.934 -10.9,-10.899 4.24,-2.966 7.934,-6.659 10.9,-10.899 2.966,4.24 6.659,7.934 10.899,10.899 -4.24,2.966 -7.933,6.658 -10.899,10.899 z"
             inkscape:connector-curvature="0"
             style="fill:#4ccb4b;fill-opacity:0.98823529" />
          <path
             id="path871"
             d="m 81.380988,189.01959 h 22.200832 c 0,-24.866 20.22971,-45.09712 45.09712,-45.09712 v -22.20083 c -24.86601,0 -45.09712,-20.2297 -45.09712,-45.097108 H 81.380988 c 0,24.864598 -20.231111,45.097108 -45.098518,45.097108 v 22.20083 c 24.866002,0 45.098518,20.23112 45.098518,45.09712 z m 11.100418,-75.40444 c 5.035298,7.62601 11.582314,14.17161 19.206914,19.20691 -7.62601,5.0353 -14.171616,11.58231 -19.206914,19.20691 -5.035299,-7.62601 -11.582311,-14.17161 -19.206911,-19.20691 7.6246,-5.0353 14.170207,-11.58231 19.206911,-19.20691 z"
             inkscape:connector-curvature="0"
             style="fill:#4ccb4b;fill-opacity:0.98823529;stroke-width:1.40493822" />
          <path
             id="path873"
             d="m 198.65835,489.47441 h 12.98651 c 0,-14.54551 11.83349,-26.37983 26.37983,-26.37983 v -12.98733 c -14.54552,0 -26.37983,-11.83349 -26.37983,-26.37983 h -12.98651 c 0,14.54552 -11.83349,26.37983 -26.37983,26.37983 v 12.98651 c 14.54552,0 26.37983,11.83431 26.37983,26.38065 z m 6.49408,-44.1091 c 2.94543,4.46088 6.77514,8.28977 11.2352,11.2352 -4.46088,2.94542 -8.28977,6.77514 -11.2352,11.2352 -2.94543,-4.46088 -6.77514,-8.28978 -11.2352,-11.2352 4.46006,-2.94625 8.28895,-6.77432 11.2352,-11.2352 z"
             inkscape:connector-curvature="0"
             style="fill:#4ccb4b;fill-opacity:0.98823529;stroke-width:0.82182717" />
          <path
             id="path875"
             d="m 439.94295,284.27852 h -17.33772 c 0,19.41908 -15.79837,35.21855 -35.21854,35.21855 v 17.33772 c 19.41908,0 35.21854,15.79837 35.21854,35.21854 h 17.33772 c 0,-19.41908 15.79837,-35.21854 35.21855,-35.21854 v -17.33663 c -19.42018,-0.002 -35.21855,-15.80056 -35.21855,-35.21964 z m -8.66886,58.88703 c -3.93231,-5.95553 -9.04519,-11.06731 -14.99962,-14.99962 5.95553,-3.93231 11.06731,-9.0452 14.99962,-14.99962 3.93231,5.95552 9.0452,11.06731 14.99962,14.99962 -5.95442,3.93341 -11.06731,9.04409 -14.99962,14.99962 z"
             inkscape:connector-curvature="0"
             style="fill:#4ccb4b;fill-opacity:0.98823529;stroke-width:1.09718513" />
        </g>
      </g>
    </g>
    <g
       id="g887"
       style="fill:#4ccb4b;fill-opacity:0.98823529" />
    <g
       id="g889"
       style="fill:#4ccb4b;fill-opacity:0.98823529" />
    <g
       id="g891"
       style="fill:#4ccb4b;fill-opacity:0.98823529" />
    <g
       id="g893"
       style="fill:#4ccb4b;fill-opacity:0.98823529" />
    <g
       id="g895"
       style="fill:#4ccb4b;fill-opacity:0.98823529" />
    <g
       id="g897"
       style="fill:#4ccb4b;fill-opacity:0.98823529" />
    <g
       id="g899"
       style="fill:#4ccb4b;fill-opacity:0.98823529" />
    <g
       id="g901"
       style="fill:#4ccb4b;fill-opacity:0.98823529" />
    <g
       id="g903"
       style="fill:#4ccb4b;fill-opacity:0.98823529" />
    <g
       id="g905"
       style="fill:#4ccb4b;fill-opacity:0.98823529" />
    <g
       id="g907"
       style="fill:#4ccb4b;fill-opacity:0.98823529" />
    <g
       id="g909"
       style="fill:#4ccb4b;fill-opacity:0.98823529" />
    <g
       id="g911"
       style="fill:#4ccb4b;fill-opacity:0.98823529" />
    <g
       id="g913"
       style="fill:#4ccb4b;fill-opacity:0.98823529" />
    <g
       id="g915"
       style="fill:#4ccb4b;fill-opacity:0.98823529" />
  </g>
  <g
     inkscape:groupmode="layer"
     id="layer1"
     inkscape:label="Layer 1"
     style="display:inline" />
  <g
     inkscape:groupmode="layer"
     id="layer2"
     inkscape:label="Layer 2"
     style="display:inline">
    <circle
       style="opacity:1;fill:#000000;fill-opacity:0;stroke:#4ccb4b;stroke-width:9.40546703;stroke-miterlimit:4;stroke-dasharray:none;stroke-opacity:0.98823529"
       id="path839"
       cx="128.27119"
       cy="127.08475"
       r="85.39032" />
    <path
       id="path821"
       d="m 171.76624,92.870081 c 0.18245,1.35503 1.43025,2.30669 2.78528,2.12425 l 3.89323,-0.52419 -10.41338,14.478159 c -2.26228,-0.95004 -4.88435,-1.15683 -7.54339,-0.079 -2.68718,1.09159 -4.72496,3.40535 -5.64949,6.15405 -0.80746,2.39303 -0.61782,4.50686 0.0524,6.36603 l -15.05858,0.30078 c -2.27277,-1.99329 -5.40913,-2.97559 -8.66997,-2.24665 -3.57668,0.79646 -6.3755,3.65756 -7.36515,7.18479 -0.61232,2.17182 -0.40164,4.10788 0.21502,5.8293 l -7.53016,13.79226 c -2.08366,-1.81384 -4.87957,-2.79198 -7.83017,-2.39472 -5.12553,0.69011 -8.757998,5.19299 -8.52495,10.26506 l -14.256575,-3.38967 c -2.366484,-3.84012 -7.234889,-5.84384 -12.013319,-4.06082 -3.559936,1.32906 -6.122244,4.8331 -6.320985,8.62872 -0.340956,6.48899 5.257148,11.31359 11.33077,10.42585 5.078315,-0.74372 8.638455,-5.22687 8.412683,-10.24495 l 14.271296,3.38769 c 1.962,3.17482 5.63089,5.10511 9.5635,4.65059 3.03153,-0.35309 5.59519,-2.28787 7.1674,-4.90384 2.02462,-3.37666 1.82969,-6.04961 0.97689,-8.37407 l 7.52005,-13.75589 c 2.04996,1.82337 4.81773,2.8153 7.74484,2.46619 3.82685,-0.46027 6.86276,-3.2683 8.15312,-6.90101 0.8559,-2.40455 0.62671,-4.47807 -0.0408,-6.3176 l 15.06188,-0.27624 c 2.52809,2.21885 6.12339,3.19436 9.77509,1.9529 3.52246,-1.19905 6.14132,-4.50577 6.57393,-8.19793 0.33708,-2.87954 -0.57097,-5.3915 -2.12609,-7.32646 l 10.45796,-14.444189 0.52881,3.927609 c 0.18243,1.35502 1.43024,2.30669 2.78526,2.12425 1.35502,-0.18244 2.30668,-1.43024 2.12424,-2.78526 l -1.32203,-9.819009 c -0.18244,-1.355024 -1.43025,-2.306685 -2.78527,-2.124245 l -9.81901,1.322037 c -1.35503,0.18244 -2.30669,1.430238 -2.12425,2.785258 z M 78.151767,160.82202 c -2.706081,0.39434 -5.227826,-1.48047 -5.621505,-4.18165 -0.394335,-2.70606 1.480469,-5.22781 4.181641,-5.62149 2.706081,-0.39434 5.227825,1.48046 5.621503,4.18163 0.394337,2.70608 -1.481127,5.22293 -4.181639,5.62151 z m 32.483143,-2.2384 c -2.70515,0.36423 -5.20631,-1.54335 -5.57054,-4.24849 -0.36422,-2.70513 1.54335,-5.20629 4.2485,-5.57052 2.70514,-0.36421 5.20629,1.54335 5.57051,4.24849 0.36422,2.70514 -1.54334,5.2063 -4.24847,5.57052 z m 23.35516,-24.56034 c -2.70514,0.36422 -5.20631,-1.54335 -5.57052,-4.24849 -0.36423,-2.70512 1.54334,-5.20631 4.24849,-5.57053 2.70514,-0.36422 5.2063,1.54337 5.57051,4.24849 0.36423,2.70514 -1.54334,5.2063 -4.24848,5.57053 z m 30.87866,-11.06824 c -2.70513,0.36423 -5.20628,-1.54333 -5.57051,-4.24848 -0.36421,-2.70513 1.54335,-5.2063 4.24848,-5.57052 2.70515,-0.36422 5.20631,1.54336 5.57052,4.24849 0.36423,2.70514 -1.54333,5.20629 -4.24849,5.57051 z"
       class="feather_een"
       inkscape:connector-curvature="0"
       style="display:inline;fill:#308d27;fill-opacity:1;stroke-width:4.95380449"
       sodipodi:nodetypes="ssccccccccccscccccccccccccccccccssssssscccccsssssssssssssss" />
  </g>
</svg>
