<svg width="162" height="160" viewBox="0 0 162 160" fill="none" xmlns="http://www.w3.org/2000/svg">
<path fill-rule="evenodd" clip-rule="evenodd" d="M96.2433 34.0416C98.9972 32.1724 101.752 30.2542 104.508 28.2736C106.612 26.8271 108.763 25.3641 110.965 23.8851C111.322 23.6455 111.475 23.2162 111.38 22.8215C111.411 22.5727 111.348 22.3122 111.185 22.0965C110.852 21.6559 110.225 21.5688 109.785 21.9019C108.149 23.1386 106.514 24.3497 104.879 25.5381C104.615 25.3443 104.261 25.2842 103.932 25.4094C69.869 38.3613 42.3889 59.2227 24.7462 73.5388C40.7408 58.6928 58.629 47.8269 79.4979 35.1504C85.7204 31.3706 92.208 27.4299 98.9894 23.1746C99.4572 22.8811 99.5984 22.2639 99.3049 21.7961C99.0114 21.3283 98.3942 21.187 97.9263 21.4805C91.2141 25.6924 84.7695 29.6067 78.5704 33.3717C57.364 46.2518 39.0322 57.3859 22.699 72.7137C22.2963 73.0916 22.2762 73.7244 22.6541 74.1272C22.9286 74.4197 23.3376 74.5103 23.6952 74.3932C23.4998 74.5524 23.3056 74.7107 23.1127 74.8681C22.6848 75.2173 22.621 75.8473 22.9702 76.2752C23.3194 76.7031 23.9493 76.7669 24.3772 76.4177C41.0279 62.8296 67.0657 42.6542 99.4838 29.3205C97.9994 30.3556 96.5394 31.3817 95.1029 32.3986C85.2782 39.0665 75.4511 45.1178 65.5702 51.1739C65.1 51.462 64.6297 51.7502 64.1593 52.0385C49.8294 60.8194 35.3812 69.6727 20.7276 80.4641C20.2829 80.7916 20.1879 81.4176 20.5154 81.8623C20.8429 82.3071 21.4689 82.4021 21.9136 82.0746C36.4974 71.3345 50.8814 62.5204 65.2264 53.7302C65.6894 53.4465 66.1524 53.1628 66.6153 52.8791C67.8116 52.1459 69.0077 51.4124 70.2036 50.6775C67.7117 52.5584 65.2982 54.3894 62.9538 56.168C61.5879 57.2043 60.2454 58.2227 58.9246 59.2228C45.0255 69.7474 33.5707 78.2053 22.3964 84.0604C21.9072 84.3168 21.7185 84.9211 21.9748 85.4103C22.1166 85.6809 22.3647 85.8595 22.641 85.9218C20.7959 87.3002 18.9531 88.7129 17.1019 90.1701C16.668 90.5117 16.5931 91.1405 16.9347 91.5744C17.2763 92.0084 17.9051 92.0832 18.339 91.7416C36.2513 77.6408 53.3243 67.7717 79.5563 52.6081C89.9816 46.5817 101.853 39.7191 115.799 31.4223C116.274 31.14 116.43 30.5263 116.148 30.0516C115.865 29.577 115.252 29.4211 114.777 29.7035C100.916 37.9495 89.0864 44.7878 78.6764 50.8053C70.0489 55.7925 62.3965 60.2159 55.3716 64.4098C56.9295 63.2394 58.5152 62.0416 60.132 60.8173C61.4533 59.8167 62.7958 58.7983 64.1613 57.7623C73.5651 50.6282 84.0593 42.6669 96.2433 34.0416ZM124.121 28.9005C124.422 29.3634 124.291 29.9828 123.828 30.284C102.92 43.8847 86.3698 53.7279 72.9043 61.7362C67.4111 65.0032 62.4314 67.9648 57.8787 70.7516C42.2989 80.2883 31.7181 87.7788 22.4797 98.5042C45.7895 81.0841 67.936 66.5695 120.54 36.4843C121.019 36.2102 121.63 36.3765 121.904 36.8559C122.178 37.3354 122.012 37.9463 121.532 38.2205C67.6748 69.0228 45.8293 83.4558 21.9607 101.393C21.5192 101.724 20.8923 101.635 20.5605 101.194C20.2287 100.752 20.3176 100.125 20.7592 99.7937C21.0468 99.5775 21.3342 99.3618 21.6214 99.1466C21.3404 99.1931 21.0415 99.12 20.808 98.9205C20.388 98.5618 20.3383 97.9306 20.697 97.5106C30.2091 86.3737 41.0644 78.699 56.8346 69.0458C61.4174 66.2405 66.415 63.2683 71.9202 59.9943C85.3767 51.9913 101.865 42.1852 122.738 28.6075C123.201 28.3063 123.82 28.4375 124.121 28.9005ZM95.0587 20.7819C95.2859 21.2853 95.0621 21.8775 94.5587 22.1048C84.3792 26.6993 73.5203 33.7211 61.0939 41.8954C60.3148 42.4079 59.5298 42.9247 58.7386 43.4457C46.9293 51.2212 33.7365 59.9075 18.5073 68.3812C18.0247 68.6498 17.4158 68.4762 17.1472 67.9936C16.8787 67.511 17.0522 66.9021 17.5349 66.6336C32.6967 58.1974 45.8323 49.5488 57.648 41.7691C58.4361 41.2503 59.2182 40.7353 59.9947 40.2245C72.3935 32.0684 83.3863 24.9532 93.7359 20.2818C94.2393 20.0546 94.8315 20.2785 95.0587 20.7819ZM88.1684 19.2381C88.4384 19.7199 88.2667 20.3294 87.785 20.5994C74.8074 27.873 63.0083 35.6774 51.7887 43.3637C48.823 45.3954 45.8959 47.4203 42.9976 49.4252C34.9433 54.9968 27.1116 60.4144 19.2924 65.3983C18.8267 65.6952 18.2085 65.5583 17.9117 65.0926C17.6148 64.6268 17.7517 64.0087 18.2175 63.7118C26.0022 58.7498 33.7881 53.3639 41.8321 47.7994C44.7365 45.7903 47.6746 43.7579 50.6584 41.7137C59.4448 35.6943 68.6115 29.585 78.4345 23.7079C59.1066 29.8824 45.8171 39.6911 32.6639 49.3992C30.3771 51.0871 28.0943 52.772 25.7847 54.4342C25.3364 54.7568 24.7115 54.6549 24.3889 54.2067C24.0663 53.7584 24.1681 53.1335 24.6164 52.8109C26.8999 51.1675 29.1656 49.4945 31.4434 47.8126C35.1105 45.1048 38.8086 42.3741 42.6617 39.7074C39.3868 41.1607 36.6552 42.205 34.436 43.0534C33.4698 43.4228 32.6007 43.755 31.8263 44.0677C31.58 44.3821 31.3544 44.6888 31.149 44.9875C30.8361 45.4426 30.2135 45.5578 29.7584 45.2449C29.686 45.1951 29.6223 45.1375 29.5674 45.074C29.4597 45.1295 29.3553 45.1851 29.2542 45.2407C28.7703 45.507 28.1622 45.3307 27.8959 44.8468C27.6296 44.363 27.8059 43.7549 28.2898 43.4886C28.9576 43.121 29.7252 42.7677 30.5993 42.4015C32.7682 39.7617 36.1441 36.7549 40.9035 33.3695C46.5734 29.3365 54.2635 24.7265 64.3447 19.5261C64.8356 19.2729 65.4387 19.4655 65.6919 19.9563C65.9451 20.4472 65.7525 21.0503 65.2616 21.3035C55.2332 26.4768 47.6311 31.0384 42.0628 34.9992C39.1504 37.0709 36.8096 38.9675 34.9742 40.6898C42.5468 37.7761 54.8217 32.7724 73.5265 18.6439C73.9672 18.311 74.5943 18.3984 74.9271 18.8391C75.26 19.2798 75.1726 19.9069 74.7319 20.2398C71.9766 22.321 69.3522 24.2095 66.8559 25.9263C71.3977 23.9521 76.2762 22.1757 81.5917 20.6676C82.0558 20.536 82.5363 20.7547 82.751 21.1663C84.0904 20.3905 85.4422 19.6197 86.8071 18.8547C87.2889 18.5847 87.8983 18.7564 88.1684 19.2381ZM129.769 35.2106C130.03 35.6976 129.846 36.3036 129.359 36.5641C93.4268 55.7832 60.4858 77.3166 25.7782 102.947C25.3339 103.275 24.7078 103.181 24.3797 102.736C24.0516 102.292 24.1458 101.666 24.5901 101.338C59.3561 75.6646 92.3794 54.0753 128.416 34.8005C128.903 34.54 129.509 34.7236 129.769 35.2106ZM131.538 39.8942C131.869 40.3364 131.779 40.9631 131.337 41.294C131.061 41.5007 130.783 41.7081 130.505 41.9161C130.514 41.9127 130.522 41.9093 130.531 41.9059C131.045 41.704 131.626 41.957 131.827 42.4711C132.029 42.9852 131.776 43.5656 131.262 43.7675C128.841 44.7185 126.227 45.8557 123.433 47.1654C113.531 54.4655 102.533 62.3628 90.9944 70.2845C102.217 63.5572 114.594 56.0054 128.438 47.058C128.902 46.7582 129.521 46.8912 129.82 47.355C130.12 47.8188 129.987 48.4379 129.523 48.7377C110.716 60.893 94.6032 70.4818 80.4449 78.9073C77.2467 80.8106 74.1483 82.6545 71.141 84.4552C54.8114 94.2332 41.1841 102.731 28.8182 112.566C28.3859 112.909 27.7568 112.838 27.4131 112.405C27.0693 111.973 27.141 111.344 27.5733 111C29.8306 109.205 32.1289 107.454 34.476 105.733C30.8006 107.769 27.1572 109.72 23.5622 111.569C23.0711 111.822 22.4682 111.628 22.2155 111.137C21.9629 110.646 22.1562 110.043 22.6473 109.791C52.3753 94.4962 85.4781 72.2093 112.549 52.6365C89.6896 64.7745 58.3857 84.8165 22.7363 107.891C22.2727 108.191 21.6535 108.058 21.3534 107.595C21.0533 107.131 21.1859 106.512 21.6496 106.212C63.1291 79.3639 98.9452 56.4703 122.401 45.4414C125.063 43.4784 127.646 41.5584 130.139 39.6928C130.581 39.3618 131.207 39.452 131.538 39.8942ZM136.928 45.9481C137.227 46.4122 137.094 47.0312 136.63 47.3305C123.202 55.9914 110.332 64.9237 97.7397 73.6634C93.1278 76.8643 88.5531 80.0393 84.0018 83.1658C67.0372 94.8194 50.4118 105.788 33.4852 114.826C32.9981 115.087 32.3922 114.903 32.1321 114.415C31.8719 113.928 32.056 113.322 32.5432 113.062C49.3662 104.079 65.9156 93.1635 82.8694 81.5173C87.404 78.4023 91.9685 75.2343 96.5745 72.0375C109.176 63.2918 122.087 54.3306 135.545 45.6498C136.01 45.3504 136.629 45.484 136.928 45.9481ZM136.607 52.378C136.9 52.8461 136.758 53.4632 136.29 53.7563C107.284 71.9177 71.4919 96.5988 33.9538 122.673C33.5002 122.988 32.8771 122.876 32.562 122.422C32.247 121.968 32.3593 121.345 32.8129 121.03C70.3431 94.9615 106.175 70.2524 135.228 52.0611C135.696 51.768 136.314 51.9099 136.607 52.378ZM142.699 55.5344C143.05 55.9611 142.988 56.5913 142.561 56.9419C140.607 58.5487 138.578 60.1475 136.483 61.7394C136.633 62.1679 136.476 62.6589 136.076 62.9134C112.62 77.861 86.4551 95.8767 62.8526 113.278C94.0329 92.5248 120.343 74.8944 137.669 61.9707C138.112 61.6405 138.738 61.7317 139.069 62.1744C139.399 62.6171 139.308 63.2436 138.865 63.5738C119.745 77.8356 89.7354 97.7988 54.3971 121.307C50.8169 123.688 47.182 126.106 43.4982 128.558C43.0384 128.864 42.4176 128.74 42.1116 128.28C41.8426 127.876 41.9063 127.347 42.2379 127.018C42.163 126.655 42.2936 126.264 42.6069 126.023C55.6746 115.952 70.1908 105.292 85.0204 94.8368C82.8801 96.0986 80.7343 97.3606 78.5873 98.6232C65.2379 106.474 51.8413 114.352 39.4201 122.411C38.9568 122.711 38.3375 122.579 38.0369 122.116C37.7364 121.653 37.8683 121.033 38.3316 120.733C50.7925 112.649 64.2473 104.736 77.6098 96.8777C82.6142 93.9346 87.6057 90.9992 92.5271 88.0653C110.614 77.2825 127.766 66.514 141.291 55.3969C141.718 55.0462 142.348 55.1078 142.699 55.5344ZM145.833 65.5945C146.112 66.0712 145.952 66.6837 145.475 66.9626C116.931 83.6623 98.7206 96.8689 84.4984 107.598C82.4298 109.159 80.4435 110.668 78.5204 112.13C67.237 120.707 58.1275 127.631 47.3045 133.464C46.8183 133.726 46.2118 133.545 45.9498 133.059C45.6878 132.572 45.8695 131.966 46.3556 131.704C57.0307 125.95 66.0024 119.132 77.2919 110.551C79.2184 109.087 81.2124 107.572 83.2939 106.001C97.557 95.2414 115.834 81.987 144.465 65.2364C144.942 64.9575 145.554 65.1178 145.833 65.5945ZM142.659 72.2237C142.966 72.6829 142.842 73.3039 142.383 73.6106C124.52 85.5399 110.399 95.0348 98.8952 102.771C87.0617 110.728 77.9962 116.824 70.4722 121.793C74.7648 119.157 79.4704 116.129 84.7215 112.671C90.9254 108.586 97.8784 103.909 105.801 98.5794C107.149 97.6728 108.525 96.7474 109.93 95.8027C119.592 89.3064 130.627 81.9069 143.379 73.5138C143.84 73.2101 144.46 73.338 144.764 73.7993C145.068 74.2606 144.94 74.8807 144.478 75.1844C131.735 83.5721 120.706 90.9673 111.046 97.4625C109.641 98.4067 108.266 99.3319 106.918 100.238C98.9963 105.567 92.0341 110.25 85.8215 114.341C71.2953 123.907 60.8014 130.282 51.6294 134.139C51.4428 134.217 51.2458 134.235 51.0605 134.201C50.9779 134.251 50.8953 134.301 50.8128 134.351C50.3406 134.638 49.7256 134.487 49.4391 134.015C49.1525 133.543 49.303 132.928 49.7752 132.641C61.197 125.71 73.7554 117.265 97.7186 101.152C109.227 93.4129 123.366 83.9055 141.272 71.9474C141.732 71.6407 142.353 71.7644 142.659 72.2237ZM144.584 83.1429C144.901 83.5953 144.791 84.2189 144.338 84.5356C142.949 85.5083 141.57 86.4661 140.201 87.4094C140.247 87.4451 140.29 87.4853 140.33 87.5298C140.514 87.7352 140.598 87.9957 140.584 88.251C142.491 87.0831 144.412 85.9325 146.349 84.8042C146.827 84.5263 147.439 84.6879 147.717 85.1652C147.995 85.6425 147.833 86.2547 147.356 86.5326C142.466 89.3795 137.696 92.3615 132.994 95.4047C118.432 108.227 96.1516 126.807 68.9814 142.964C68.5067 143.246 67.893 143.09 67.6108 142.615C67.3285 142.141 67.4845 141.527 67.9592 141.245C88.3057 129.145 105.902 115.675 119.555 104.298C119.447 104.371 119.339 104.443 119.231 104.515C114.476 107.699 109.739 110.87 104.965 113.948C91.0214 122.939 76.832 131.084 61.2174 136.171C60.6923 136.343 60.1279 136.056 59.9568 135.53C59.8676 135.256 59.903 134.972 60.032 134.738C59.6392 134.939 59.2472 135.139 58.8561 135.339C58.3644 135.591 57.7619 135.396 57.5106 134.904C57.2592 134.412 57.4541 133.81 57.9459 133.559C82.1917 121.165 109.604 106.41 143.191 82.8972C143.644 82.5805 144.267 82.6905 144.584 83.1429ZM61.5723 133.948C76.5579 128.922 90.2754 121.04 103.881 112.267C108.593 109.229 113.301 106.078 118.043 102.903C122.578 99.867 127.145 96.8094 131.779 93.8089C132.895 92.8263 133.965 91.8776 134.989 90.9664C106.706 110.072 82.8835 123.001 61.5723 133.948ZM143.765 96.2991C144.054 96.7698 143.907 97.3856 143.436 97.6745C140.176 99.6746 137.14 101.559 134.301 103.343C134.736 103.165 135.25 103.315 135.516 103.724C135.817 104.187 135.686 104.806 135.223 105.108C126.602 110.714 119.403 116.547 112.893 121.822C110.919 123.421 109.009 124.969 107.141 126.444C101.579 130.837 96.3726 134.601 91.0439 137.028C98.893 134.219 106.208 129.344 112.948 124.167C115.85 121.937 118.629 119.666 121.296 117.486C122.055 116.865 122.806 116.252 123.547 115.649C126.88 112.939 130.039 110.439 132.989 108.489C133.449 108.184 134.07 108.31 134.374 108.771C134.679 109.232 134.552 109.852 134.092 110.157C132.088 111.482 129.97 113.079 127.734 114.849C127.91 114.858 128.087 114.913 128.244 115.02C128.702 115.329 128.822 115.951 128.512 116.408C123.102 124.409 115.181 135.888 100.376 139.021C99.8354 139.136 99.3047 138.791 99.1903 138.25C99.0759 137.71 99.4212 137.179 99.9615 137.065C113.566 134.185 121.061 123.832 126.47 115.857C125.923 116.297 125.369 116.745 124.809 117.201C124.076 117.797 123.331 118.405 122.575 119.023C119.905 121.206 117.095 123.503 114.166 125.753C106.654 131.522 98.2524 137.068 89.0753 139.774C88.5456 139.93 87.9896 139.627 87.8334 139.097C87.7481 138.808 87.7997 138.511 87.9503 138.275C87.1832 138.544 86.4117 138.782 85.6344 138.989C85.432 139.164 85.2287 139.34 85.0245 139.517C83.1897 141.105 81.2756 142.762 79.2192 144.524C78.7998 144.883 78.1685 144.834 77.8092 144.415C77.4499 143.995 77.4986 143.364 77.918 143.005C79.652 141.519 81.2857 140.107 82.8567 138.748C82.8384 138.699 82.8237 138.649 82.8129 138.596C82.7021 138.055 83.0509 137.526 83.5919 137.416C83.9562 137.341 84.3193 137.259 84.6813 137.169C98.5263 125.189 108.432 116.808 142.39 95.9698C142.861 95.681 143.476 95.8284 143.765 96.2991ZM89.8028 135.393C95.0031 133.099 100.176 129.396 105.902 124.875C107.736 123.426 109.625 121.895 111.585 120.307C117.928 115.167 125.016 109.424 133.42 103.897C110.207 118.52 100.43 126.283 89.8028 135.393Z" fill="#84E883"/>
<path fill-rule="evenodd" clip-rule="evenodd" d="M135.995 93.4334C147.995 61.0782 126.903 26.5557 96.6667 19.6093C96.1284 19.4856 95.7923 18.949 95.9159 18.4108C96.0396 17.8725 96.5762 17.5364 97.1145 17.6601C128.473 24.864 150.31 60.5897 137.871 94.1289C137.679 94.6467 137.103 94.9108 136.585 94.7187C136.068 94.5267 135.803 93.9512 135.995 93.4334ZM92.3448 21.8124C61.9203 12.1652 29.9911 26.9242 20.6752 61.9668C20.5333 62.5005 19.9856 62.8182 19.4518 62.6763C19.4388 62.6728 19.4259 62.6691 19.4131 62.6652C11.37 93.8782 30.4324 130.536 63.0049 137.916C63.5435 138.038 63.8812 138.574 63.7592 139.113C63.7365 139.213 63.6993 139.306 63.6505 139.391C81.9244 142.687 97.8793 140.505 110.58 133.481C123.951 126.086 133.828 113.262 139.006 95.5361L140.926 96.0969C135.623 114.248 125.45 127.542 111.548 135.231C97.6542 142.915 80.1494 144.939 60.2851 140.772C59.7446 140.659 59.3983 140.128 59.5117 139.588C59.5473 139.419 59.6237 139.268 59.7286 139.145C26.2018 129.652 7.76057 89.9988 18.7654 57.8608C18.9406 57.3494 19.4891 57.0717 20.0022 57.228C31.0015 24.0727 62.7435 10.3281 92.9493 19.9059C93.4758 20.0728 93.7672 20.6349 93.6003 21.1614C93.4333 21.6878 92.8712 21.9793 92.3448 21.8124Z" fill="#404040"/>
<path fill-rule="evenodd" clip-rule="evenodd" d="M103.635 51.2849C104.012 51.8749 103.841 52.635 103.252 52.9825C102.939 53.1674 102.634 53.346 102.338 53.5197C99.892 54.9546 98.0198 56.0528 96.4136 57.593C96.1887 57.8087 95.898 57.9206 95.6011 57.9305C93.6771 58.8765 92.1238 59.9271 90.5468 61.1317C90.0055 61.5452 89.2072 61.4379 88.7639 60.8921C88.3205 60.3462 88.3999 59.5686 88.9412 59.1551C90.6519 57.8484 92.3999 56.666 94.6133 55.6003C94.711 55.5532 94.8125 55.5201 94.9154 55.5001C96.6675 53.9022 98.6931 52.716 100.963 51.3866C101.266 51.2093 101.573 51.0295 101.884 50.8458C102.473 50.4983 103.257 50.6949 103.635 51.2849ZM101.677 56.0132C100.254 56.8006 98.9381 57.6382 97.6788 58.4496C97.5518 58.5314 97.4254 58.613 97.2997 58.6941C95.6583 59.753 94.1156 60.7483 92.4755 61.5846C91.8649 61.896 91.6468 62.6429 91.9884 63.2527C92.33 63.8626 93.102 64.1045 93.7126 63.7931C95.3266 62.9701 96.8456 62.0073 98.3389 61.045C97.6436 61.9878 96.9241 62.9142 96.1997 63.807C95.5307 64.2015 94.8474 64.5856 94.1627 64.9422C93.5549 65.2586 93.3433 66.0074 93.69 66.6147C93.7898 66.7895 93.925 66.9335 94.0815 67.0424C94.1379 67.3104 94.2837 67.5654 94.5143 67.7605C95.0535 68.2166 95.8521 68.1724 96.2981 67.6617C96.8356 67.0462 97.3812 66.4024 97.9269 65.7372C96.722 67.3019 95.6328 68.6571 94.4944 69.791C94.3686 69.9163 94.2773 70.0624 94.22 70.2187C94.0225 70.5702 94.01 71.0163 94.2268 71.4074C94.5657 72.0186 95.3367 72.2638 95.9489 71.9551C98.4208 70.7085 100.465 69.4164 101.652 68.6663C101.873 68.5263 102.065 68.4053 102.224 68.3069C102.403 68.1956 102.542 68.0456 102.637 67.8743C103.531 67.3368 104.372 66.7304 105.097 66.2073C105.176 66.1503 105.253 66.0942 105.33 66.0394C105.83 65.679 106.261 65.3747 106.638 65.1423C107.033 64.899 107.272 64.797 107.393 64.7679C108.066 64.6059 108.457 63.9353 108.265 63.2699C108.074 62.6046 107.374 62.1965 106.7 62.3585C106.182 62.4831 105.673 62.7568 105.23 63.0298C104.769 63.3137 104.273 63.6663 103.779 64.0222C103.708 64.0732 103.637 64.1243 103.566 64.1756C102.752 64.7623 101.914 65.3667 101.05 65.8677C102.058 64.5467 103.129 63.1523 104.347 61.6968C104.631 61.544 104.828 61.2944 104.917 61.0091C105.256 60.4979 105.148 59.7934 104.643 59.375C104.099 58.9242 103.302 58.9765 102.861 59.4919C102.793 59.5712 102.726 59.6504 102.659 59.7294C102.517 59.8101 102.365 59.9003 102.204 59.9985C102.675 59.2923 103.126 58.5833 103.55 57.8779C103.909 57.6875 104.274 57.5017 104.647 57.3215C105.264 57.0229 105.499 56.2813 105.17 55.6651C104.971 55.2931 104.613 55.0519 104.225 54.9848C104.127 54.8743 104.008 54.778 103.87 54.7022C103.251 54.3611 102.485 54.566 102.159 55.1597C102.004 55.4426 101.844 55.7273 101.677 56.0132Z" fill="#308D27"/>
<path fill-rule="evenodd" clip-rule="evenodd" d="M101.43 47.9823C101.981 47.9135 102.502 48.2975 102.593 48.8399C102.841 50.3182 103.075 51.498 103.284 52.5462C103.42 53.2316 103.545 53.8607 103.655 54.4801C103.9 55.8571 104.045 57.0495 103.951 58.2795C105.23 59.463 106.532 60.4096 107.812 61.3076C107.988 61.4309 108.164 61.5538 108.34 61.6766C109.175 62.2594 110.008 62.841 110.791 63.4578C111.109 63.5323 111.383 63.7537 111.516 64.0544C111.521 64.0585 111.525 64.0625 111.53 64.0665C111.957 64.4349 112.01 65.0611 111.65 65.4651C111.29 65.8691 110.652 65.8979 110.225 65.5295C110.208 65.5151 110.192 65.5007 110.175 65.4863C109.798 65.5396 109.431 65.5903 109.073 65.6399C106.515 65.9936 104.376 66.2894 101.818 67.0924C99.4176 69.6924 97.8702 71.2574 96.459 72.5433C96.4872 72.674 96.516 72.807 96.5454 72.9424C96.6625 73.481 96.3147 73.994 95.7686 74.0882C95.259 74.1761 94.7568 73.8683 94.5969 73.389C94.468 73.3315 94.3482 73.2472 94.247 73.1368C93.8838 72.741 93.8889 72.1528 94.2468 71.79C93.8599 69.9696 93.5994 68.6635 93.3741 67.534C93.1449 66.3843 92.9521 65.4177 92.6997 64.2782C92.3076 63.9519 91.9342 63.6397 91.5765 63.3407C88.9795 61.1698 87.213 59.6931 85.1776 58.5479C84.6856 58.2711 84.501 57.6644 84.7653 57.1929C84.9437 56.8745 85.2812 56.6992 85.6331 56.7041C85.7718 56.6252 85.9333 56.5789 86.1076 56.5757C87.9704 56.5417 89.4347 56.2424 90.7981 55.9637C90.8768 55.9476 90.9551 55.9316 91.0332 55.9157C92.4373 55.6298 93.8415 55.3597 95.3654 55.6141C95.3933 55.6188 95.4208 55.6245 95.4479 55.6313C97.9688 51.8479 99.1513 50.2049 100.384 48.68C100.482 48.5598 100.603 48.4692 100.737 48.4093C100.885 48.182 101.131 48.0195 101.43 47.9823ZM100.983 51.2344C100.007 52.5331 98.8203 54.2475 96.7806 57.3185C96.4819 57.7682 95.8584 57.8821 95.3869 57.5735C95.2939 57.5841 95.1973 57.582 95.0993 57.5656C94.0045 57.3828 92.9526 57.5625 91.5164 57.8549C91.4329 57.8719 91.3483 57.8892 91.2627 57.9067C90.4564 58.0718 89.5559 58.2561 88.5275 58.3866C89.8808 59.3658 91.2606 60.5202 92.9005 61.8923C93.0602 62.0259 93.2224 62.1616 93.3873 62.2994C93.8937 62.2605 94.3736 62.6024 94.4891 63.1041C94.4998 63.1508 94.5105 63.1973 94.521 63.2434C94.5323 63.2528 94.5436 63.2621 94.5549 63.2715C94.9418 63.5919 95.0375 64.1232 94.8055 64.5265C95.0001 65.4328 95.1704 66.2846 95.3646 67.256C95.5354 68.1105 95.7247 69.0574 95.9653 70.2152C97.0379 69.1862 98.2791 67.9095 99.978 66.0768C100.046 65.7585 100.275 65.486 100.611 65.3741C103.281 64.4862 105.527 64.1242 107.938 63.7863C107.704 63.6209 107.464 63.4532 107.218 63.2819C107.04 63.1575 106.859 63.0311 106.676 62.9021C105.364 61.9814 103.945 60.953 102.538 59.6436C102.398 59.5139 102.303 59.3565 102.252 59.1898C102.011 58.9757 101.873 58.6573 101.91 58.3243C102.028 57.2522 101.92 56.19 101.663 54.7483C101.569 54.2231 101.45 53.6195 101.316 52.942C101.212 52.4166 101.099 51.8467 100.983 51.2344Z" fill="#404040"/>
<path fill-rule="evenodd" clip-rule="evenodd" d="M59.1667 53.538C59.7054 53.995 59.7799 54.7791 59.3329 55.2892C58.667 56.0494 57.6886 56.6512 56.4996 57.3443C56.2504 57.4897 55.9862 57.6419 55.7055 57.8037C54.8167 58.316 53.7626 58.9236 52.4935 59.7073C52.407 59.9 52.2676 60.0714 52.0788 60.1996C51.1369 60.8389 50.4269 61.2315 49.8598 61.5406L49.8154 61.5648C49.2644 61.865 48.9293 62.0475 48.6014 62.301C48.0623 62.7176 47.2634 62.6145 46.8169 62.0709C46.3704 61.5272 46.4454 60.7488 46.9845 60.3322C47.4687 59.958 47.963 59.6892 48.4579 59.42C48.493 59.4009 48.5281 59.3818 48.5632 59.3627C48.8721 59.1943 49.2106 59.0081 49.602 58.7722C49.6923 58.5602 49.8454 58.373 50.056 58.2391C51.8331 57.1095 53.2587 56.2878 54.3731 55.6456C54.6482 55.4871 54.9044 55.3395 55.1421 55.2008C56.3913 54.4726 57.0144 54.0541 57.3822 53.6343C57.8291 53.1241 58.6281 53.081 59.1667 53.538ZM57.9514 59.7035C57.5608 59.2801 56.9213 59.1459 56.4014 59.4144C54.8955 60.1922 53.5582 61.1631 52.3486 62.0413C51.9516 62.3296 51.5684 62.6078 51.1975 62.866C50.6374 63.2558 50.5238 64.0283 50.9437 64.5915C51.2223 64.9652 51.6659 65.1529 52.0964 65.1229C51.5447 65.9299 51.0198 66.726 50.5307 67.4745C50.325 67.6434 50.187 67.8728 50.1297 68.1241C49.9028 68.6638 50.1047 69.316 50.6358 69.6588C51.2197 70.0356 51.9842 69.8984 52.3615 69.3555C52.9416 69.0508 53.4372 68.7153 53.9713 68.3536C54.0469 68.3024 54.1233 68.2506 54.2008 68.1984C54.8828 67.7388 55.7343 67.1794 57.0627 66.4515C57.186 66.427 57.307 66.3837 57.4214 66.3204C58.1302 65.9282 58.8229 65.4767 59.4313 65.0801C59.5641 64.9935 59.6929 64.9096 59.8169 64.8294C60.5612 64.3486 61.091 64.0362 61.4726 63.905C62.1249 63.6808 62.4476 62.9744 62.1936 62.3272C61.9395 61.68 61.2048 61.3371 60.5526 61.5613C59.8393 61.8066 59.0622 62.2935 58.3652 62.7437C58.2245 62.8347 58.0842 62.9261 57.944 63.0174C57.4824 63.3181 57.0224 63.6177 56.5531 63.8963C56.4521 63.9204 56.353 63.9574 56.2582 64.0079C56.1368 64.0725 56.0187 64.1361 55.9038 64.1985C56.6337 63.2301 57.3814 62.3167 58.1314 61.5264C58.5986 61.0341 58.5548 60.249 58.0336 59.7728C58.0069 59.7484 57.9795 59.7253 57.9514 59.7035Z" fill="#308D27"/>
<path fill-rule="evenodd" clip-rule="evenodd" d="M56.8796 51.0196C56.8137 50.9792 56.7423 50.9453 56.6661 50.9192C56.1329 50.7368 55.5659 51.0068 55.3998 51.5223C54.9631 52.8766 54.33 54.0723 53.6671 55.2127C53.5113 55.4808 53.351 55.7502 53.1904 56.02C52.8633 56.5698 52.5352 57.1211 52.2425 57.6657C52.148 57.6674 52.0526 57.6823 51.9589 57.7116C50.6468 58.122 48.5786 58.2409 44.0885 57.9302C43.5303 57.8916 43.063 58.3025 43.0447 58.8479C43.0288 59.3226 43.3583 59.7428 43.812 59.8692C43.8624 59.9086 43.917 59.944 43.9758 59.9748C44.3616 60.1766 44.8176 60.4303 45.3304 60.7158C46.8136 61.5413 48.7729 62.6318 50.8906 63.4972C50.8607 63.7552 50.8303 64.0102 50.8001 64.2641C50.5689 66.2064 50.345 68.0876 50.3971 70.7779C50.2734 71.178 50.4259 71.6365 50.8034 71.898C51.2469 72.2053 51.8405 72.1293 52.1635 71.7355C52.2261 71.6703 52.2791 71.5962 52.3208 71.5154C53.9753 69.1327 55.2228 66.7037 56.048 64.9712C57.2179 64.9554 58.4013 65.0305 59.6192 65.1078C59.7191 65.1141 59.8193 65.1205 59.9198 65.1268C61.1238 65.2026 62.3631 65.2734 63.5865 65.2342C63.8298 65.3099 64.0822 65.2923 64.2985 65.1981C64.3104 65.1972 64.3224 65.1964 64.3343 65.1955C64.8893 65.155 65.2886 64.6802 65.2262 64.1349C65.1638 63.5896 64.6633 63.1804 64.1083 63.2208C64.0399 63.2258 63.9713 63.2303 63.9026 63.2344C62.9467 62.7833 62.0267 62.2485 61.0681 61.6913C60.8825 61.5834 60.6955 61.4746 60.5065 61.3655C59.5365 60.8056 58.5207 60.2395 57.4461 59.7892C57.5885 58.5498 57.5518 57.2675 57.5177 56.077C57.5157 56.0067 57.5137 55.9367 57.5117 55.867C57.4737 54.514 57.4528 53.2876 57.6482 52.179C57.7391 51.6628 57.398 51.1558 56.8796 51.0196ZM55.411 59.6988C55.4118 59.6906 55.4128 59.6824 55.4139 59.6742C55.561 58.564 55.5334 57.3864 55.498 56.1309C55.4767 56.1677 55.4555 56.2043 55.4343 56.2407C55.2523 56.5538 55.0754 56.8513 54.9055 57.137C54.4185 57.9558 53.9885 58.6787 53.6594 59.3996C53.4347 59.8916 52.8381 60.0968 52.3268 59.8581C52.2563 59.8252 52.1911 59.7855 52.1317 59.7404C51.1427 59.9795 49.9185 60.0911 48.2609 60.0864C49.3233 60.6491 50.4879 61.2237 51.7247 61.7214C51.8443 61.6925 51.9723 61.685 52.1036 61.7029C52.6593 61.7786 53.0641 62.279 53.0079 62.8205C52.9419 63.4555 52.8716 64.047 52.8034 64.6217C52.6947 65.5365 52.5911 66.4088 52.5178 67.3468C53.323 65.9233 53.9648 64.6069 54.4385 63.5924C54.5841 63.2806 54.8794 63.0861 55.2062 63.0484C55.2917 63.0213 55.3828 63.0053 55.478 63.0021C56.8887 62.9549 58.3048 63.0448 59.6479 63.1302C59.6081 63.1072 59.5684 63.0842 59.5288 63.0614C58.2786 62.3396 57.109 61.7031 55.8941 61.2963C55.3597 61.1174 55.0584 60.5535 55.221 60.0368C55.2615 59.9079 55.3271 59.7942 55.411 59.6988Z" fill="#404040"/>
<path fill-rule="evenodd" clip-rule="evenodd" d="M120.487 72.0643C120.867 71.6585 120.915 71.0259 120.569 70.5381C120.166 69.9704 119.381 69.8137 118.816 70.188C111.857 74.7943 106.044 78.5648 101.065 81.748C104.421 79.2063 107.99 76.5325 111.877 73.6888C112.447 73.3473 113.101 72.9752 113.891 72.562C114.494 72.2467 114.704 71.5027 114.36 70.9003C114.016 70.2979 113.248 70.0652 112.645 70.3806C112.505 70.4535 112.37 70.5253 112.238 70.5959C111.984 70.5965 111.73 70.6725 111.514 70.8298C111.144 71.0992 110.777 71.367 110.413 71.6334C109.982 71.8932 109.599 72.1348 109.244 72.3613C109.124 72.4383 109.008 72.5129 108.895 72.5852C108.188 73.0382 107.619 73.4037 106.952 73.7521C106.595 73.9387 106.375 74.2755 106.327 74.6443C101.326 78.3564 96.8469 81.7772 92.6365 84.9961L92.2082 85.3235C90.1347 86.9088 88.1257 88.4448 86.1495 89.9431C86.455 89.5458 86.4821 88.9785 86.175 88.5252C85.7849 87.9494 85.003 87.7756 84.4286 88.1371C83.6617 88.6198 82.9762 89.0348 82.3523 89.4115L82.248 89.4744C82.6899 88.642 83.0723 87.8701 83.4327 87.131C84.0798 86.9714 84.468 86.3323 84.3035 85.6818C84.1874 85.2225 83.8261 84.8776 83.3917 84.7545C83.339 84.718 83.2829 84.685 83.2236 84.6558C82.6091 84.353 81.8809 84.5743 81.5735 85.1489C81.3791 85.2389 81.1878 85.3369 81.001 85.4389C81.2525 84.5902 81.5682 83.8094 81.9824 83.1906C82.3567 82.6315 82.186 81.8645 81.6012 81.4776C81.2778 81.2635 80.8955 81.2105 80.555 81.3004C80.3659 81.3084 80.1772 81.3587 80.0039 81.4553C79.9116 81.5067 79.811 81.5619 79.7026 81.6209C80.5289 80.2119 81.3777 78.9912 82.1442 78.1265C82.5911 77.6223 82.5226 76.8437 81.9912 76.3875C81.6313 76.0785 81.1513 75.9967 80.7401 76.1327C80.5699 76.094 80.3932 76.0894 80.2217 76.1211C80.7245 75.4745 81.2028 74.8196 81.6246 74.1647C81.6507 74.1473 81.6767 74.1298 81.7027 74.1123C82.0342 73.8894 82.2142 73.5324 82.2229 73.1611C82.2885 73.0408 82.3515 72.9206 82.4119 72.8006C82.7143 72.1996 82.4528 71.4546 81.8278 71.1365C81.2027 70.8184 80.4509 71.0477 80.1485 71.6487C80.0252 71.8938 79.887 72.1424 79.7359 72.3943C77.0357 74.1705 74.0265 75.8367 71.1127 77.2263C73.322 75.6228 75.7067 73.9051 78.291 72.06C78.6033 71.837 78.7723 71.4936 78.7834 71.1371C79.3136 70.76 79.4376 70.0265 79.0547 69.4701C78.6602 68.8969 77.8772 68.7288 77.3058 69.0945C68.8254 74.523 62.2303 78.681 56.7584 82.117C56.9541 81.6872 56.8793 81.157 56.5256 80.774C56.0515 80.2608 55.256 80.2062 54.7486 80.6521C52.4482 82.6744 49.6432 84.7937 46.6376 87.0396C46.3801 87.232 46.1213 87.4252 45.8612 87.6194C43.0993 89.6814 40.2047 91.8424 37.4651 94.0906C37.3009 94.2254 37.183 94.3943 37.1128 94.579C36.8186 94.7721 36.5243 94.9658 36.2294 95.1604C35.6634 95.534 35.5307 96.2974 35.9329 96.8655C36.335 97.4336 37.1199 97.5914 37.6859 97.2178C42.5509 94.0069 47.2592 91.0473 53.4168 87.1854C53.213 87.3387 53.0115 87.4903 52.8121 87.6403L52.3766 87.968C46.9721 92.0344 43.2089 94.8658 39.3575 97.4001C38.7909 97.7729 38.6571 98.5361 39.0585 99.1047C39.4599 99.6734 40.2446 99.8322 40.8112 99.4594C40.8201 99.4535 40.829 99.4476 40.8379 99.4418C40.8639 99.4303 40.8895 99.4179 40.915 99.4045C41.1735 99.2681 41.4588 99.1193 41.7685 98.9577C44.0684 97.7583 47.7177 95.8551 51.8163 93.0742C52.3772 92.6936 52.5002 91.9283 52.091 91.3648C52.0873 91.3597 52.0836 91.3547 52.0798 91.3497C52.6707 90.9057 53.2803 90.447 53.9113 89.9723L54.3888 89.613C57.9044 86.9679 62.0951 83.8192 67.4089 79.9268C67.4283 80.0151 67.4579 80.1031 67.4982 80.1892C67.7913 80.8155 68.5392 81.1089 69.1686 80.8443C71.2264 79.9794 73.4061 78.9407 75.5608 77.7875C74.5319 79.0195 73.5145 80.2792 72.7469 81.4903C72.3868 82.0585 72.5761 82.8219 73.1698 83.1953C73.4571 83.3761 73.7865 83.4324 74.0907 83.3779C74.3351 83.339 74.5675 83.2283 74.7528 83.0453C75.0913 82.7111 75.7307 82.2122 76.8244 81.4296C76.8619 81.4028 76.8999 81.3756 76.9384 81.3482C76.4482 82.2442 75.9793 83.182 75.5493 84.1288C75.5375 84.1372 75.5256 84.1456 75.5138 84.1541C74.9621 84.5471 74.8566 85.3155 75.2782 85.8703C75.4867 86.1448 75.7852 86.3156 76.1004 86.3706C76.6865 86.5633 77.3211 86.317 77.5909 85.782C77.876 85.5899 78.1549 85.41 78.4257 85.2414C78.217 86.0345 78.0639 86.8165 77.9403 87.5143C77.6892 87.9098 77.6896 88.438 77.9847 88.861C78.3105 89.3282 78.8948 89.5223 79.4081 89.3748C78.8312 90.3997 78.1517 91.5208 77.3043 92.7918C76.9312 93.3516 77.1033 94.1183 77.6888 94.5043C78.0503 94.7426 78.4849 94.78 78.8523 94.642C79.2149 94.6694 79.5811 94.5438 79.8418 94.2674C80.4163 93.6583 81.1005 93.1509 82.0701 92.5351C82.5281 92.2443 83.0354 91.938 83.6185 91.586L83.7272 91.5204C84.2576 91.2001 84.8432 90.8458 85.4893 90.4432C82.5018 92.7038 79.5818 94.8808 76.6187 97.0152C76.0692 97.4111 75.9677 98.1801 76.3921 98.733C76.7491 99.198 77.3644 99.3619 77.8779 99.1667C78.0394 99.1405 78.1971 99.0825 78.3414 98.9905C80.9199 97.3461 83.6322 95.6604 86.7167 93.7434C90.3488 91.4861 94.4968 88.9082 99.5496 85.6995C94.5579 89.5916 90.241 93.0818 86.3142 96.3248C84.1888 97.4431 82.2924 98.514 80.3554 99.9297C79.8087 100.329 79.7126 101.099 80.1406 101.649C80.3605 101.932 80.676 102.102 81.005 102.146C81.04 102.2 81.0795 102.252 81.1237 102.302C81.5867 102.825 82.3814 102.896 82.8989 102.461C84.4695 101.142 86.0891 99.7898 87.7808 98.3916C88.2486 98.1471 88.7324 97.8971 89.2368 97.6365C90.465 97.002 91.815 96.3045 93.3516 95.4698C93.9493 95.1451 94.1473 94.3976 93.7939 93.8002C93.7513 93.7281 93.7025 93.6615 93.6488 93.6006C98.0755 90.0324 103.045 86.1325 108.861 81.7355C108.713 82.0668 108.719 82.4648 108.913 82.818C109.247 83.4255 110.012 83.6704 110.62 83.3649C112.509 82.4172 114.463 81.4001 116.318 80.4025C115.391 81.6002 114.405 82.8573 113.408 84.0963C112.986 84.6209 113.091 85.3968 113.642 85.8294C113.857 85.9981 114.108 86.0897 114.36 86.1075C114.693 86.26 115.085 86.273 115.433 86.1104C117.157 85.3045 118.875 84.1229 120.46 83.033L120.536 82.9807C122.189 81.8437 123.686 80.8221 125.074 80.2085C125.698 79.9327 125.957 79.2053 125.653 78.5838C125.348 77.9623 124.595 77.6821 123.971 77.9579C122.378 78.6623 120.732 79.7866 119.169 80.8614C120.208 79.5077 121.144 78.2697 121.897 77.274C122.518 76.9062 123.085 76.5609 123.585 76.2452C124.159 75.8828 124.307 75.1226 123.916 74.5473C123.525 73.972 122.743 73.7993 122.169 74.1617C122.16 74.1672 122.151 74.1727 122.143 74.1782C121.641 74.0076 121.075 74.1547 120.75 74.5823C120.567 74.824 120.362 75.0948 120.138 75.3907C117.384 77.0034 113.636 79.0281 110.035 80.8503C113.13 78.5204 116.461 76.0521 120.072 73.4219C120.507 73.105 120.658 72.5537 120.487 72.0643ZM66.9208 71.1597C66.8461 71.2308 66.772 71.3015 66.6983 71.3718C66.4736 71.5863 66.2529 71.797 66.0309 72.0039C65.5372 72.4641 65.5326 73.243 66.0208 73.7435C66.5089 74.244 67.3049 74.2767 67.7987 73.8164C68.0421 73.5895 68.2767 73.3659 68.5093 73.1443C69.2389 72.449 69.9483 71.7728 70.8477 71.0734C71.631 70.6509 72.3576 70.1588 73.0961 69.6226C73.6441 69.2247 73.7427 68.4552 73.3163 67.9038C73.2914 67.8716 73.2653 67.8409 73.238 67.8116C72.8348 67.3309 72.1304 67.1951 71.5935 67.5179C70.7534 68.0231 70.0408 68.5141 69.4151 68.9907C68.8794 69.2683 68.3311 69.4939 67.7272 69.6699C67.0818 69.8581 66.7275 70.5193 66.9208 71.1597ZM47.1403 84.5478C47.496 85.144 47.301 85.8924 46.7047 86.2193C42.9492 88.2785 39.7104 90.5326 37.1012 92.3926C36.5496 92.7858 35.7606 92.6548 35.3388 92.1001C34.9171 91.5453 35.0224 90.7769 35.5739 90.3837C38.1974 88.5136 41.5309 86.191 45.4166 84.0604C46.0129 83.7334 46.7846 83.9517 47.1403 84.5478Z" fill="#308D27"/>
<path fill-rule="evenodd" clip-rule="evenodd" d="M116.208 68.5089C116.548 68.0906 117.18 68.0336 117.62 68.3817C121.286 71.284 123.669 75.683 123.219 79.2388C123.187 79.4902 123.06 79.7041 122.878 79.8517C122.063 82.7529 119.863 84.5376 117.285 85.1036C114.854 85.6373 112.1 85.0893 109.833 83.4387C100.846 87.5357 96.822 89.6782 92.5838 92.7314C92.7491 93.7655 92.722 94.9602 92.4627 95.8434C92.392 96.0845 92.2335 96.2748 92.0304 96.3925C91.5139 98.493 90.1994 100.016 88.4764 100.892C86.858 101.716 84.9147 101.954 82.977 101.628C82.965 101.65 82.952 101.672 82.938 101.694C82.6476 102.148 82.0281 102.271 81.5544 101.97C80.0209 100.996 78.1311 99.2436 76.8614 97.2753C75.8499 95.7073 75.1029 93.7844 75.5311 91.9738C75.4762 91.9075 75.4289 91.8335 75.391 91.7526C75.1811 91.3037 75.334 90.7933 75.7299 90.5394C75.7451 90.5115 75.7662 90.4689 75.7928 90.4068C75.8388 90.2995 75.8858 90.1721 75.9444 90.0095L75.9606 89.9648C76.0127 89.8202 76.0729 89.6532 76.1395 89.4863C76.3102 89.0585 76.6025 88.411 77.1674 87.9677C76.2789 86.5217 75.5915 85.5036 74.906 84.4883C74.7452 84.2502 74.5845 84.0122 74.4214 83.7688C73.8715 83.9503 73.2878 83.8469 72.8558 83.7239C72.3145 83.5697 71.7376 83.303 71.1948 83.0198C70.6451 82.7329 70.0791 82.4015 69.561 82.0974L69.5263 82.0769C69.1231 81.8403 68.7542 81.6237 68.4239 81.4428C68.3589 81.4918 68.2864 81.5333 68.2069 81.5657C62.7256 83.8029 56.1501 87.2196 51.6996 90.4471C51.5281 90.5715 51.327 90.632 51.1252 90.6331C51.4374 90.9271 51.5766 91.3086 51.5963 91.6767C51.6169 92.0589 51.5136 92.4484 51.4061 92.777C51.2922 93.1251 51.1294 93.5289 50.9499 93.9667C50.791 94.3544 50.4022 94.5779 49.9941 94.5555C48.8829 97.454 45.9067 99.7031 42.1596 99.6297C42.1519 99.6476 42.1436 99.6654 42.1347 99.683C41.8913 100.163 41.289 100.345 40.7895 100.089C38.2679 98.7972 36.1785 97.3717 34.977 95.5537C33.7217 93.6544 33.5266 91.4746 34.472 88.9296C34.6003 88.5842 34.9101 88.3602 35.2604 88.3175C35.2687 88.2751 35.2801 88.2329 35.2946 88.191C35.9691 86.2404 36.8665 84.7792 38.471 83.9644C40.0242 83.1755 42.055 83.0931 44.7107 83.3793C45.1029 83.4215 45.4259 83.6778 45.5667 84.0158C46.1266 84.0703 46.5789 84.1695 46.9527 84.3098C47.1721 84.3922 47.3636 84.4883 47.5326 84.5958C48.702 84.0047 49.9237 83.3763 51.1797 82.7303C55.8419 80.3325 60.9765 77.6917 65.6616 75.8097C65.6829 75.6424 65.679 75.5338 65.6695 75.456C65.6562 75.3471 65.6268 75.2472 65.5564 75.0447C65.5515 75.0307 65.5465 75.0165 65.5415 75.0022C65.3851 74.5538 65.176 73.9543 65.1386 72.8355C65.1224 72.3499 65.4674 71.9475 65.9366 71.8678C66.2748 70.1585 67.2876 68.5269 68.8666 67.4984C70.6067 66.365 72.9589 66.0133 75.6739 66.9767C76.0412 67.1071 76.2926 67.4205 76.3537 67.7712C78.4324 67.9106 80.2189 69.0015 81.3103 70.6044C82.6148 72.5202 82.8922 75.1071 81.6445 77.5769C81.5099 77.8433 81.265 78.0181 80.9882 78.0776C80.964 78.4788 80.8258 78.8442 80.7018 79.1147C80.5705 79.4013 80.4092 79.6749 80.2926 79.8729C80.2843 79.887 80.2763 79.9007 80.2684 79.914C80.821 80.78 81.261 81.5024 81.6514 82.1433C81.7609 82.3232 81.8666 82.4967 81.9698 82.6651C82.3763 83.329 82.7447 83.9161 83.168 84.5271C83.9607 84.5788 85.1506 84.7764 86.3313 85.1673C87.1196 85.4283 87.9811 85.8005 88.7242 86.3267C92.7085 84.7314 96.2491 83.2312 99.1751 81.7385C102.124 80.2339 104.379 78.771 105.828 77.279C105.903 77.2021 105.988 77.1404 106.079 77.0938C105.862 74.6436 106.862 72.4631 108.563 70.942C110.439 69.2652 113.163 68.3845 116.068 68.7452C116.102 68.6619 116.149 68.5823 116.208 68.5089ZM116.777 70.214L116.659 70.832C114.026 70.2607 111.556 70.9828 109.949 72.4194C108.357 73.8428 107.608 75.9602 108.352 78.3127C108.519 78.8376 108.223 79.3797 107.693 79.5235C107.33 79.6219 106.951 79.5083 106.695 79.2585C105.058 80.7482 102.813 82.1373 100.155 83.4936C97.2729 84.9638 93.8398 86.4271 90.0447 87.9535C90.0535 88.2578 89.9189 88.5568 89.6543 88.7477C89.2147 89.0647 88.5828 88.9632 88.2429 88.5209C87.7742 87.9109 86.8582 87.3992 85.7494 87.0321C84.9457 86.766 84.1402 86.6084 83.5358 86.5346C83.5121 86.5547 83.4873 86.5739 83.4612 86.592C83.0158 86.9015 82.3854 86.7894 82.0531 86.3418C81.3447 85.3874 80.8218 84.5606 80.2539 83.6333C80.1476 83.4596 80.0398 83.2826 79.9288 83.1004C79.4471 82.3097 78.9061 81.4215 78.171 80.2905C77.8677 79.8239 77.9994 79.2185 78.4651 78.9382C78.4746 78.9325 78.4842 78.927 78.4938 78.9216C78.4994 78.912 78.505 78.9025 78.5105 78.8931L78.5314 78.8576C78.6565 78.6449 78.7713 78.4496 78.861 78.254C78.921 78.1231 78.9518 78.0288 78.9668 77.9666C78.611 77.6227 78.5476 77.0753 78.8392 76.6813C79.1006 76.3282 79.5663 76.2074 79.9754 76.3537C80.7525 74.5848 80.4807 72.8785 79.6486 71.6564C78.7688 70.3642 77.2283 69.553 75.4144 69.7588C74.865 69.8211 74.3519 69.4334 74.2684 68.8927C74.2524 68.7894 74.2533 68.688 74.269 68.591C72.4824 68.1475 71.0604 68.4756 70.0224 69.1517C68.8069 69.9434 68.04 71.2631 67.8625 72.6145C67.8121 72.9974 67.5414 73.2921 67.1904 73.3975C67.2464 73.8636 67.3454 74.1465 67.4386 74.4124C67.4453 74.4316 67.452 74.4508 67.4587 74.4699C67.5322 74.6813 67.6263 74.9558 67.6674 75.2915C67.7092 75.6337 67.6919 75.9928 67.612 76.4145C67.5989 76.4836 67.5786 76.5493 67.5521 76.6112C67.5364 76.9747 67.314 77.3082 66.95 77.4513C62.2363 79.3037 57.0496 81.9712 52.2527 84.4382C50.9685 85.0987 49.7123 85.7447 48.5006 86.357C48.4343 86.5285 48.3171 86.682 48.1526 86.794C47.9123 86.9577 47.62 86.9999 47.35 86.9344C47.2843 86.9672 47.2188 86.9998 47.1534 87.0322C46.6652 87.2747 46.0543 87.0762 45.7889 86.589C45.6864 86.4009 45.6505 86.1972 45.673 86.0041C45.2367 85.9439 44.5965 85.9137 43.656 85.961C43.1637 85.9857 42.7233 85.6579 42.5977 85.2027C41.1517 85.1742 40.1689 85.3547 39.4476 85.7211C38.4895 86.2076 37.8134 87.118 37.203 88.8832C37.08 89.2387 36.7654 89.4719 36.4074 89.5154C36.3977 89.5646 36.3839 89.6136 36.366 89.662C35.5909 91.7485 35.8165 93.2574 36.6546 94.5255C37.3728 95.6122 38.5998 96.6154 40.329 97.6199C40.5115 97.5324 40.725 97.4999 40.9446 97.5396C44.8508 98.2463 47.8774 95.7229 48.3796 92.8191C48.4589 92.3609 48.8536 92.0429 49.3109 92.0324C48.914 91.8873 48.6277 91.5103 48.6265 91.0774C48.625 90.5335 49.0742 90.1073 49.6298 90.1255C49.8259 90.1319 50.047 90.1497 50.2703 90.2004C49.9497 89.7607 50.0338 89.1608 50.4649 88.8481C55.0739 85.5057 61.7963 82.0198 67.3763 79.7423C67.5531 79.6702 67.7409 79.6526 67.9202 79.6817C68.2172 79.4259 68.6621 79.366 69.0451 79.5644C69.4909 79.7953 69.9939 80.0906 70.4868 80.38L70.5489 80.4165C71.0737 80.7245 71.5949 81.0292 72.0903 81.2877C72.5926 81.5498 73.0189 81.7378 73.3527 81.8329C73.595 81.9019 73.6991 81.8962 73.7192 81.8956C73.7616 81.8757 73.8049 81.859 73.8487 81.8454C73.9227 81.7345 74.0219 81.6376 74.1443 81.5632C74.6087 81.281 75.2325 81.4295 75.5377 81.8949C75.8802 82.4174 76.2099 82.9058 76.5459 83.4035C77.362 84.6124 78.215 85.876 79.3779 87.8144C79.5102 88.035 79.5482 88.2819 79.5035 88.5096C79.504 88.991 79.1433 89.3996 78.6423 89.4533C78.4794 89.4707 78.2856 89.5884 78.0173 90.2608C77.9631 90.3966 77.9136 90.5339 77.8598 90.6828L77.8444 90.7257C77.8295 90.7669 77.8141 90.8094 77.7982 90.8528C77.9434 91.1406 77.9472 91.4867 77.7771 91.7773C77.0942 92.944 77.4282 94.525 78.5515 96.2663C79.3993 97.5806 80.5869 98.7993 81.6789 99.664C81.9076 99.5067 82.2061 99.4472 82.5049 99.5256C84.3168 100.001 86.1107 99.8425 87.4986 99.1364C88.8652 98.4411 89.8847 97.1959 90.174 95.3638C90.2202 95.0711 90.3951 94.8336 90.634 94.6953C90.6926 94.2219 90.6881 93.6647 90.6229 93.1519C90.5763 93.1106 90.5327 93.0646 90.493 93.014C90.2082 92.6515 90.2092 92.1675 90.4639 91.8287C90.5563 91.5218 90.8024 91.2712 91.1421 91.1839C91.2006 91.1688 91.2594 91.1592 91.318 91.1548C95.8138 87.912 100.049 85.6833 109.479 81.397C109.846 81.23 110.272 81.3058 110.57 81.5568C110.615 81.5832 110.659 81.6132 110.701 81.6471C112.546 83.1264 114.826 83.6081 116.778 83.1797C118.709 82.7556 120.332 81.4417 120.941 79.247C120.993 79.059 121.099 78.9009 121.238 78.7832C121.478 76.2634 119.801 72.777 116.777 70.214Z" fill="#404040"/>
</svg>
