<svg width="18" height="18" viewBox="0 0 18 18" fill="none" xmlns="http://www.w3.org/2000/svg">
<path d="M8.80383 4.36153C6.34664 4.36153 4.36466 6.34351 4.36466 8.8007C4.36466 11.2579 6.34664 13.2399 8.80383 13.2399C11.261 13.2399 13.243 11.2579 13.243 8.8007C13.243 6.34351 11.261 4.36153 8.80383 4.36153ZM8.80383 11.6867C7.21593 11.6867 5.91779 10.3925 5.91779 8.8007C5.91779 7.20893 7.21207 5.91466 8.80383 5.91466C10.3956 5.91466 11.6899 7.20893 11.6899 8.8007C11.6899 10.3925 10.3917 11.6867 8.80383 11.6867ZM14.46 4.17995C14.46 4.75561 13.9964 5.21537 13.4246 5.21537C12.8489 5.21537 12.3892 4.75175 12.3892 4.17995C12.3892 3.60815 12.8528 3.14453 13.4246 3.14453C13.9964 3.14453 14.46 3.60815 14.46 4.17995ZM17.4001 5.23082C17.3344 3.84382 17.0176 2.61523 16.0015 1.60299C14.9893 0.590755 13.7607 0.273948 12.3737 0.204405C10.9442 0.123271 6.65958 0.123271 5.23009 0.204405C3.84696 0.270084 2.61836 0.586892 1.60226 1.59913C0.586159 2.61137 0.273215 3.83996 0.203672 5.22696C0.122539 6.65645 0.122539 10.9411 0.203672 12.3706C0.269352 13.7576 0.586159 14.9862 1.60226 15.9984C2.61836 17.0106 3.84309 17.3274 5.23009 17.397C6.65958 17.4781 10.9442 17.4781 12.3737 17.397C13.7607 17.3313 14.9893 17.0145 16.0015 15.9984C17.0138 14.9862 17.3306 13.7576 17.4001 12.3706C17.4813 10.9411 17.4813 6.66032 17.4001 5.23082ZM15.5534 13.9044C15.252 14.6616 14.6686 15.245 13.9075 15.5502C12.7678 16.0023 10.0633 15.898 8.80383 15.898C7.54433 15.898 4.83601 15.9984 3.70014 15.5502C2.9429 15.2489 2.35951 14.6655 2.05429 13.9044C1.60226 12.7647 1.70657 10.0602 1.70657 8.8007C1.70657 7.5412 1.60612 4.83288 2.05429 3.69701C2.35564 2.93976 2.93903 2.35638 3.70014 2.05116C4.83988 1.59913 7.54433 1.70344 8.80383 1.70344C10.0633 1.70344 12.7716 1.60299 13.9075 2.05116C14.6648 2.35251 15.2482 2.9359 15.5534 3.69701C16.0054 4.83674 15.9011 7.5412 15.9011 8.8007C15.9011 10.0602 16.0054 12.7685 15.5534 13.9044Z" fill="url(#paint0_linear_154_468)"/>
<defs>
<linearGradient id="paint0_linear_154_468" x1="-3.05456e-05" y1="17" x2="17" y2="2.21571e-08" gradientUnits="userSpaceOnUse">
<stop stop-color="#FFFDC8"/>
<stop offset="0.119792" stop-color="#405DE6"/>
<stop offset="0.203125" stop-color="#5851DB"/>
<stop offset="0.364583" stop-color="#833AB4"/>
<stop offset="0.572917" stop-color="#C13584"/>
<stop offset="0.744792" stop-color="#E1306C"/>
<stop offset="1" stop-color="#FD1D1D"/>
</linearGradient>
</defs>
</svg>
