<svg width="159" height="233" viewBox="0 0 159 233" fill="none" xmlns="http://www.w3.org/2000/svg">
<path d="M5.03364 34.0261C4.92619 33.3982 6.8336 32.3789 9.01147 29.6569M4.35158 33.7579C5.67756 32.8312 6.96235 31.6129 8.33815 29.4655M4.47671 40.2949C8.11688 35.2334 11.7097 31.0857 14.0586 29.1382M5.10529 39.4279C8.1501 36.3669 11.7435 32.5092 13.9436 29.3012M7.43385 44.1772C11.4981 39.7741 11.3373 36.3494 19.446 29.1819M5.80454 43.6792C11.432 38.2689 16.2322 33.7147 19.3641 30.0884M8.90606 50.2509C11.189 45.0258 15.684 40.822 23.8888 30.9955M6.91179 49.9996C14.8707 41.8213 19.6868 34.8604 23.3877 31.2845M8.17504 51.9948C12.6984 46.3123 19.3246 43.213 29.6819 31.827M8.82845 53.7306C16.7213 46.4708 21.0017 40.5438 27.5069 31.4132M8.73735 59.6067C16.5002 54.7803 20.4623 47.0248 33.6907 32.3041M11.7207 59.4576C15.6886 52.6503 22.0886 45.779 31.803 32.8537M10.887 62.9466C17.5265 56.6326 26.8384 47.3919 37.924 35.4107M11.6259 64.169C21.5277 53.1459 28.6674 44.8367 37.8026 35.4371M15.9622 65.4146C21.3752 60.3333 28.4556 50.8608 43.346 37.6014M15.6079 66.9568C24.009 55.0429 33.9795 43.7359 41.6977 35.6499M20.0744 69.2711C25.4446 61.9249 29.6004 52.5475 45.2143 34.9722M18.9623 68.2566C23.9853 62.4732 29.6986 55.4945 45.7028 37.3686M20.6733 70.8479C30.1599 61.4509 43.0115 49.5788 51.2139 38.539M22.9834 71.1871C31.2217 61.7242 38.7587 51.3269 50.3735 38.4206M25.3169 73.1318C35.3564 63.7878 43.7302 52.384 54.7846 38.0419M24.4114 74.6309C35.5842 62.1755 45.0482 51.3119 55.9757 38.9316M26.516 76.3502C35.7661 66.9258 47.7685 56.3977 59.2363 41.107M27.8699 77.1773C35.7764 68.329 42.9949 60.8423 58.2521 41.6063M31.2673 82.5281C41.1795 71.0309 50.3123 58.8916 61.1867 44.7556M30.5663 80.2165C41.0642 66.6645 52.7777 53.9931 62.2371 45.3501M32.8757 83.7681C43.6255 73.9479 50.8851 62.2654 66.0221 49.2743M34.6071 82.253C43.4012 72.6847 51.4851 63.3264 64.7221 46.958M35.9419 86.0264C45.9168 74.2836 59.3349 63.0356 68.9499 49.9052M35.5789 87.151C43.5032 77.1906 52.1986 68.6486 67.7222 51.6575M40.3977 89.0771C48.1628 82.753 54.2201 71.6789 71.4429 53.4259M39.8953 88.5945C49.5898 77.2145 60.6741 65.0119 70.2194 53.5725M46.0433 91.0278C51.8961 83.0873 58.9887 75.057 71.98 55.8874M44.8456 90.0114C53.5731 81.1458 61.5748 68.8291 74.2005 56.519M47.9437 90.0235C55.0549 85.7133 62.5752 78.424 78.0737 60.0406M49.5143 92.2309C55.7983 83.1129 62.8261 76.4188 76.8139 61.0345M54.3479 91.4777C62.5401 82.2495 73.7841 72.3781 77.3832 63.26M53.4658 92.0697C61.612 83.4049 69.4977 75.1179 80.0171 62.5077M58.6492 94.4082C65.6559 85.989 71.1474 79.0069 84.0622 67.2496M57.3568 93.5413C65.5062 85.1677 72.068 77.2989 81.5515 65.4923M60.1994 94.4421C65.611 91.3729 70.722 83.3118 85.2369 70.4917M62.316 95.4213C65.546 89.938 71.2681 84.5092 83.6792 70.2406M68.4458 94.6283C69.1051 90.31 74.2445 88.2973 83.1427 76.5994M67.7811 96.3327C73.3292 88.7535 81.7276 81.0084 84.7553 76.5594M72.6905 96.3705C77.4761 93.2177 82.087 84.5131 88.4502 81.8822M71.102 98.1238C75.623 93.9968 79.1602 88.942 86.695 79.9489M71.4945 102.491C78.549 98.1722 81.3021 92.9793 86.8808 83.7162M70.8943 102.997C74.8614 97.8699 80.101 92.9049 88.1127 86.1559M70.9506 111.531C78.6205 102.507 84.5808 98.1722 89.1408 91.3439M72.3237 109.932C77.2274 103.717 81.743 99.0353 89.3739 89.7633M73.7438 117.178C80.0447 107.352 86.1717 101.474 90.8171 93.6489M72.4209 117.076C77.803 109.125 82.3392 103.482 89.752 96.3461M70.3803 121.452C75.5634 116.214 82.5313 110.609 92.6551 101.243M71.4912 122.802C77.7466 114.93 84.3401 107.344 91.9485 99.5826M71.8867 129.286C80.8508 120.753 86.3487 112.27 91.4616 106.856M72.3786 129.758C76.7627 121.751 81.9321 117.519 91.5916 106.389M72.411 135.167C79.5738 129.371 84.5188 121.713 88.322 112.788M72.0815 134.835C75.6316 129.478 81.7797 125.915 90.3262 113.32M74.1019 139.827C76.5519 133.106 81.4065 130.483 91.1726 119.81M73.0362 141.572C78.6555 133.873 84.6951 127.1 90.1138 122.617M77.9597 143.18C82.3616 136.379 84.944 131.285 88.1595 129.073M77.0248 142.496C80.5951 138.555 84.2322 134.491 87.7186 129.651M81.7132 143.353C82.4712 142.333 85.206 139.07 87.757 137.381M81.1494 143.39C82.5449 142.465 84.1662 140.325 87.1845 136.786M5.02601 39.5233C6.35764 35.9454 7.90653 33.8614 8.52927 29.835M5.68088 39.0805C6.15098 37.0254 6.47458 35.177 8.82633 29.4169M6.18025 44.4903C9.41724 39.2475 11.0709 36.9497 12.8407 29.4453M5.93349 44.0196C8.42797 39.9299 10.557 35.8154 14.138 30.163M9.53491 50.0845C11.8564 43.3395 12.0281 39.2892 17.8366 30.8466M8.15622 48.6333C10.445 45.9857 13.0521 40.0469 18.7423 28.6582M7.56892 52.794C15.8131 44.8338 18.5812 38.8551 24.0195 32.9913M10.3459 52.6792C14.2707 48.131 17.9556 41.157 23.941 30.7165M10.4816 58.1737C14.2629 51.2736 20.3795 44.4551 28.9727 30.9901M11.4249 58.9961C16.3438 49.6153 22.3189 41.0683 28.2952 32.1683M13.5218 61.1866C19.1133 56.2982 24.5365 48.422 34.0427 35.4475M11.8307 62.2199C16.9703 55.6898 22.6402 50.0273 33.4529 34.2164M15.3412 64.7985C21.2452 57.6387 25.1868 54.431 38.6131 35.1048M16.2329 65.6296C23.8279 55.4323 30.7656 43.5037 37.3938 35.6136M17.5623 70.2335C27.2336 60.6823 33.96 50.6745 41.5992 35.5048M19.4508 67.911C27.8042 55.782 36.4861 44.5163 42.644 34.9554M21.9807 70.4608C27.013 59.9717 36.8734 51.3224 45.0519 35.7587M21.9795 70.8811C30.9794 58.8702 39.8395 45.9538 47.0383 36.6146M25.9582 77.0654C34.0136 65.0928 39.8743 53.5113 51.8889 39.4385M24.5967 74.7086C29.7168 68.1257 35.2909 59.9545 51.6651 37.2074M26.1282 78.4732C33.6065 70.6519 39.3172 59.881 56.8965 39.1719M27.874 76.9668C33.3684 69.323 38.2427 61.9681 56.2924 38.7722M29.7493 81.37C36.5192 68.3745 44.5347 60.9371 60.5729 40.5741M30.1968 81.3343C37.6205 69.4935 46.4853 60.3245 59.4554 41.6168M34.1744 81.5246C43.1857 71.5513 51.8774 58.8592 62.8472 46.0527M34.0721 84.19C43.4724 69.4014 53.2049 57.2359 62.7407 45.7324M36.6282 87.2671C46.8653 73.8929 54.3071 62.8522 64.075 48.2167M36.0429 87.6207C43.3733 76.1784 51.035 65.546 65.643 47.4853M41.1404 90.5363C49.3359 76.627 56.0548 63.2242 66.0066 52.5312M40.5161 88.7323C47.5337 77.9798 57.3508 64.4224 67.1967 51.3882M43.1261 92.7221C52.4942 78.2683 64.6406 60.639 68.6491 53.7278M44.6026 91.6493C50.8553 80.8796 56.6724 71.8145 71.3416 53.17M49.4565 90.5772C57.7559 79.313 68.6821 65.2337 75.0919 54.7028M49.5358 92.3414C58.3669 80.1781 67.3862 65.9256 74.252 57.0363M54.449 94.8751C59.6079 81.9337 65.7779 75.036 76.0564 61.935M54.2296 93.5793C60.4305 81.2024 69.5788 70.2356 75.1196 59.9118M56.4997 93.8372C65.2179 82.9335 69.8584 74.4337 80.8558 64.4543M57.965 94.1334C65.9413 84.7953 71.793 73.4441 79.3638 63.8762M62.3284 95.7965C69.7049 84.9905 77.6552 77.1522 84.1136 64.1926M61.2282 95.8652C69.7571 85.2079 75.7845 74.5279 83.1002 64.9931M67.935 97.2056C70.6527 91.7361 75.4342 87.2932 84.5594 72.2048M66.2522 96.2513C73.2978 85.6357 80.264 76.225 84.1398 70.6391M70.1145 97.7748C76.7516 91.0203 80.7714 82.5074 85.2471 76.2945M70.5491 96.686C73.8 92.5311 76.3123 88.313 85.332 76.255M71.6329 102.585C73.3693 98.3658 78.0297 92.2283 88.0293 81.7147M71.1126 103.372C75.4048 95.2816 80.5289 88.5817 85.8249 80.9856M70.9879 112.03C76.4496 103.44 78.2438 99.2429 87.5397 85.0054M71.4272 110.359C76.1806 104.32 81.1149 95.5861 88.4078 86.3743M72.8153 117.419C78.9694 107.14 82.4457 97.6029 90.7433 90.4168M72.5017 116.677C76.1343 109.007 82.9918 100.359 89.7007 90.7493M73.4584 122.846C79.5834 113.53 86.3951 100.84 88.8208 93.7774M71.8255 122.957C76.7584 114.623 82.0135 106.079 90.7041 96.0472M72.2815 129.812C79.249 117.836 82.9852 111.37 92.4392 100.512M72.3647 129.72C78.4811 118.544 86.94 105.806 92.0635 100.148M73.5749 134.375C79.7107 125.628 84.2947 117.138 93.0407 105.4M72.4953 136.207C77.9893 127.445 82.5602 118.45 91.6226 106.621M71.5347 141.315C77.7357 131.88 85.7249 125.14 89.1437 112.249M71.9017 140.652C78.1498 131.559 84.4569 121.42 89.3276 113.804M75.3119 140.133C78.5618 138.308 83.1935 132.993 87.9924 123.712M77.038 141.89C81.18 135.679 84.4825 130.468 88.5561 121.808M81.6406 50.5361C91.4941 38.2971 98.925 30.0591 102.285 20.9073M80.6831 47.9218C89.4939 39.4936 97.1995 28.6323 104.918 22.2158M81.0593 54.3403C92.1245 40.5162 102.424 27.5552 113.344 21.6308M83.0022 52.6128C90.8243 42.6785 101.666 31.8608 111.374 19.8989M84.6377 57.2916C97.1809 40.6361 108.604 26.4731 117.49 19.5286M84.9334 57.4734C95.4051 44.6155 107.591 30.6747 117.664 18.2365M87.9959 60.8893C99.6632 46.5186 107.259 37.2643 127.152 14.9589M85.886 61.0017C96.5785 51.3921 105.082 41.6937 126.765 16.1711M88.9058 63.4247C105.13 49.6726 117.813 31.4188 133.321 14.5307M88.4282 65.2697C100.368 50.6111 112.978 36.1989 132.995 12.6373M90.8312 68.575C100.392 56.1356 112.522 44.6707 141.496 13.5147M91.3805 67.8838C109.482 48.4157 126.112 27.864 139.54 12.4687M94.3665 71.9298C103.32 59.4225 112.894 49.6373 146.88 14.9949M92.5286 73.187C107.008 56.71 120.828 41.8759 144.197 12.4016M94.8971 74.9327C113.536 56.2247 125.299 41.7021 151.325 14.4737M96.6874 75.0346C115.113 53.086 134.823 30.8721 151.067 12.7946M100.227 79.2563C113.025 59.9709 129.569 42.1715 155.583 12.4678M98.6645 80.5384C118.132 57.7412 137.209 35.6079 157.366 11.0312M104.677 77.337C118.582 63.727 127.784 48.5713 154.358 22.5497M105.657 76.3994C125.937 54.8324 144.248 33.6812 154.491 20.3997M112.762 72.3992C124.862 64.8371 131.433 54.7331 153.336 29.5594M113.968 74.2317C127.328 59.1264 140.658 43.876 152.987 30.15M124.727 66.4577C135.195 57.378 142.948 48.9432 150.212 38.4034M126.739 66.5829C134.88 56.0932 142.193 48.2807 148.184 39.5998M83.7992 53.0288C91.1127 43.8177 96.723 33.0946 103.058 23.1666M81.5712 53.2006C87.5211 47.443 91.6522 39.4514 103.828 22.4115M83.1214 55.3199C95.7039 41.2281 102.753 29.2961 112.488 19.4246M85.3784 55.6367C95.9853 41.5453 105.16 29.3034 110.869 18.9204M86.6689 61.4462C93.3352 53.5575 99.2401 40.0844 118.409 19.9407M87.5533 60.817C98.7112 43.8998 112.351 26.5844 117.802 18.9378M90.7422 62.9106C98.5217 50.0457 113.701 33.42 125.969 16.2445M89.9406 64.5547C102.288 45.7964 116.129 28.3958 126.229 15.0054M89.5715 66.3006C101.883 54.0722 110.81 40.5787 134.353 11.1709M91.9894 68.9423C101.334 56.5182 110.353 43.2411 134.177 12.3214M92.6253 71.6682C107.91 55.8889 118.901 37.1135 140.531 14.4877M92.5057 72.6644C104.785 57.3139 116.038 41.6395 139.814 13.0208M95.7224 75.5877C104.919 63.9569 116.351 45.7477 143.418 11.15M95.4294 75.5247C110.024 57.2064 124.544 38.5071 144.309 13.8675M98.6821 80.1157C111.662 63.0449 122.129 49.8579 151.366 11.4021M98.9645 79.27C113.212 61.1453 129.28 40.8408 151.825 11.7425M108.18 75.2106C119.831 58.2469 133.089 42.1725 156.017 12.6314M106.525 76.534C121.695 56.6159 138.012 37.8713 157.687 12.0605M115.047 73.3214C129.615 55.4341 141.015 38.609 154.722 21.0837M114.542 73.8902C122.018 62.3252 129.94 53.4913 154.153 20.3359M124.52 68.7886C135.138 57.4076 141.45 42.1857 152.026 31.9519M125.99 67.5826C131.94 59.2909 139.132 48.9081 151.368 29.8559M2.71106 29.6923V29.6923ZM78.1117 45.2496V45.2496Z" stroke="#19B21F" stroke-width="1.5" stroke-linecap="round"/>
<path d="M23.809 27.6181C16.9521 27.751 10.0958 29.3036 3.25996 27.8264M21.886 29.4013C18.0374 29.8525 13.6562 30.0428 2.45997 29.5373M2.99998 29.36C3.00311 64.8579 33.7141 97.1389 70.1408 95.8733M1.58478 29.4061C3.75394 64.2192 31.941 94.8525 68.1427 98.6507M68.5555 98.0968C69.2173 106.55 68.3356 113.502 69.5548 133.138M70.5289 96.9775C69.7125 106.253 70.7083 117.155 69.6822 134.202M69.9375 134.547C71.1526 141.584 74.1686 145.685 80.8063 144.112M70.05 134.599C72.1065 142.262 74.296 144.532 79.2174 143.997M79.231 144.379C85.119 142.933 89.6829 140.07 89.8055 132.819M79.2844 146.202C85.1785 146.001 90.2029 141.066 90.9209 134.567M88.397 132.932C87.8127 123.291 89.494 112.028 87.4594 98.1534M89.4265 135.559C88.101 126.944 89.365 118.775 89.231 96.8716M89.0625 96.5664C88.59 58.8127 59.6689 28.3582 23.7738 27.3738M89.929 97.8059C91.4557 57.5307 59.0187 29.709 21.0902 27.1712M136.875 10.5039C110.871 9.48707 89.9783 23.0263 77.6908 44.4371M136.875 10.5039V10.5039ZM138.254 8.70166C110.823 12.0632 89.7789 22.387 77.6428 46.722M78.3644 44.9588C84.9898 53.2834 94.235 63.0053 94.0753 78.5737M78.5178 45.4405C87.1854 56.2532 93.6513 66.8196 96.9848 76.7927M95.9953 77.0828C130.07 74.4612 157.083 44.5065 155.97 12.211M98.0302 77.8612C129.26 73.1572 154.061 43.6769 157.226 11.8941M155.898 10.697C148.568 12.1053 144.244 9.28839 138.439 9.31227M156.273 11.1816C149.158 11.2969 142.659 9.94808 136.927 10.5891M22.125 29.36V29.36Z" stroke="black" stroke-width="2" stroke-linecap="round"/>
<path d="M67.0605 144.127C71.4786 142.417 71.8111 137.17 79.413 131.632M67.8353 144.008C72.5143 140.714 75.9471 135.758 78.7588 131.524M70.6183 149.369C72.4393 144.378 74.9879 140.832 84.726 131.203M71.1937 148.416C73.8462 144.649 76.2788 141.182 86.4467 130.609M75.3387 150.707C80.9153 143.457 89.6965 135.581 93.975 127.83M73.3052 151.348C77.8393 146.002 82.1694 139.194 91.5641 129.75M76.8223 154.212C80.2399 148.666 84.3192 142.56 98.8928 128.032M76.4091 154.687C86.1853 144.551 94.7418 133.78 99.5316 127.718M82.4484 155.626C88.3825 145.935 91.6195 139.453 107.638 126.824M82.4027 154.05C89.2717 146.649 96.9321 138.785 106.979 125.608M85.4882 156.515C90.4709 151.584 97.9155 144.15 111.643 126.55M86.5372 155.397C93.6051 147.654 99.7116 140.177 109.964 127.756M90.569 157.891C101.645 147.11 108.753 136.063 117.295 126.565M91.4335 156.728C101.284 145.871 110.733 132.661 115.966 127.834M97.4251 158.216C101.55 150.299 111.817 139.564 122.257 130.96M95.4776 156.763C104.758 147.385 114.298 137.033 120.107 128.641M100.96 156.075C108.289 149.35 116.61 142.077 124.443 131.338M100.764 157.574C107.738 148.949 116.349 140.335 125.185 129.01M106.225 159.591C114.665 151.469 122.187 139.664 131.17 131.344M105.581 159.551C112.667 149.438 120.572 142.336 130.287 130.946M111.215 159.846C118.279 148.013 129.656 139.536 134.995 129.926M112.155 157.703C121.221 149.021 128.369 138.274 133.932 130.735M121.176 151.511C124.439 150.567 127.3 143.792 135.948 133.762M121.063 152.938C126.062 148.826 128.414 146.219 137.365 134.457M130.826 147.656C133.842 147.275 134.469 143.781 139.322 137.017M130.856 148.58C133.549 146.222 134.77 143.41 140.287 137.674M140.664 144.083C141.893 142.802 142.273 142.232 143.548 140.41M140.774 144.038C141.456 143.319 142.229 142.415 143.714 140.964M71.6094 146.394C72.0331 142.34 74.6368 139.268 77.2388 130.53M70.1617 148.92C73.0367 144.265 75.0208 139.461 78.5352 132.376M72.1346 152.75C76.0446 144.825 83.5715 137.603 86.123 132.613M72.8243 151.571C77.6931 143.499 81.7112 138.761 86.5326 130.833M76.7682 155.142C81.3437 147.341 86.507 139.666 93.2732 130.278M77.0426 153.585C81.4915 146.757 84.5594 142.598 92.0083 129.955M79.492 156.9C85.5851 146.564 93.6644 137.596 97.4482 129.864M81.4534 155.524C87.4138 145.956 92.5443 137.236 97.9654 127.807M83.9519 157.224C90.402 149.337 96.4895 142.313 106.253 125.933M86.7256 156.879C92.5991 143.86 101.041 134.032 105.558 127.072M90.2335 155.16C99.964 145.485 105.236 131.659 112.179 129.37M90.2531 156.597C98.4177 143.914 107.317 133.647 110.773 126.869M94.8592 156.104C102.268 151.603 108.974 139.559 117.745 128.014M95.6961 157.155C100.136 151.137 104.111 145.85 116.715 127.229M101.123 156.214C103.471 151.642 108.583 147.742 121.663 128.879M100.922 158.819C106.8 150.858 109.402 144.096 120.059 129.144M106.601 159.225C109.282 154.112 112.527 148.42 127.039 129.421M106.285 159.759C112.778 147.673 120.658 137.783 125.027 128.375M112.32 157.305C114.158 154.144 119.167 146.945 129.067 130.13M112.428 157.71C117.617 151.038 122.603 142.929 129.271 130.403M120.567 153.264C124.499 144.94 129.73 138.927 135.99 132.331M121.532 154.316C124.425 149.114 127.126 142.532 133.847 130.929M131.727 146.806C133.97 143.806 134.651 138.15 138.211 133.43M130.853 148.361C132.971 146.039 134.082 143.008 138.626 134.314M140.993 143.585C141.424 142.015 140.975 140.999 141.009 138.168M140.638 144.192C140.639 142.018 140.894 139.656 140.277 137.867M41.9492 174.516C46.3531 171.948 49.6326 167.135 51.9189 163.863M42.4306 174.231C44.9266 171.034 47.0696 168.527 51.239 164.794M42.0777 180.942C46.8767 178.016 50.2867 171.124 59.4866 161.272M42.1995 180.24C47.6087 175.55 52.6072 169.092 57.5981 161.93M46.5078 181.658C50.8704 176.912 57.3735 167.812 64.0254 158.978M46.9471 180.995C51.1518 176.425 55.8452 171.181 66.2628 158.815M51.417 184.032C58.2082 176.252 63.4134 169.05 71.4321 156.964M51.2899 182.246C58.8025 175.798 65.6515 168.22 73.6853 157.989M56.9608 183.377C65.0483 175.769 73.3497 165.61 76.869 157.275M56.9673 184.487C65.0161 174.72 73.9619 164.501 77.0787 159.529M60.7974 185.007C65.3169 178.162 71.481 171.629 83.1946 161.806M60.774 187.118C67.0401 178.065 72.8782 170.875 81.9496 159.389M65.3569 188.624C69.9822 179.099 77.3429 172.872 86.5172 158.534M64.839 187.534C72.0112 177.805 79.5476 168.901 86.9085 159.485M67.1571 188.94C74.5164 180.007 77.8576 174.904 91.7853 161.71M69.5477 187.903C76.7773 178.766 84.363 170.788 92.4103 161.581M73.3654 191.19C83.0361 177.402 91.8564 167.283 99.9155 160.94M73.6944 189.099C81.9252 180.479 90.3247 170.735 97.9774 160.852M78.0623 190.481C86.1898 180.019 95.7975 173.275 101.933 163.527M78.8787 190.398C82.4478 185.654 88.4819 178.91 102.828 162.597M82.9708 192.958C88.6376 184.489 99.2796 174.503 108.118 164.075M81.4844 193.532C85.9313 187.477 92.5627 180.791 105.771 165.24M90.3369 191.491C95.9764 181.174 100.805 176.82 107.741 165.581M90.8171 189.938C95.5219 184.411 99.9227 177.606 110.621 167.596M96.4582 186.516C104.217 180.88 105.121 176.876 112.56 170.466M97.7457 186.849C102.353 181.937 106.016 176.762 113.267 171.376M106.14 185.266C108.994 182.654 111.566 177.23 116.534 172.976M105.424 184.949C109.33 181.026 113.094 177.002 115.356 173.003M42.9816 181.299C45.3719 178.084 46.0342 172.994 51.8649 164.264M41.5976 180.286C45.1087 174.81 47.0707 170.037 50.1969 164.501M44.8599 182.654C49.9913 178.412 53.7099 172.247 60.057 161.978M45.8275 181.733C49.3901 178.172 52.5561 173.008 58.0438 162.089M53.2385 184.591C57.024 174.104 64.921 162.867 65.9393 157.836M51.8428 182.076C55.2679 178.649 57.1179 172.69 66.2812 160.468M56.0093 184.595C62.1316 175.821 68.0228 169.461 74.1291 159.829M55.3253 183.686C60.4018 176.579 65.6078 170.339 73.4042 159.026M60.7757 187.062C65.5126 180.359 66.2645 174.917 79.1861 158.75M59.228 185.325C63.376 180.45 67.8259 174.277 77.3845 158.102M64.0361 188.948C71.4195 177.62 78.8912 168.218 81.7395 158.447M63.4354 187.503C70.0826 178.887 77.3237 167.804 83.4275 160.306M70.7505 187.638C74.707 183.928 78.8057 175.654 89.6812 160.324M68.9123 189.185C74.2793 180.096 78.1312 172.697 87.8211 160.224M72.6541 190.087C78.0729 182.174 82.712 172.096 91.6156 159.268M73.5282 189.009C78.0932 183.448 82.746 177.236 92.6172 160.062M77.164 192.524C86.5621 179.647 91.5238 169.088 98.7018 159.673M77.1128 191.47C84.5519 180.905 92.6822 170.214 98.3407 160.26M82.3962 194.082C89.0367 183.278 96.6738 173.152 102.982 162.613M81.4003 193.172C87.8484 183 95.3785 171.543 103.78 162.005M89.246 188.36C96.3526 181.861 103.884 169.573 107.506 166.209M88.798 189.661C94.4623 180.679 99.8943 173.123 106.313 163.307M97.7019 188.308C100.791 180.945 104.657 176.814 108.29 166.477M97.4165 186.199C102.023 181.214 105.003 173.818 110.201 166.868M106.538 183.645C106.744 180.548 108.642 175.034 111.903 171.762M106.325 183.749C107.828 180.558 108.869 176.972 111.903 169.903M121.356 166.886C123.061 164.483 124.274 163.19 127.071 160.554M122.111 166.619C124.449 164.065 126.156 161.525 127.804 160.232M124.828 168.437C126.084 165.595 128.525 165.101 134.749 155.824M125.283 169.652C129.841 164.477 132.539 159.527 135.528 156.165M126.796 170.979C133.442 166.193 138.856 157.863 142.882 152.701M128.29 171.191C131.874 166.97 134.642 163.114 145.185 152.973M125.327 169.564C125.98 166.808 127.713 161.762 127.175 160.636M124.989 169.329C125.648 166.286 126.995 163.994 127.641 159.872M128.986 171.624C128.831 167.385 132.017 165.39 136.658 156.457M127.573 172.77C131.107 166.638 133.613 160.548 136.286 156.021M40.0499 191.545C41.0022 191.111 41.4219 190.404 43.4021 188.139M40.4359 191.486C41.3819 190.48 42.413 189.07 42.9779 188.257M41.8426 195.693C44.0557 192.862 46.7886 191.293 47.1736 188.913M42.4105 195.798C43.7393 194.268 45.8992 192.208 47.2276 189.292M42.5108 201.491C47.4439 197.452 48.6143 193.598 51.7583 190.913M43.0607 201.402C45.9503 197.637 48.1172 194.979 52.0363 190.115M47.4517 202.269C48.3624 200.177 52.2537 197.378 54.7113 193.633M46.6158 203.308C49.4881 200.494 51.6848 197.939 55.939 192.424M51.0625 204.082C53.1462 201.047 56.0493 197.554 60.3426 194.462M50.6007 204.825C54.1705 201.97 56.9597 197.239 60.8501 193.775M55.482 208.042C56.5743 202.697 60.1776 200.596 65.4696 195.323M55.3813 206.305C58.1964 203.256 61.5769 199.819 65.1876 194.319M60.4564 208.895C61.9172 204.316 67.1804 198.612 67.8383 197.964M59.0058 208.419C62.5656 202.936 67.0188 200.012 69.5602 197.205M63.2227 209.386C65.5867 205.871 70.683 202.709 73.6771 200.209M64.1008 209.815C67.1513 205.135 70.9231 201.309 72.9775 199.316M68.4187 211.673C70.5293 209.475 71.1779 204.185 78.46 199.163M67.3092 210.611C72.2072 206.778 75.2647 202.106 79.3846 197.618M72.8516 213.243C77.5153 207.677 80.9773 201.866 84.2434 194.509M71.8511 212.361C76.0603 206.383 79.9303 202.093 86.9045 196.888M79.3907 210.422C79.7356 208.731 86.5351 205.321 94.2676 192.96M78.8872 212.73C82.2553 206.928 88.4086 199.499 93.8445 193.448M83.0623 210.374C92.2822 206.348 96.2953 196.3 99.9884 191.894M84.1557 210.83C89.4514 204.951 97.2967 197.885 100.629 193.738M89.0191 213.087C96.9165 203.203 101.174 194.809 108.064 193.483M89.1312 210.26C96.3503 204.908 103.495 196.99 107.554 191.761M94.9109 211.225C100.538 204.49 105.671 199.945 113.433 190.416M96.2311 209.855C99.8734 204.666 106.31 198.941 113.257 191.008M104.779 208.022C106.22 203.427 110.695 198.311 118.617 189.026M103.904 207.056C109.696 201.983 115.955 193.602 121.461 189.565M41.5154 196.416C42.9582 194.683 42.0238 192.169 42.6357 188.024M42.3672 196.08C42.6222 193.639 42.6373 191.409 43.199 188.616M42.3779 201.306C44.4571 198.043 46.3393 195.783 48.0599 190.615M42.7502 200.639C44.2272 196.746 46.3801 193.918 47.5998 189.22M46.884 203.493C46.5669 200.268 49.73 196.188 51.1534 190.994M46.4242 204.163C48.5713 199.715 49.4996 196.32 51.9402 190.795M51.1638 204.251C53.0554 203.158 53.9065 200.596 55.4379 192.049M51.0608 205.002C53.2947 201.268 54.6136 196.963 55.4926 192.048M55.0681 206.899C55.6008 202.136 58.5493 198.599 60.7387 193.705M54.5779 206.792C56.8193 203.028 58.8747 198.35 61.1096 194.336M60.059 207.941C59.8992 204.242 62.2981 199.122 65.3773 195.326M59.7989 207.919C60.944 204.814 61.4571 202.726 64.5493 194.494M63.4298 208.569C64.8232 205.023 68.0903 202.892 69.6571 198.05M63.9175 209.248C66.2042 205.42 67.1226 201.54 68.6697 197.458M68.1126 212.027C69.0969 207.248 70.3704 202.021 72.743 199.193M68.1985 210.519C68.4773 207.906 69.7178 204.736 73.4624 199.457M73.3379 210.983C75.202 209.137 75.2438 202.658 80.4236 197.757M72.6592 212.087C75.1167 207.846 75.5784 203.579 79.3333 197.32M79.6085 210.31C79.5981 205.833 83.5014 200.439 85.0136 197.467M77.8065 211.223C79.9721 208.35 81.5841 203.491 86.6071 196.545M83.8345 210.717C87.6627 207.929 88.0247 203.772 93.9287 195.199M84.222 211.636C86.4393 206.559 88.8409 200.746 93.2944 194.475M91.181 209.142C94.4992 204.575 95.2852 201.887 99.7496 195.246M89.2332 211.778C94.3982 204.527 98.3941 198.223 99.9715 192.916M96.0324 210.455C98.9093 205.072 99.3683 201.636 107.042 191.022M95.7685 209.846C100.736 203.769 104.425 197.074 107.455 191.511M102.514 207.24C107.948 200.841 113.635 194.41 112.455 190.011M104.201 207.375C107.18 204.842 107.53 200.179 113.893 190.762M124.132 187.751C128.43 184.5 131.078 182.193 132.959 178.866M124.156 188.572C127.264 184.65 129.974 182.111 133.539 178.298M125.956 193.994C127.101 188.959 131.659 182.754 140.191 174.83M123.643 194.012C130.523 187.578 135.979 183.084 142.953 174.937M126.939 196.044C130.113 190.566 137.032 186.206 147.811 174.9M128.139 197.644C134.241 191.675 139.881 184.702 147.745 174.487M123.568 195.55C124.178 190.602 128.136 186.559 134.632 177.775M124.151 194.962C127.259 189.569 131.277 182.714 133.826 177.029M125.863 198.93C132.868 190.145 135.203 185.843 143.121 176.208M127.933 197.163C131.428 192.434 134.014 184.778 142.055 175.278M40.9721 210.37C41.9496 209.306 42.2696 208.846 43.4017 207.765M41.1114 210.332C41.7269 209.334 42.5814 208.511 43.2404 207.791M42.6061 214.393C43.951 213.939 44.6089 211.845 48.347 209.419M43.2336 214.838C44.1793 213.086 46.297 211.207 47.6474 209.222M43.4519 220.256C46.8827 217.943 49.0193 213.364 51.5567 210.467M44.4995 219.194C46.5937 216.934 48.8906 213.816 51.9806 210.325M45.3493 223.816C50.2197 219.7 53.5959 215.378 55.6042 211.839M47.0636 223.734C50.6461 218.428 55.0231 214.212 56.4164 211.701M50.4205 223.065C55.2535 222.83 55.8413 219.064 60.9056 214.044M50.2854 224.943C54.877 219.831 59.1116 215.744 61.2056 212.281M56.6691 225.522C58.0113 220.253 63.781 216.226 67.28 214.002M55.7361 225.018C58.9734 222.533 61.7165 218.081 65.1527 213.964M58.6566 225.474C63.8667 224.093 63.2265 222.561 68.9588 214.695M60.3132 226.532C63.0883 222.62 67.4127 217.669 70.1759 214.851M65.9689 226.204C69.0404 223.054 70.5563 220.063 75.4005 215.567M65.7485 227.78C69.1926 224.209 71.612 220.365 74.7129 216.577M69.4053 229.7C73.1662 224.438 77.676 220.235 78.1991 216.065M70.5592 228.109C71.7655 225.148 73.9332 223.852 79.5271 216.731M74.413 229.967C78.192 223.018 84.2076 217.433 87.8589 217.739M73.8692 230.32C78.4883 226.054 81.6828 221.449 86.6765 215.45M78.569 229.922C83.2007 225.711 85.7356 218.964 93.1042 215.773M78.2229 230.986C84.1465 224.953 90.7423 217.448 93.1876 213.498M84.5509 227.129C90.6032 223.118 96.3882 219.839 99.3406 211.729M87.3558 228.046C89.7221 225.249 92.2804 221.749 101.412 211.05M94.3501 227.4C96.4111 221.725 102.599 219.985 108.716 211.317M92.3793 226.93C96.7603 222.6 101.395 217.64 108.725 209.773M99.8071 228.26C104.885 217.973 109.942 213.143 114.198 209.225M99.0353 225.281C104.072 221.555 106.145 217.116 114.984 208.679M107.104 224.241C110.416 221.47 111.93 215.68 122.638 206.686M106.004 223.416C110.771 219.567 114.74 215.134 121.14 209.301M42.2677 214.06C42.6284 212.263 42.6576 210.747 42.6652 208.179M42.7825 214.526C42.9566 212.816 43.1378 211.134 43.1981 208.055M44.7941 218.609C46.1303 215.598 47.4245 212.176 47.6187 210.098M44.0353 220.224C45.4309 215.473 46.9776 211.383 47.6355 209.259M45.2323 224.53C47.7957 218.942 48.6405 217.062 53.6025 209.607M45.927 223.16C48.2285 219.847 49.297 215.659 51.9381 210.374M49.878 225.259C54.0015 220.624 55.5714 214.649 55.7237 212.779M50.4098 224.183C52.038 221.515 54.3735 219.125 57.0753 211.01M55.5269 226.822C58.289 220.545 59.7418 216.082 61.6326 213.594M56.1271 225.284C57.7874 221.283 58.6325 218.179 62.0193 212.136M59.5143 226.975C60.3886 223.869 61.7641 220.53 66.5636 213.509M60.2965 227.329C61.3016 223.506 62.9011 220.06 65.8858 213.116M65.7906 227.769C66.848 223.131 69.7407 216.778 69.4203 214.483M65.9682 226.583C66.621 224.182 67.8985 221.465 69.8114 214.492M69.0914 229.237C70.9386 224.028 74.0419 218.093 75.3365 214.983M69.2766 227.968C71.5654 223.217 74.2719 218.702 75.5918 216.414M73.4125 230.595C74.7098 227.044 76.2562 221.842 79.0181 216.622M74.209 229.992C76.2486 225.74 77.3504 222.518 79.9972 217.097M78.1446 230.376C83.2087 225.617 85.2258 219.134 85.0727 214.992M79.3096 230.639C82.1289 225.634 83.5457 221.029 85.6538 216.11M87.1838 229.859C89.0793 225.044 91.3645 220.545 93.9695 215.023M86.7516 228.057C88.9474 224.327 91.3505 219.861 93.4564 213.429M93.8513 228.914C93.9569 221.702 99.1756 217.694 101.28 211.266M92.9745 227.47C95.2329 222.315 98.2647 216.441 99.956 212.834M99.191 227.924C102.287 221.18 105.441 215.904 106.698 208.64M100.194 225.823C102.407 221.054 104.205 217.556 108.016 210.514M107.839 222.864C110.688 219.575 111.95 213.531 115.558 208.555M107.032 223.802C109.254 218.316 112.167 213.838 115.824 207.383M65.5192 141.038V141.038ZM43.5212 166.436V166.436ZM119.569 162.98V162.98ZM39.2134 186.343V186.343ZM124.098 182.221V182.221ZM39.3173 205.911V205.911Z" stroke="#E9EC6C" stroke-width="1.5" stroke-linecap="round"/>
<path d="M144 141.348C145.81 145.727 139.562 149.269 135.054 152.454M144 141.348V141.348ZM145.076 139.57C145.733 146.597 140.481 149.397 135.063 150.477M136.125 151.191C128.203 154.668 120.761 154.823 110.671 156.309M134.278 152.344C128.301 152.941 121.589 154.509 109.098 158.324M111.044 157.528C109.864 155.952 108.182 155.766 107.621 155.704M111.614 156.543C112.299 156.841 108.732 155.355 107.983 156.777M108.747 156.503C99.1045 151.807 90.4903 150.719 79.4322 149.738M108.419 158.088C98.4825 151.673 91.7402 152.911 79.5209 151.218M78.375 151.191C75.5261 150.306 73.7966 149.71 71.4631 152.85M78.3138 152.508C78.0941 151.122 75.647 151.232 71.1384 152.041M73.3704 151.289C73.2657 151.271 73.1953 151.251 73.1033 151.202M73.3587 151.325C73.2669 151.281 73.1867 151.23 73.1279 151.182M73.125 151.191C69.8403 150.389 66.9755 144.362 65.4085 140.374M73.8925 151.4C69.414 148.112 67.1624 144.411 63.008 142.266M65.25 141.348C63.801 131.833 82.3328 124.766 106.285 123M66.9013 141.02C65.9486 130.18 83.2132 127.261 102.893 123.522M104.625 124.941C127.436 124.064 145.114 130.269 142.408 139.615M105.27 125.341C125.457 126.448 143.738 129.986 142.199 141.504M71.956 157.98C74.9453 155.969 74.3389 155.751 76.995 159.193M71.956 157.98V157.98ZM73.6308 156.417C75.501 159.054 77.3641 156.985 79.832 155.56M78.375 157.754C92.3976 158.739 101.099 162.138 110.737 165.114M76.5825 156.912C89.9816 156.527 104.139 161.071 111.765 164.554M109.649 164.193C114.162 168.45 119.531 168.614 119.62 175.083M107.961 165.532C114.207 165.477 118.088 168.865 119.625 174.52M117.75 174.16C119.175 175.653 119.202 175.528 115.57 176.242M119.602 174.691C116.529 173.952 119.408 178.145 115.151 175.006M117.319 176.56C117.437 179.912 111.919 180.334 109.627 183.503M118.956 177.829C116.667 177.106 112.305 183.485 109.041 183.36M110.142 183.86C109.428 184.869 112.002 183.751 111.711 181.945M111.774 185.063C107.989 185.363 111.356 184.957 111.079 185.483M110.06 183.901C111.375 182.643 109.354 184.368 111.783 185.615M108.108 185.912C107.736 182.786 108.034 185.106 108.031 184.586M109.875 184.004C101.718 188.89 90.5931 192.066 77.5329 189.677M109.077 185.341C101.209 189.605 93.645 191.314 80.3796 188.16M78.375 190.566C65.5506 190.694 53.3011 189.415 46.2764 185.144M76.9098 192.248C64.6862 191.763 57.264 188.454 47.0375 183.119M47.9906 184.599C49.2318 183.899 45.5804 184.06 47.8457 182.208M49.7419 183.569C47.5785 184.235 49.1439 185.559 48.0346 184.195M46.8729 184.004C41.0337 182.136 40.5315 176.294 39.5822 174.164M46.3822 185.553C42.4687 180.157 41.3819 179.405 39.4032 174.52M39 174.16C40.6382 167.882 51.5954 160.069 64.3905 156.982M40.4143 174.243C37.2663 167.44 50.9378 159.825 64.9592 157.456M65.25 158.697C68.4303 156.336 71.6731 158.993 71.1181 156.657M63.3912 159.84C68.8702 156.196 67.4138 157.999 71.7621 158.609M119.37 163.209C125.388 163.072 128.663 159.241 133.376 159.759M119.37 163.209V163.209ZM118.271 162.158C123.941 163.562 131.079 162.386 134.77 157.774M134.997 159.005C137.179 157.327 139.653 156.788 144.392 151.881M135.331 160.066C137.021 158.45 142.69 154.136 143.73 152.497M144.174 153.797C144.125 155.866 143.83 157.407 144.031 161.343M144.096 153.764C144.227 156.358 143.879 158.416 144.126 161.11M144 161.035C143.405 163.074 140.116 169.203 136.482 172.294M141.95 163.077C144.664 162.66 139.012 170.06 133.854 170.41M135.018 171.474C131.918 172.273 127.945 173.513 123.739 173.19M135.002 169.928C132.228 173.207 126.37 172.672 123.751 176.051M124.271 175.247C125.974 175.609 125.438 172.816 122.657 172.106M124.096 173.153C124.604 176.281 125.844 173.081 124.53 174.473M124.312 174.16C124.925 171.522 120.421 164.354 118.298 161.3M125.161 172.633C122.549 171.414 120.478 166.47 119.251 162.672M117.75 193.848C116.043 195.884 114.958 199.323 110.218 203.884M117.75 193.848V193.848ZM118.167 193.007C120.099 199.074 115.08 201.662 109.148 203.028M109.875 203.691C109.759 203.718 108.631 205.394 110.631 205.995M110.082 204.426C107.327 202.177 111.037 205.417 107.186 205.359M108.768 204.286C101.217 207.828 91.7857 210.328 76.8388 209.371M110.528 205.989C103.332 210.177 92.6189 208.142 78.1564 209.621M78.375 210.254C66.2425 211.966 54.8414 207.408 46.1962 202.496M77.5513 210.779C64.5829 207.855 55.2103 208.334 44.6813 201.507M46.8729 203.691C40.3243 199.656 37.7118 196.617 37.2952 194.296M48.8502 204.822C40.4292 201.157 38.5418 199.515 41.2046 192.288M38.4158 193.445C38.9756 192.265 39.4838 189.858 39.3547 186.62M38.6952 194.125C38.9445 191.475 38.9862 188.958 39.1032 186.636M39 186.588C42.0579 189.896 45.8528 191.08 47.8915 190.016M39.7988 187.769C40.0094 188.175 43.4598 188.494 46.2575 190.133M48.0091 191.817C54.5623 195.378 68.6874 198.722 80.1053 197.829M46.0237 193.67C54.3966 194.765 67.0388 199.212 77.2531 195.334M78.375 197.129C91.3405 197.342 99.1477 195.564 106.938 190.602M77.5661 198.636C91.4075 196.846 102.518 196.418 110.024 189.756M108.747 191.817C108.378 189.872 112.26 192.432 114.045 190.016M109.335 189.965C111.901 190.565 112.386 190.275 114.061 190.323M113.341 189.582C113.563 187.055 115.836 189.406 118.576 187.474M111.721 188.31C112.241 190.681 117.28 188.632 115.273 186.801M116.868 187.285C116.172 187.455 118.459 188.183 116.946 185.37M117.109 187.836C119.034 187.645 117.246 185.007 118.488 185.674M118.086 186.082C117.325 188.758 118.041 189.46 117.035 193.564M117.501 186.61C118.068 188.662 117.891 190.188 118.064 193.816M124.312 181.974C127.697 182.63 133.828 179.781 134.095 178.82M124.312 181.974V181.974ZM122.481 182.952C130.11 183.171 132.311 178.759 134.43 180.494M134.997 178.692C139.175 175.342 142.618 175.468 142.625 173.176M135.88 177.246C138.526 176.276 141.675 177.013 144.044 172.296M143.509 173.478C144.571 175.799 144.651 177.919 143.927 181.189M143.971 173.718C144.015 175.255 143.722 177.191 144.146 180.728M144 180.723C142.414 183.839 141.345 186.184 141.537 187.769M145.113 179.653C145.84 184.15 143.741 184.641 141.457 184.773M140.944 187.06C138.489 190.539 133.052 193.332 125.463 194.504M139.662 187.63C137.978 190.45 131.295 191.964 124.871 195.247M124.271 194.935C125.968 192.56 122.616 194.698 122.499 194.61M125.853 195.578C122.623 194.741 122.419 196.405 123.746 195.935M124.787 193.754C124.977 191.93 124.206 189.282 123.938 181.921M124.401 193.528C124.235 189.843 124.42 185.836 123.999 181.93M78.375 216.816C89.1918 217.473 102.015 213.496 107.502 211.546M78.375 216.816V216.816ZM76.7354 214.889C90.8485 217.694 101.924 213.654 108.103 210.446M108.747 211.505C111.995 208.413 116.484 210.108 118.855 204.694M110.163 211.39C110.507 211.266 115.88 209.635 119.483 206.851M118.449 205.798C117.325 208.188 118.078 210.695 117.638 213.687M117.665 206.583C118.073 208.195 118.087 210.517 117.719 213.456M117.75 213.535C116.532 222.296 101.249 228.312 79.6084 229.11M117.979 212.149C117.298 222.017 101.273 229.972 77.5162 229.392M78.375 229.941C55.4588 231.703 38.2925 223.025 40.1934 212.357M78.1785 231.844C57.597 227.846 39.4149 220.307 40.7371 212.963M38.998 213.149C38.5501 212.21 39.333 210.104 39.6053 206.638M39.2997 213.684C38.9543 211.445 38.7725 208.373 39.3183 206.29M39 206.275C39.5176 206.821 45.2447 210.275 46.6236 212.024M38.3209 206.356C40.5101 208.619 46.8187 209.289 47.5342 210.355M48.0091 211.505C57.0623 216.897 66.0635 215.191 78.0387 215.014M47.0062 209.991C57.3591 216.272 67.1362 217.914 76.7225 219.052" stroke="black" stroke-width="2" stroke-linecap="round"/>
</svg>
