<svg width="1087" height="1087" viewBox="0 0 1087 1087" fill="none" xmlns="http://www.w3.org/2000/svg">
<g opacity="0.15">
<line x1="767.809" y1="541.5" x2="1085" y2="541.5" stroke="black" stroke-width="4" stroke-linecap="round" stroke-dasharray="30 15 15 15 7 15 3 15"/>
<line x1="330.412" y1="545.5" x2="2" y2="545.5" stroke="black" stroke-width="4" stroke-linecap="round" stroke-dasharray="30 15 15 15 7 15 3 15"/>
<line x1="487.377" y1="760.684" x2="405.282" y2="1067.07" stroke="black" stroke-width="4" stroke-linecap="round" stroke-dasharray="30 15 15 15 7 15 3 15"/>
<line x1="596.72" y1="337.155" x2="681.719" y2="19.9342" stroke="black" stroke-width="4" stroke-linecap="round" stroke-dasharray="30 15 15 15 7 15 3 15"/>
<line x1="545.5" y1="767.809" x2="545.5" y2="1085" stroke="black" stroke-width="4" stroke-linecap="round" stroke-dasharray="30 15 15 15 7 15 3 15"/>
<line x1="541.5" y1="330.412" x2="541.5" y2="2" stroke="black" stroke-width="4" stroke-linecap="round" stroke-dasharray="30 15 15 15 7 15 3 15"/>
<line x1="760.683" y1="599.624" x2="1067.07" y2="681.719" stroke="black" stroke-width="4" stroke-linecap="round" stroke-dasharray="30 15 15 15 7 15 3 15"/>
<line x1="337.155" y1="490.281" x2="19.9336" y2="405.282" stroke="black" stroke-width="4" stroke-linecap="round" stroke-dasharray="30 15 15 15 7 15 3 15"/>
<line x1="433.078" y1="738.757" x2="274.482" y2="1013.45" stroke="black" stroke-width="4" stroke-linecap="round" stroke-dasharray="30 15 15 15 7 15 3 15"/>
<line x1="648.312" y1="357.96" x2="812.518" y2="73.547" stroke="black" stroke-width="4" stroke-linecap="round" stroke-dasharray="30 15 15 15 7 15 3 15"/>
<line x1="738.757" y1="653.923" x2="1013.45" y2="812.518" stroke="black" stroke-width="4" stroke-linecap="round" stroke-dasharray="30 15 15 15 7 15 3 15"/>
<line x1="357.96" y1="438.689" x2="73.5472" y2="274.483" stroke="black" stroke-width="4" stroke-linecap="round" stroke-dasharray="30 15 15 15 7 15 3 15"/>
<line x1="386.304" y1="703.525" x2="162.016" y2="927.813" stroke="black" stroke-width="4" stroke-linecap="round" stroke-dasharray="30 15 15 15 7 15 3 15"/>
<line x1="692.762" y1="391.41" x2="924.984" y2="159.188" stroke="black" stroke-width="4" stroke-linecap="round" stroke-dasharray="30 15 15 15 7 15 3 15"/>
<line x1="703.524" y1="700.696" x2="927.812" y2="924.984" stroke="black" stroke-width="4" stroke-linecap="round" stroke-dasharray="30 15 15 15 7 15 3 15"/>
<line x1="391.41" y1="394.239" x2="159.187" y2="162.017" stroke="black" stroke-width="4" stroke-linecap="round" stroke-dasharray="30 15 15 15 7 15 3 15"/>
<line x1="350.243" y1="657.387" x2="75.5473" y2="815.982" stroke="black" stroke-width="4" stroke-linecap="round" stroke-dasharray="30 15 15 15 7 15 3 15"/>
<line x1="727.04" y1="435.224" x2="1011.45" y2="271.018" stroke="black" stroke-width="4" stroke-linecap="round" stroke-dasharray="30 15 15 15 7 15 3 15"/>
<line x1="657.387" y1="736.757" x2="815.982" y2="1011.45" stroke="black" stroke-width="4" stroke-linecap="round" stroke-dasharray="30 15 15 15 7 15 3 15"/>
<line x1="435.224" y1="359.96" x2="271.018" y2="75.5471" stroke="black" stroke-width="4" stroke-linecap="round" stroke-dasharray="30 15 15 15 7 15 3 15"/>
<line x1="603.487" y1="759.649" x2="685.583" y2="1066.03" stroke="black" stroke-width="4" stroke-linecap="round" stroke-dasharray="30 15 15 15 7 15 3 15"/>
<line x1="486.417" y1="338.19" x2="401.418" y2="20.9685" stroke="black" stroke-width="4" stroke-linecap="round" stroke-dasharray="30 15 15 15 7 15 3 15"/>
<line x1="327.352" y1="603.487" x2="20.9689" y2="685.582" stroke="black" stroke-width="4" stroke-linecap="round" stroke-dasharray="30 15 15 15 7 15 3 15"/>
<line x1="748.81" y1="486.418" x2="1066.03" y2="401.418" stroke="black" stroke-width="4" stroke-linecap="round" stroke-dasharray="30 15 15 15 7 15 3 15"/>
</g>
</svg>
