<svg width="17" height="18" viewBox="0 0 17 18" fill="none" xmlns="http://www.w3.org/2000/svg">
<path d="M2.11911 4.95209C3.2896 4.95209 4.23847 4.00322 4.23847 2.83274C4.23847 1.66225 3.2896 0.713379 2.11911 0.713379C0.948624 0.713379 -0.000244141 1.66225 -0.000244141 2.83274C-0.000244141 4.00322 0.948624 4.95209 2.11911 4.95209Z" fill="#0077B5"/>
<path d="M3.88524 6.36768H0.352982C0.158001 6.36768 -0.000244141 6.52592 -0.000244141 6.7209V17.3177C-0.000244141 17.5127 0.158001 17.6709 0.352982 17.6709H3.88524C4.08022 17.6709 4.23847 17.5127 4.23847 17.3177V6.7209C4.23847 6.52592 4.08022 6.36768 3.88524 6.36768Z" fill="#0077B5"/>
<path d="M14.4112 5.7803C12.9015 5.26317 11.0132 5.71742 9.88073 6.53196C9.84188 6.38007 9.70341 6.26704 9.53881 6.26704H6.00655C5.81157 6.26704 5.65332 6.42529 5.65332 6.62027V17.217C5.65332 17.412 5.81157 17.5703 6.00655 17.5703H9.53881C9.73379 17.5703 9.89203 17.412 9.89203 17.217V9.60149C10.4628 9.1098 11.1983 8.95297 11.8002 9.20871C12.3837 9.45526 12.7178 10.0572 12.7178 10.859V17.217C12.7178 17.412 12.8761 17.5703 13.0711 17.5703H16.6033C16.7983 17.5703 16.9566 17.412 16.9566 17.217V10.1476C16.9163 7.24477 15.5507 6.17026 14.4112 5.7803Z" fill="#0077B5"/>
</svg>
