<svg width="203" height="328" viewBox="0 0 203 328" fill="none" xmlns="http://www.w3.org/2000/svg">
<g filter="url(#filter0_d_319_1429)">
<mask id="mask0_319_1429" style="mask-type:alpha" maskUnits="userSpaceOnUse" x="21" y="15" width="117" height="159">
<path d="M27.2005 156.84L27.4147 156.389C29.4492 157.353 31.841 157.144 33.685 155.853L58.1135 138.748L58.7347 138.313L58.8898 139.055C59.7178 143.019 60.6626 146.322 61.407 148.856C62.5121 151.778 65.0644 154.001 68.0378 154.355L68.0552 154.357L68.0725 154.361L80.3412 156.706C80.3424 156.706 80.3436 156.706 80.3447 156.707C83.4221 157.248 86.5493 156.06 88.4364 153.572C90.0964 151.379 92.2717 148.446 94.7503 145.06L95.1627 144.496L95.5633 145.068L112.895 169.82C114.182 171.659 116.364 172.681 118.611 172.478C120.843 172.253 122.795 170.853 123.718 168.805L123.718 168.804L135.681 142.398L27.2005 156.84ZM27.2005 156.84L27.4146 156.389C25.3784 155.424 24.0188 153.445 23.8515 151.205L23.8515 151.204L21.6591 122.286L21.6591 122.286C21.1234 115.299 24.1765 108.366 29.9032 104.357L48.8826 91.0671L49.0835 90.9264L49.0952 90.6815C49.1416 89.7156 49.1151 88.6467 49.0893 87.6003C49.085 87.427 49.0807 87.2543 49.0768 87.0828C48.4667 46.2393 75.7711 25.7151 94.6584 17.0847L94.659 17.0844C97.5178 15.7732 100.83 16.3612 103.047 18.5597L103.048 18.5608C117.847 33.1431 136.502 61.7572 121.951 99.9344L121.95 99.9369C121.544 101.019 120.863 102.305 120.391 103.15L120.239 103.424L120.418 103.681L133.853 122.868C137.875 128.611 138.563 136.016 135.681 142.397L27.2005 156.84ZM97.8339 70.555C103.157 66.8278 104.607 59.6987 100.725 54.1559C97.1438 49.0408 89.6613 47.5288 84.3265 51.2643C78.9916 54.9999 77.8532 62.5482 81.4349 67.6634C85.316 73.2061 92.511 74.2821 97.8339 70.555Z" fill="black" stroke="black"/>
</mask>
<g mask="url(#mask0_319_1429)">
<path d="M79.6553 28.1911C88.035 24.1345 94.4579 23.4166 99.1962 19.729M79.7605 27.9037C87.8756 25.4415 94.529 22.5163 101.082 19.4028M63.7737 41.0789C80.225 34.458 92.4772 28.8946 102.614 22.5015M64.9397 41.1348C74.9189 35.0778 86.8649 31.1602 102.958 22.9325M62.6856 47.0559C76.3006 40.1212 92.1871 33.0505 103.974 26.8072M63.2796 44.8978C74.0194 39.6834 85.1407 36.4037 105.606 26.1737M61.5355 52.0219C69.6019 47.3345 79.2273 42.129 109.851 30.4578M60.7287 49.7411C76.7925 43.389 90.1415 37.0607 108.306 30.0651M61.7867 54.0004C72.5219 51.1945 82.4804 46.2383 112.555 33.7128M60.3764 54.5999C71.3702 49.9282 83.9351 44.9905 110.367 32.4901M57.3129 59.5029C74.4099 53.4901 86.7242 47.2573 114.279 34.6599M58.7029 60.2718C71.9916 54.5533 83.8994 49.0885 113.479 35.1631M57.2184 65.3572C77.2391 56.4823 92.1566 49.4567 116.298 38.5074M56.6638 65.2202C73.0054 58.0841 88.1538 50.8937 116.955 39.1034M54.6585 72.673C71.3922 64.6052 82.5417 56.9193 116.649 41.9624M55.6085 71.6495C69.9158 63.7179 84.1231 57.8313 118.774 43.2422M54.1812 75.9661C71.4446 68.0793 83.7083 62.7707 121.029 43.8717M54.1237 75.382C72.0416 66.177 90.3483 59.5784 120.376 46.2789M52.7612 80.3961C71.1082 72.2961 93.1784 61.9373 123.614 47.3783M52.4271 81.3921C74.1386 70.9224 99.1726 60.5013 123.014 50.1123M52.3045 86.5028C69.8968 77.1801 95.0835 66.9077 124.354 51.5845M51.2876 87.1005C76.1416 75.4146 101.64 62.5649 125.515 52.8429M50.1318 92.6184C73.2957 78.1467 99.102 66.202 124.326 59.1412M48.1898 91.3063C64.9834 83.8017 79.344 77.0763 124.697 57.4664M41.7881 99.2832C58.704 90.8344 76.6311 83.4914 125.116 63.3691M39.6827 99.0729C60.7624 89.9724 78.7246 81.4334 123.75 61.1199M31.7098 109.285C69.6702 91.86 105.935 76.0514 123.91 65.3016M32.0804 107.93C55.4639 96.3072 81.6474 85.4508 124.804 66.1336M22.3753 114.078C45.6958 106.228 66.7711 95.605 122.434 71.1711M22.815 115.455C56.4942 101.153 87.1977 86.2169 124.059 69.7166M20.9085 120.869C63.9773 101.444 102.683 84.3413 121.811 76.2336M23.3698 120.232C57.0267 105.791 90.8507 89.164 124.272 74.8948M22.4487 126.021C51.4672 113.675 76.0957 100.533 122.014 80.233M24.0202 124.039C54.7718 110.161 86.4478 96.0957 122.644 79.8134M25.4523 127.888C63.3793 109.744 101.903 94.907 123.979 82.8931M24.7942 128.389C57.0318 113.974 88.807 100.388 123.859 84.4569M25.0369 133.729C64.3371 114.798 101.081 100.527 121.587 88.8731M24.019 132.458C47.5305 122.448 71.4294 111.449 123.549 88.1667M25.7957 138.399C54.4501 124.651 84.2466 109.983 122.312 90.7627M24.8524 136.497C57.5647 121.636 88.7414 106.866 124.253 92.4494M27.2609 142.337C55.7865 128.376 85.7287 112.878 124.458 97.1064M25.3304 140.861C45.4162 132.499 65.5581 122.086 121.96 98.6969M25.4947 144.529C54.1777 132.773 83.4355 120.294 122.093 100.699M26.8979 144.803C58.2931 130.936 91.0299 116.077 122.466 102.567M25.9438 150.436C58.426 132.742 94.3999 120.638 121.688 106.718M26.5567 149.51C58.3145 134.578 88.9474 121.334 122.163 105.907M26.6581 152.032C34.9738 149.428 46.0064 144.185 58.472 141.423M27.001 154.216C39.1064 148.382 52.6263 142.177 58.7361 140.254M58.808 139.493C80.5343 127.818 100.781 120.83 122.505 110.152M58.8778 139.538C83.2576 128.877 106.908 118.032 125.107 109.664M60.4243 144.414C83.7687 132.524 106.999 123.037 124.837 115.149M60.7372 143.437C74.015 137.993 87.3925 131.701 125.128 112.747M62.5474 148.584C84.4966 138.176 107.82 127.563 127.339 118.806M61.8205 145.881C85.4827 136.685 109.476 124.509 127.925 117.074M61.2222 149.049C88.3727 137.572 116.624 128.597 129.398 123.18M63.0942 150.223C76.7599 144.346 92.8821 136.522 129.947 121.358M63.3381 155.525C82.3898 146.735 103.814 137.996 130.711 123.721M63.257 154.82C81.644 147.509 97.57 138.093 130.012 125.088M70.6731 155.4C88.7572 149.414 103.492 139.663 133.432 127.761M69.7967 156.43C91.461 145.922 111.749 136.367 133.217 127.296M76.6328 155.695C82.655 157.299 86.8654 153.761 97.5365 150.924M76.9188 157.629C83.7176 155.222 90.3559 151.595 95.3975 148.893M95.9961 146.915C110.586 142.616 119.854 139.219 134.23 131.052M96.9883 148.197C107.597 142.641 119.774 138.107 133.907 131.742M100.399 150.507C109.689 147.807 116.3 145.079 136.914 136.954M99.4657 152.312C111.713 146.469 123.58 140.278 136.568 134.629M102.991 154.98C113.839 151.023 121.198 147.057 139.789 139.068M100.9 155.354C110.997 150.507 119.222 147.323 138.162 137.833M105.219 160.257C112.405 155.343 121.628 149.029 133.345 145.65M105.776 158.382C113.486 154.988 120.821 151.368 135.617 145.504M108.303 160.996C113.911 157.89 117.943 155.637 130.39 150.192M106.856 160.564C112.848 157.489 120.22 155.694 133.014 150.074M111.196 166.738C115.316 162.309 119.118 160.113 130.585 156.437M110.947 165.127C116.496 160.983 124.789 157.323 130.212 155.467M113.409 167.751C114.655 166.221 118.395 163.52 124.446 161.858M113.088 167.662C116.621 166.438 120.895 164.186 125.213 161.241M115.662 171.099C118.266 169.546 119.676 169.069 122.318 168.321M115.501 170.714C118.285 169.571 120.792 168.003 122.361 167.861M65.477 42.0328C75.1287 33.0705 85.0844 28.1506 101.928 18.8485M63.6523 41.0128C75.1476 35.1267 86.5253 28.2129 100.812 20.4275M61.9462 43.6216C71.8502 38.3849 82.7396 33.082 103.888 21.9268M63.2177 46.2599C75.3064 37.7787 89.9019 30.3923 102.841 22.7799M61.6354 52.7385C72.5106 43.7284 80.899 39.1152 106.35 26.2875M61.9392 50.4557C73.4479 43.4983 86.2629 36.9197 107.334 25.8874M59.2852 55.6299C74.5773 46.9723 93.1747 40.3815 107.922 26.7603M59.5084 55.2103C77.4049 46.0589 93.7617 37.6194 109.235 30.5065M57.9082 61.8196C74.6356 51.4639 87.1384 43.3412 109.4 31.9222M57.0562 60.8853C69.2467 54.0846 81.8973 48.1669 111.415 32.4289M55.3023 66.7745C79.8758 53.5963 101.494 44.0391 114.41 37.9803M57.3138 66.2277C80.3708 53.4458 102.088 43.0711 113.608 35.0977M55.5644 70.9098C67.6299 64.3314 81.3286 58.7657 117.383 39.0709M55.6325 71.764C68.125 64.5738 81.4931 56.9355 115.748 39.6239M53.2979 76.8951C78.0829 63.8824 104.936 51.6071 118.135 44.4815M54.6635 75.7843C70.3887 66.8576 90.0388 57.5576 118.074 43.004M53.1352 81.2055C66.165 72.0586 81.4601 68.4447 120.067 45.3084M51.4928 80.6764C73.4021 69.9196 94.3805 58.8517 120.907 46.7352M51.7139 88.2105C71.675 76.5777 93.7699 63.7916 123.011 50.0717M51.0248 86.577C72.7613 75.1577 93.8099 64.5608 123.468 48.4201M50.7711 90.708C68.2045 82.0415 91.7331 69.6745 126.166 51.6991M49.6304 90.6776C65.4248 83.3397 81.3442 74.6789 125.437 52.064M41.3882 101.299C60.3869 89.4115 79.2826 79.8774 125.851 56.4843M39.3325 99.5935C63.0832 88.6274 85.6436 76.6136 125.571 56.6657M32.9329 107.26C54.4479 95.9688 76.8247 85.5798 125.183 62.5302M32.2113 107.216C53.8056 96.5008 78.2795 85.5938 124.137 60.8255M24.1872 116.715C64.8543 97.6575 102.682 74.9465 123.107 64.0564M23.735 115.073C63.6812 97.3694 102.357 76.0644 124.034 65.0821M24.6264 120.641C47.4032 110.789 70.7968 97.8323 126.332 70.1445M22.2189 121.095C62.8038 100.343 101.458 80.9095 123.778 71.272M25.5196 123.827C50.2635 110.817 76.3521 99.4923 122.548 75.6747M23.4003 125.689C55.877 107.497 89.2684 92.2452 123.421 74.4906M22.0052 128.533C60.0893 111.662 93.2746 96.0713 123.604 78.9602M24.3849 129.084C47.1094 117.413 69.0368 107.225 123.93 78.8641M24.5159 130.909C53.1852 117.906 84.02 101.636 123.648 83.4503M25.1132 133.531C63.5433 114.372 102.067 94.2572 122.969 83.1995M24.7912 135.174C62.7491 117.877 101.243 101.476 123.133 86.7721M25.8211 137.663C49.6658 124.957 71.4689 113.662 124.242 88.1772M26.2428 140.334C47.8743 127.25 70.245 116.34 122.658 91.5659M26.1498 141.43C56.6391 125.946 85.367 111.361 122.346 93.2167M27.3707 146.838C46.2721 133.728 66.3215 122.854 122.463 96.4628M26.7263 145.451C52.0125 133.245 77.1721 119.638 121.716 98.1502M26.6808 147.489C57.9269 132.769 90.1063 120.416 121.999 100.359M26.5892 149.094C58.9935 132.717 92.6295 117.055 122.164 103.451M28.6715 153.623C51.8811 142.983 77.8004 129.072 121.746 107.783M27.8651 153.173C65.0299 134.756 102.144 116.352 122.484 106.215M59.1041 144.071C83.7543 130.697 108.499 116.884 124.62 112.12M60.3815 144.362C80.6928 133.037 98.685 123.34 123.8 109.007M60.2705 145.184C78.7557 138.175 97.0322 127.265 125.631 111.691M62.3686 146.486C76.4448 138.994 90.4159 131.836 126.672 113.871M61.1729 150.935C84.368 138.877 104.243 130.317 128.363 118.613M61.7379 151.158C83.3039 141.243 104.218 130.169 128.134 117.348M62.6271 155.14C89.5703 141.022 114.026 128.402 128.544 118.612M64.0918 155.241C76.7889 147.911 90.1362 140.017 128.067 121.059M71.4697 157.988C81.7995 148.806 95.4088 141.24 131.914 125.827M70.7969 155.806C85.6354 147.94 98.483 140.72 130.547 123.969M74.9419 156.301C88.5131 149.571 101.527 145.295 132.368 127.056M77.241 158.201C96.5474 145.902 116.556 136.18 132.483 128.116M100.102 152.59C107.553 144.64 116.797 141.07 136.084 130.419M98.9552 152.216C108.847 146.94 118.04 140.782 134.569 130.574M100.435 154.897C113.429 148.662 121.095 145.414 136.901 135.763M101.946 154.742C114.613 148.622 127.017 140.955 136.586 134.298M104.565 157.565C112.335 155.368 116.129 151.13 136.059 138.955M105.147 158.133C115.933 152.107 125.616 146.363 138.534 139.663M107.306 159.649C114.208 156.074 119.301 151.612 134.347 143.376M108.254 161.447C114.38 157.336 118.809 154.908 136.191 144.144M110.18 164.658C120.014 158.527 126.325 152.657 130.905 150.686M111.021 164.596C116.139 160.609 121.745 156.193 132.246 150.986M111.541 166.468C119.336 163.121 122.814 160.99 129.707 154.124M112.29 166.976C119.05 163.416 124.378 158.393 129.444 156.035M115.778 172.624C119.996 167.602 122.888 164.48 126.324 161.731M114.883 171.271C118.736 168.115 121.738 166.373 125.116 162.093M83.0242 56.8536C87.467 55.9738 89.8935 54.0909 91.824 52.3242M83.9496 56.3071C86.3824 55.112 89.227 53.7447 92.1774 52.7798M82.299 62.0863C86.3302 57.4569 91.8754 58.6383 98.5063 51.8222M82.6216 60.4971C86.6967 59.114 90.3948 57.6837 98.236 53.5716M80.2891 65.9164C87.583 66.0084 89.5806 61.5475 101.246 56.9845M82.5727 66.8844C89.2082 62.9365 95.2454 59.5156 101.675 56.8428M83.1091 70.6534C87.0476 67.822 97.1679 63.9746 100.227 62.7655M83.1707 70.408C87.198 68.9795 90.4154 66.2757 99.7332 61.9864M90.4545 71.1611C93.5391 70.3774 94.8965 69.6818 101.148 67.2147M89.9351 70.5609C92.5114 70.1702 95.1799 68.5805 100.781 66.3096M83.4364 61.0085C85.6347 60.1297 87.4801 58.3847 92.4602 53.7652M83.042 61.6974C86.1505 58.1593 89.1074 56.0707 91.8964 52.9759M84.5043 65.3862C86.6567 64.7653 91.2851 58.172 96.9351 54.3579M82.1608 65.9732C86.0837 62.9981 91.3847 60.8377 100.076 53.5241M83.4139 68.7414C86.6222 66.3153 89.3338 64.144 103.38 57.6654M82.6085 68.8515C87.8459 67.0375 91.3751 64.207 102.019 57.2826M90.0659 70.1562C91.5278 68.201 95.5383 66.9734 99.9165 60.9935M89.3922 71.284C93.6381 68.2151 96.4235 65.5254 100.834 61.9994M99.4873 15.8761V15.8761ZM84.8006 51.5901V51.5901Z" stroke="white" stroke-linecap="round"/>
</g>
<path d="M79.9368 155.932C77.3244 155.653 74.0694 155.431 67.8219 156.005M80.354 156.723C76.3581 156.243 71.4255 155.288 68.4622 155.28M67.9786 154.852C64.8254 152.922 61.2817 152.192 59.1589 149.454M65.7205 155.62C63.9753 154.404 62.3623 150.384 60.9756 147.46M60.9326 149.015C58.9583 146.927 59.5447 143.691 58.1478 136.847M60.079 147.571C59.8977 144.496 59.0743 145.376 58.293 140.241M59.2889 139.121C50.4332 144.604 45.3022 149.235 33.1903 157.493M58.1093 137.981C52.907 143.086 48.822 145.322 34.1379 157.121M33.9719 156.263C32.0349 155.566 27.5559 157.579 25.9959 158.053M32.6391 157.157C32.3841 156.562 28.305 158.731 29.4384 155.645M27.2006 156.84C24.9072 155.274 24.7406 155.105 22.439 152.127M28.0293 157.524C23.7803 156.27 23.3758 155.628 23.5006 152.545M23.2371 151.404C20.5595 141.876 20.6858 128.724 21.575 123.132M23.0335 150.925C23.5578 140.337 21.2502 130.831 21.3867 122.669M21.1606 122.324C19.2516 116.099 23.8062 109.044 30.013 102.361M22.3482 123.695C22.9105 115.181 22.8667 106.733 30.687 102.77M30.2281 102.141C33.9121 99.171 38.8155 96.136 48.92 92.3818M29.6479 104.069C36.8841 99.0874 43.0756 94.3691 48.3529 90.7532M48.5959 90.6574C48.5159 91.2324 48.7387 89.2394 48.0325 86.5388M47.9221 91.7511C49.6631 88.2862 50.6067 88.8855 47.9712 87.8482M48.5769 87.0921C45.8436 46.5303 73.7991 25.9031 95.7091 17.7127M47.931 88.0983C47.7038 48.1955 74.9722 25.5168 95.8928 17.4888M94.4506 16.6298C97.2936 16.3808 102.081 15.7059 104.081 18.1061M95.8965 16.337C97.795 16.9535 99.5745 15.2018 104.591 17.6629M103.399 18.2046C118.408 34.4914 135.934 59.8182 124.026 99.5501M104.533 16.8177C119.489 31.819 138.436 62.4253 122.29 101.889M122.419 100.112C122.074 99.1144 122.597 102.33 120.814 102.949M120.989 99.0181C121.449 101.219 121.074 103.844 121.135 104.291M121.793 101.781C124.678 107.66 127.249 112.448 132.987 122.39M121.303 103.731C125.123 109.285 128.584 115.1 133.204 123.006M134.263 122.581C138.543 130.211 140.195 135.711 135.092 141.932M134.605 123.34C139.126 131.202 137.698 134.86 136.075 143.239M135.86 141.432C129.838 152.735 128.208 162.313 122.088 169.843M136.759 143.091C134.341 148.294 131.849 153.613 123.986 167.866M124.174 169.01C125.364 170.732 122.145 174.266 116.327 173.343M124.605 170.357C123.414 173.363 121.669 171.131 116.308 173.325M118.658 172.976C117.074 175.735 112.782 172.478 110.846 169.34M117.573 172.361C114.822 171.299 113.222 172.756 114.726 169.619M113.486 172.575C109.274 163.845 101.623 155.663 96.6655 145.662M112.745 171.054C105.47 159.955 100.516 151.472 95.0524 145.406M95.1538 145.355C93.5838 150.371 88.808 151.118 87.8061 152.066M95.1556 146.422C91.4838 146.627 91.4439 150.038 87.8845 154.944M88.8348 153.874C85.523 156.775 82.7192 158.866 81.2419 159.626M91.2297 153.109C86.0333 153.764 83.0981 157.281 79.8826 158.228M97.5471 70.1453C101.711 67.8217 104.273 58.4822 100.48 56.3294M97.5471 70.1453V70.1453ZM98.6093 69.2855C104.121 68.7225 104.504 58.8633 100.906 55.898M100.316 54.4426C96.0236 48.3347 91.1077 47.7927 85.7582 50.0661M99.2736 55.0452C97.4485 51.3752 88.5137 46.7246 84.7936 50.9168M84.6133 51.6738C80.9157 56.2673 78.8906 63.1851 82.9725 65.9161M82.753 52.8155C78.5543 52.3617 77.0527 63.0285 80.187 68.1248M81.8445 67.3765C86.0399 72.5756 90.9767 72.5771 97.6019 69.8261M80.3119 67.6527C85.5578 72.8169 92.5913 73.3821 96.0236 71.3311M80.2545 157.198V157.198Z" stroke="black" stroke-width="2" stroke-linecap="round"/>
<mask id="mask1_319_1429" style="mask-type:alpha" maskUnits="userSpaceOnUse" x="46" y="167" width="46" height="61">
<path d="M63.2571 226.301L63.2568 226.301C62.6477 226.701 61.8032 226.553 61.3668 225.967C56.2994 219.166 52.2711 211.665 49.7091 204.751C47.1408 197.821 46.0698 191.545 46.8414 187.168C48.1044 180.005 51.3428 174.764 55.8229 171.589C60.3032 168.415 66.079 167.269 72.4902 168.4C78.9014 169.53 83.9369 172.583 87.0611 177.1C90.1852 181.616 91.4355 187.649 90.1729 194.809C89.4033 199.174 86.2653 204.699 81.4893 210.333C76.7248 215.953 70.374 221.63 63.2571 226.301ZM80.6537 189.768C81.225 186.528 80.527 183.54 78.8153 181.209C77.1049 178.881 74.4073 177.242 71.0359 176.647C67.6644 176.053 64.5688 176.672 62.1652 178.275C59.7598 179.879 58.082 182.447 57.5116 185.682C57.2274 187.294 56.9028 192.458 64.3496 204.251C65.0939 205.431 66.7749 205.727 67.8782 204.873C78.9088 196.334 80.3701 191.376 80.6537 189.768Z" fill="black" stroke="black"/>
</mask>
<g mask="url(#mask1_319_1429)">
<path d="M47.7845 191.838C48.0025 187.689 49.0658 184.136 49.8839 182.733M47.8481 191.135C47.7094 188.708 48.7104 186.336 49.0887 182.045M47.9925 192.859C49.4979 188.402 52.3342 181.862 51.8936 176.485M48.3069 194.321C49.6106 188.317 50.5524 183.682 51.6114 175.901M50.5985 198.336C53.0737 186.985 54.1471 179.833 53.3829 170.165M50.5542 197.574C51.6804 191.203 53.8551 184.529 54.6063 171.688M50.8439 201.458C53.1951 192.761 54.7777 188.721 57.3601 171.828M52.0612 201.902C52.8352 190.605 55.6391 181.801 56.6023 170.606M54.0012 204.898C56.6838 190.445 58.6917 179.001 60.3271 169.287M52.73 205.615C54.8187 196.147 55.8598 187.447 59.1117 170.707M55.0487 209.035C56.3259 196.575 58.2983 185.749 61.5069 170.645M54.0714 209.027C56.1974 195.029 59.9235 181.089 60.8381 170.156M54.0234 214.566C57.2958 199.694 59.6687 186.974 63.4883 170.255M56.5528 212.16C59.0298 195.958 62.401 179.383 63.0467 171.117M58.2899 216.983C60.1114 203.904 61.0363 195.911 65.3471 171.756M58.2704 215.905C59.873 204.079 62.626 189.18 64.8658 169.183M56.8612 221.935C59.7705 208.628 62.0319 192.693 66.2801 168.7M58.4279 219.556C61.6565 208.904 63.815 197.217 67.5539 169.558M60.6331 222.56C61.6468 210.234 64.8843 197.269 69.1737 169.989M60.4525 224.18C64.8439 203.744 67.4617 181.705 69.0566 167.877M61.4462 227.91C65.7705 210.232 68.393 195.674 72.2529 169.842M61.2256 226.286C64.5763 211.699 65.9906 195.095 71.8955 169.799M65.5498 222.406C66.926 211.365 66.7241 201.078 75.0765 167.847M64.2461 222.804C66.702 211.086 67.9945 200.807 73.5023 168.73M65.7207 220.739C67.7394 206.654 73.9921 191.582 76.2044 168.809M66.425 220.564C70.635 204.419 72.4399 188.496 76.1648 168.844M69.5852 218.126C72.6233 197.375 76.1031 180.385 77.2582 170.353M69.673 218.185C73.1511 203.001 74.6626 186.733 78.6323 170.168M70.3249 213.97C75.0436 204.706 77.9633 190.48 78.0524 169.638M72.2187 216.617C72.9991 204.137 75.1343 194.028 79.5167 170.753M73.4375 214.136C76.9428 202.395 76.6021 192.605 81.5239 170.717M73.5227 212.38C75.5136 204.683 76.9242 195.031 80.4276 173.149M77.8437 212.149C80.6034 196.047 79.4856 183.93 82.2299 175.17M76.6782 210.038C79.806 197 81.6542 185.502 83.4285 174.202M78.6973 206.776C81.2595 197.744 84.6602 184.581 85.604 172.543M78.5345 207.924C80.5496 200.542 81.6801 193.491 85.7375 174.337M80.5035 205.137C82.552 194.725 86.728 180.102 86.3856 176.211M82.3636 205.258C83.0768 193.504 85.8977 181.318 87.1789 175.788M85.9502 201.846C85.0382 194.861 85.997 189.099 87.5269 178.579M84.2999 202.969C86.9422 193.207 86.9313 182.569 89.3524 176.467M88.1727 198.426C87.2015 195.598 87.5272 193.297 89.9186 182.42M87.4746 200.432C86.7414 196.073 88.7121 191.298 89.4644 183.57M88.707 197.391C89.5459 194.584 89.8988 192.51 91.0078 188.948M89.4849 196.982C89.8908 194.473 89.9251 191.084 90.7212 188.388M59.61 188.822C60.2596 186.961 60.4621 185.148 60.7668 184.244M59.5064 189.041C59.7589 187.608 59.778 185.994 60.5553 184.234M59.9559 191.83C62.4195 189.82 61.6215 184.945 62.946 181.594M61.2501 192.09C61.6086 188.932 61.7753 185.512 62.8888 182.488M62.5319 194.459C64.3344 192.636 63.9138 187.372 65.5306 182.138M61.7359 195.377C63.4566 190.548 64.2929 184.812 65.3299 181.36M64.3802 197.748C65.8951 191.724 65.4482 187.311 68.6085 178.656M63.2383 199.381C64.2115 192.661 65.66 186.063 67.3527 178.889M65.7676 202.664C65.6683 197.836 66.0327 192.513 67.7755 177.628M65.4433 203.078C67.216 192.17 68.3211 183.919 69.3906 177.464M67.5368 206.003C66.43 197.287 68.7584 188.861 73.3032 177.649M66.5053 203.808C68.0006 193.175 71.1509 182.752 70.7369 177.519M67.5103 202.441C69.2898 196.058 70.9936 193.311 72.2 180.406M69.878 202.971C71.5101 194.368 71.2296 187.146 72.9379 179.077M73.0403 199.405C72.7202 193.61 73.3625 191.737 73.3868 180.882M71.0505 199.056C72.0498 195.314 73.0956 190.177 74.8938 182.232M74.5502 197.969C75.5418 193.013 74.9958 187.736 76.9846 185.195M74.2336 197.313C75.5924 191.986 76.489 186.883 76.6807 183.558M76.787 194.579C77.775 191.926 77.2111 189.488 77.8144 186.407M76.7753 194.239C77.4616 191.919 77.7823 189.616 78.5555 186.07M79.4027 191.666C79.5551 190.28 79.6147 189.447 80.1121 188.909M79.2362 191.737C79.4383 190.824 79.5172 189.83 79.8713 188.616M46.3951 186.82V186.82ZM57.9952 185.819V185.819Z" stroke="#FFC700" stroke-linecap="round"/>
</g>
<path d="M60.966 226.266C60.3808 228.887 64.3267 225.435 64.2562 228.678M60.966 226.266V226.266ZM60.1993 228.181C63.7894 227.749 63.6999 226.338 62.4514 225.423M63.5315 226.719C76.6605 217.204 90.2319 202.922 91.0952 195.253M62.043 226.817C75.6916 217.576 88.0894 201.606 91.9181 194.19M90.6654 194.896C91.4874 182.36 84.0621 171.983 74.1958 167.942M89.3065 193.42C94.46 178.985 85.6705 171.961 73.453 167.194M72.5771 167.907C59.5721 164.966 49.5143 172.962 45.0493 185.472M72.6218 168.98C58.0891 167.786 48.3894 172.244 48.2461 188.847M46.3491 187.082C44.8914 194.964 52.7632 213.11 62.4038 227.991M45.8285 187.144C45.4335 197.094 49.4403 212.014 62.5572 228.163M70.9492 177.14C78.1155 177.267 81.1779 184.032 82.1164 188.267M70.9492 177.14V177.14ZM72.4016 176.292C78.5652 176.744 83.1705 185.463 81.9033 189.615M80.1614 189.681C79.7127 191.721 77.6893 195.079 67.3826 204.309M80.7951 188.205C80.5725 190.934 76.6121 197.859 69.572 206.769M67.5723 204.477C64.8668 203.831 63.8001 205.388 62.7969 202.311M69.3418 202.799C65.7951 207.16 65.4418 204.995 63.3768 203.566M64.7725 203.984C56.5968 194.013 58.4177 186.23 56.6312 187.702M64.8211 203.303C56.6186 194.234 58.8074 186.76 56.9018 184.322M58.0041 185.769C60.459 179.587 63.7185 177.53 72.6164 178.092M59.8624 183.777C56.8379 179.601 64.3935 177.955 70.9846 176.118" stroke="black" stroke-width="2" stroke-linecap="round"/>
<path d="M121 281C91.8367 319.884 62.7088 314.743 51.8483 311.425M118.462 281.456C91.3324 315.189 63.1068 316.723 48.9699 312.113M49 312C32.0685 308.326 22.9406 280.638 45.0643 268.773M49.1071 309.38C35.2921 303.943 23.9804 281.501 43.5668 266.459M46 268C71.4749 252.507 32.623 250.879 59.1261 239.382M46.5391 269.02C69.7296 255.569 37.9622 254.42 58.9703 237.622" stroke="#F7F7F7" stroke-opacity="0.7" stroke-width="7" stroke-linecap="round"/>
</g>
<defs>
<filter id="filter0_d_319_1429" x="-18.1312" y="0.868652" width="220.994" height="326.646" filterUnits="userSpaceOnUse" color-interpolation-filters="sRGB">
<feFlood flood-opacity="0" result="BackgroundImageFix"/>
<feColorMatrix in="SourceAlpha" type="matrix" values="0 0 0 0 0 0 0 0 0 0 0 0 0 0 0 0 0 0 127 0" result="hardAlpha"/>
<feOffset dx="10"/>
<feGaussianBlur stdDeviation="5"/>
<feComposite in2="hardAlpha" operator="out"/>
<feColorMatrix type="matrix" values="0 0 0 0 0 0 0 0 0 0 0 0 0 0 0 0 0 0 0.25 0"/>
<feBlend mode="normal" in2="BackgroundImageFix" result="effect1_dropShadow_319_1429"/>
<feBlend mode="normal" in="SourceGraphic" in2="effect1_dropShadow_319_1429" result="shape"/>
</filter>
</defs>
</svg>
