<?xml version="1.0" encoding="UTF-8" standalone="no"?>
<svg
   xmlns:dc="http://purl.org/dc/elements/1.1/"
   xmlns:cc="http://creativecommons.org/ns#"
   xmlns:rdf="http://www.w3.org/1999/02/22-rdf-syntax-ns#"
   xmlns:svg="http://www.w3.org/2000/svg"
   xmlns="http://www.w3.org/2000/svg"
   xmlns:sodipodi="http://sodipodi.sourceforge.net/DTD/sodipodi-0.dtd"
   xmlns:inkscape="http://www.inkscape.org/namespaces/inkscape"
   width="311"
   height="128"
   viewBox="0 0 311 128"
   fill="none"
   version="1.1"
   id="svg39"
   sodipodi:docname="space.svg"
   inkscape:version="0.92.5 (2060ec1f9f, 2020-04-08)">
  <metadata
     id="metadata43">
    <rdf:RDF>
      <cc:Work
         rdf:about="">
        <dc:format>image/svg+xml</dc:format>
        <dc:type
           rdf:resource="http://purl.org/dc/dcmitype/StillImage" />
      </cc:Work>
    </rdf:RDF>
  </metadata>
  <sodipodi:namedview
     pagecolor="#ffffff"
     bordercolor="#666666"
     borderopacity="1"
     objecttolerance="10"
     gridtolerance="10"
     guidetolerance="10"
     inkscape:pageopacity="0"
     inkscape:pageshadow="2"
     inkscape:window-width="1366"
     inkscape:window-height="740"
     id="namedview41"
     showgrid="false"
     inkscape:zoom="1.9935692"
     inkscape:cx="151.85308"
     inkscape:cy="34.360509"
     inkscape:window-x="1366"
     inkscape:window-y="0"
     inkscape:window-maximized="1"
     inkscape:current-layer="layer1" />
  <defs
     id="defs37">
    <filter
       id="filter0_d_319_1430"
       x="0"
       y="0"
       width="310.616"
       height="127.974"
       filterUnits="userSpaceOnUse"
       color-interpolation-filters="sRGB">
      <feFlood
         flood-opacity="0"
         result="BackgroundImageFix"
         id="feFlood20" />
      <feColorMatrix
         in="SourceAlpha"
         type="matrix"
         values="0 0 0 0 0 0 0 0 0 0 0 0 0 0 0 0 0 0 127 0"
         result="hardAlpha"
         id="feColorMatrix22" />
      <feOffset
         dx="10"
         id="feOffset24" />
      <feGaussianBlur
         stdDeviation="5"
         id="feGaussianBlur26" />
      <feComposite
         in2="hardAlpha"
         operator="out"
         id="feComposite28" />
      <feColorMatrix
         type="matrix"
         values="0 0 0 0 0 0 0 0 0 0 0 0 0 0 0 0 0 0 0.25 0"
         id="feColorMatrix30" />
      <feBlend
         mode="normal"
         in2="BackgroundImageFix"
         result="effect1_dropShadow_319_1430"
         id="feBlend32" />
      <feBlend
         mode="normal"
         in="SourceGraphic"
         in2="effect1_dropShadow_319_1430"
         result="shape"
         id="feBlend34" />
    </filter>
  </defs>
  <g
     inkscape:groupmode="layer"
     id="layer1"
     inkscape:label="Layer 1">
    <path
       id="path1317"
       d="m 12.722052,96.269728 c -0.161927,0.215347 -0.466485,0.545402 -0.710634,0.970421 -0.250959,0.422217 -0.631465,0.983987 -0.852903,1.599696 -0.236816,0.619163 -0.44827,1.334125 -0.620753,2.132085 -0.142779,0.78387 -0.187337,1.60841 -0.194629,2.50136 -0.0068,0.89374 0.147913,1.75437 0.323065,2.67399 0.19462,0.90576 0.505752,1.76639 0.865321,2.64126 0.386298,0.83994 0.843446,1.65937 1.354948,2.43515 0.540255,0.73943 1.10202,1.48197 1.745137,2.10922 0.634693,0.63913 1.307198,1.22396 2.024781,1.70878 1.409685,1.0036 2.960619,1.6674 4.390316,2.07513 0.728043,0.19197 1.415456,0.32936 2.061793,0.40522 0.637176,0.0856 1.249254,0.083 1.740736,0.0866 0.230066,0.009 0.45386,-0.003 0.654487,-0.0212 -0.214485,-0.1824 -0.441584,-0.38031 -0.687164,-0.59761 -1.214346,-1.0819 -2.765149,-2.5995 -4.153465,-4.26069 -0.696601,-0.82943 -1.334514,-1.70399 -1.899374,-2.54328 -0.263035,-0.43386 -0.51597,-0.85385 -0.755189,-1.25014 -0.211469,-0.41287 -0.410818,-0.80345 -0.59465,-1.1623 -0.152098,-0.37436 -0.289579,-0.71854 -0.413367,-1.02293 -0.136976,-0.29805 -0.186052,-0.58448 -0.2563,-0.80756 -0.127244,-0.45151 -0.198959,-0.70849 -0.198959,-0.70849 0,0 0.09251,0.25169 0.253371,0.69048 0.0892,0.2173 0.158379,0.49365 0.317195,0.7788 0.144727,0.28994 0.307278,0.6165 0.484977,0.97371 0.209619,0.33977 0.435122,0.70743 0.674136,1.0971 0.265293,0.36875 0.545876,0.759 0.836395,1.16372 0.619379,0.78025 1.310156,1.58349 2.055124,2.33878 1.480916,1.51604 3.110994,2.87443 4.374244,3.83337 0.195473,0.14775 0.377434,0.28336 0.55144,0.4106 4.617424,3.64595 10.708616,4.12488 11.041509,4.14668 l 0.07553,-1.10931 c -0.07815,-0.005 -6.324551,-0.49455 -10.755939,-4.19993 -0.0193,-0.37342 -0.03787,-0.77294 -0.09084,-1.18886 -0.06355,-0.60895 -0.156072,-1.26572 -0.28155,-1.93687 -0.12012,-0.67891 -0.292707,-1.35572 -0.477764,-2.05229 -0.183565,-0.69354 -0.42608,-1.3693 -0.680926,-2.04441 -0.275886,-0.66397 -0.555679,-1.32438 -0.896448,-1.94586 -0.353795,-0.62069 -0.676163,-1.23727 -1.088218,-1.80583 -0.774422,-1.1485 -1.652586,-2.18768 -2.628562,-3.10283 -0.451551,-0.46115 -1.004829,-0.89196 -1.5,-1.301675 -0.490673,-0.411802 -1.052014,-0.80008 -1.563016,-1.172627 -0.500615,-0.372075 -1.011372,-0.730758 -1.515264,-1.061 -0.515197,-0.350669 -0.964519,-0.655181 -1.333104,-0.908913 -0.361833,-0.271643 -0.757004,-0.489759 -0.981449,-0.650828 -0.25857,-0.159994 -0.3949,-0.244984 -0.3949,-0.244984 0,0 -0.120771,0.110357 -0.299139,0.328216 z"
       inkscape:connector-curvature="0"
       style="fill:#7ed63e;fill-opacity:0.86250001;stroke-width:0.31742123" />
    <path
       id="path1317-3"
       d="m 64.63482,22.23793 c -0.119223,0.158554 -0.343461,0.401568 -0.523221,0.714492 -0.184774,0.310869 -0.464931,0.724485 -0.62797,1.177816 -0.174361,0.455871 -0.330049,0.982284 -0.457043,1.569801 -0.105125,0.577142 -0.137932,1.184229 -0.1433,1.841684 -0.005,0.658037 0.108904,1.291695 0.237864,1.968787 0.143293,0.666887 0.372371,1.300546 0.637112,1.944689 0.284421,0.618425 0.621007,1.221749 0.997612,1.792935 0.397775,0.544423 0.811389,1.091135 1.284898,1.552963 0.467308,0.470574 0.962455,0.901168 1.490792,1.258128 1.037914,0.738924 2.179825,1.227662 3.232472,1.527863 0.536038,0.141342 1.042162,0.242499 1.518042,0.298353 0.469136,0.06303 0.919793,0.06111 1.281658,0.06376 0.169391,0.0066 0.334165,-0.0022 0.481881,-0.01561 -0.15792,-0.134296 -0.325127,-0.280012 -0.505941,-0.440004 -0.89409,-0.796574 -2.035905,-1.913942 -3.058084,-3.137032 -0.512888,-0.610685 -0.982567,-1.2546 -1.398458,-1.872547 C 68.889469,32.164569 68.703239,31.855341 68.527109,31.563564 68.37141,31.259578 68.224635,30.972005 68.089284,30.707793 67.977298,30.432162 67.876075,30.178751 67.784933,29.954637 67.684081,29.735191 67.647948,29.5243 67.596226,29.360053 67.50254,29.027618 67.449738,28.83841 67.449738,28.83841 c 0,0 0.06811,0.185313 0.18655,0.508382 0.06568,0.159992 0.11661,0.363461 0.233542,0.57341 0.106559,0.213475 0.226241,0.453912 0.357076,0.716916 0.154337,0.250164 0.320369,0.520862 0.496348,0.807766 0.195328,0.2715 0.401914,0.558831 0.615815,0.856815 0.456033,0.574478 0.964632,1.165882 1.513132,1.721981 1.090359,1.11622 2.290542,2.116366 3.220639,2.822408 0.143921,0.108784 0.277894,0.20863 0.40601,0.302314 3.399686,2.684415 7.884467,3.037038 8.129567,3.053089 l 0.05561,-0.816755 c -0.05754,-0.0037 -4.656597,-0.364124 -7.919309,-3.092296 -0.01421,-0.274939 -0.02788,-0.569095 -0.06688,-0.875326 -0.04679,-0.448353 -0.114912,-0.931915 -0.207298,-1.426065 -0.08844,-0.499863 -0.215512,-0.99818 -0.351765,-1.511046 -0.135154,-0.510635 -0.313711,-1.008179 -0.501348,-1.505244 -0.203127,-0.488864 -0.409131,-0.975106 -0.66003,-1.432685 -0.26049,-0.456997 -0.497841,-0.910969 -0.801226,-1.329584 -0.570186,-0.84561 -1.216755,-1.61073 -1.935339,-2.284531 -0.332465,-0.339532 -0.739828,-0.656726 -1.10441,-0.958392 -0.361269,-0.303197 -0.774569,-0.589077 -1.150806,-0.863376 -0.36859,-0.273945 -0.744646,-0.538031 -1.115649,-0.781186 -0.379325,-0.258189 -0.710149,-0.482391 -0.981528,-0.669206 -0.266408,-0.200001 -0.557363,-0.360595 -0.722616,-0.479186 -0.190378,-0.117799 -0.290754,-0.180375 -0.290754,-0.180375 0,0 -0.08892,0.08125 -0.220248,0.241656 z"
       inkscape:connector-curvature="0"
       style="fill:#7ed63e;fill-opacity:0.86250001;stroke-width:0.23370874" />
    <path
       id="path1317-6"
       d="m 113.86669,103.75768 c -0.0808,-0.25704 -0.17169,-0.69684 -0.37501,-1.14284 -0.19707,-0.4499 -0.43213,-1.08639 -0.80369,-1.62498 -0.36541,-0.5531 -0.82346,-1.141374 -1.37168,-1.74631 -0.55406,-0.572582 -1.19839,-1.089005 -1.92004,-1.614978 -0.72257,-0.526028 -1.51229,-0.901475 -2.36186,-1.29467 -0.84965,-0.369293 -1.73046,-0.617584 -2.65107,-0.834806 -0.90777,-0.175142 -1.84013,-0.280742 -2.76866,-0.31674 -0.91573,0.0085 -1.846512,0.03277 -2.730962,0.19026 -0.88919,0.14373 -1.75626,0.349822 -2.56829,0.650801 -1.63682,0.561465 -3.079674,1.435653 -4.24376,2.360417 -0.580064,0.480008 -1.092083,0.958821 -1.530164,1.440059 -0.440671,0.468107 -0.795027,0.967187 -1.084179,1.364627 -0.141311,0.18178 -0.261888,0.37069 -0.363937,0.54439 0.27317,-0.0682 0.566336,-0.13748 0.885999,-0.21056 1.586713,-0.35708 3.723553,-0.73392 5.882491,-0.89504 1.07995,-0.0832 2.1624,-0.0925 3.17364,-0.0628 0.50587,0.0388 0.994592,0.0778 1.456062,0.11417 0.45878,0.0685 0.89239,0.13395 1.29116,0.1935 0.3929,0.0944 0.75276,0.18307 1.07229,0.25971 0.32207,0.0622 0.58349,0.18915 0.80574,0.26196 0.44115,0.15952 0.69182,0.25088 0.69182,0.25088 0,0 -0.25848,-0.0714 -0.70886,-0.19615 -0.22859,-0.054 -0.49353,-0.15875 -0.81783,-0.19572 -0.31998,-0.0512 -0.68011,-0.10925 -1.07399,-0.17283 -0.39828,-0.0275 -0.82848,-0.0583 -1.28445,-0.0909 -0.45426,9.1e-4 -0.934912,0.002 -1.433102,0.002 -0.995,0.0491 -2.05026,0.14283 -3.0981,0.30856 -2.094876,0.32094 -4.148458,0.85493 -5.663695,1.32336 -0.233982,0.0728 -0.450165,0.14181 -0.654929,0.20915 -5.652964,1.63022 -9.589719,6.3029 -9.801335,6.56077 l 0.857801,0.70743 c 0.0496,-0.0606 4.085354,-4.85328 9.678277,-6.29767 0.314795,0.20178 0.650403,0.41934 1.019317,0.61857 0.532006,0.30301 1.119813,0.61027 1.738471,0.89913 0.621861,0.29774 1.272546,0.55161 1.946573,0.80685 0.6707,0.25469 1.36127,0.45109 2.05849,0.6371 0.70042,0.16242 1.40023,0.31959 2.10389,0.40451 0.71061,0.0739 1.399592,0.1709 2.101752,0.16707 1.38464,0.0393 2.74083,-0.0693 4.05317,-0.32975 0.63785,-0.0985 1.31028,-0.29737 1.93172,-0.46129 0.62052,-0.15905 1.26308,-0.38924 1.86352,-0.58767 0.59402,-0.19027 1.18306,-0.39658 1.74497,-0.61387 0.58511,-0.21458 1.09433,-0.4025 1.51525,-0.55436 0.43155,-0.13594 0.839,-0.33015 1.10065,-0.4188 0.28065,-0.11701 0.42913,-0.17834 0.42913,-0.17834 0,0 -0.0194,-0.16245 -0.0926,-0.43432 z"
       inkscape:connector-curvature="0"
       style="fill:#7ed63e;fill-opacity:0.86250001;stroke-width:0.31742123" />
    <path
       id="path1317-7"
       d="m 150.05584,78.060618 c -0.0623,0.211248 -0.20095,0.551163 -0.26616,0.946485 -0.0712,0.395122 -0.20164,0.934189 -0.19485,1.469 -0.004,0.541858 0.0389,1.149799 0.13535,1.810121 0.11518,0.641028 0.31721,1.285063 0.56736,1.970801 0.25034,0.686357 0.61567,1.300803 1.01314,1.954708 0.4084,0.637723 0.89308,1.207522 1.41892,1.774353 0.5363,0.532437 1.12098,1.028874 1.73476,1.47633 0.6254,0.41139 1.26814,0.819004 1.94015,1.115049 0.66897,0.307555 1.35133,0.562708 2.03957,0.728381 1.36668,0.364649 2.7442,0.428687 3.95556,0.331401 0.61237,-0.06153 1.17801,-0.15321 1.69458,-0.280236 0.51234,-0.116945 0.9802,-0.294221 1.35752,-0.432223 0.17873,-0.05896 0.34661,-0.132325 0.49501,-0.20367 -0.21645,-0.07822 -0.447,-0.164703 -0.69725,-0.26074 -1.23956,-0.480536 -2.86149,-1.198291 -4.40015,-2.072512 -0.77086,-0.435523 -1.50971,-0.922403 -2.18254,-1.4032 -0.32563,-0.256837 -0.63956,-0.505949 -0.93621,-0.740839 -0.28014,-0.255534 -0.54462,-0.497475 -0.78814,-0.719565 -0.22366,-0.243054 -0.42748,-0.467188 -0.60943,-0.664783 -0.19023,-0.18896 -0.30982,-0.3942 -0.4275,-0.544871 -0.22673,-0.309239 -0.35522,-0.485451 -0.35522,-0.485451 0,0 0.14289,0.166209 0.39173,0.456075 0.13051,0.140825 0.26263,0.332585 0.46588,0.505419 0.19384,0.180529 0.41181,0.383995 0.65017,0.606585 0.25778,0.2001 0.53572,0.417003 0.83031,0.646889 0.30872,0.20634 0.6353,0.42476 0.97363,0.651418 0.69766,0.419981 1.45656,0.837119 2.24322,1.202025 1.56798,0.736575 3.20501,1.309734 4.4468,1.682124 0.19197,0.05714 0.37012,0.108851 0.53978,0.156432 4.5793,1.468993 9.37993,0.09122 9.64103,0.01257 l -0.2599,-0.870914 c -0.0612,0.01851 -4.98376,1.432648 -9.43766,-0.13512 -0.12174,-0.280358 -0.25039,-0.580909 -0.40997,-0.884205 -0.2231,-0.447999 -0.48198,-0.924348 -0.77026,-1.40225 -0.28641,-0.485375 -0.61236,-0.954124 -0.95353,-1.434426 -0.33916,-0.478409 -0.71837,-0.926322 -1.10682,-1.370209 -0.40138,-0.429329 -0.80473,-0.854814 -1.2436,-1.233033 -0.44863,-0.373882 -0.87201,-0.753622 -1.35032,-1.070906 -0.92183,-0.657515 -1.89176,-1.201626 -2.90107,-1.622762 -0.47777,-0.223743 -1.02476,-0.395119 -1.5212,-0.56699 -0.49359,-0.174758 -1.03456,-0.311265 -1.53248,-0.450143 -0.48983,-0.141494 -0.98359,-0.26983 -1.46396,-0.378358 -0.49487,-0.120926 -0.92608,-0.225384 -1.28094,-0.314084 -0.35482,-0.104348 -0.71983,-0.158166 -0.93779,-0.217206 -0.24378,-0.04844 -0.3725,-0.07447 -0.3725,-0.07447 0,0 -0.0608,0.119072 -0.13503,0.336957 z"
       inkscape:connector-curvature="0"
       style="fill:#7ed63e;fill-opacity:0.86250001;stroke-width:0.25946641" />
    <path
       id="path1317-5"
       d="m 259.09701,9.5338272 c -0.26604,-0.2033164 -0.67325,-0.5849767 -1.19905,-0.8924775 -0.52226,-0.3159436 -1.21668,-0.7942318 -1.97967,-1.0753676 -0.76713,-0.3002586 -1.65356,-0.5699546 -2.6435,-0.7920046 -0.97272,-0.185015 -1.99693,-0.2483669 -3.10651,-0.2660517 -1.11057,-0.017643 -2.18156,0.166839 -3.32605,0.3756094 -1.12745,0.2330936 -2.19995,0.6114093 -3.29061,1.0497755 -1.04752,0.4719129 -2.07023,1.0320816 -3.03922,1.6602103 -0.9241,0.664219 -1.85228,1.355127 -2.63797,2.148257 -0.80037,0.782536 -1.53363,1.612605 -2.14305,2.49964 -1.26079,1.742091 -2.10068,3.662984 -2.62118,5.435697 -0.2456,0.902866 -0.42298,1.755772 -0.5235,2.558234 -0.11253,0.790988 -0.11522,1.55163 -0.12445,2.162347 -0.0134,0.285804 -6.9e-4,0.564032 0.02,0.813521 0.22874,-0.264769 0.47688,-0.545066 0.74929,-0.848146 1.3562,-1.498591 3.25709,-3.411067 5.33484,-5.120231 1.03746,-0.857643 2.13043,-1.641901 3.17886,-2.335724 0.54169,-0.322674 1.06605,-0.632934 1.56083,-0.926372 0.51511,-0.2588 1.00241,-0.502755 1.45012,-0.727728 0.46668,-0.185384 0.89572,-0.352901 1.27517,-0.503782 0.37171,-0.167333 0.72813,-0.225561 1.00602,-0.310691 0.56232,-0.153759 0.88236,-0.240392 0.88236,-0.240392 0,0 -0.31367,0.112513 -0.8605,0.308184 -0.2709,0.108745 -0.61498,0.19204 -0.97087,0.386637 -0.3617,0.17705 -0.76908,0.375886 -1.2147,0.593255 -0.42426,0.257207 -0.88332,0.533883 -1.36987,0.827135 -0.4608,0.326105 -0.94847,0.671 -1.45422,1.028115 -0.97559,0.762142 -1.98044,1.612798 -2.92623,2.531246 -1.89828,1.825654 -3.60209,3.838186 -4.80597,5.398726 -0.18549,0.241483 -0.35577,0.466285 -0.51557,0.681298 -4.57541,5.702729 -5.22947,13.267508 -5.25978,13.680985 l 1.37779,0.104525 c 0.007,-0.09715 0.67572,-7.85463 5.32319,-13.325601 0.46423,-0.02039 0.96088,-0.03962 1.47825,-0.10134 0.75735,-0.07301 1.5744,-0.181704 2.40964,-0.331149 0.84483,-0.1427 1.68756,-0.350639 2.55496,-0.573866 0.86363,-0.221406 1.70573,-0.516242 2.54714,-0.826404 0.82777,-0.336419 1.65116,-0.677722 2.42675,-1.095179 0.77474,-0.433644 1.54408,-0.82829 2.2546,-1.334846 1.43471,-0.951255 2.73457,-2.032482 3.88125,-3.236466 0.57743,-0.556673 1.11814,-1.240056 1.63207,-1.851436 0.51649,-0.605759 1.00442,-1.299573 1.47232,-1.930991 0.46721,-0.618503 0.91788,-1.249745 1.33314,-1.872733 0.44075,-0.636839 0.82351,-1.192248 1.14238,-1.64783 0.34107,-0.44702 0.61594,-0.935986 0.81826,-1.213329 0.20133,-0.319774 0.30826,-0.4883666 0.30826,-0.4883666 0,0 -0.13597,-0.1511526 -0.40497,-0.3749127 z"
       inkscape:connector-curvature="0"
       style="fill:#7ed63e;fill-opacity:0.86250001;stroke-width:0.39446566" />
    <path
       id="path1317-35"
       d="m 150.95843,5.2153905 c -0.11189,-0.1145123 -0.27827,-0.3232097 -0.5059,-0.5049605 -0.22536,-0.1854912 -0.521,-0.4596697 -0.86268,-0.6452897 -0.34232,-0.1949557 -0.7432,-0.3836585 -1.19634,-0.5569572 -0.44756,-0.1545327 -0.92785,-0.2551397 -1.45169,-0.3399755 -0.52436,-0.084581 -1.04383,-0.071386 -1.59979,-0.051475 -0.54958,0.032608 -1.08317,0.1377148 -1.62948,0.2699933 -0.52822,0.1511356 -1.05078,0.3457334 -1.5526,0.5761948 -0.48306,0.2506227 -0.96989,0.5136065 -1.39634,0.8347709 -0.43267,0.3151506 -0.83686,0.6574093 -1.18636,1.0351599 -0.71667,0.7374828 -1.24649,1.5885872 -1.61496,2.3915777 -0.17844,0.4103174 -0.32115,0.8016985 -0.42402,1.1744934 -0.10776,0.3665392 -0.16144,0.726299 -0.2079,1.014659 -0.026,0.134331 -0.0392,0.266867 -0.0466,0.386345 0.12649,-0.109528 0.26322,-0.22506 0.41302,-0.349705 0.74503,-0.6156844 1.77634,-1.3896856 2.87733,-2.0552923 0.55004,-0.3343466 1.12128,-0.630146 1.66522,-0.8862105 0.27857,-0.1153684 0.54808,-0.2260477 0.80244,-0.3308094 0.26159,-0.086967 0.50899,-0.1688187 0.73635,-0.2444294 0.23362,-0.05558 0.44818,-0.1052638 0.63814,-0.1505211 0.18743,-0.053568 0.3601,-0.056551 0.49747,-0.077692 0.27668,-0.033992 0.4341,-0.052944 0.4341,-0.052944 0,0 -0.15619,0.031657 -0.42843,0.086525 -0.13569,0.032782 -0.30425,0.048476 -0.48607,0.116067 -0.18336,0.058847 -0.38984,0.1248672 -0.61569,0.1970182 -0.21848,0.092475 -0.45478,0.1917635 -0.70523,0.297004 -0.24053,0.1225566 -0.49506,0.2521585 -0.759,0.3862963 -0.51417,0.2934251 -1.0483,0.6267045 -1.55915,0.9961464 -1.02408,0.7330933 -1.96903,1.5680218 -2.64625,2.2235118 -0.10442,0.101495 -0.20049,0.196138 -0.29093,0.28686 -2.5581,2.383275 -3.38892,5.917907 -3.43176,6.111468 l 0.64477,0.144454 c 0.01,-0.04541 0.86105,-3.670296 3.43728,-5.93892 0.22108,0.02232 0.45742,0.04749 0.70651,0.05388 0.36341,0.01767 0.75753,0.02256 1.16308,0.0094 0.40961,-0.0093 0.82272,-0.04962 1.24857,-0.09549 0.42393,-0.04525 0.84273,-0.126737 1.26227,-0.215527 0.41489,-0.102151 0.82804,-0.206907 1.22383,-0.351004 0.39649,-0.151819 0.78774,-0.285554 1.15888,-0.476295 0.74446,-0.351266 1.43408,-0.7733299 2.05966,-1.2640393 0.31161,-0.2236281 0.61457,-0.5097526 0.8999,-0.7636404 0.28615,-0.2510605 0.56486,-0.5457565 0.82978,-0.8122983 0.26371,-0.2604859 0.52047,-0.5281302 0.75991,-0.7943174 0.25245,-0.2709767 0.47185,-0.507431 0.65414,-0.7010424 0.1922,-0.1880221 0.35596,-0.4004634 0.47082,-0.517767 0.1173,-0.1374455 0.17953,-0.2098593 0.17953,-0.2098593 0,0 -0.0539,-0.080923 -0.16581,-0.2053191 z"
       inkscape:connector-curvature="0"
       style="fill:#7ed63e;fill-opacity:0.86250001;stroke-width:0.18863276" />
    <path
       id="path1317-62"
       d="m 269.59191,48.407595 c 0.0598,0.262713 0.11508,0.708395 0.28185,1.169303 0.16024,0.464297 0.34334,1.117633 0.67037,1.684369 0.31973,0.580701 0.72897,1.203925 1.22675,1.850999 0.5062,0.6153 1.1069,1.181884 1.78389,1.7642 0.67779,0.582606 1.43487,1.02022 2.25007,1.480475 0.81718,0.436448 1.67517,0.754799 2.57531,1.045367 0.89074,0.247601 1.81158,0.427873 2.73421,0.538445 0.91345,0.06515 1.84317,0.115885 2.73741,0.03005 0.89788,-0.07174 1.77872,-0.207403 2.61232,-0.44208 1.67669,-0.427975 3.18519,-1.183252 4.41989,-2.011373 0.6168,-0.431813 1.16568,-0.867868 1.64106,-1.312296 0.4769,-0.431152 0.87025,-0.900109 1.19045,-1.272993 0.15546,-0.169821 0.29085,-0.348426 0.40654,-0.513348 -0.27778,0.04594 -0.57556,0.09148 -0.90007,0.138611 -1.61029,0.228266 -3.77052,0.431987 -5.93542,0.418906 -1.08314,-0.0039 -2.16283,-0.08179 -3.16841,-0.192653 -0.50111,-0.07942 -0.98511,-0.157591 -1.44216,-0.230926 -0.45178,-0.105229 -0.87872,-0.20532 -1.27141,-0.296751 -0.38403,-0.125688 -0.73559,-0.243028 -1.04792,-0.345135 -0.31602,-0.08794 -0.56638,-0.235469 -0.78206,-0.325932 -0.42688,-0.194482 -0.66938,-0.305719 -0.66938,-0.305719 0,0 0.25189,0.09195 0.69078,0.252548 0.2235,0.07225 0.47916,0.197934 0.79942,0.260871 0.31483,0.07678 0.66913,0.163608 1.05661,0.258668 0.39478,0.05943 0.82111,0.124742 1.27298,0.193954 0.45286,0.03564 0.93201,0.0735 1.42863,0.113118 0.99572,0.03111 2.0551,0.02256 3.11288,-0.05834 2.1139,-0.151364 4.20379,-0.518434 5.7518,-0.863459 0.23905,-0.0538 0.4601,-0.105119 0.66963,-0.15578 5.76579,-1.170163 10.06569,-5.511009 10.29734,-5.751066 L 303.18716,44.7555 c -0.0543,0.05639 -4.46255,4.508904 -10.15354,5.498661 -0.29755,-0.226456 -0.61456,-0.470304 -0.96626,-0.698559 -0.50596,-0.344764 -1.06709,-0.698374 -1.66051,-1.036071 -0.59588,-0.346801 -1.22405,-0.652189 -1.87535,-0.960828 -0.64804,-0.307811 -1.32057,-0.559142 -2.00057,-0.800633 -0.68509,-0.218232 -1.36998,-0.431188 -2.06453,-0.572446 -0.70236,-0.130807 -1.3813,-0.282947 -2.0815,-0.335599 -1.37699,-0.150597 -2.73752,-0.151387 -4.06655,0.0026 -0.64371,0.04687 -1.32996,0.191002 -1.96258,0.304395 -0.6313,0.10861 -1.29029,0.286366 -1.90475,0.435851 -0.6074,0.141865 -1.21113,0.300122 -1.7887,0.471503 -0.60048,0.166823 -1.12316,0.313163 -1.55493,0.430663 -0.44109,0.100785 -0.86285,0.261589 -1.13077,0.328899 -0.28916,0.09406 -0.4421,0.143243 -0.4421,0.143243 0,0 0.006,0.163478 0.0574,0.440364 z"
       inkscape:connector-curvature="0"
       style="fill:#7ed63e;fill-opacity:0.86250001;stroke-width:0.31742123" />
  </g>
  <g
     inkscape:groupmode="layer"
     id="layer2"
     inkscape:label="Layer 2">
    <g
       id="g975"
       transform="matrix(0.1633382,-0.03715989,0.03715989,0.1633382,61.724518,22.745603)"
       style="">
      <path
         id="path911"
         d="m 277.133,217.668 c -6.903,-0.992 -13.957,-1.516 -21.132,-1.516 -7.175,0 -14.229,0.524 -21.132,1.516 -71.59,10.286 -126.793,72.017 -126.793,146.407 0,81.566 66.359,147.925 147.925,147.925 81.566,0 147.925,-66.359 147.925,-147.925 -10e-4,-74.39 -55.203,-136.122 -126.793,-146.407 z M 152.467,385.207 h 40.682 c 1.334,25.621 5.135,50.434 11.593,71.218 -26.503,-14.77 -46.038,-40.6 -52.275,-71.218 z m 40.683,-42.264 h -40.682 c 6.238,-30.618 25.771,-56.447 52.274,-71.217 -6.459,20.785 -10.258,45.597 -11.592,71.217 z m 62.851,124.874 c -6.82,-8.661 -17.836,-36.756 -20.523,-82.611 h 20.523 20.523 c -2.688,45.857 -13.703,73.95 -20.523,82.611 z m 0,-124.874 h -20.523 c 2.688,-45.855 13.705,-73.947 20.523,-82.61 6.82,8.661 17.835,36.754 20.523,82.61 z m 51.259,113.482 c 6.458,-20.784 10.258,-45.599 11.592,-71.218 h 40.684 c -6.242,30.618 -25.773,56.448 -52.276,71.218 z m 11.59,-113.482 c -1.333,-25.621 -5.134,-50.431 -11.592,-71.217 26.504,14.77 46.036,40.599 52.274,71.217 z"
         style="fill:#b3d8f4"
         inkscape:connector-curvature="0" />
      <path
         id="path913"
         d="M 405.161,21.963 C 404.185,13.182 397.852,5.936 389.282,3.794 387.73,3.406 373.535,0 353.923,0 c -36.277,0 -66.996,11.544 -88.837,33.385 -3.26,3.26 -6.29,6.713 -9.085,10.349 -2.795,-3.636 -5.827,-7.089 -9.087,-10.351 C 219.322,5.792 183.375,0 158.079,0 c -19.618,0 -33.807,3.406 -35.362,3.795 -8.568,2.143 -14.901,9.388 -15.877,18.168 -0.934,8.411 -8.03,83.283 30.089,121.404 27.591,27.59 63.537,33.383 88.834,33.383 3.191,0 6.233,-0.092 9.105,-0.245 v 41.163 c 6.903,-0.992 13.957,-1.516 21.132,-1.516 7.175,0 14.229,0.524 21.132,1.516 v -41.163 c 2.873,0.152 5.914,0.245 9.105,0.245 h 0.006 c 36.273,0 66.989,-11.542 88.828,-33.383 38.12,-38.121 31.024,-112.992 30.09,-121.404 z"
         style="fill:#b6e892"
         inkscape:connector-curvature="0" />
      <path
         id="path915"
         d="M 256.001,43.734 C 253.206,40.098 250.174,36.645 246.914,33.383 219.322,5.792 183.375,0 158.079,0 c -19.618,0 -33.807,3.406 -35.362,3.795 -8.568,2.141 -14.901,9.388 -15.877,18.168 -0.934,8.411 -8.03,83.283 30.089,121.404 27.591,27.59 63.537,33.383 88.834,33.383 3.191,0 6.233,-0.092 9.105,-0.245 v 41.163 c 6.903,-0.992 13.957,-1.516 21.132,-1.516 V 43.734 Z"
         style="fill:#7ed63e"
         inkscape:connector-curvature="0" />
      <path
         id="path917"
         d="m 235.476,385.207 h 20.523 v -42.264 h -20.523 c 2.688,-45.855 13.705,-73.947 20.523,-82.61 v -44.182 c -7.175,0 -14.229,0.524 -21.132,1.516 -71.59,10.286 -126.793,72.017 -126.793,146.407 0,81.566 66.359,147.925 147.925,147.925 v -44.182 c -6.818,-8.661 -17.834,-36.754 -20.523,-82.61 z m -83.009,0 h 40.682 c 1.334,25.621 5.135,50.434 11.593,71.218 -26.503,-14.77 -46.038,-40.6 -52.275,-71.218 z m 40.683,-42.264 h -40.682 c 6.238,-30.618 25.771,-56.447 52.274,-71.217 -6.459,20.785 -10.258,45.597 -11.592,71.217 z"
         style="fill:#8cb7e8"
         inkscape:connector-curvature="0" />
      <g
         id="g919">
</g>
      <g
         id="g921">
</g>
      <g
         id="g923">
</g>
      <g
         id="g925">
</g>
      <g
         id="g927">
</g>
      <g
         id="g929">
</g>
      <g
         id="g931">
</g>
      <g
         id="g933">
</g>
      <g
         id="g935">
</g>
      <g
         id="g937">
</g>
      <g
         id="g939">
</g>
      <g
         id="g941">
</g>
      <g
         id="g943">
</g>
      <g
         id="g945">
</g>
      <g
         id="g947">
</g>
    </g>
    <g
       style=""
       id="g1056"
       transform="matrix(0.13731901,0.03730748,-0.03730748,0.13731901,155.44264,-7.043862)">
      <circle
         id="circle977"
         r="256.00299"
         cy="256.00299"
         cx="256.00299"
         style="fill:#6b7f9e" />
      <g
         id="g985">
	<path
   id="path979"
   d="m 100.785,190.283 95.886,-26.121 26.115,95.886 -22.173,-12.679 -42.766,74.076 h 65.817 l -43.414,43.771 50.862,50.444 h -85.793 c -30.614,0 -56.892,-15.174 -72.199,-41.682 -15.307,-26.515 -15.307,-56.856 0,-83.371 l 50.413,-87.318 z"
   style="fill:#5fdc68"
   inkscape:connector-curvature="0" />

	<path
   id="path981"
   d="m 276.396,435.036 -70.564,-69.983 69.983,-70.558 0.109,26.951 h 78.242 l -33.708,-58.382 63.97,16.857 15.131,-57.431 39.321,68.112 c 15.307,26.515 15.307,56.856 0,83.371 -15.307,26.509 -41.585,41.682 -72.199,41.682 h -90.37 l 0.079,19.376 z"
   style="fill:#5fdc68"
   inkscape:connector-curvature="0" />

	<path
   id="path983"
   d="m 328.208,98.908 42.881,74.27 23.493,-13.696 -25.322,96.098 -96.098,-25.322 21.217,-12.37 -38.37,-66.453 -28.059,48.597 -15.949,-58.539 -62.632,17.063 34.441,-59.647 c 15.307,-26.515 41.585,-41.682 72.199,-41.682 30.614,0 56.898,15.172 72.199,41.681 z"
   style="fill:#5fdc68"
   inkscape:connector-curvature="0" />

</g>
      <g
         id="g993">
	<path
   id="path987"
   d="m 212.002,141.492 15.949,58.539 28.059,-48.597 c -47.41,-85.889 -105.053,4.384 -105.053,4.384 l -1.58,2.737 62.632,-17.063 z"
   style="fill:#56bf5d"
   inkscape:connector-curvature="0" />

	<path
   id="path989"
   d="m 384.422,279.926 -63.97,-16.857 33.708,58.382 c 65.169,5.231 73.937,-49.517 45.4,-98.956 z"
   style="fill:#56bf5d"
   inkscape:connector-curvature="0" />

	<path
   id="path991"
   d="m 180.256,365.216 43.414,-43.771 h -65.817 c -32.43,56.777 8.846,94.215 73.265,94.215 z"
   style="fill:#56bf5d"
   inkscape:connector-curvature="0" />

</g>
      <g
         id="g995">
</g>
      <g
         id="g997">
</g>
      <g
         id="g999">
</g>
      <g
         id="g1001">
</g>
      <g
         id="g1003">
</g>
      <g
         id="g1005">
</g>
      <g
         id="g1007">
</g>
      <g
         id="g1009">
</g>
      <g
         id="g1011">
</g>
      <g
         id="g1013">
</g>
      <g
         id="g1015">
</g>
      <g
         id="g1017">
</g>
      <g
         id="g1019">
</g>
      <g
         id="g1021">
</g>
      <g
         id="g1023">
</g>
    </g>
    <g
       style=""
       id="g1131"
       transform="matrix(0.14058373,-0.04707326,0.04707326,0.14058373,4.3714947,36.389504)">
      <path
         id="path1058"
         d="M 333.151,168.329 H 178.849 V 77.151 C 178.849,34.61 213.459,0 256,0 c 42.541,0 77.151,34.61 77.151,77.151 z m -112.219,-7.014 h 70.137 V 77.151 c 0,-19.337 -15.732,-35.068 -35.069,-35.068 -19.337,0 -35.068,15.732 -35.068,35.068 z"
         style="fill:#cfcdd2"
         inkscape:connector-curvature="0" />
      <path
         id="path1060"
         d="m 256,0 v 42.082 c 19.337,0 35.069,15.732 35.069,35.068 v 84.164 H 256 v 7.014 h 77.151 V 77.151 C 333.151,34.61 298.541,0 256,0 Z"
         style="fill:#aeadb3"
         inkscape:connector-curvature="0" />
      <polygon
         id="polygon1062"
         points="87.671,147.288 73.644,512 438.356,512 424.329,147.288 "
         style="fill:#f2f2f4" />
      <polygon
         id="polygon1064"
         points="256,147.288 256,512 438.356,512 424.329,147.288 "
         style="fill:#dfdfe1" />
      <path
         id="path1066"
         d="m 368.219,273.534 c 0,93.041 -75.288,168.329 -168.329,168.329 h -56.11 v -56.11 c 0,-93.041 75.288,-168.329 168.329,-168.329 h 56.11 z"
         style="fill:#6dc180"
         inkscape:connector-curvature="0" />
      <path
         id="path1068"
         d="m 368.219,273.534 v -56.11 L 143.781,441.863 h 56.11 c 93.04,0 168.328,-75.288 168.328,-168.329 z"
         style="fill:#5ca15d"
         inkscape:connector-curvature="0" />
      <rect
         id="rect1070"
         height="138.87"
         width="42.082001"
         style="fill:#4e894d"
         transform="matrix(-0.7071,-0.7071,0.7071,-0.7071,17.6615,820.8969)"
         y="337.35599"
         x="157.80299" />
      <g
         id="g1072">
</g>
      <g
         id="g1074">
</g>
      <g
         id="g1076">
</g>
      <g
         id="g1078">
</g>
      <g
         id="g1080">
</g>
      <g
         id="g1082">
</g>
      <g
         id="g1084">
</g>
      <g
         id="g1086">
</g>
      <g
         id="g1088">
</g>
      <g
         id="g1090">
</g>
      <g
         id="g1092">
</g>
      <g
         id="g1094">
</g>
      <g
         id="g1096">
</g>
      <g
         id="g1098">
</g>
      <g
         id="g1100">
</g>
    </g>
    <g
       style=""
       id="g1218"
       transform="matrix(0.17218959,-0.03788823,0.03788823,0.17218959,201.10424,52.89596)">
      <path
         id="path1133"
         d="M 499.455,256 512,346.106 c 0,23.45 -19.19,42.634 -42.648,42.634 H 461.137 339.514 244.153 120.556 111.204 C 87.748,388.74 68.56,369.506 68.56,346.063 L 73.648,295.841 77.342,256 Z"
         style="fill:#fce64c"
         inkscape:connector-curvature="0" />
      <path
         id="path1135"
         d="M 506.342,305.467 512,346.106 c 0,23.45 -19.19,42.635 -42.648,42.635 h -8.216 -121.622 -95.361 -123.597 -9.352 c -23.456,0 -42.644,-19.234 -42.644,-42.677 l 5.088,-50.222 16.289,-175.687 1.278,-13.517 c 2.208,-23.336 19.204,-42.635 42.651,-42.635 h 57.49 c 14.53,0 4.33,-0.031 15.354,0.149 48.859,0.797 70.864,3.836 118.677,36.03 l 128.4,86.461 c 19.448,13.098 39.418,24.442 42.648,47.669 l 7.129,51.206 h -7.486 -20.242 c -5.511,0 -9.978,4.466 -9.978,9.975 0,5.508 4.467,9.975 9.978,9.975 h 20.242 10.264 z"
         style="fill:#97baa8"
         inkscape:connector-curvature="0" />
      <path
         id="path1137"
         d="m 453.787,186.643 -128.4,-86.461 C 277.574,67.987 255.57,64.949 206.71,64.151 c -11.024,-0.18 -0.825,-0.149 -15.354,-0.149 h -57.491 c -17.615,0 -31.588,10.894 -38.387,26.209 43.155,1.05 121.454,8.996 178.331,43.679 57.878,35.293 160.278,94.669 195.896,99.486 7.51,1.015 16.852,1.745 26.917,2.265 l -0.185,-1.328 c -3.232,-23.227 -23.202,-34.571 -42.65,-47.67 z"
         style="fill:#aaceba"
         inkscape:connector-curvature="0" />
      <path
         id="path1139"
         d="m 110.665,295.842 c 0,5.508 -4.467,9.975 -9.978,9.975 -0.445,0 -44.709,-0.004 -45.389,-0.023 C 24.806,304.933 0,279.418 0,248.916 0,217.538 25.533,192.013 56.918,192.013 h 31.204 c 5.511,0 9.978,4.466 9.978,9.975 0,5.51 -4.467,9.975 -9.978,9.975 H 56.918 c -20.381,0 -36.962,16.577 -36.962,36.951 0,19.78 16.057,36.327 35.811,36.935 2.352,0.011 43.047,0.019 44.92,0.019 5.511,-10e-4 9.978,4.464 9.978,9.974 z"
         style="fill:#677c0f"
         inkscape:connector-curvature="0" />
      <path
         id="path1141"
         d="M 506.342,305.467 512,346.106 c 0,23.45 -19.19,42.635 -42.648,42.635 h -8.216 -121.622 -95.361 -123.597 -9.352 c -23.456,0 -42.644,-19.234 -42.644,-42.677 l 5.088,-50.222 16.289,-175.687 1.278,-13.517 c 2.208,-23.336 19.204,-42.635 42.651,-42.635 h 57.49 c 2.141,0 3.734,-0.001 4.949,-0.001 l 20.484,140.178 c 3.799,25.995 24.536,47.275 46.083,47.275 h 235.95 l 4.743,34.064 v 0 h -7.486 -20.242 c -5.511,0 -9.978,4.466 -9.978,9.975 0,5.508 4.467,9.975 9.978,9.975 h 20.242 10.264 v -0.002 z"
         style="fill:#7e9822"
         inkscape:connector-curvature="0" />
      <path
         id="path1143"
         d="m 196.305,64 c -1.214,0 -2.807,0.001 -4.949,0.001 h -57.491 c -17.615,0 -31.588,10.894 -38.387,26.209 26.637,0.648 66.65,3.921 106.773,14.493 z"
         style="fill:#b1cd3e"
         inkscape:connector-curvature="0" />
      <path
         id="path1145"
         d="M 508.695,322.37 512,346.106 c 0,23.45 -19.19,42.634 -42.648,42.634 h -8.216 -121.622 -95.361 -123.597 -9.352 c -23.456,0 -42.644,-19.234 -42.644,-42.677 l 2.64,-26.066 c 0,0 4.011,24.667 21.738,24.667 17.727,0 383.442,0 399.583,0 16.141,0 16.174,-22.294 16.174,-22.294 z"
         style="fill:#677c0f"
         inkscape:connector-curvature="0" />
      <path
         id="path1147"
         d="m 240.605,388.741 c 0,32.728 -26.536,59.26 -59.276,59.26 -32.74,0 -59.281,-26.532 -59.281,-59.26 0,-32.728 26.541,-59.26 59.281,-59.26 32.74,0 59.276,26.532 59.276,59.26 z m 158.621,-59.26 c -32.74,0 -59.281,26.532 -59.281,59.26 0,32.728 26.542,59.259 59.281,59.259 32.739,0 59.276,-26.532 59.276,-59.26 0,-32.728 -26.535,-59.259 -59.276,-59.259 z"
         style="fill:#234848"
         inkscape:connector-curvature="0" />
      <path
         id="path1149"
         d="m 191.343,388.741 c 0,5.508 -4.467,9.975 -9.978,9.975 -5.511,0 -10.013,-4.466 -10.013,-9.975 0,-5.509 4.432,-9.975 9.943,-9.975 h 0.069 c 5.512,0 9.979,4.465 9.979,9.975 z m 207.919,-9.975 h -0.069 c -5.511,0 -9.943,4.466 -9.943,9.975 0,5.509 4.501,9.975 10.013,9.975 5.511,0 9.978,-4.466 9.978,-9.975 0,-5.509 -4.467,-9.975 -9.979,-9.975 z"
         style="fill:#97baa8"
         inkscape:connector-curvature="0" />
      <path
         id="path1151"
         d="m 161.939,226.616 c 0,5.51 -4.467,9.975 -9.978,9.975 h -34.099 c -5.511,0 -9.978,-4.466 -9.978,-9.975 0,-5.508 4.467,-9.975 9.978,-9.975 h 34.099 c 5.51,0.001 9.978,4.467 9.978,9.975 z M 117.861,187.33 h 34.099 c 5.511,0 9.978,-4.466 9.978,-9.975 0,-5.509 -4.467,-9.975 -9.978,-9.975 h -34.099 c -5.511,0 -9.978,4.466 -9.978,9.975 0,5.51 4.468,9.975 9.978,9.975 z"
         style="fill:#afafaf"
         inkscape:connector-curvature="0" />
      <path
         id="path1153"
         d="m 117.861,240.775 h -30.89 c -16.989,0 -30.89,-13.895 -30.89,-30.878 v -15.821 c 0,-16.983 13.9,-30.879 30.89,-30.879 h 30.89 z"
         style="fill:#cde044"
         inkscape:connector-curvature="0" />
      <g
         id="g1155">
</g>
      <g
         id="g1157">
</g>
      <g
         id="g1159">
</g>
      <g
         id="g1161">
</g>
      <g
         id="g1163">
</g>
      <g
         id="g1165">
</g>
      <g
         id="g1167">
</g>
      <g
         id="g1169">
</g>
      <g
         id="g1171">
</g>
      <g
         id="g1173">
</g>
      <g
         id="g1175">
</g>
      <g
         id="g1177">
</g>
      <g
         id="g1179">
</g>
      <g
         id="g1181">
</g>
      <g
         id="g1183">
</g>
    </g>
    <g
       id="g1375"
       transform="rotate(-75.06122,119.70595,92.662142)"
       style="fill:#7ed63e;fill-opacity:0.59583327">
      <g
         id="g1319"
         style="fill:#7ed63e;fill-opacity:0.59583327">
	
</g>
      <g
         id="g1321"
         style="fill:#7ed63e;fill-opacity:0.59583327">
</g>
      <g
         id="g1323"
         style="fill:#7ed63e;fill-opacity:0.59583327">
</g>
      <g
         id="g1325"
         style="fill:#7ed63e;fill-opacity:0.59583327">
</g>
      <g
         id="g1327"
         style="fill:#7ed63e;fill-opacity:0.59583327">
</g>
      <g
         id="g1329"
         style="fill:#7ed63e;fill-opacity:0.59583327">
</g>
      <g
         id="g1331"
         style="fill:#7ed63e;fill-opacity:0.59583327">
</g>
      <g
         id="g1333"
         style="fill:#7ed63e;fill-opacity:0.59583327">
</g>
      <g
         id="g1335"
         style="fill:#7ed63e;fill-opacity:0.59583327">
</g>
      <g
         id="g1337"
         style="fill:#7ed63e;fill-opacity:0.59583327">
</g>
      <g
         id="g1339"
         style="fill:#7ed63e;fill-opacity:0.59583327">
</g>
      <g
         id="g1341"
         style="fill:#7ed63e;fill-opacity:0.59583327">
</g>
      <g
         id="g1343"
         style="fill:#7ed63e;fill-opacity:0.59583327">
</g>
      <g
         id="g1345"
         style="fill:#7ed63e;fill-opacity:0.59583327">
</g>
      <g
         id="g1347"
         style="fill:#7ed63e;fill-opacity:0.59583327">
</g>
      <g
         id="g1349"
         style="fill:#7ed63e;fill-opacity:0.59583327">
</g>
    </g>
  </g>
</svg>
