<svg width="311" height="128" viewBox="0 0 311 128" fill="none" xmlns="http://www.w3.org/2000/svg">
<g filter="url(#filter0_d_319_1430)">
<path d="M257.624 64.3712C260.501 62.0297 264.116 59.5876 270.901 52.9676M257.512 71.4203C261.18 65.108 265.098 64.6062 274.146 53.862M260.938 74.6044C264.072 69.4738 269.727 63.8837 278.652 56.0756M261.752 80.2696C269.265 71.756 272.772 66.5638 276.967 62.3869M264.915 83.5762C272.712 77.3385 275.36 67.2594 281.751 60.2027M270.579 82.3713C275.043 76.9483 279.118 74.0388 289.616 60.9147M275.689 82.3938C279.822 78.4562 284.061 75.6932 285.983 71.4833M260.993 72.2906C262.877 68.6037 263.707 64.0742 270.561 51.2485M259.308 73.0801C264.223 68.6744 270.037 58.4312 272.781 53.0925M263.371 79.8627C267.281 71.6637 272.954 65.1177 275.94 55.7396M266.111 81.5736C268.831 76.1878 270.149 73.6317 279.061 62.4896M271.784 81.8997C274.997 74.2692 278.345 70.8586 282.249 62.8807M275.841 84.1827C277.621 78.6024 283.215 72.711 286.74 64.3593M257.383 61.1163V61.1163Z" stroke="#FFECAA" stroke-width="2" stroke-linecap="round"/>
<path d="M277.135 59.9302C279.535 60.5391 281.645 60.0112 285.616 61.8334M285.756 61.0487C284.555 62.4367 287.716 63.1872 287.004 60.9335M287.262 62.3144C286.36 62.4045 285.663 63.2792 288.534 63.5611M286.934 63.476C285.027 66.8411 281.761 69.0069 280.827 70.4583M280.671 70.4799C280.282 72.0485 281.336 75.2532 282.889 78.7951M282.135 78.8144C281.196 78.9404 281.65 79.0822 281.154 80.0724M281.379 80.6484C280.258 82.7697 281.843 82.5083 277.704 79.0707M280.245 80.2555C277.21 78.8335 274.802 77.7618 271.804 76.0812M271.856 76.5582C269.787 77.6187 267.286 80.0117 265.14 80.522M264.363 80.7831C265.239 79.5303 263.112 79.7224 261.908 81.4147M262.383 80.6484C263.654 81.6157 261.94 80.4884 262.592 80.4378M261.945 78.89C262.667 76.6348 262.418 72.303 262.858 69.4022M263.347 69.5621C261.078 68.4544 259.404 66.2997 257.461 63.8135M256.968 64.2362C256.573 64.8439 255.012 62.2382 257.247 62.1901M256.505 62.3144C256.225 61.3255 258.941 61.3814 256.771 60.1161M258.425 60.6413C260.826 61.2254 263.294 60.8935 266.245 60.0407M265.815 59.2178C267.168 57.0789 268.119 54.7636 269.7 51.586M270.199 52.0528C271.444 50.7754 272.568 50.2628 272.123 51.8083M271.881 50.9976C273.005 50.0919 273.805 50.2449 271.856 50.6634M273.166 51.3038C274.58 54.4079 276.046 56.128 276.554 60.502M277.336 59.8066V59.8066Z" stroke="black" stroke-width="2" stroke-linecap="round"/>
<path d="M199.558 33.4941C200.861 29.2529 204.018 27.8557 208.229 22.1006M197.453 40.1008C204.247 34.3328 210.047 27.0805 212.878 23.3767M199.344 43.0511C202.934 37.7231 208.342 32.5076 212.7 29.8777M201.219 47.0945C209.256 41.346 212.217 36.8114 217.883 30.7795M206.227 45.7694C213.186 44.1963 217.098 39.227 222.762 29.7263M212.868 46.7682C215.307 45.5582 216.539 43.9785 218.711 39.8167M198.141 38.2343C202.317 33.9487 204.76 31.4952 210.07 22.2459M199.349 43.9099C203.071 40.3544 208.231 33.9428 211.553 23.3077M203.018 44.952C207.143 42.6068 207.537 36.8308 213.795 27.0031M209.878 48.1665C212.872 41.2308 215.141 35.8897 217.673 28.7744M213.885 48.6272C217.237 39.8591 219.646 34.4606 221.956 30.1605M196.876 29.5565V29.5565Z" stroke="#FFECAA" stroke-width="2" stroke-linecap="round"/>
<path d="M213.258 27.6937C216.685 28.648 219.562 28.6288 220.231 29.5983M220.63 29.3742C221.567 31.2587 219.788 29.0614 223.561 28.5619M221.885 30.4289C222.835 30.159 221.115 30.4403 221.894 32.9206M221.628 31.4557C220.493 32.8768 219.621 34.249 216.504 36.3325M217.009 36.7462C216.204 39.6856 217.432 42.8724 217.813 44.7069M217.612 44.1789C216.888 43.4671 217.673 47.1999 217.684 45.8039M216.982 45.7072C217.815 45.3615 214.3 47.7956 214.186 46.4592M215.504 46.4611C213.525 44.3751 212.599 44.2594 208.561 42.8023M208.969 43.0201C206.874 43.3601 205.923 43.8535 202.097 45.2148M202.803 45.8195C202.531 44.3287 199.947 44.9296 200.314 47.4825M201.152 45.7072C202.131 44.7226 199.174 43.1627 199.464 44.1801M200.154 43.591C200.623 43.1009 200.767 41.0091 201.055 36.4654M202.256 36.7469C199.601 35.6569 198.938 33.088 197.197 31.3615M196.64 32.0305C198.147 31.604 196.263 32.0008 196.711 31.1389M196.254 30.4289C196.872 29.5596 195.981 28.2788 197.195 29.5129M197.696 29.4181C198.75 29.6393 201.39 28.9854 205.097 28.6532M204.931 28.1303C205.351 25.81 207.041 24.2264 207.276 22.2353M207.666 21.8776C209.867 20.7963 209.1 21.9561 208.174 20.3682M209.067 20.9983C211.296 20.9699 209.959 21.6495 208.832 23.444M209.841 22.0127C211.516 24.3652 212.226 27.0833 214.024 28.0613M213.613 28.3391V28.3391Z" stroke="black" stroke-width="2" stroke-linecap="round"/>
<path d="M130.218 97.4461C133.381 93.1486 137.917 87.1997 142.046 83.2349M132.821 103.768C136.143 99.7128 139.529 91.7549 150.195 84.0325M131.626 107.887C136.325 102.683 140.065 95.675 150.612 86.0268M133.753 112.088C140.607 101.926 149.243 95.0923 151.912 89.8093M133.91 114.642C144.198 109.341 149.305 100.426 154.459 93.7638M140.12 116.546C147.879 111.428 151.394 104.02 160.48 95.9009M146.928 115.978C150.584 109.685 154.266 104.925 165.358 94.0007M151.609 114.96C154.994 111.227 158.955 107.874 162.495 102.918M158.449 114.784C158.896 114.242 159.313 113.743 159.571 113.358M131.572 102.781C134.247 95.1318 139.267 91.3818 143.34 82.8965M132.656 108.753C138.94 98.3795 142.279 89.5358 148.538 83.2656M133.637 110.819C141.016 104.536 143.174 95.9992 151.395 84.8609M137.222 115.385C141.257 110.274 142.781 104.796 155.078 88.4283M141.186 114.057C144.929 107.424 153.412 99.8981 156.267 94.8009M147.616 116.137C151.818 107.403 155.158 101.969 158.273 95.8155M154.117 116.974C156.141 108.973 157.304 104.112 164.704 95.4651M129.233 93.4319V93.4319Z" stroke="#FFECAA" stroke-width="2" stroke-linecap="round"/>
<path d="M152.191 90.9899C155.217 91.2175 159.538 92.2606 161.991 91.9828M162.882 92.7238C164.993 93.7403 163.422 91.807 164.743 94.9159M164.639 94.2003C164.325 96.682 162.964 96.2858 162.254 95.4706M164.572 95.6397C161.621 97.9848 159.956 98.968 156.395 102.445M157.665 103.21C157.007 105.922 158.041 109.805 157.651 114.2M158.657 113.45C158.214 113.425 157.325 116.492 159.651 116.348M157.775 115.59C158.394 114.311 158.2 115.465 156.759 116.451M154.537 115.51C152.608 113.853 150.3 113.215 145.883 110.588M147.444 111.442C142.79 112.62 139.374 114.739 137.197 114.766M137.924 115.747C137.019 114.353 137.305 114.268 133.683 116.207M135.613 115.59C136.648 113.935 136.238 113.423 132.95 115.24M133.726 114.059C134.524 109.092 136.065 105.307 135.532 103.167M137.034 104.406C133.714 101.421 133.608 100.104 129.873 96.4458M129.296 96.4425C126.862 96.3177 129.544 94.5841 129.681 93.4442M128.756 94.2003C129.343 93.5228 128.969 91.9901 130.989 94.1511M129.615 92.6224C133.59 93.1159 135.734 91.6641 139.608 91.5222M139.833 90.4715C141.814 89.1666 142.633 84.2637 144.506 82.2121M144.732 82.2285C143.307 80.9452 146.44 81.4048 145.657 79.3828M146.694 80.9975C146.272 82.5827 149.174 82.8743 147.794 81.487M149.508 81.6339C148.789 84.1364 150.021 87.5892 153.651 90.5004M153.059 91.2745V91.2745Z" stroke="black" stroke-width="2" stroke-linecap="round"/>
<path d="M12.881 39.0054C18.7964 36.8042 24.5286 32.1569 25.5058 28.1956M8.16805 51.3153C17.5297 41.0027 28.8467 30.9761 34.3601 24.5046M8.63576 58.9264C16.0013 49.4673 28.0304 36.1631 42.4145 22.7567M8.34113 65.8195C20.8238 51.3647 35.6435 35.2878 47.4047 17.853M10.7758 71.0535C21.0272 54.589 36.1098 41.2089 54.9777 16.6108M11.6441 73.733C22.7862 59.3033 34.4855 48.2912 58.6375 19.2541M14.6937 80.5791C21.8546 67.1607 35.1065 52.7809 45.0141 42.5678M13.02 83.6805C22.946 72.863 30.1998 64.3301 46.0783 48.5262M14.597 85.3812C23.0784 75.5508 34.1648 66.4093 44.004 55.9841M21.4683 89.118C29.8286 78.2765 36.0315 69.2316 47.199 61.3554M23.4429 93.1128C29.2617 84.9226 32.6125 83.0061 46.6786 64.3409M25.8928 93.788C32.8677 86.4102 40.2168 75.7706 48.2036 69.4317M30.2123 96.4859C36.0842 88.0084 45.1626 76.7654 51.7862 70.1249M30.2475 100.439C34.8864 92.9238 40.1652 89.9501 52.435 74.2223M34.4573 104.036C37.6913 96.6286 43.5712 93.137 57.529 78.2282M39.7834 102.333C43.5928 97.7672 50.2828 89.122 59.3446 79.3011M44.4195 102.319C50.4982 96.8471 56.2591 89.0169 61.1121 83.668M51.8719 104.837C55.3158 95.1578 64.2023 89.9971 65.6754 85.3229M56.1948 101.848C58.6908 100.64 64.0709 93.5762 70.6291 85.6997M60.8639 102.61C66.8947 98.6816 71.3795 93.2519 74.4518 84.5809M72.3591 94.8173C75.8802 93.2104 77.0066 88.1718 78.998 86.3227M7.65902 52.9883C14.0286 44.6672 20.3336 35.2842 27.488 26.778M7.43884 61.7579C11.299 52.0539 20.7301 46.5713 35.5479 23.539M9.76109 67.179C16.7771 52.6625 26.7647 39.3455 39.4151 21.9839M9.23981 70.7285C19.1191 55.7748 31.0339 42.7339 48.0406 19.5429M11.5375 75.9848C25.3228 55.7507 41.6449 32.5746 54.8404 19.4343M11.8585 78.6986C25.8549 59.5701 41.2882 43.975 59.7147 18.7597M15.7543 82.1027C22.2601 76.0297 27.8664 64.5777 46.1653 44.3249M14.8699 88.4014C25.332 72.6292 37.3505 58.2207 45.5406 47.4808M18.0676 89.1235C28.2544 75.6182 35.2079 65.4622 44.3418 55.1962M23.5663 91.5062C29.9217 80.9783 37.0657 75.2111 44.7791 57.6363M25.4697 92.8034C31.6875 88.9794 33.5754 78.7584 44.9472 65.4162M30.8744 98.8638C32.1134 89.6674 39.1505 80.7352 47.0581 69.8014M32.579 98.0436C36.8666 90.1791 44.4391 83.7649 48.8498 73.028M34.0753 100.974C41.352 94.8499 44.2802 86.495 53.7039 73.9947M39.5217 103.24C46.3781 95.7286 51.3707 86.8203 55.4566 78.5396M45.7147 102.693C49.2356 96.6143 54.5623 87.7011 59.6264 80.7158M48.4893 104.017C53.7925 96.6453 56.1341 91.3268 61.9594 82.9136M54.2174 105.492C56.6949 100.053 60.9033 94.3484 64.756 86.0662M59.9072 103.402C62.76 94.7462 68.2581 89.9153 72.9951 84.1332M72.3074 94.566C72.9102 92.9753 74.2395 90.6088 76.2963 85.4328M19.2318 28.8598V28.8598Z" stroke="#FFECAA" stroke-width="2" stroke-linecap="round"/>
<path d="M6.25 60C6.73934 37.5693 27.2864 17.6553 50.5126 17.4565M6.25 60V60ZM49.9609 16.25C52.1866 16.7368 54.4318 16.6486 57.9617 16.8054M57.9492 16.9816C58.5343 16.4218 60.584 18.408 57.6773 21.8484M58.5896 20.7785C47.2225 24.9555 41.605 39.5422 39.5013 49.8072M41.25 50.5859C43.044 73.6258 61.5101 86.3955 82.2613 84.8657M81.9336 84.2383C85.0413 84.0871 84.4745 87.0362 83.9332 86.8561M83.9082 87.5488C75.0911 96.498 65.3275 104.112 50.8276 102.332M49.9609 103.75C26.2421 103.333 7.41496 82.9515 7.9922 60.8818" stroke="black" stroke-width="2" stroke-linecap="round"/>
</g>
<defs>
<filter id="filter0_d_319_1430" x="0" y="0" width="310.616" height="127.974" filterUnits="userSpaceOnUse" color-interpolation-filters="sRGB">
<feFlood flood-opacity="0" result="BackgroundImageFix"/>
<feColorMatrix in="SourceAlpha" type="matrix" values="0 0 0 0 0 0 0 0 0 0 0 0 0 0 0 0 0 0 127 0" result="hardAlpha"/>
<feOffset dx="10"/>
<feGaussianBlur stdDeviation="5"/>
<feComposite in2="hardAlpha" operator="out"/>
<feColorMatrix type="matrix" values="0 0 0 0 0 0 0 0 0 0 0 0 0 0 0 0 0 0 0.25 0"/>
<feBlend mode="normal" in2="BackgroundImageFix" result="effect1_dropShadow_319_1430"/>
<feBlend mode="normal" in="SourceGraphic" in2="effect1_dropShadow_319_1430" result="shape"/>
</filter>
</defs>
</svg>
