<?xml version="1.0" encoding="UTF-8" standalone="no"?>
<svg
   xmlns:dc="http://purl.org/dc/elements/1.1/"
   xmlns:cc="http://creativecommons.org/ns#"
   xmlns:rdf="http://www.w3.org/1999/02/22-rdf-syntax-ns#"
   xmlns:svg="http://www.w3.org/2000/svg"
   xmlns="http://www.w3.org/2000/svg"
   xmlns:sodipodi="http://sodipodi.sourceforge.net/DTD/sodipodi-0.dtd"
   xmlns:inkscape="http://www.inkscape.org/namespaces/inkscape"
   width="52px"
   height="52px"
   viewBox="0 0 52 52"
   version="1.1"
   id="svg4"
   sodipodi:docname="trend-up.svg"
   inkscape:version="0.92.5 (2060ec1f9f, 2020-04-08)">
  <metadata
     id="metadata10">
    <rdf:RDF>
      <cc:Work
         rdf:about="">
        <dc:format>image/svg+xml</dc:format>
        <dc:type
           rdf:resource="http://purl.org/dc/dcmitype/StillImage" />
      </cc:Work>
    </rdf:RDF>
  </metadata>
  <defs
     id="defs8" />
  <sodipodi:namedview
     pagecolor="#ffffff"
     bordercolor="#666666"
     borderopacity="1"
     objecttolerance="10"
     gridtolerance="10"
     guidetolerance="10"
     inkscape:pageopacity="0"
     inkscape:pageshadow="2"
     inkscape:window-width="1366"
     inkscape:window-height="718"
     id="namedview6"
     showgrid="false"
     inkscape:zoom="6.4183539"
     inkscape:cx="4.73337"
     inkscape:cy="24.182593"
     inkscape:window-x="0"
     inkscape:window-y="23"
     inkscape:window-maximized="1"
     inkscape:current-layer="layer2" />
  <g
     inkscape:groupmode="layer"
     id="layer1"
     inkscape:label="Layer 1">
    <g
       id="g888"
       transform="matrix(0.0632473,0.08008959,-0.08008959,0.0632473,22.670887,-13.42642)"
       style="fill:#22892d;fill-opacity:0.58091287">
      <g
         id="g832"
         style="fill:#22892d;fill-opacity:0.58091287">
	<path
   id="path830"
   d="m 327.421,432.928 20.889,-21.634 13.636,27.888 c 0,0 -17.797,76.023 -41.145,79.429 -23.359,3.393 -65.672,-34.034 -65.672,-34.034 l 9.898,-19.092 9.496,-18.324 18.309,-2.624 9.327,-19.872 24.341,-3.925 z M 236.155,258.096 c -18.92,27.521 -42.998,32.684 -42.998,32.684 v 44.727 c 0,0 1.614,9.588 38.724,1.029 -9.545,-6.585 21.439,-103.407 4.274,-78.44 z m 0,77.41 c -1.483,0.367 -2.899,0.692 -4.279,1.029 0.967,0.669 2.364,0.414 4.279,-1.029 z M 398.692,233.354 369.103,202.145 c 0,0 -13.926,23.182 -37.693,35.722 26.422,1.029 45.495,16.125 45.495,16.125 z m -81.219,-106.219 -7.855,-8.299 c 0,0 -3.7,6.162 -10.013,9.49 7.022,0.275 12.088,4.279 12.088,4.279 z m -161.843,37.985 -7.855,-8.284 c 0,0 -3.7,6.162 -10.013,9.489 7.017,0.272 12.082,4.28 12.082,4.28 z m 177.772,254.024 c 0,0 -0.686,-1.797 -0.13,-3.83 -1.525,1.501 -3.617,2.01 -3.617,2.01 l 1.654,2.979 z m -12.867,-13.181 3.056,5.509 3.854,-2.146 c 0,0 -1.265,-3.34 -0.248,-7.069 -2.808,2.785 -6.662,3.706 -6.662,3.706 z m -58.36,18.844 c 7.016,0.26 12.082,4.279 12.082,4.279 l 5.787,-5.485 -7.858,-8.287 c -10e-4,0 -3.699,6.142 -10.011,9.493 z M 372.413,391.67 c -2.045,2.708 -4.675,4.244 -6.324,5.024 l 40.246,-159.33 -29.542,28.005 -5.822,-4.61 c -0.07,-0.062 -0.785,-0.605 -2.033,-1.428 l -22.112,143.949 1.489,8.015 16.124,-8.015 0.645,-2.529 0.379,2.529 8.535,-1.312 c -0.007,-0.001 -2.234,-4.96 -1.585,-10.298 z m 121.242,-47.817 c -14.896,21.84 -37.817,30.015 -37.817,30.015 l 5.94,29.406 42.149,-8.506 c 0.007,0 -12.246,-24.103 -10.272,-50.915 z M 236.144,329.466 c -0.624,-0.438 -1.327,-0.757 -2.054,-0.958 l 1.108,2.329 z M 67.013,202.145 0,224.11 l 253.392,220.812 8.783,-2.879 z m 172.639,43.258 c 2.816,0 5.456,1.253 7.252,3.449 3.328,4.055 3.251,9.563 0.375,25.053 l 61.262,137.39 h 9.043 L 240.816,61.052 173.093,107.487 235.1,246.57 c 1.334,-0.694 2.829,-1.167 4.552,-1.167 z m 215.572,-201.545 -57.146,25.807 -19.99,130.096 29.813,31.454 z m 107.463,192.309 -55.897,-17.735 -136.753,209.844 4.297,20.652 71.06,-80.273 -0.089,-0.408 0.65,-0.219 z m -163.995,107.686 57.146,-115.783 -20.155,3.145 z m -256.015,-142.169 -4.915,12.602 52.237,58.753 z m 174.424,23.631 9.351,-85.124 -11.845,6.534 z"
   inkscape:connector-curvature="0"
   style="fill:#31c533;fill-opacity:0.48547718" />

</g>
      <g
         id="g834"
         style="fill:#22892d;fill-opacity:0.58091287">
</g>
      <g
         id="g836"
         style="fill:#22892d;fill-opacity:0.58091287">
</g>
      <g
         id="g838"
         style="fill:#22892d;fill-opacity:0.58091287">
</g>
      <g
         id="g840"
         style="fill:#22892d;fill-opacity:0.58091287">
</g>
      <g
         id="g842"
         style="fill:#22892d;fill-opacity:0.58091287">
</g>
      <g
         id="g844"
         style="fill:#22892d;fill-opacity:0.58091287">
</g>
      <g
         id="g846"
         style="fill:#22892d;fill-opacity:0.58091287">
</g>
      <g
         id="g848"
         style="fill:#22892d;fill-opacity:0.58091287">
</g>
      <g
         id="g850"
         style="fill:#22892d;fill-opacity:0.58091287">
</g>
      <g
         id="g852"
         style="fill:#22892d;fill-opacity:0.58091287">
</g>
      <g
         id="g854"
         style="fill:#22892d;fill-opacity:0.58091287">
</g>
      <g
         id="g856"
         style="fill:#22892d;fill-opacity:0.58091287">
</g>
      <g
         id="g858"
         style="fill:#22892d;fill-opacity:0.58091287">
</g>
      <g
         id="g860"
         style="fill:#22892d;fill-opacity:0.58091287">
</g>
      <g
         id="g862"
         style="fill:#22892d;fill-opacity:0.58091287">
</g>
    </g>
  </g>
  <g
     inkscape:groupmode="layer"
     id="layer2"
     inkscape:label="Layer 2">
    <path
       d="m 51.885823,24.87486 a 1.2088335,1.2088335 0 0 1 -1.934934,1.153303 L 43.587344,21.310756 32.4381,34.199334 a 3.5327118,3.5327118 0 0 1 -5.070762,0.758112 L 18.331911,27.309874 6.3859625,41.423929 A 1.1775706,1.1775706 0 0 1 4.695708,41.676633 L 3.996717,41.159466 A 1.1775706,1.1775706 0 0 1 3.7440128,39.469211 L 14.507875,18.999069 a 3.5327118,3.5327118 0 0 1 5.070763,-0.758112 L 28.452272,24.806354 34.942573,14.5847 29.186119,10.756451 A 1.3130433,1.3130433 0 0 1 29.706121,8.455443 L 46.588052,5.9314832 a 2.44893,2.44893 0 0 1 2.689237,2.2005318 z"
       id="path2"
       style="fill:#2cae39;fill-opacity:1;stroke-width:1.04209793"
       inkscape:connector-curvature="0" />
  </g>
</svg>
