<svg width="268" height="161" viewBox="0 0 268 161" fill="none" xmlns="http://www.w3.org/2000/svg">
<path d="M6.73204 145.435C17.0639 131.038 26.2667 118.871 46.3803 97.1497M8.43235 145.867C29.9476 119.382 54.9545 93.0009 91.306 52.3829M9.5301 149.998C38.1055 119.941 62.2192 91.8922 100.892 44.7716M15.5922 152.711C35.3017 127.925 55.413 103.898 104.533 49.9823M18.6369 155.511C43.5821 122.209 73.9819 94.2252 105.867 51.6356M20.3824 158.125C47.3837 130.021 74.9757 98.2029 110.725 53.7969M65.4093 117.116C77.79 101.307 89.6559 85.9916 111.811 59.004M99.543 80.2446C100.636 77.0722 107.594 74.3065 116.634 60.7371M102.539 82.7712C105.863 78.8761 112.201 73.9598 120.397 65.444M103.168 89.428C107.435 82.8688 111.087 78.434 124.491 68.8873M106.615 91.7383C112.854 86.3865 119.732 77.093 124.631 71.6772M110.48 95.735C117.561 88.1472 120.258 82.4278 129.398 73.0653M187.827 5.99599C188.233 5.31208 189.351 3.6794 190.683 3.42986M116.202 95.0983C121.893 90.7477 125.829 82.3924 132.89 75.1221M190.18 9.05902C193.406 6.5608 194.399 5.61121 196.395 3.70179M119.122 100.356C122.18 96.5235 126.529 88.5055 135.23 78.4628M192.96 13.0511C194.007 9.90294 196.016 7.69115 201.94 3.05355M120.353 103.426C125.913 101.519 126.946 95.7184 138.025 82.4098M196.658 15.0101C201.321 11.0352 202.744 9.68875 206.761 4.90731M125.617 106.355C131.584 98.1395 135.52 90.384 139.38 87.3975M198.05 17.8455C206.42 12.3248 208.785 8.67118 215.355 1.07126M125.726 109.572C129.671 104.382 132.936 100.717 144.151 88.6432M201.963 20.5187C204.967 17.0222 212.078 12.4256 217.471 4.48633M129.902 112.647C134.053 107.841 141.171 98.7541 144.754 92.9322M204.732 24.4915C210.285 18.5157 214.026 15.2503 224.591 1M133.26 115.549C139.543 110.057 141.145 105.564 151.936 96.8858M210.225 27.6092C218.117 21.5909 224.46 11.2441 231.39 3.28624M136.253 120.476C139.66 114.251 143.842 108.531 152.725 100.882M211.34 32.4415C220.941 20.1245 230.846 8.74488 235.923 1.09796M140.164 121.174C161.804 96.3193 182.068 75.3887 242.105 3.24147M143.408 126.073C180.983 79.6127 218.396 34.8224 249.018 3.49126M144.862 127.921C179.802 89.332 215.506 49.1298 252.686 3.16091M146.619 132.704C173.156 102.875 197.452 76.4365 256.904 4.28298M151.671 134.94C182.968 97.7432 216.81 58.5044 263.905 3.78211M196.199 89.5345C216.525 67.3646 238.624 39.6602 262.402 11.634M235.713 54.2479C244.913 40.6293 255.803 23.4108 265.325 16.6229M238.815 56.2428C244.827 46.7675 254.07 37.9505 263.968 25.6596M238.402 58.5184C247.944 50.7537 258.283 38.4301 264.297 30.325M243.152 63.5725C249.461 55.8169 253.954 53.0767 264.222 38.6852M247.891 63.0627C254.932 57.3983 258.89 49.3551 261.922 42.7281M248.896 69.394C251.185 62.4144 257.895 57.7948 262.521 49.4357M251.811 70.1084C254.407 68.531 258.499 62.6434 263.573 57.5924M255.389 75.2307C256.833 72.0687 258.665 69.646 264.65 62.8732M259.176 77.1325C259.888 74.4281 261.787 73.1424 263.299 71.2413M261.309 80.2497C262.196 79.6713 263.27 78.5546 264.186 77.0823M23.7896 155.752C19.7736 153.823 14.0393 144.989 4.88648 139.413M25.1735 153.271C21.7787 147.477 14.7926 141.956 6.04596 134.456M31.0328 151.688C25.3372 144.454 18.3365 139.293 11.24 132.646M30.7597 147.365C26.0621 140.74 19.5567 139.099 11.4159 127.541M35.8825 145.74C28.1063 137.225 20.8452 133.297 14.1175 127.296M39.118 141.213C33.172 137.87 30.8887 131.995 19.6489 125.135M40.742 135.778C33.5067 129.949 27.2154 124.776 22.079 120.166M45.6515 133.111C35.2047 125.839 30.0405 120.526 26.7978 117.421M50.1003 133.631C43.6793 127.241 38.6284 123.351 28.6699 114.277M50.2823 129.078C47.4078 122.55 40.2709 118.118 32.0988 112.553M53.4848 124.138C46.7991 122.402 44.2193 114.17 33.2733 106.168M56.6287 121.651C51.8352 116.888 44.8704 112.441 36.6199 102.776M62.0205 117.589C54.1498 114.548 53.2028 110.43 41.6332 102.972M63.1525 117.421C56.8831 110.312 56.294 109.186 43.132 97.9523M64.6371 113.537C62.1784 106.362 56.2443 101.043 48.4179 94.5484M68.6199 109.975C62.2057 103.518 54.6632 96.6886 48.4605 94.9803M74.6339 108.417C67.1527 103.274 62.3442 98.9897 53.8983 88.3365M73.8497 104.983C70.8424 98.165 68.4127 97.827 57.7291 86.328M76.9691 102.556C71.3839 97.1989 66.2503 92.6478 60.0377 83.2613M80.6977 96.0396C79.806 95.8766 73.536 89.6177 61.4251 82.3104M84.7529 92.5787C79.778 92.018 74.5915 85.1956 66.3823 78.4028M88.1323 90.9819C78.127 82.6888 71.4525 79.6784 68.2504 74.6941M89.9876 86.6794C84.5385 81.5178 77.0689 78.6876 69.3872 71.51M92.5468 84.2851C88.4127 78.6041 80.7606 74.6645 76.0389 67.2602M96.6621 83.6287C92.6443 78.2638 90.1547 75.7279 79.031 65.0845M157.205 127.078C132.656 106.873 112.569 87.1941 80.878 63.8063M157.406 123.097C132.69 103.726 107.169 82.6568 83.2338 57.088M161.259 121.619C135.106 96.639 102.574 70.4997 84.9204 58.0529M166.008 118.851C139.455 95.3393 113.915 74.803 90.4271 53.6157M166.524 114.958C145.567 93.7163 118.14 73.8687 93.3799 50.9934M173.076 110.267C165.816 107.919 155.153 98.7225 153.139 95.2807M151.702 93.1938C139.652 84.381 126.478 75.0309 94.4484 48.1156M174.863 106.941C168.001 106.676 166.837 102.838 153.12 91.8639M178.799 106.255C171.244 99.4591 165.915 95.2232 156.034 88.2887M180.497 102.584C171.851 96.5756 164.318 90.9222 162.665 85.82M183.4 99.0008C174.393 92.8229 168.069 88.1374 165.934 84.1734M184.837 98.2099C180.425 90.8999 176.665 87.5597 167.879 78.4993M188.75 94.4215C185.833 89.4977 178.203 83.8871 168.664 76.0267M194.609 91.3609C187.399 88.7765 185.474 81.3474 172.948 75.5061M193.51 85.5578C189.561 81.2173 181.604 74.485 176.984 70.3012M198.933 83.4419C192.958 81.5077 188.043 78.7308 176.83 68.0187M203.391 82.357C194.495 76.025 187.404 71.6598 182.837 66.2885M202.911 77.2378C201.472 74.3345 196.89 68.5487 184.35 60.446M208.644 76.0264C202.302 70.4836 193.222 65.078 186.357 58.825M212.444 72.0736C205.341 67.1958 196.784 63.5687 192.602 54.3349M213.563 68.4758C211.44 65.3224 204.363 58.9439 193.004 50.8643M216.917 65.8525C212.031 61.7991 207.936 60.9725 195.943 50.8663M219.35 64.7005C213.815 55.2534 208.007 50.3473 198.515 46.0499M222.7 58.2195C219.212 52.9721 211.698 49.3582 203.4 41.6826M228.181 57.7039C217.523 50.9813 210.861 42.6445 205.881 40.9853M230.094 54.717C223.037 48.8466 216.78 41.6859 209.076 36.6331M266.069 76.732C247.316 61.5606 229.24 46.8724 214.217 34.6997M264.914 72.1483C244.662 55.6456 224.472 36.345 185.243 2.02109M262.057 68.2459C240.405 46.0681 217.68 27.7006 189.158 1.0725M263.035 60.9925C246.868 48.7124 232.153 33.9077 199.19 1.30655M263.086 52.961C248.922 45.7556 238.896 33.9134 203.874 3.86124M264.798 50.0555C253.048 40.1191 244.287 31.5907 211.523 3.645M264.983 43.5264C249.876 31.2092 237.857 20.9801 215.843 4.17483M263.913 39.8502C249.303 24.2219 237.244 13.4325 222.806 3.29672M263.923 31.4402C252.774 23.3384 242.431 16.6683 231.628 1.59773M266.277 26.9142C258.762 21.6252 251.061 16.1709 237.496 4.14425M265.143 19.3145C259.349 17.8863 253.945 11.9741 244.958 2.43844M264.913 15.9112C260.007 9.94765 256.014 7.6657 248.896 3.71082M265.099 10.1821C261.491 6.51528 259.414 5.20996 255.745 2.53504M1.93497 141.025V141.025ZM184.32 3.43156V3.43156ZM20.132 159.166V159.166ZM152.525 130.619V130.619Z" stroke="#2CAE39" stroke-width="1.5" stroke-linecap="round" stroke-linejoin="round"/>
</svg>
