<svg width="18" height="15" viewBox="0 0 18 15" fill="none" xmlns="http://www.w3.org/2000/svg">
<path d="M17.4574 1.80668C17.3414 1.67556 17.1544 1.64259 17.001 1.72346C16.9055 1.77371 16.7262 1.83966 16.5132 1.90483C16.7819 1.53738 16.9979 1.12596 17.0933 0.756148C17.1345 0.596762 17.0742 0.428738 16.9429 0.333735C16.8116 0.239516 16.6368 0.239516 16.5055 0.333735C16.2987 0.482129 15.3002 0.928097 14.6689 1.07257C13.2422 -0.212733 11.582 -0.346209 9.85605 0.690195C8.45303 1.53267 8.14769 3.24587 8.20723 4.29013C4.99584 3.97214 2.99969 2.22753 1.87605 0.783628C1.79743 0.682343 1.67071 0.628953 1.55163 0.636804C1.42644 0.646226 1.31347 0.717675 1.24935 0.828382C0.718058 1.75094 0.570733 2.77085 0.824926 3.77821C0.963855 4.32782 1.2066 4.81226 1.48827 5.20483C1.35316 5.13652 1.22263 5.05094 1.09973 4.94887C0.986755 4.85308 0.828743 4.83502 0.695158 4.89862C0.562336 4.96379 0.477605 5.10198 0.477605 5.25351C0.477605 6.98321 1.52949 8.13738 2.51192 8.74038C2.35314 8.72075 2.1875 8.68464 2.02032 8.63203C1.87681 8.58728 1.72109 8.63203 1.62186 8.74823C1.52262 8.86365 1.49896 9.02853 1.56079 9.16908C2.11269 10.4245 3.15847 11.2882 4.45234 11.6015C3.32259 12.2838 1.8104 12.6183 0.425697 12.4542C0.246312 12.4283 0.0753225 12.5452 0.018835 12.7227C-0.0376525 12.9001 0.0363919 13.0948 0.194404 13.1859C2.29513 14.399 4.19433 14.8324 5.83552 14.8324C8.22402 14.8324 10.0675 13.9153 11.1896 13.1482C14.2147 11.0833 16.1002 7.37578 15.8376 4.05851C16.3223 3.69027 17.0475 3.01033 17.4971 2.27935C17.5903 2.13174 17.5735 1.93702 17.4574 1.80668Z" fill="#1DA1F2"/>
</svg>
