<?xml version="1.0" encoding="UTF-8" standalone="no"?>
<!-- Generator: Adobe Illustrator 19.0.0, SVG Export Plug-In . SVG Version: 6.00 Build 0)  -->

<svg
   xmlns:dc="http://purl.org/dc/elements/1.1/"
   xmlns:cc="http://creativecommons.org/ns#"
   xmlns:rdf="http://www.w3.org/1999/02/22-rdf-syntax-ns#"
   xmlns:svg="http://www.w3.org/2000/svg"
   xmlns="http://www.w3.org/2000/svg"
   xmlns:sodipodi="http://sodipodi.sourceforge.net/DTD/sodipodi-0.dtd"
   xmlns:inkscape="http://www.inkscape.org/namespaces/inkscape"
   version="1.1"
   id="Layer_1"
   x="0px"
   y="0px"
   viewBox="0 0 512 512"
   style="enable-background:new 0 0 512 512;"
   xml:space="preserve"
   sodipodi:docname="wallet.svg"
   inkscape:version="0.92.5 (2060ec1f9f, 2020-04-08)"><metadata
   id="metadata85"><rdf:RDF><cc:Work
       rdf:about=""><dc:format>image/svg+xml</dc:format><dc:type
         rdf:resource="http://purl.org/dc/dcmitype/StillImage" /></cc:Work></rdf:RDF></metadata><defs
   id="defs83" /><sodipodi:namedview
   pagecolor="#ffffff"
   bordercolor="#666666"
   borderopacity="1"
   objecttolerance="10"
   gridtolerance="10"
   guidetolerance="10"
   inkscape:pageopacity="0"
   inkscape:pageshadow="2"
   inkscape:window-width="1366"
   inkscape:window-height="718"
   id="namedview81"
   showgrid="false"
   inkscape:zoom="0.65186406"
   inkscape:cx="259.51692"
   inkscape:cy="218.21937"
   inkscape:window-x="0"
   inkscape:window-y="23"
   inkscape:window-maximized="1"
   inkscape:current-layer="layer1" />







<g
   id="g38">
	
	
	
	
	
	
	
	
	
</g>



<g
   id="g50">
</g>
<g
   id="g52">
</g>
<g
   id="g54">
</g>
<g
   id="g56">
</g>
<g
   id="g58">
</g>
<g
   id="g60">
</g>
<g
   id="g62">
</g>
<g
   id="g64">
</g>
<g
   id="g66">
</g>
<g
   id="g68">
</g>
<g
   id="g70">
</g>
<g
   id="g72">
</g>
<g
   id="g74">
</g>
<g
   id="g76">
</g>
<g
   id="g78">
</g>
<g
   inkscape:groupmode="layer"
   id="layer1"
   inkscape:label="Layer 1"><g
     id="g971"
     transform="matrix(1.7544389,-0.35950628,0.35950628,1.7544389,2.0106233,33.243965)"
     style="fill:#ffd652;fill-opacity:1;stroke:none;stroke-opacity:1"><g
       id="g909"
       style="fill:#ffd652;fill-opacity:1;stroke:none;stroke-opacity:1">
	<g
   id="g907"
   style="fill:#ffd652;fill-opacity:1;stroke:none;stroke-opacity:1">
		<g
   id="g905"
   style="fill:#ffd652;fill-opacity:1;stroke:none;stroke-opacity:1">
			<path
   id="path895"
   d="m 78.229,49.408 c 1.777,0 3.349,-1.138 3.908,-2.822 L 86.604,33.08 100.11,28.613 c 1.684,-0.559 2.822,-2.131 2.822,-3.908 0,-1.777 -1.138,-3.349 -2.822,-3.908 L 86.604,16.33 82.137,2.822 C 81.578,1.138 80.006,0 78.229,0 76.452,0 74.88,1.138 74.321,2.822 l -4.467,13.506 -13.506,4.467 c -1.684,0.559 -2.822,2.131 -2.822,3.908 0,1.777 1.138,3.349 2.822,3.908 l 13.506,4.467 4.467,13.506 c 0.558,1.686 2.131,2.824 3.908,2.824 z M 74.405,23.494 c 1.234,-0.41 2.204,-1.379 2.614,-2.614 l 1.21,-3.655 1.21,3.655 c 0.41,1.234 1.379,2.204 2.614,2.614 l 3.655,1.21 -3.655,1.21 c -1.234,0.41 -2.204,1.379 -2.614,2.614 l -1.21,3.655 -1.21,-3.655 c -0.41,-1.234 -1.379,-2.204 -2.614,-2.614 l -3.655,-1.21 z"
   inkscape:connector-curvature="0"
   style="fill:#ffd652;fill-opacity:1;stroke:none;stroke-opacity:1" />
			<path
   id="path897"
   d="M 58.937,57.851 45.431,53.384 40.964,39.878 c -0.559,-1.684 -2.131,-2.822 -3.908,-2.822 -1.777,0 -3.349,1.138 -3.908,2.822 L 28.68,53.384 15.174,57.851 c -1.684,0.559 -2.822,2.131 -2.822,3.908 0,1.777 1.138,3.349 2.822,3.908 l 13.506,4.467 4.467,13.506 c 0.559,1.684 2.131,2.822 3.908,2.822 1.777,0 3.349,-1.138 3.908,-2.822 L 45.43,70.134 58.936,65.667 c 1.684,-0.559 2.822,-2.131 2.822,-3.908 0,-1.777 -1.136,-3.349 -2.821,-3.908 z M 40.879,62.97 c -1.234,0.41 -2.204,1.379 -2.614,2.614 l -1.21,3.655 -1.21,-3.655 C 35.435,64.35 34.466,63.38 33.231,62.97 l -3.655,-1.21 3.655,-1.21 c 1.234,-0.41 2.204,-1.379 2.614,-2.614 l 1.21,-3.655 1.21,3.655 c 0.41,1.234 1.379,2.204 2.614,2.614 l 3.655,1.21 z"
   inkscape:connector-curvature="0"
   style="fill:#ffd652;fill-opacity:1;stroke:none;stroke-opacity:1" />
			<path
   id="path899"
   d="m 120.697,197.84 -13.506,-4.467 -4.467,-13.506 c -0.559,-1.684 -2.131,-2.822 -3.908,-2.822 -1.777,0 -3.349,1.138 -3.908,2.822 l -4.467,13.506 -13.506,4.467 c -1.684,0.559 -2.822,2.131 -2.822,3.908 0,1.777 1.138,3.349 2.822,3.908 l 13.506,4.467 4.467,13.506 c 0.559,1.684 2.131,2.822 3.908,2.822 1.777,0 3.349,-1.138 3.908,-2.822 l 4.467,-13.506 13.506,-4.467 c 1.684,-0.559 2.822,-2.131 2.822,-3.908 0,-1.777 -1.138,-3.349 -2.822,-3.908 z m -18.058,5.118 c -1.234,0.41 -2.204,1.379 -2.614,2.614 l -1.21,3.655 -1.21,-3.655 c -0.41,-1.234 -1.379,-2.204 -2.614,-2.614 l -3.655,-1.21 3.655,-1.21 c 1.234,-0.41 2.204,-1.379 2.614,-2.614 l 1.21,-3.655 1.21,3.655 c 0.41,1.234 1.379,2.204 2.614,2.614 l 3.655,1.21 z"
   inkscape:connector-curvature="0"
   style="fill:#ffd652;fill-opacity:1;stroke:none;stroke-opacity:1" />
			<path
   id="path901"
   d="m 211.277,53.734 -19.69,-6.518 -6.518,-19.69 c -0.559,-1.685 -2.132,-2.823 -3.909,-2.823 -1.777,0 -3.349,1.138 -3.908,2.822 l -6.518,19.69 -19.69,6.518 c -1.685,0.559 -2.823,2.132 -2.823,3.909 0,1.777 1.138,3.349 2.822,3.908 l 19.69,6.518 6.518,19.69 c 0.559,1.685 2.132,2.823 3.909,2.823 1.777,0 3.349,-1.138 3.908,-2.822 l 6.518,-19.69 19.69,-6.518 c 1.685,-0.559 2.823,-2.132 2.823,-3.909 0,-1.777 -1.137,-3.349 -2.822,-3.908 z m -24.241,7.169 c -1.234,0.41 -2.204,1.379 -2.614,2.614 l -3.261,9.847 -3.261,-9.847 c -0.41,-1.234 -1.379,-2.204 -2.614,-2.614 l -9.847,-3.261 9.847,-3.261 c 1.234,-0.41 2.204,-1.379 2.614,-2.614 l 3.261,-9.847 3.261,9.847 c 0.41,1.234 1.379,2.204 2.614,2.614 l 9.847,3.261 z"
   inkscape:connector-curvature="0"
   style="fill:#ffd652;fill-opacity:1;stroke:none;stroke-opacity:1" />
			<path
   id="path903"
   d="m 155.633,117.552 -24.286,-8.037 -8.037,-24.286 c -0.559,-1.685 -2.132,-2.823 -3.909,-2.823 -1.777,0 -3.349,1.138 -3.908,2.822 l -8.037,24.286 -24.286,8.037 c -1.685,0.559 -2.822,2.131 -2.822,3.908 0,1.777 1.138,3.349 2.822,3.908 l 24.286,8.037 8.037,24.286 c 0.559,1.685 2.131,2.822 3.908,2.822 1.777,0 3.349,-1.138 3.908,-2.822 l 8.037,-24.286 24.286,-8.037 c 1.685,-0.559 2.822,-2.131 2.822,-3.908 0,-1.777 -1.136,-3.348 -2.821,-3.907 z m -28.837,8.689 c -1.234,0.41 -2.204,1.379 -2.614,2.614 l -4.781,14.443 -4.781,-14.443 c -0.41,-1.234 -1.379,-2.204 -2.614,-2.614 l -14.443,-4.781 14.443,-4.781 c 1.234,-0.41 2.204,-1.379 2.614,-2.614 l 4.781,-14.443 4.781,14.443 c 0.41,1.234 1.379,2.204 2.614,2.614 l 14.443,4.781 z"
   inkscape:connector-curvature="0"
   style="fill:#ffd652;fill-opacity:1;stroke:none;stroke-opacity:1" />
		</g>
	</g>
</g><g
       id="g911"
       style="fill:#ffd652;fill-opacity:1;stroke:none;stroke-opacity:1">
</g><g
       id="g913"
       style="fill:#ffd652;fill-opacity:1;stroke:none;stroke-opacity:1">
</g><g
       id="g915"
       style="fill:#ffd652;fill-opacity:1;stroke:none;stroke-opacity:1">
</g><g
       id="g917"
       style="fill:#ffd652;fill-opacity:1;stroke:none;stroke-opacity:1">
</g><g
       id="g919"
       style="fill:#ffd652;fill-opacity:1;stroke:none;stroke-opacity:1">
</g><g
       id="g921"
       style="fill:#ffd652;fill-opacity:1;stroke:none;stroke-opacity:1">
</g><g
       id="g923"
       style="fill:#ffd652;fill-opacity:1;stroke:none;stroke-opacity:1">
</g><g
       id="g925"
       style="fill:#ffd652;fill-opacity:1;stroke:none;stroke-opacity:1">
</g><g
       id="g927"
       style="fill:#ffd652;fill-opacity:1;stroke:none;stroke-opacity:1">
</g><g
       id="g929"
       style="fill:#ffd652;fill-opacity:1;stroke:none;stroke-opacity:1">
</g><g
       id="g931"
       style="fill:#ffd652;fill-opacity:1;stroke:none;stroke-opacity:1">
</g><g
       id="g933"
       style="fill:#ffd652;fill-opacity:1;stroke:none;stroke-opacity:1">
</g><g
       id="g935"
       style="fill:#ffd652;fill-opacity:1;stroke:none;stroke-opacity:1">
</g><g
       id="g937"
       style="fill:#ffd652;fill-opacity:1;stroke:none;stroke-opacity:1">
</g><g
       id="g939"
       style="fill:#ffd652;fill-opacity:1;stroke:none;stroke-opacity:1">
</g></g></g><g
   inkscape:groupmode="layer"
   id="layer2"
   inkscape:label="Layer 2"><g
     id="g6"
     transform="matrix(0.79987362,0,0,0.79987362,79.771233,103.57831)">
	<path
   style="fill:#5ac779"
   d="M 422.815,300.756 271.423,6.383 C 269.457,2.56 264.788,1.015 260.932,2.914 L 4.406,129.073 c -2.697,1.326 -4.405,4.071 -4.405,7.075 v 172.419 c 0,2.105 0.842,4.123 2.339,5.605 1.476,1.462 3.47,2.28 5.546,2.28 0.026,0 0.055,0 0.081,0 l 407.918,-4.205 c 2.735,-0.028 5.259,-1.471 6.671,-3.812 1.412,-2.342 1.509,-5.247 0.259,-7.679 z"
   id="path2"
   inkscape:connector-curvature="0" />
	<path
   style="fill:#5ac779"
   d="M 271.423,6.383 C 269.457,2.56 264.788,1.015 260.932,2.914 L 4.406,129.073 c -2.697,1.326 -4.405,4.071 -4.405,7.075 v 3.654 L 290.639,43.744 Z"
   id="path4"
   inkscape:connector-curvature="0" />
</g><path
     style="fill:#aff078;stroke-width:0.79987359"
     d="M 455.56945,345.91041 418.5681,140.72203 c -0.6255,-3.46505 -4.09855,-5.79188 -7.54121,-5.0448 L 84.744044,206.31647 c -2.901935,0.62789 -4.972811,3.19469 -4.972811,6.16382 V 350.3937 c 0,1.68294 0.672697,3.29549 1.868508,4.4809 1.180604,1.17021 2.777153,1.82691 4.4385,1.82691 0.01844,0 0.03843,0 0.05842,0 l 363.284199,-3.36347 c 1.85811,-0.0176 3.61463,-0.85267 4.80004,-2.28364 1.18541,-1.43338 1.67813,-3.31468 1.34859,-5.14399 z"
     id="path10"
     inkscape:connector-curvature="0" /><path
     style="fill:#ffd652;stroke-width:0.79987359"
     d="M 437.5891,206.17329 H 86.078241 c -3.484259,0 -6.307008,2.82355 -6.307008,6.307 v 292.64576 c 0,3.48346 2.822749,6.30701 6.307008,6.30701 H 437.5891 c 17.38925,0 31.53502,-14.14656 31.53502,-31.53502 V 237.70831 c 0,-17.38926 -14.14658,-31.53502 -31.53502,-31.53502 z"
     id="path14"
     inkscape:connector-curvature="0" /><path
     style="fill:#ff7452;stroke-width:0.88419467"
     d="m 419.37892,464.77528 c 3.85068,0 6.97189,-3.12121 6.97189,-6.97187 V 259.80214 c 0,-3.85066 -3.12121,-6.97187 -6.97189,-6.97187 H 80.015265 v 211.94501 z"
     id="path18"
     inkscape:connector-curvature="0"
     sodipodi:nodetypes="ssssccs" /><path
     style="fill:#5ac779;stroke-width:0.79987359"
     d="M 482.99952,290.2664 H 327.4265 c -10.43275,0 -18.921,8.48746 -18.921,18.92101 v 99.23073 c 0,10.43355 8.48825,18.92101 18.921,18.92101 h 155.57302 c 3.48426,0 6.307,-2.82355 6.307,-6.30701 V 296.57341 c 0,-3.48265 -2.82274,-6.30701 -6.307,-6.30701 z"
     id="path40"
     inkscape:connector-curvature="0" /><g
     id="g48"
     transform="matrix(0.79987362,0,0,0.79987362,79.771233,103.57831)">
	
	<path
   style="fill:#00a085"
   d="m 420.008,291.221 c 4.356,0 7.885,-3.53 7.885,-7.885 0,-4.355 -3.529,-7.885 -7.885,-7.885 h -21.552 v -8.936 c 0,-4.355 -3.529,-7.885 -7.885,-7.885 -4.356,0 -7.885,3.53 -7.885,7.885 v 8.936 h -6.834 c -10.144,0 -18.398,8.254 -18.398,18.398 v 16.821 c 0,10.144 8.254,18.398 18.398,18.398 h 6.834 v 22.078 h -21.552 c -4.356,0 -7.885,3.53 -7.885,7.885 0,4.355 3.529,7.885 7.885,7.885 h 21.552 v 8.936 c 0,4.355 3.529,7.885 7.885,7.885 4.356,0 7.885,-3.53 7.885,-7.885 v -8.936 h 6.834 c 10.144,0 18.398,-8.254 18.398,-18.398 v -16.821 c 0,-10.144 -8.254,-18.398 -18.398,-18.398 h -6.834 v -22.078 z m -14.718,37.848 c 1.45,0 2.628,1.18 2.628,2.628 v 16.821 c 0,1.449 -1.179,2.628 -2.628,2.628 h -6.834 v -22.078 h 6.834 z m -22.604,-15.77 h -6.834 c -1.45,0 -2.628,-1.18 -2.628,-2.628 V 293.85 c 0,-1.449 1.179,-2.628 2.628,-2.628 h 6.834 z"
   id="path46"
   inkscape:connector-curvature="0" />
</g></g></svg>